<svg width="625" height="624" viewBox="0 0 625 624" fill="none" xmlns="http://www.w3.org/2000/svg">
<circle cx="164.692" cy="459.272" r="163.735" fill="#CD354E" stroke="#CD354E"/>
<circle cx="460.021" cy="459.272" r="163.735" stroke="#CD354E"/>
<circle cx="460.021" cy="164.812" r="163.735" stroke="#CD354E"/>
<circle cx="164.692" cy="164.812" r="163.735" stroke="#CD354E"/>
<path d="M238.817 140.371H225.36V138.581H238.817V140.371ZM232.102 141.132C233.193 141.132 234.158 141.272 234.996 141.551C235.834 141.822 236.481 142.216 236.938 142.732C237.396 143.24 237.624 143.845 237.624 144.547C237.624 145.233 237.396 145.83 236.938 146.337C236.481 146.837 235.834 147.226 234.996 147.505C234.158 147.776 233.193 147.912 232.102 147.912C230.993 147.912 230.02 147.776 229.182 147.505C228.352 147.226 227.709 146.837 227.252 146.337C226.803 145.83 226.579 145.233 226.579 144.547C226.579 143.845 226.803 143.24 227.252 142.732C227.709 142.216 228.352 141.822 229.182 141.551C230.02 141.272 230.993 141.132 232.102 141.132ZM232.102 142.795C231.45 142.778 230.883 142.842 230.4 142.986C229.918 143.13 229.541 143.333 229.271 143.595C229 143.858 228.864 144.175 228.864 144.547C228.864 144.894 229 145.199 229.271 145.461C229.541 145.715 229.918 145.91 230.4 146.045C230.891 146.172 231.458 146.236 232.102 146.236C232.745 146.236 233.308 146.172 233.79 146.045C234.272 145.91 234.645 145.715 234.907 145.461C235.17 145.199 235.301 144.894 235.301 144.547C235.301 144.175 235.17 143.858 234.907 143.595C234.645 143.333 234.272 143.13 233.79 142.986C233.308 142.842 232.745 142.778 232.102 142.795ZM233.27 139.545H230.87V136.486H233.27V139.545ZM233.27 150.108H230.87V146.985H233.27V150.108ZM243.4 151.911H240.976V136.676H243.4V151.911ZM243.4 159.363H240.976V154.818H227.887V152.914H243.4V159.363ZM224.624 149.384C227.409 149.393 230.007 149.35 232.419 149.257C234.831 149.164 237.104 148.978 239.236 148.699L239.414 150.375C237.222 150.738 234.937 150.98 232.559 151.098C230.18 151.217 227.65 151.276 224.967 151.276L224.624 149.384Z" fill="#CD354E"/>
<path d="M222.268 159.363H219.83V136.613H222.268V159.363ZM215.514 139.063C215.514 141.382 215.154 143.528 214.435 145.5C213.724 147.463 212.581 149.274 211.007 150.933C209.433 152.583 207.385 154.014 204.863 155.224L203.568 153.269C205.76 152.236 207.558 151.035 208.963 149.664C210.377 148.292 211.422 146.761 212.099 145.068C212.776 143.375 213.115 141.505 213.115 139.457V139.063H215.514ZM214.156 140.993H204.672V139.063H214.156V140.993Z" fill="#CD354E"/>
<path d="M197.954 156.544H177.134V154.551H197.954V156.544ZM188.407 141.919C188.407 143.468 188.009 144.873 187.214 146.134C186.418 147.395 185.318 148.441 183.913 149.27C182.516 150.099 180.934 150.679 179.165 151.009L178.225 149.067C179.783 148.813 181.171 148.339 182.389 147.645C183.617 146.951 184.573 146.109 185.259 145.119C185.953 144.128 186.3 143.062 186.3 141.919V141.437H188.407V141.919ZM188.75 141.919C188.75 143.062 189.093 144.128 189.778 145.119C190.472 146.109 191.433 146.951 192.66 147.645C193.896 148.339 195.288 148.813 196.837 149.067L195.872 151.009C194.094 150.679 192.503 150.099 191.098 149.27C189.702 148.441 188.602 147.395 187.798 146.134C187.002 144.873 186.604 143.468 186.604 141.919V141.437H188.75V141.919ZM196.024 142.084H179.025V140.129H196.024V142.084ZM188.699 140.866H186.325V137.108H188.699V140.866Z" fill="#CD354E"/>
<path d="M169.585 144.941H165.776V143.024H169.585V144.941ZM175.361 153.663H173.063V136.638H175.361V153.663ZM170.905 153.091H168.595V137.083H170.905V153.091ZM176.009 158.918H160.381V156.925H176.009V158.918ZM162.831 158.144H160.381V151.784H162.831V158.144ZM158.451 148.115C160.423 148.115 161.98 148.081 163.123 148.013C164.266 147.937 165.421 147.78 166.589 147.543L166.83 149.473C165.586 149.719 164.359 149.879 163.148 149.956C161.947 150.032 160.381 150.07 158.451 150.07H156.979V148.115H158.451ZM165.649 140.421H159.289V148.813H156.979V138.454H165.649V140.421ZM164.735 145.131H158.565V143.265H164.735V145.131Z" fill="#CD354E"/>
<path d="M151.918 139.596H137.242V137.654H151.918V139.596ZM153.01 139.634C153.01 140.616 153.001 141.45 152.984 142.135C152.967 142.821 152.912 143.591 152.819 144.446C152.726 145.301 152.582 146.21 152.388 147.175L150.001 146.972C150.204 146.041 150.352 145.161 150.445 144.332C150.538 143.502 150.593 142.753 150.61 142.084C150.627 141.416 150.636 140.599 150.636 139.634V137.654H153.01V139.634ZM136.976 144.255L136.658 142.237L151.334 141.805V143.595L136.976 144.255ZM155.511 150.514H134.83V148.572H155.511V150.514ZM145.443 149.829H143.019V145.398H145.443V149.829ZM153.505 159.02H137.382V157.065H153.505V159.02ZM139.807 157.903H137.382V152.279H139.807V157.903Z" fill="#CD354E"/>
<path d="M126.093 143.671C126.026 143.113 125.831 142.63 125.509 142.224C125.188 141.818 124.752 141.513 124.202 141.31C123.66 141.107 123.034 141.005 122.323 141.005C121.586 141.005 120.939 141.12 120.38 141.348C119.822 141.577 119.39 141.898 119.085 142.313C118.781 142.719 118.628 143.185 118.628 143.709C118.628 144.48 118.946 145.072 119.581 145.487C120.215 145.902 121.015 146.232 121.98 146.477L123.745 146.947C125.277 147.319 126.542 147.903 127.541 148.699C128.548 149.494 129.051 150.641 129.051 152.139C129.051 153.172 128.78 154.098 128.239 154.919C127.706 155.732 126.923 156.371 125.89 156.836C124.866 157.293 123.647 157.522 122.234 157.522C120.871 157.522 119.682 157.306 118.667 156.875C117.651 156.434 116.86 155.812 116.292 155.008C115.725 154.196 115.412 153.235 115.353 152.126H118.146C118.205 152.761 118.421 153.299 118.793 153.739C119.166 154.179 119.648 154.509 120.241 154.729C120.833 154.949 121.493 155.059 122.221 155.059C123 155.059 123.698 154.936 124.316 154.691C124.934 154.445 125.416 154.098 125.763 153.65C126.11 153.193 126.284 152.672 126.284 152.088C126.284 151.581 126.14 151.153 125.852 150.806C125.564 150.459 125.171 150.176 124.671 149.956C124.181 149.727 123.563 149.511 122.818 149.308L120.634 148.737C119.094 148.314 117.913 147.708 117.092 146.921C116.271 146.126 115.861 145.106 115.861 143.862C115.861 142.821 116.144 141.903 116.711 141.107C117.287 140.311 118.066 139.694 119.047 139.253C120.038 138.805 121.151 138.581 122.386 138.581C123.613 138.581 124.705 138.801 125.662 139.241C126.626 139.672 127.384 140.273 127.934 141.043C128.484 141.814 128.772 142.69 128.797 143.671H126.093Z" fill="#CD354E"/>
<path d="M113.644 157.217H111.08L101.761 143.773H101.596V157.217H98.8035V138.834H101.393L110.699 152.292H110.864V138.834H113.644V157.217Z" fill="#CD354E"/>
<path d="M94.1113 143.671C94.0436 143.113 93.849 142.63 93.5273 142.224C93.2057 141.818 92.7699 141.513 92.2197 141.31C91.6781 141.107 91.0518 141.005 90.3408 141.005C89.6045 141.005 88.957 141.12 88.3984 141.348C87.8398 141.577 87.4082 141.898 87.1035 142.313C86.7988 142.719 86.6465 143.185 86.6465 143.709C86.6465 144.48 86.9639 145.072 87.5986 145.487C88.2334 145.902 89.0332 146.232 89.998 146.477L91.7627 146.947C93.2946 147.319 94.5599 147.903 95.5586 148.699C96.5658 149.494 97.0693 150.641 97.0693 152.139C97.0693 153.172 96.7985 154.098 96.2568 154.919C95.7236 155.732 94.9408 156.371 93.9082 156.836C92.8841 157.293 91.6654 157.522 90.252 157.522C88.8893 157.522 87.7002 157.306 86.6846 156.875C85.6689 156.434 84.8776 155.812 84.3105 155.008C83.7435 154.196 83.4303 153.235 83.3711 152.126H86.1641C86.2233 152.761 86.4391 153.299 86.8115 153.739C87.1839 154.179 87.6663 154.509 88.2588 154.729C88.8512 154.949 89.5114 155.059 90.2393 155.059C91.0179 155.059 91.7161 154.936 92.334 154.691C92.9518 154.445 93.4342 154.098 93.7812 153.65C94.1283 153.193 94.3018 152.672 94.3018 152.088C94.3018 151.581 94.1579 151.153 93.8701 150.806C93.5824 150.459 93.1888 150.176 92.6895 149.956C92.1986 149.727 91.5807 149.511 90.8359 149.308L88.6523 148.737C87.112 148.314 85.9313 147.708 85.1104 146.921C84.2894 146.126 83.8789 145.106 83.8789 143.862C83.8789 142.821 84.1624 141.903 84.7295 141.107C85.305 140.311 86.0837 139.694 87.0654 139.253C88.0557 138.805 89.1686 138.581 90.4043 138.581C91.6315 138.581 92.7233 138.801 93.6797 139.241C94.6445 139.672 95.402 140.273 95.9521 141.043C96.5023 141.814 96.79 142.69 96.8154 143.671H94.1113Z" fill="#CD354E"/>
<path d="M536.013 140.701C536.013 142.089 535.755 143.396 535.238 144.624C534.73 145.842 533.998 146.9 533.042 147.797C532.086 148.694 530.951 149.376 529.64 149.841L528.357 147.975C529.517 147.569 530.524 146.993 531.379 146.249C532.242 145.504 532.907 144.653 533.372 143.697C533.838 142.732 534.07 141.733 534.07 140.701V138.961H536.013V140.701ZM536.457 140.701C536.457 141.674 536.677 142.613 537.117 143.519C537.557 144.416 538.188 145.216 539.009 145.918C539.838 146.621 540.82 147.167 541.954 147.556L540.735 149.422C539.449 148.974 538.336 148.318 537.396 147.455C536.457 146.583 535.738 145.571 535.238 144.42C534.747 143.261 534.502 142.021 534.502 140.701V138.961H536.457V140.701ZM541.383 140.079H529.056V138.136H541.383V140.079ZM546.397 150.336H543.998V136.613H546.397V150.336ZM549.711 144.497H545.725V142.465H549.711V144.497ZM546.397 159.363H543.998V153.409H531.366V151.466H546.397V159.363Z" fill="#CD354E"/>
<path d="M526.877 159.363H524.592V136.613H526.877V159.363ZM520.682 146.642H516.429V144.7H520.682V146.642ZM522.256 158.233H519.984V137.121H522.256V158.233ZM513.75 142.973C513.75 144.666 513.543 146.287 513.128 147.835C512.722 149.384 512.129 150.777 511.351 152.012C510.572 153.248 509.624 154.213 508.507 154.907L507.009 153.104C508.059 152.478 508.951 151.631 509.688 150.565C510.424 149.499 510.974 148.314 511.338 147.01C511.702 145.698 511.884 144.353 511.884 142.973V140.206H513.75V142.973ZM514.207 142.973C514.207 144.302 514.385 145.588 514.74 146.833C515.096 148.068 515.633 149.19 516.353 150.197C517.072 151.195 517.948 151.995 518.981 152.596L517.533 154.374C516.425 153.696 515.485 152.778 514.715 151.619C513.953 150.451 513.378 149.126 512.989 147.645C512.608 146.164 512.417 144.607 512.417 142.973V140.206H514.207V142.973ZM518.13 141.145H507.72V139.177H518.13V141.145Z" fill="#CD354E"/>
<path d="M488.56 140.053C488.56 141.526 488.306 142.901 487.799 144.179C487.291 145.457 486.567 146.57 485.628 147.518C484.688 148.466 483.567 149.185 482.263 149.676L480.969 147.759C482.128 147.336 483.127 146.735 483.965 145.957C484.811 145.178 485.458 144.281 485.907 143.265C486.356 142.25 486.58 141.179 486.58 140.053V137.806H488.56V140.053ZM488.967 140.269C488.967 141.251 489.191 142.203 489.639 143.125C490.088 144.04 490.727 144.848 491.556 145.55C492.386 146.244 493.359 146.778 494.476 147.15L493.169 149.029C491.916 148.589 490.824 147.933 489.893 147.061C488.962 146.189 488.247 145.174 487.748 144.014C487.257 142.846 487.011 141.598 487.011 140.269V137.806H488.967V140.269ZM499.009 150.336H496.609V136.613H499.009V150.336ZM502.322 144.357H498.336V142.338H502.322V144.357ZM491.658 150.882C493.215 150.882 494.561 151.052 495.695 151.39C496.829 151.72 497.697 152.198 498.298 152.825C498.907 153.451 499.212 154.208 499.212 155.097C499.212 155.986 498.907 156.748 498.298 157.382C497.697 158.017 496.833 158.5 495.708 158.83C494.582 159.168 493.232 159.337 491.658 159.337C490.092 159.337 488.734 159.168 487.583 158.83C486.44 158.5 485.56 158.017 484.942 157.382C484.333 156.748 484.028 155.986 484.028 155.097C484.028 154.208 484.333 153.451 484.942 152.825C485.56 152.198 486.44 151.72 487.583 151.39C488.734 151.052 490.092 150.882 491.658 150.882ZM491.658 152.799C490.583 152.799 489.652 152.888 488.865 153.066C488.078 153.244 487.477 153.51 487.062 153.866C486.656 154.213 486.453 154.623 486.453 155.097C486.453 155.588 486.656 156.011 487.062 156.367C487.477 156.714 488.074 156.976 488.852 157.154C489.631 157.332 490.566 157.425 491.658 157.433C492.767 157.425 493.706 157.332 494.476 157.154C495.255 156.976 495.847 156.714 496.254 156.367C496.66 156.011 496.863 155.588 496.863 155.097C496.863 154.606 496.656 154.192 496.241 153.853C495.835 153.506 495.242 153.244 494.464 153.066C493.685 152.888 492.75 152.799 491.658 152.799Z" fill="#CD354E"/>
<path d="M477.254 141.754H470.348V139.812H477.254V141.754ZM477.254 146.972H470.348V145.017H477.254V146.972ZM466.26 137.946C467.377 137.929 468.384 138.153 469.281 138.619C470.187 139.084 470.898 139.732 471.414 140.561C471.93 141.39 472.188 142.338 472.188 143.405C472.188 144.446 471.93 145.381 471.414 146.21C470.898 147.04 470.187 147.687 469.281 148.153C468.384 148.61 467.377 148.838 466.26 148.838C465.126 148.838 464.106 148.61 463.2 148.153C462.303 147.687 461.592 147.04 461.067 146.21C460.551 145.381 460.293 144.446 460.293 143.405C460.293 142.338 460.551 141.39 461.067 140.561C461.592 139.732 462.303 139.084 463.2 138.619C464.106 138.153 465.126 137.929 466.26 137.946ZM466.26 140.015C465.549 140.007 464.914 140.146 464.355 140.434C463.805 140.713 463.374 141.111 463.061 141.627C462.747 142.135 462.591 142.728 462.591 143.405C462.591 144.065 462.747 144.653 463.061 145.169C463.374 145.677 463.805 146.075 464.355 146.363C464.914 146.651 465.549 146.794 466.26 146.794C466.954 146.794 467.572 146.651 468.113 146.363C468.663 146.075 469.095 145.677 469.408 145.169C469.721 144.653 469.878 144.065 469.878 143.405C469.878 142.728 469.721 142.135 469.408 141.627C469.095 141.111 468.663 140.713 468.113 140.434C467.572 140.146 466.954 140.007 466.26 140.015ZM478.93 150.044H476.518V136.613H478.93V150.044ZM471.3 150.565C472.882 150.565 474.249 150.738 475.4 151.085C476.56 151.424 477.449 151.923 478.066 152.583C478.693 153.235 479.006 154.022 479.006 154.945C479.006 155.859 478.693 156.646 478.066 157.306C477.449 157.966 476.56 158.47 475.4 158.817C474.249 159.164 472.882 159.337 471.3 159.337C469.726 159.337 468.359 159.164 467.199 158.817C466.048 158.47 465.164 157.966 464.546 157.306C463.928 156.646 463.619 155.859 463.619 154.945C463.619 154.022 463.928 153.235 464.546 152.583C465.164 151.923 466.048 151.424 467.199 151.085C468.359 150.738 469.726 150.565 471.3 150.565ZM471.3 152.418C470.208 152.418 469.26 152.52 468.456 152.723C467.652 152.918 467.038 153.206 466.615 153.586C466.192 153.959 465.98 154.412 465.98 154.945C465.98 155.461 466.192 155.905 466.615 156.278C467.038 156.65 467.652 156.938 468.456 157.141C469.26 157.336 470.208 157.433 471.3 157.433C472.417 157.433 473.378 157.336 474.182 157.141C474.986 156.938 475.595 156.65 476.01 156.278C476.433 155.905 476.645 155.461 476.645 154.945C476.645 154.403 476.433 153.946 476.01 153.574C475.595 153.201 474.986 152.918 474.182 152.723C473.378 152.52 472.417 152.418 471.3 152.418Z" fill="#CD354E"/>
<path d="M459.612 156.544H438.792V154.564H459.612V156.544ZM450.332 155.123H447.971V149.257H450.332V155.123ZM443.591 142.097H454.763V138.174H457.137V149.892H441.166V138.174H443.591V142.097ZM454.763 147.937V144.04H443.591V147.937H454.763Z" fill="#CD354E"/>
<path d="M427.981 152.342C429.656 152.342 431.078 152.478 432.246 152.749C433.414 153.019 434.303 153.417 434.912 153.942C435.53 154.458 435.839 155.101 435.839 155.872C435.839 156.989 435.158 157.844 433.795 158.436C432.433 159.037 430.494 159.337 427.981 159.337C425.442 159.337 423.491 159.037 422.128 158.436C420.766 157.844 420.084 156.989 420.084 155.872C420.084 155.101 420.389 154.458 420.998 153.942C421.608 153.417 422.505 153.019 423.69 152.749C424.875 152.478 426.305 152.342 427.981 152.342ZM427.981 154.132C426.804 154.132 425.81 154.2 424.997 154.335C424.185 154.462 423.571 154.657 423.156 154.919C422.75 155.173 422.547 155.491 422.547 155.872C422.547 156.236 422.75 156.544 423.156 156.798C423.571 157.052 424.181 157.238 424.985 157.357C425.797 157.484 426.796 157.547 427.981 157.547C429.166 157.547 430.156 157.484 430.951 157.357C431.755 157.238 432.365 157.052 432.78 156.798C433.194 156.544 433.402 156.236 433.402 155.872C433.402 155.491 433.194 155.173 432.78 154.919C432.365 154.657 431.755 154.462 430.951 154.335C430.147 154.2 429.157 154.132 427.981 154.132ZM437.198 140.32H418.662V138.428H437.198V140.32ZM427.993 141.132C430.406 141.132 432.251 141.412 433.529 141.97C434.807 142.52 435.446 143.337 435.446 144.42C435.446 145.461 434.802 146.261 433.516 146.82C432.238 147.37 430.397 147.645 427.993 147.645C425.59 147.645 423.74 147.37 422.446 146.82C421.151 146.261 420.503 145.461 420.503 144.42C420.503 143.337 421.151 142.52 422.446 141.97C423.74 141.412 425.59 141.132 427.993 141.132ZM427.993 142.808C426.927 142.808 426.03 142.867 425.302 142.986C424.574 143.104 424.02 143.282 423.639 143.519C423.267 143.756 423.08 144.056 423.08 144.42C423.08 144.742 423.267 145.017 423.639 145.246C424.02 145.474 424.574 145.652 425.302 145.779C426.03 145.897 426.927 145.961 427.993 145.969C429.06 145.961 429.957 145.897 430.685 145.779C431.413 145.652 431.963 145.474 432.335 145.246C432.708 145.017 432.894 144.742 432.894 144.42C432.894 144.056 432.708 143.756 432.335 143.519C431.963 143.282 431.413 143.104 430.685 142.986C429.957 142.867 429.06 142.808 427.993 142.808ZM429.187 139.685H426.787V136.359H429.187V139.685ZM438.365 151.098H417.621V149.194H438.365V151.098ZM429.187 150.095H426.787V146.921H429.187V150.095Z" fill="#CD354E"/>
<path d="M414.656 150.984C414.334 150.984 414.034 150.899 413.754 150.73C413.475 150.561 413.255 150.341 413.094 150.07C412.942 149.791 412.866 149.49 412.866 149.168C412.866 148.855 412.942 148.559 413.094 148.28C413.255 148 413.475 147.785 413.754 147.632C414.034 147.472 414.334 147.391 414.656 147.391C414.969 147.391 415.265 147.472 415.544 147.632C415.824 147.785 416.044 148 416.205 148.28C416.365 148.559 416.446 148.855 416.446 149.168C416.446 149.49 416.365 149.791 416.205 150.07C416.044 150.341 415.824 150.561 415.544 150.73C415.265 150.899 414.969 150.984 414.656 150.984Z" fill="#CD354E"/>
<path d="M407.793 140.764H393.079V138.809H407.793V140.764ZM411.639 156.291H390.895V154.31H411.639V156.291ZM401.166 155.338H398.792V146.287H401.166V155.338ZM409.303 141.043C409.303 142.389 409.287 143.519 409.253 144.433C409.219 145.339 409.143 146.414 409.024 147.658C408.906 148.893 408.715 150.231 408.453 151.669L406.003 151.403C406.282 150.04 406.485 148.754 406.612 147.543C406.739 146.333 406.815 145.263 406.841 144.332C406.874 143.392 406.891 142.296 406.891 141.043V138.809H409.303V141.043Z" fill="#CD354E"/>
<path d="M380.973 139.977H370.931V137.984H380.973V139.977ZM376.593 148.47H374.206V142.973H376.593V148.47ZM382.395 139.292C382.386 140.443 382.348 141.462 382.28 142.351C382.213 143.24 382.056 144.255 381.811 145.398L379.437 145.208C379.674 144.048 379.822 143.032 379.881 142.161C379.949 141.28 379.982 140.324 379.982 139.292V137.984H382.395V139.292ZM387.727 150.73H385.264V136.613H387.727V150.73ZM390.875 144.662H386.635V142.643H390.875V144.662ZM369.534 147.378C372.268 147.378 374.82 147.336 377.189 147.251C379.559 147.158 381.777 146.976 383.842 146.706L383.969 148.445C381.844 148.8 379.576 149.042 377.164 149.168C374.76 149.295 372.293 149.359 369.763 149.359L369.534 147.378ZM380.211 150.997C381.802 150.997 383.173 151.162 384.324 151.492C385.475 151.813 386.355 152.287 386.965 152.914C387.583 153.531 387.892 154.264 387.892 155.11C387.892 155.99 387.583 156.743 386.965 157.37C386.355 157.996 385.475 158.474 384.324 158.804C383.173 159.134 381.802 159.299 380.211 159.299C378.62 159.299 377.249 159.134 376.098 158.804C374.947 158.474 374.062 157.996 373.444 157.37C372.826 156.743 372.518 155.99 372.518 155.11C372.518 154.264 372.826 153.531 373.444 152.914C374.062 152.287 374.951 151.813 376.11 151.492C377.27 151.162 378.637 150.997 380.211 150.997ZM380.211 152.863C379.136 152.863 378.197 152.952 377.393 153.129C376.597 153.299 375.992 153.557 375.577 153.904C375.162 154.242 374.955 154.644 374.955 155.11C374.955 155.601 375.162 156.02 375.577 156.367C375.992 156.705 376.593 156.963 377.38 157.141C378.167 157.319 379.111 157.408 380.211 157.408C381.311 157.408 382.251 157.319 383.029 157.141C383.816 156.963 384.417 156.705 384.832 156.367C385.247 156.02 385.454 155.601 385.454 155.11C385.454 154.644 385.247 154.242 384.832 153.904C384.417 153.557 383.816 153.299 383.029 153.129C382.242 152.952 381.303 152.863 380.211 152.863Z" fill="#CD354E"/>
<path d="M230.344 464.481C230.344 465.869 230.086 467.177 229.57 468.404C229.062 469.623 228.33 470.681 227.374 471.578C226.417 472.475 225.283 473.156 223.971 473.622L222.689 471.755C223.849 471.349 224.856 470.774 225.711 470.029C226.574 469.284 227.238 468.433 227.704 467.477C228.169 466.512 228.402 465.514 228.402 464.481V462.742H230.344V464.481ZM230.789 464.481C230.789 465.454 231.009 466.394 231.449 467.299C231.889 468.196 232.52 468.996 233.341 469.699C234.17 470.401 235.152 470.947 236.286 471.336L235.067 473.203C233.781 472.754 232.668 472.098 231.728 471.235C230.789 470.363 230.069 469.352 229.57 468.201C229.079 467.041 228.834 465.801 228.834 464.481V462.742H230.789V464.481ZM235.715 463.859H223.387V461.917H235.715V463.859ZM240.729 474.117H238.33V460.393H240.729V474.117ZM244.043 468.277H240.056V466.246H244.043V468.277ZM240.729 483.143H238.33V477.189H225.698V475.247H240.729V483.143Z" fill="white"/>
<path d="M221.209 483.143H218.924V460.393H221.209V483.143ZM215.014 470.422H210.761V468.48H215.014V470.422ZM216.588 482.013H214.315V460.901H216.588V482.013ZM208.082 466.753C208.082 468.446 207.875 470.067 207.46 471.616C207.054 473.165 206.461 474.557 205.683 475.792C204.904 477.028 203.956 477.993 202.839 478.687L201.341 476.884C202.39 476.258 203.283 475.412 204.02 474.345C204.756 473.279 205.306 472.094 205.67 470.791C206.034 469.479 206.216 468.133 206.216 466.753V463.986H208.082V466.753ZM208.539 466.753C208.539 468.082 208.717 469.369 209.072 470.613C209.428 471.848 209.965 472.97 210.685 473.977C211.404 474.976 212.28 475.776 213.313 476.376L211.865 478.154C210.757 477.477 209.817 476.558 209.047 475.399C208.285 474.231 207.71 472.906 207.32 471.425C206.939 469.944 206.749 468.387 206.749 466.753V463.986H208.539V466.753ZM212.462 464.925H202.052V462.958H212.462V464.925Z" fill="white"/>
<path d="M196.285 480.325H175.465V478.332H196.285V480.325ZM186.739 465.7C186.739 467.249 186.341 468.653 185.545 469.915C184.75 471.176 183.649 472.221 182.244 473.05C180.848 473.88 179.265 474.459 177.496 474.79L176.557 472.847C178.114 472.593 179.502 472.119 180.721 471.425C181.948 470.731 182.905 469.889 183.59 468.899C184.284 467.909 184.631 466.842 184.631 465.7V465.217H186.739V465.7ZM187.081 465.7C187.081 466.842 187.424 467.909 188.11 468.899C188.804 469.889 189.764 470.731 190.991 471.425C192.227 472.119 193.619 472.593 195.168 472.847L194.203 474.79C192.426 474.459 190.835 473.88 189.43 473.05C188.033 472.221 186.933 471.176 186.129 469.915C185.334 468.653 184.936 467.249 184.936 465.7V465.217H187.081V465.7ZM194.356 465.865H177.357V463.91H194.356V465.865ZM187.031 464.646H184.656V460.888H187.031V464.646Z" fill="white"/>
<path d="M167.917 468.721H164.108V466.804H167.917V468.721ZM173.693 477.443H171.395V460.418H173.693V477.443ZM169.237 476.872H166.926V460.863H169.237V476.872ZM174.34 482.699H158.712V480.706H174.34V482.699ZM161.163 481.924H158.712V475.564H161.163V481.924ZM156.783 471.895C158.755 471.895 160.312 471.861 161.455 471.793C162.597 471.717 163.752 471.561 164.92 471.324L165.162 473.253C163.917 473.499 162.69 473.66 161.48 473.736C160.278 473.812 158.712 473.85 156.783 473.85H155.31V471.895H156.783ZM163.981 464.202H157.621V472.593H155.31V462.234H163.981V464.202ZM163.067 468.912H156.897V467.045H163.067V468.912Z" fill="white"/>
<path d="M150.25 463.376H135.574V461.434H150.25V463.376ZM151.342 463.415C151.342 464.396 151.333 465.23 151.316 465.916C151.299 466.601 151.244 467.371 151.151 468.226C151.058 469.081 150.914 469.991 150.719 470.956L148.333 470.752C148.536 469.821 148.684 468.941 148.777 468.112C148.87 467.282 148.925 466.533 148.942 465.865C148.959 465.196 148.968 464.379 148.968 463.415V461.434H151.342V463.415ZM135.307 468.036L134.99 466.017L149.666 465.585V467.375L135.307 468.036ZM153.843 474.294H133.162V472.352H153.843V474.294ZM143.775 473.609H141.35V469.178H143.775V473.609ZM151.837 482.8H135.714V480.845H151.837V482.8ZM138.138 481.683H135.714V476.059H138.138V481.683Z" fill="white"/>
<path d="M127.649 473.66H106.905V471.73H127.649V473.66ZM118.445 472.695H116.046V468.899H118.445V472.695ZM125.707 463.059H108.81V461.104H125.707V463.059ZM125.605 469.369H108.911V467.401H125.605V469.369ZM114.522 468.747H112.123V461.917H114.522V468.747ZM122.394 468.747H119.981V461.917H122.394V468.747ZM125.123 482.864H109.394V475.653H125.123V482.864ZM111.78 480.909H122.762V477.532H111.78V480.909Z" fill="white"/>
<path d="M106.479 473.672H85.7346V471.73H106.479V473.672ZM96.8938 475.615C96.8938 476.918 96.5129 478.086 95.7512 479.119C94.998 480.143 93.9612 480.989 92.6409 481.658C91.3206 482.326 89.8183 482.792 88.134 483.054L87.2327 481.188C88.7053 480.993 90.0172 480.634 91.1682 480.109C92.3277 479.576 93.2291 478.924 93.8723 478.154C94.5155 477.375 94.8372 476.529 94.8372 475.615V475.018H96.8938V475.615ZM97.3 475.615C97.3 476.529 97.6259 477.375 98.2776 478.154C98.9293 478.924 99.8306 479.576 100.982 480.109C102.133 480.634 103.445 480.993 104.917 481.188L104.016 483.054C102.323 482.792 100.812 482.326 99.4836 481.658C98.1633 480.989 97.1265 480.143 96.3733 479.119C95.6285 478.086 95.2561 476.918 95.2561 475.615V475.018H97.3V475.615ZM96.9192 461.599C96.9192 462.894 96.5087 464.075 95.6877 465.141C94.8752 466.208 93.7792 467.088 92.3997 467.782C91.0201 468.476 89.484 468.941 87.7913 469.178L86.8772 467.325C88.3499 467.13 89.6956 466.758 90.9143 466.208C92.1415 465.649 93.1064 464.968 93.8088 464.164C94.5113 463.36 94.8625 462.505 94.8625 461.599V460.634H96.9192V461.599ZM97.3 461.599C97.3 462.522 97.6555 463.385 98.3665 464.189C99.0859 464.985 100.055 465.662 101.274 466.22C102.501 466.779 103.838 467.147 105.285 467.325L104.397 469.178C102.712 468.941 101.176 468.48 99.7883 467.794C98.4003 467.1 97.2958 466.22 96.4749 465.154C95.6624 464.087 95.2561 462.903 95.2561 461.599V460.634H97.3V461.599ZM93.7454 473.025H91.3586V468.874H93.7454V473.025ZM100.867 473.025H98.4934V468.874H100.867V473.025Z" fill="white"/>
<path d="M540.156 463.63C540.156 465.222 539.729 466.715 538.874 468.112C538.028 469.5 536.898 470.676 535.484 471.641C534.071 472.606 532.526 473.275 530.851 473.647L529.771 471.628C531.219 471.341 532.577 470.799 533.847 470.003C535.116 469.208 536.132 468.247 536.894 467.122C537.655 465.996 538.036 464.832 538.036 463.63V461.929H540.156V463.63ZM540.575 463.63C540.575 464.824 540.96 465.987 541.73 467.122C542.501 468.256 543.525 469.225 544.803 470.029C546.081 470.824 547.439 471.358 548.878 471.628L547.799 473.647C546.14 473.275 544.604 472.61 543.19 471.654C541.777 470.697 540.643 469.521 539.788 468.125C538.933 466.728 538.506 465.23 538.506 463.63V461.929H540.575V463.63ZM549.843 480.16H529.022V478.167H549.843V480.16Z" fill="#CD354E"/>
<path d="M519.29 477.456H508.74V462.589H519.29V477.456ZM511.14 475.551H516.942V464.468H511.14V475.551ZM526.831 483.207H524.432V460.393H526.831V483.207ZM525.409 470.549H518.897V468.582H525.409V470.549Z" fill="#CD354E"/>
<path d="M498.285 462.704C498.285 465.116 497.976 467.325 497.358 469.331C496.74 471.328 495.669 473.19 494.146 474.917C492.631 476.643 490.579 478.171 487.989 479.5L486.63 477.659C488.924 476.499 490.752 475.192 492.115 473.736C493.486 472.272 494.468 470.664 495.06 468.912C495.653 467.151 495.949 465.179 495.949 462.996V462.704H498.285ZM497.396 464.671H487.9V462.704H497.396V464.671ZM487.113 470.981L486.732 468.924L495.936 468.34V470.168L487.113 470.981ZM505.623 483.143H503.236V460.393H505.623V483.143ZM504.442 471.4H498.221V469.419H504.442V471.4Z" fill="#CD354E"/>
<path d="M483.716 474.764C483.394 474.764 483.094 474.68 482.814 474.51C482.535 474.341 482.315 474.121 482.154 473.85C482.002 473.571 481.926 473.27 481.926 472.949C481.926 472.636 482.002 472.339 482.154 472.06C482.315 471.781 482.535 471.565 482.814 471.413C483.094 471.252 483.394 471.171 483.716 471.171C484.029 471.171 484.325 471.252 484.604 471.413C484.884 471.565 485.104 471.781 485.264 472.06C485.425 472.339 485.506 472.636 485.506 472.949C485.506 473.27 485.425 473.571 485.264 473.85C485.104 474.121 484.884 474.341 484.604 474.51C484.325 474.68 484.029 474.764 483.716 474.764Z" fill="#CD354E"/>
<path d="M471.495 472.581H469.121V468.391H471.495V472.581ZM471.14 461.726C471.14 463.055 470.733 464.269 469.921 465.37C469.117 466.47 468.021 467.388 466.633 468.125C465.253 468.861 463.721 469.369 462.037 469.648L461.148 467.731C462.604 467.536 463.937 467.143 465.147 466.55C466.366 465.958 467.327 465.238 468.029 464.392C468.732 463.546 469.083 462.657 469.083 461.726V460.761H471.14V461.726ZM471.521 461.726C471.521 462.666 471.876 463.558 472.587 464.405C473.298 465.251 474.263 465.971 475.481 466.563C476.7 467.147 478.037 467.536 479.493 467.731L478.528 469.648C476.861 469.369 475.338 468.865 473.958 468.137C472.587 467.401 471.495 466.478 470.683 465.37C469.879 464.261 469.477 463.046 469.477 461.726V460.761H471.521V461.726ZM480.699 473.495H459.955V471.552H480.699V473.495ZM470.314 475.17C471.956 475.17 473.366 475.327 474.542 475.64C475.718 475.953 476.616 476.41 477.233 477.011C477.86 477.604 478.173 478.319 478.173 479.157C478.173 480.003 477.86 480.718 477.233 481.302C476.616 481.895 475.718 482.343 474.542 482.648C473.366 482.961 471.956 483.118 470.314 483.118C468.673 483.118 467.259 482.961 466.074 482.648C464.889 482.343 463.984 481.895 463.357 481.302C462.731 480.718 462.418 480.003 462.418 479.157C462.418 478.319 462.731 477.604 463.357 477.011C463.984 476.41 464.889 475.953 466.074 475.64C467.259 475.327 468.673 475.17 470.314 475.17ZM470.314 477.049C469.138 477.049 468.144 477.13 467.331 477.291C466.519 477.443 465.905 477.676 465.49 477.989C465.076 478.302 464.868 478.691 464.868 479.157C464.868 479.605 465.076 479.99 465.49 480.312C465.905 480.625 466.523 480.862 467.344 481.023C468.165 481.192 469.155 481.277 470.314 481.277C471.474 481.277 472.456 481.192 473.26 481.023C474.072 480.862 474.69 480.625 475.113 480.312C475.536 479.99 475.748 479.605 475.748 479.157C475.748 478.708 475.536 478.323 475.113 478.001C474.69 477.68 474.072 477.443 473.26 477.291C472.456 477.13 471.474 477.049 470.314 477.049Z" fill="#CD354E"/>
<path d="M449.309 474.574C450.866 474.574 452.212 474.739 453.346 475.069C454.488 475.399 455.36 475.886 455.961 476.529C456.562 477.172 456.862 477.942 456.862 478.839C456.862 479.745 456.562 480.515 455.961 481.15C455.36 481.793 454.493 482.284 453.358 482.623C452.233 482.97 450.883 483.147 449.309 483.156C447.743 483.147 446.384 482.97 445.233 482.623C444.091 482.284 443.211 481.793 442.593 481.15C441.983 480.515 441.679 479.745 441.679 478.839C441.679 477.942 441.983 477.172 442.593 476.529C443.211 475.886 444.091 475.399 445.233 475.069C446.384 474.739 447.743 474.574 449.309 474.574ZM449.309 476.465C448.217 476.465 447.282 476.558 446.503 476.745C445.724 476.931 445.128 477.202 444.713 477.557C444.307 477.904 444.104 478.332 444.104 478.839C444.104 479.33 444.307 479.758 444.713 480.122C445.128 480.477 445.729 480.752 446.516 480.947C447.303 481.141 448.234 481.239 449.309 481.239C450.4 481.239 451.336 481.141 452.114 480.947C452.893 480.752 453.485 480.477 453.892 480.122C454.306 479.758 454.514 479.33 454.514 478.839C454.514 478.332 454.311 477.904 453.904 477.557C453.498 477.202 452.906 476.931 452.127 476.745C451.357 476.558 450.417 476.465 449.309 476.465ZM456.659 473.99H454.26V460.393H456.659V473.99ZM459.973 468.01H455.986V465.979H459.973V468.01ZM442.034 465.103H447.988V461.828H450.4V472.39H439.66V461.828H442.034V465.103ZM447.988 470.46V466.995H442.034V470.46H447.988Z" fill="#CD354E"/>
<path d="M433.386 480.223H412.566V478.23H433.386V480.223ZM417.365 466.055H428.537V461.967H430.911V473.926H414.94V461.967H417.365V466.055ZM428.537 472.009V467.959H417.365V472.009H428.537Z" fill="#CD354E"/>
<path d="M410.248 483.207H407.823V460.393H410.248V483.207ZM398.06 462.107C399.194 462.107 400.206 462.437 401.094 463.097C401.983 463.757 402.677 464.688 403.177 465.89C403.676 467.092 403.926 468.493 403.926 470.092C403.926 471.7 403.676 473.105 403.177 474.307C402.677 475.509 401.983 476.44 401.094 477.1C400.206 477.752 399.194 478.078 398.06 478.078C396.926 478.078 395.911 477.752 395.013 477.1C394.125 476.44 393.431 475.509 392.931 474.307C392.432 473.105 392.182 471.7 392.182 470.092C392.182 468.493 392.432 467.092 392.931 465.89C393.431 464.688 394.125 463.757 395.013 463.097C395.911 462.437 396.926 462.107 398.06 462.107ZM398.06 464.265C397.366 464.265 396.748 464.502 396.207 464.976C395.665 465.45 395.246 466.127 394.95 467.007C394.662 467.879 394.518 468.907 394.518 470.092C394.518 471.269 394.662 472.297 394.95 473.177C395.246 474.057 395.665 474.735 396.207 475.208C396.748 475.674 397.366 475.907 398.06 475.907C398.754 475.907 399.368 475.674 399.901 475.208C400.443 474.735 400.862 474.057 401.158 473.177C401.454 472.297 401.602 471.269 401.602 470.092C401.602 468.907 401.454 467.879 401.158 467.007C400.862 466.127 400.447 465.45 399.914 464.976C399.381 464.502 398.763 464.265 398.06 464.265Z" fill="#CD354E"/>
<path d="M387.947 483.207H385.561V460.393H387.947V483.207ZM391.616 471.311H387.401V469.292H391.616V471.311ZM373.018 475.729C375.286 475.737 377.215 475.691 378.807 475.589C380.406 475.479 382.023 475.276 383.656 474.98L383.897 476.948C382.222 477.244 380.559 477.451 378.908 477.57C377.266 477.688 375.303 477.752 373.018 477.76H371.177V475.729H373.018ZM381.523 470.816H373.563V476.529H371.177V468.861H379.137V464.417H371.126V462.45H381.523V470.816Z" fill="#CD354E"/>
<circle cx="164.692" cy="179.467" r="6.4397" fill="#CD354E"/>
<circle cx="460.021" cy="179.467" r="6.4397" fill="#CD354E"/>
<circle cx="164.692" cy="440.985" r="6.4397" fill="white"/>
<circle cx="460.021" cy="440.985" r="6.4397" fill="#CD354E"/>
<rect x="171.131" y="179.467" width="287.534" height="1" fill="#CD354E"/>
<rect x="171.131" y="439.985" width="287.534" height="1" fill="#CD354E"/>
<rect x="163.692" y="434.545" width="248.639" height="1" transform="rotate(-90 163.692 434.545)" fill="#CD354E"/>
<rect x="459.521" y="434.545" width="248.639" height="1" transform="rotate(-90 459.521 434.545)" fill="#CD354E"/>
</svg>
