<svg width="625" height="624" viewBox="0 0 625 624" fill="none" xmlns="http://www.w3.org/2000/svg">
<circle cx="165.084" cy="459.188" r="163.735" stroke="#CD354E"/>
<circle cx="460.414" cy="459.188" r="163.735" stroke="#CD354E"/>
<circle cx="460.414" cy="164.728" r="163.735" fill="#CD354E" stroke="#CD354E"/>
<circle cx="165.084" cy="164.728" r="163.735" stroke="#CD354E"/>
<path d="M239.21 140.287H225.753V138.497H239.21V140.287ZM232.494 141.048C233.586 141.048 234.551 141.188 235.388 141.467C236.226 141.738 236.874 142.132 237.331 142.648C237.788 143.156 238.016 143.761 238.016 144.463C238.016 145.149 237.788 145.746 237.331 146.253C236.874 146.753 236.226 147.142 235.388 147.421C234.551 147.692 233.586 147.828 232.494 147.828C231.385 147.828 230.412 147.692 229.574 147.421C228.745 147.142 228.101 146.753 227.644 146.253C227.196 145.746 226.971 145.149 226.971 144.463C226.971 143.761 227.196 143.156 227.644 142.648C228.101 142.132 228.745 141.738 229.574 141.467C230.412 141.188 231.385 141.048 232.494 141.048ZM232.494 142.711C231.842 142.694 231.275 142.758 230.793 142.902C230.31 143.046 229.934 143.249 229.663 143.511C229.392 143.774 229.257 144.091 229.257 144.463C229.257 144.81 229.392 145.115 229.663 145.377C229.934 145.631 230.31 145.826 230.793 145.961C231.284 146.088 231.851 146.152 232.494 146.152C233.137 146.152 233.7 146.088 234.182 145.961C234.665 145.826 235.037 145.631 235.3 145.377C235.562 145.115 235.693 144.81 235.693 144.463C235.693 144.091 235.562 143.774 235.3 143.511C235.037 143.249 234.665 143.046 234.182 142.902C233.7 142.758 233.137 142.694 232.494 142.711ZM233.662 139.461H231.262V136.402H233.662V139.461ZM233.662 150.024H231.262V146.901H233.662V150.024ZM243.793 151.827H241.368V136.592H243.793V151.827ZM243.793 159.279H241.368V154.734H228.279V152.83H243.793V159.279ZM225.016 149.3C227.801 149.309 230.399 149.266 232.811 149.173C235.223 149.08 237.496 148.894 239.629 148.615L239.806 150.291C237.614 150.654 235.329 150.896 232.951 151.014C230.573 151.133 228.042 151.192 225.359 151.192L225.016 149.3Z" fill="#CD354E"/>
<path d="M222.66 159.279H220.223V136.529H222.66V159.279ZM215.906 138.979C215.906 141.298 215.547 143.444 214.827 145.416C214.116 147.379 212.974 149.19 211.399 150.849C209.825 152.5 207.777 153.93 205.255 155.14L203.96 153.185C206.152 152.153 207.951 150.951 209.355 149.58C210.769 148.208 211.814 146.677 212.491 144.984C213.168 143.291 213.507 141.421 213.507 139.373V138.979H215.906ZM214.548 140.909H205.064V138.979H214.548V140.909Z" fill="#CD354E"/>
<path d="M198.346 156.46H177.526V154.467H198.346V156.46ZM188.799 141.835C188.799 143.384 188.402 144.789 187.606 146.05C186.81 147.311 185.71 148.357 184.305 149.186C182.909 150.015 181.326 150.595 179.557 150.925L178.618 148.983C180.175 148.729 181.563 148.255 182.782 147.561C184.009 146.867 184.965 146.025 185.651 145.035C186.345 144.044 186.692 142.978 186.692 141.835V141.353H188.799V141.835ZM189.142 141.835C189.142 142.978 189.485 144.044 190.17 145.035C190.864 146.025 191.825 146.867 193.052 147.561C194.288 148.255 195.68 148.729 197.229 148.983L196.264 150.925C194.487 150.595 192.896 150.015 191.491 149.186C190.094 148.357 188.994 147.311 188.19 146.05C187.394 144.789 186.997 143.384 186.997 141.835V141.353H189.142V141.835ZM196.417 142H179.417V140.045H196.417V142ZM189.091 140.782H186.717V137.024H189.091V140.782Z" fill="#CD354E"/>
<path d="M169.977 144.857H166.169V142.94H169.977V144.857ZM175.754 153.579H173.456V136.554H175.754V153.579ZM171.298 153.007H168.987V136.999H171.298V153.007ZM176.401 158.834H160.773V156.841H176.401V158.834ZM163.223 158.06H160.773V151.7H163.223V158.06ZM158.844 148.031C160.816 148.031 162.373 147.997 163.515 147.929C164.658 147.853 165.813 147.696 166.981 147.459L167.222 149.389C165.978 149.635 164.751 149.795 163.541 149.872C162.339 149.948 160.773 149.986 158.844 149.986H157.371V148.031H158.844ZM166.042 140.337H159.681V148.729H157.371V138.37H166.042V140.337ZM165.128 145.047H158.958V143.181H165.128V145.047Z" fill="#CD354E"/>
<path d="M152.31 139.512H137.635V137.57H152.31V139.512ZM153.402 139.55C153.402 140.532 153.394 141.366 153.377 142.051C153.36 142.737 153.305 143.507 153.212 144.362C153.119 145.217 152.975 146.126 152.78 147.091L150.393 146.888C150.596 145.957 150.745 145.077 150.838 144.248C150.931 143.418 150.986 142.669 151.003 142C151.02 141.332 151.028 140.515 151.028 139.55V137.57H153.402V139.55ZM137.368 144.171L137.051 142.153L151.726 141.721V143.511L137.368 144.171ZM155.903 150.43H135.222V148.488H155.903V150.43ZM145.836 149.745H143.411V145.314H145.836V149.745ZM153.897 158.936H137.774V156.981H153.897V158.936ZM140.199 157.819H137.774V152.195H140.199V157.819Z" fill="#CD354E"/>
<path d="M126.486 143.587C126.418 143.029 126.223 142.546 125.902 142.14C125.58 141.734 125.144 141.429 124.594 141.226C124.052 141.023 123.426 140.921 122.715 140.921C121.979 140.921 121.331 141.036 120.773 141.264C120.214 141.493 119.782 141.814 119.478 142.229C119.173 142.635 119.021 143.101 119.021 143.625C119.021 144.396 119.338 144.988 119.973 145.403C120.608 145.818 121.407 146.148 122.372 146.393L124.137 146.863C125.669 147.235 126.934 147.819 127.933 148.615C128.94 149.41 129.444 150.557 129.444 152.055C129.444 153.088 129.173 154.014 128.631 154.835C128.098 155.648 127.315 156.287 126.282 156.752C125.258 157.209 124.04 157.438 122.626 157.438C121.264 157.438 120.074 157.222 119.059 156.791C118.043 156.35 117.252 155.728 116.685 154.924C116.118 154.112 115.805 153.151 115.745 152.042H118.538C118.598 152.677 118.813 153.215 119.186 153.655C119.558 154.095 120.041 154.425 120.633 154.645C121.226 154.865 121.886 154.975 122.614 154.975C123.392 154.975 124.09 154.852 124.708 154.607C125.326 154.361 125.809 154.014 126.156 153.566C126.503 153.109 126.676 152.588 126.676 152.004C126.676 151.497 126.532 151.069 126.244 150.722C125.957 150.375 125.563 150.092 125.064 149.872C124.573 149.643 123.955 149.427 123.21 149.224L121.027 148.653C119.486 148.23 118.306 147.625 117.485 146.837C116.664 146.042 116.253 145.022 116.253 143.778C116.253 142.737 116.537 141.819 117.104 141.023C117.679 140.227 118.458 139.61 119.44 139.169C120.43 138.721 121.543 138.497 122.779 138.497C124.006 138.497 125.098 138.717 126.054 139.157C127.019 139.588 127.776 140.189 128.326 140.959C128.877 141.73 129.164 142.606 129.19 143.587H126.486Z" fill="#CD354E"/>
<path d="M114.037 157.133H111.472L102.154 143.689H101.989V157.133H99.1958V138.75H101.786L111.091 152.208H111.256V138.75H114.037V157.133Z" fill="#CD354E"/>
<path d="M94.5037 143.587C94.436 143.029 94.2413 142.546 93.9197 142.14C93.5981 141.734 93.1622 141.429 92.6121 141.226C92.0704 141.023 91.4441 140.921 90.7332 140.921C89.9968 140.921 89.3494 141.036 88.7908 141.264C88.2322 141.493 87.8005 141.814 87.4958 142.229C87.1912 142.635 87.0388 143.101 87.0388 143.625C87.0388 144.396 87.3562 144.988 87.991 145.403C88.6257 145.818 89.4255 146.148 90.3904 146.393L92.155 146.863C93.6869 147.235 94.9522 147.819 95.9509 148.615C96.9581 149.41 97.4617 150.557 97.4617 152.055C97.4617 153.088 97.1908 154.014 96.6492 154.835C96.116 155.648 95.3331 156.287 94.3005 156.752C93.2764 157.209 92.0577 157.438 90.6443 157.438C89.2817 157.438 88.0925 157.222 87.0769 156.791C86.0613 156.35 85.2699 155.728 84.7029 154.924C84.1358 154.112 83.8227 153.151 83.7634 152.042H86.5564C86.6156 152.677 86.8315 153.215 87.2039 153.655C87.5763 154.095 88.0587 154.425 88.6511 154.645C89.2436 154.865 89.9037 154.975 90.6316 154.975C91.4102 154.975 92.1085 154.852 92.7263 154.607C93.3442 154.361 93.8266 154.014 94.1736 153.566C94.5206 153.109 94.6941 152.588 94.6941 152.004C94.6941 151.497 94.5502 151.069 94.2625 150.722C93.9747 150.375 93.5811 150.092 93.0818 149.872C92.5909 149.643 91.9731 149.427 91.2283 149.224L89.0447 148.653C87.5043 148.23 86.3236 147.625 85.5027 146.837C84.6817 146.042 84.2712 145.022 84.2712 143.778C84.2712 142.737 84.5548 141.819 85.1218 141.023C85.6973 140.227 86.476 139.61 87.4578 139.169C88.448 138.721 89.561 138.497 90.7966 138.497C92.0238 138.497 93.1156 138.717 94.072 139.157C95.0369 139.588 95.7944 140.189 96.3445 140.959C96.8946 141.73 97.1824 142.606 97.2078 143.587H94.5037Z" fill="#CD354E"/>
<path d="M536.405 140.617C536.405 142.005 536.147 143.312 535.631 144.54C535.123 145.758 534.391 146.816 533.434 147.713C532.478 148.611 531.344 149.292 530.032 149.757L528.75 147.891C529.909 147.485 530.916 146.909 531.771 146.165C532.635 145.42 533.299 144.569 533.764 143.613C534.23 142.648 534.463 141.649 534.463 140.617V138.877H536.405V140.617ZM536.849 140.617C536.849 141.59 537.069 142.529 537.51 143.435C537.95 144.332 538.58 145.132 539.401 145.834C540.231 146.537 541.212 147.083 542.346 147.472L541.128 149.338C539.841 148.89 538.728 148.234 537.789 147.371C536.849 146.499 536.13 145.487 535.631 144.336C535.14 143.177 534.894 141.937 534.894 140.617V138.877H536.849V140.617ZM541.775 139.995H529.448V138.052H541.775V139.995ZM546.79 150.252H544.39V136.529H546.79V150.252ZM550.103 144.413H546.117V142.381H550.103V144.413ZM546.79 159.279H544.39V153.325H531.759V151.382H546.79V159.279Z" fill="white"/>
<path d="M527.27 159.279H524.984V136.529H527.27V159.279ZM521.074 146.558H516.821V144.616H521.074V146.558ZM522.648 158.149H520.376V137.037H522.648V158.149ZM514.143 142.889C514.143 144.582 513.935 146.203 513.521 147.751C513.114 149.3 512.522 150.693 511.743 151.928C510.965 153.164 510.017 154.129 508.899 154.823L507.401 153.02C508.451 152.394 509.344 151.547 510.08 150.481C510.816 149.415 511.367 148.23 511.73 146.926C512.094 145.614 512.276 144.269 512.276 142.889V140.122H514.143V142.889ZM514.6 142.889C514.6 144.218 514.777 145.504 515.133 146.749C515.488 147.984 516.026 149.106 516.745 150.113C517.465 151.111 518.34 151.911 519.373 152.512L517.926 154.29C516.817 153.612 515.878 152.694 515.107 151.535C514.346 150.367 513.77 149.042 513.381 147.561C513 146.08 512.81 144.523 512.81 142.889V140.122H514.6V142.889ZM518.522 141.061H508.112V139.093H518.522V141.061Z" fill="white"/>
<path d="M488.953 139.969C488.953 141.442 488.699 142.817 488.191 144.095C487.683 145.373 486.959 146.486 486.02 147.434C485.081 148.382 483.959 149.101 482.656 149.592L481.361 147.675C482.52 147.252 483.519 146.651 484.357 145.873C485.203 145.094 485.851 144.197 486.299 143.181C486.748 142.166 486.972 141.095 486.972 139.969V137.722H488.953V139.969ZM489.359 140.185C489.359 141.167 489.583 142.119 490.032 143.042C490.48 143.956 491.119 144.764 491.949 145.466C492.778 146.16 493.751 146.694 494.869 147.066L493.561 148.945C492.308 148.505 491.217 147.849 490.286 146.977C489.355 146.105 488.639 145.09 488.14 143.93C487.649 142.762 487.404 141.514 487.404 140.185V137.722H489.359V140.185ZM499.401 150.252H497.001V136.529H499.401V150.252ZM502.714 144.273H498.728V142.254H502.714V144.273ZM492.05 150.798C493.608 150.798 494.953 150.968 496.087 151.306C497.222 151.636 498.089 152.114 498.69 152.741C499.299 153.367 499.604 154.125 499.604 155.013C499.604 155.902 499.299 156.664 498.69 157.298C498.089 157.933 497.226 158.416 496.1 158.746C494.974 159.084 493.625 159.253 492.05 159.253C490.485 159.253 489.126 159.084 487.975 158.746C486.833 158.416 485.952 157.933 485.334 157.298C484.725 156.664 484.42 155.902 484.42 155.013C484.42 154.125 484.725 153.367 485.334 152.741C485.952 152.114 486.833 151.636 487.975 151.306C489.126 150.968 490.485 150.798 492.05 150.798ZM492.05 152.715C490.975 152.715 490.044 152.804 489.257 152.982C488.47 153.16 487.869 153.426 487.455 153.782C487.048 154.129 486.845 154.539 486.845 155.013C486.845 155.504 487.048 155.927 487.455 156.283C487.869 156.63 488.466 156.892 489.245 157.07C490.023 157.248 490.958 157.341 492.05 157.349C493.159 157.341 494.098 157.248 494.869 157.07C495.647 156.892 496.24 156.63 496.646 156.283C497.052 155.927 497.255 155.504 497.255 155.013C497.255 154.522 497.048 154.108 496.633 153.769C496.227 153.422 495.635 153.16 494.856 152.982C494.077 152.804 493.142 152.715 492.05 152.715Z" fill="white"/>
<path d="M477.646 141.67H470.74V139.728H477.646V141.67ZM477.646 146.888H470.74V144.933H477.646V146.888ZM466.652 137.862C467.769 137.845 468.776 138.069 469.674 138.535C470.579 139 471.29 139.648 471.806 140.477C472.323 141.306 472.581 142.254 472.581 143.321C472.581 144.362 472.323 145.297 471.806 146.126C471.29 146.956 470.579 147.603 469.674 148.069C468.776 148.526 467.769 148.754 466.652 148.754C465.518 148.754 464.498 148.526 463.593 148.069C462.695 147.603 461.984 146.956 461.46 146.126C460.943 145.297 460.685 144.362 460.685 143.321C460.685 142.254 460.943 141.306 461.46 140.477C461.984 139.648 462.695 139 463.593 138.535C464.498 138.069 465.518 137.845 466.652 137.862ZM466.652 139.931C465.941 139.923 465.306 140.062 464.748 140.35C464.198 140.629 463.766 141.027 463.453 141.543C463.14 142.051 462.983 142.644 462.983 143.321C462.983 143.981 463.14 144.569 463.453 145.085C463.766 145.593 464.198 145.991 464.748 146.279C465.306 146.567 465.941 146.71 466.652 146.71C467.346 146.71 467.964 146.567 468.506 146.279C469.056 145.991 469.487 145.593 469.801 145.085C470.114 144.569 470.27 143.981 470.27 143.321C470.27 142.644 470.114 142.051 469.801 141.543C469.487 141.027 469.056 140.629 468.506 140.35C467.964 140.062 467.346 139.923 466.652 139.931ZM479.322 149.96H476.91V136.529H479.322V149.96ZM471.692 150.481C473.275 150.481 474.642 150.654 475.793 151.001C476.952 151.34 477.841 151.839 478.459 152.5C479.085 153.151 479.398 153.938 479.398 154.861C479.398 155.775 479.085 156.562 478.459 157.222C477.841 157.882 476.952 158.386 475.793 158.733C474.642 159.08 473.275 159.253 471.692 159.253C470.118 159.253 468.751 159.08 467.592 158.733C466.441 158.386 465.556 157.882 464.938 157.222C464.32 156.562 464.011 155.775 464.011 154.861C464.011 153.938 464.32 153.151 464.938 152.5C465.556 151.839 466.441 151.34 467.592 151.001C468.751 150.654 470.118 150.481 471.692 150.481ZM471.692 152.334C470.6 152.334 469.652 152.436 468.848 152.639C468.044 152.834 467.431 153.122 467.008 153.502C466.584 153.875 466.373 154.328 466.373 154.861C466.373 155.377 466.584 155.821 467.008 156.194C467.431 156.566 468.044 156.854 468.848 157.057C469.652 157.252 470.6 157.349 471.692 157.349C472.809 157.349 473.77 157.252 474.574 157.057C475.378 156.854 475.987 156.566 476.402 156.194C476.825 155.821 477.037 155.377 477.037 154.861C477.037 154.319 476.825 153.862 476.402 153.49C475.987 153.117 475.378 152.834 474.574 152.639C473.77 152.436 472.809 152.334 471.692 152.334Z" fill="white"/>
<path d="M460.005 156.46H439.184V154.48H460.005V156.46ZM450.724 155.039H448.363V149.173H450.724V155.039ZM443.983 142.013H455.155V138.09H457.529V149.808H441.558V138.09H443.983V142.013ZM455.155 147.853V143.956H443.983V147.853H455.155Z" fill="white"/>
<path d="M428.373 152.258C430.049 152.258 431.471 152.394 432.639 152.665C433.807 152.935 434.695 153.333 435.305 153.858C435.923 154.374 436.231 155.017 436.231 155.788C436.231 156.905 435.55 157.76 434.188 158.352C432.825 158.953 430.887 159.253 428.373 159.253C425.834 159.253 423.883 158.953 422.521 158.352C421.158 157.76 420.477 156.905 420.477 155.788C420.477 155.017 420.781 154.374 421.391 153.858C422 153.333 422.897 152.935 424.082 152.665C425.267 152.394 426.697 152.258 428.373 152.258ZM428.373 154.048C427.197 154.048 426.202 154.116 425.39 154.251C424.577 154.378 423.964 154.573 423.549 154.835C423.143 155.089 422.939 155.407 422.939 155.788C422.939 156.152 423.143 156.46 423.549 156.714C423.964 156.968 424.573 157.154 425.377 157.273C426.189 157.4 427.188 157.463 428.373 157.463C429.558 157.463 430.548 157.4 431.344 157.273C432.148 157.154 432.757 156.968 433.172 156.714C433.587 156.46 433.794 156.152 433.794 155.788C433.794 155.407 433.587 155.089 433.172 154.835C432.757 154.573 432.148 154.378 431.344 154.251C430.54 154.116 429.549 154.048 428.373 154.048ZM437.59 140.236H419.055V138.344H437.59V140.236ZM428.386 141.048C430.798 141.048 432.643 141.328 433.921 141.886C435.199 142.436 435.838 143.253 435.838 144.336C435.838 145.377 435.195 146.177 433.908 146.736C432.63 147.286 430.789 147.561 428.386 147.561C425.982 147.561 424.133 147.286 422.838 146.736C421.543 146.177 420.896 145.377 420.896 144.336C420.896 143.253 421.543 142.436 422.838 141.886C424.133 141.328 425.982 141.048 428.386 141.048ZM428.386 142.724C427.319 142.724 426.422 142.783 425.694 142.902C424.966 143.02 424.412 143.198 424.031 143.435C423.659 143.672 423.473 143.972 423.473 144.336C423.473 144.658 423.659 144.933 424.031 145.162C424.412 145.39 424.966 145.568 425.694 145.695C426.422 145.813 427.319 145.877 428.386 145.885C429.452 145.877 430.349 145.813 431.077 145.695C431.805 145.568 432.355 145.39 432.728 145.162C433.1 144.933 433.286 144.658 433.286 144.336C433.286 143.972 433.1 143.672 432.728 143.435C432.355 143.198 431.805 143.02 431.077 142.902C430.349 142.783 429.452 142.724 428.386 142.724ZM429.579 139.601H427.18V136.275H429.579V139.601ZM438.758 151.014H418.014V149.11H438.758V151.014ZM429.579 150.011H427.18V146.837H429.579V150.011Z" fill="white"/>
<path d="M415.048 150.9C414.726 150.9 414.426 150.815 414.147 150.646C413.867 150.477 413.647 150.257 413.487 149.986C413.334 149.707 413.258 149.406 413.258 149.084C413.258 148.771 413.334 148.475 413.487 148.196C413.647 147.917 413.867 147.701 414.147 147.548C414.426 147.388 414.726 147.307 415.048 147.307C415.361 147.307 415.657 147.388 415.937 147.548C416.216 147.701 416.436 147.917 416.597 148.196C416.758 148.475 416.838 148.771 416.838 149.084C416.838 149.406 416.758 149.707 416.597 149.986C416.436 150.257 416.216 150.477 415.937 150.646C415.657 150.815 415.361 150.9 415.048 150.9Z" fill="white"/>
<path d="M408.185 140.68H393.471V138.725H408.185V140.68ZM412.032 156.207H391.288V154.226H412.032V156.207ZM401.558 155.254H399.184V146.203H401.558V155.254ZM409.696 140.959C409.696 142.305 409.679 143.435 409.645 144.349C409.611 145.255 409.535 146.33 409.417 147.574C409.298 148.809 409.108 150.147 408.845 151.585L406.395 151.319C406.674 149.956 406.877 148.67 407.004 147.459C407.131 146.249 407.208 145.179 407.233 144.248C407.267 143.308 407.284 142.212 407.284 140.959V138.725H409.696V140.959Z" fill="white"/>
<path d="M381.365 139.893H371.323V137.9H381.365V139.893ZM376.985 148.386H374.598V142.889H376.985V148.386ZM382.787 139.208C382.778 140.359 382.74 141.378 382.673 142.267C382.605 143.156 382.448 144.171 382.203 145.314L379.829 145.124C380.066 143.964 380.214 142.948 380.273 142.077C380.341 141.196 380.375 140.24 380.375 139.208V137.9H382.787V139.208ZM388.119 150.646H385.656V136.529H388.119V150.646ZM391.267 144.578H387.027V142.559H391.267V144.578ZM369.927 147.294C372.66 147.294 375.212 147.252 377.582 147.167C379.952 147.074 382.169 146.892 384.234 146.622L384.361 148.361C382.237 148.716 379.969 148.958 377.556 149.084C375.153 149.211 372.686 149.275 370.155 149.275L369.927 147.294ZM380.603 150.913C382.194 150.913 383.566 151.078 384.717 151.408C385.868 151.729 386.748 152.203 387.357 152.83C387.975 153.447 388.284 154.18 388.284 155.026C388.284 155.906 387.975 156.659 387.357 157.286C386.748 157.912 385.868 158.39 384.717 158.72C383.566 159.05 382.194 159.215 380.603 159.215C379.012 159.215 377.641 159.05 376.49 158.72C375.339 158.39 374.455 157.912 373.837 157.286C373.219 156.659 372.91 155.906 372.91 155.026C372.91 154.18 373.219 153.447 373.837 152.83C374.455 152.203 375.343 151.729 376.503 151.408C377.662 151.078 379.029 150.913 380.603 150.913ZM380.603 152.779C379.528 152.779 378.589 152.868 377.785 153.045C376.989 153.215 376.384 153.473 375.969 153.82C375.555 154.158 375.347 154.56 375.347 155.026C375.347 155.517 375.555 155.936 375.969 156.283C376.384 156.621 376.985 156.879 377.772 157.057C378.559 157.235 379.503 157.324 380.603 157.324C381.704 157.324 382.643 157.235 383.422 157.057C384.209 156.879 384.81 156.621 385.224 156.283C385.639 155.936 385.846 155.517 385.846 155.026C385.846 154.56 385.639 154.158 385.224 153.82C384.81 153.473 384.209 153.215 383.422 153.045C382.635 152.868 381.695 152.779 380.603 152.779Z" fill="white"/>
<path d="M230.737 464.397C230.737 465.785 230.479 467.093 229.962 468.32C229.455 469.539 228.722 470.597 227.766 471.494C226.81 472.391 225.676 473.072 224.364 473.538L223.082 471.671C224.241 471.265 225.248 470.69 226.103 469.945C226.966 469.2 227.631 468.349 228.096 467.393C228.562 466.428 228.794 465.43 228.794 464.397V462.658H230.737V464.397ZM231.181 464.397C231.181 465.37 231.401 466.31 231.841 467.215C232.281 468.112 232.912 468.912 233.733 469.615C234.562 470.317 235.544 470.863 236.678 471.252L235.459 473.119C234.173 472.67 233.06 472.014 232.121 471.151C231.181 470.279 230.462 469.268 229.962 468.117C229.472 466.957 229.226 465.717 229.226 464.397V462.658H231.181V464.397ZM236.107 463.775H223.78V461.833H236.107V463.775ZM241.122 474.033H238.722V460.309H241.122V474.033ZM244.435 468.193H240.449V466.162H244.435V468.193ZM241.122 483.059H238.722V477.105H226.09V475.163H241.122V483.059Z" fill="#CD354E"/>
<path d="M221.601 483.059H219.316V460.309H221.601V483.059ZM215.406 470.338H211.153V468.396H215.406V470.338ZM216.98 481.929H214.708V460.817H216.98V481.929ZM208.474 466.669C208.474 468.362 208.267 469.983 207.852 471.532C207.446 473.081 206.854 474.473 206.075 475.708C205.296 476.944 204.348 477.909 203.231 478.603L201.733 476.8C202.783 476.174 203.676 475.328 204.412 474.261C205.148 473.195 205.698 472.01 206.062 470.707C206.426 469.395 206.608 468.049 206.608 466.669V463.902H208.474V466.669ZM208.931 466.669C208.931 467.998 209.109 469.285 209.465 470.529C209.82 471.764 210.358 472.886 211.077 473.893C211.796 474.892 212.672 475.692 213.705 476.292L212.258 478.07C211.149 477.393 210.209 476.474 209.439 475.315C208.677 474.147 208.102 472.822 207.713 471.341C207.332 469.86 207.141 468.303 207.141 466.669V463.902H208.931V466.669ZM212.854 464.841H202.444V462.874H212.854V464.841Z" fill="#CD354E"/>
<path d="M196.678 480.241H175.857V478.248H196.678V480.241ZM187.131 465.616C187.131 467.165 186.733 468.569 185.938 469.831C185.142 471.092 184.042 472.137 182.637 472.966C181.24 473.796 179.658 474.375 177.889 474.706L176.949 472.763C178.507 472.509 179.895 472.035 181.113 471.341C182.34 470.647 183.297 469.805 183.982 468.815C184.676 467.825 185.023 466.758 185.023 465.616V465.133H187.131V465.616ZM187.474 465.616C187.474 466.758 187.816 467.825 188.502 468.815C189.196 469.805 190.157 470.647 191.384 471.341C192.619 472.035 194.012 472.509 195.561 472.763L194.596 474.706C192.818 474.375 191.227 473.796 189.822 472.966C188.426 472.137 187.326 471.092 186.521 469.831C185.726 468.569 185.328 467.165 185.328 465.616V465.133H187.474V465.616ZM194.748 465.781H177.749V463.826H194.748V465.781ZM187.423 464.562H185.049V460.804H187.423V464.562Z" fill="#CD354E"/>
<path d="M168.309 468.637H164.5V466.72H168.309V468.637ZM174.085 477.359H171.787V460.334H174.085V477.359ZM169.629 476.788H167.319V460.779H169.629V476.788ZM174.733 482.615H159.105V480.622H174.733V482.615ZM161.555 481.84H159.105V475.48H161.555V481.84ZM157.175 471.811C159.147 471.811 160.704 471.777 161.847 471.709C162.99 471.633 164.145 471.477 165.313 471.24L165.554 473.169C164.31 473.415 163.083 473.576 161.872 473.652C160.67 473.728 159.105 473.766 157.175 473.766H155.702V471.811H157.175ZM164.373 464.118H158.013V472.509H155.702V462.15H164.373V464.118ZM163.459 468.828H157.289V466.961H163.459V468.828Z" fill="#CD354E"/>
<path d="M150.642 463.292H135.966V461.35H150.642V463.292ZM151.734 463.331C151.734 464.312 151.725 465.146 151.708 465.832C151.692 466.517 151.637 467.287 151.543 468.142C151.45 468.997 151.306 469.907 151.112 470.872L148.725 470.668C148.928 469.737 149.076 468.857 149.169 468.028C149.263 467.198 149.318 466.449 149.334 465.781C149.351 465.112 149.36 464.295 149.36 463.331V461.35H151.734V463.331ZM135.7 467.952L135.382 465.933L150.058 465.501V467.292L135.7 467.952ZM154.235 474.21H133.554V472.268H154.235V474.21ZM144.167 473.525H141.743V469.094H144.167V473.525ZM152.229 482.716H136.106V480.761H152.229V482.716ZM138.531 481.599H136.106V475.975H138.531V481.599Z" fill="#CD354E"/>
<path d="M128.042 473.576H107.298V471.646H128.042V473.576ZM118.838 472.611H116.438V468.815H118.838V472.611ZM126.099 462.975H109.202V461.02H126.099V462.975ZM125.998 469.285H109.303V467.317H125.998V469.285ZM114.915 468.663H112.515V461.833H114.915V468.663ZM122.786 468.663H120.374V461.833H122.786V468.663ZM125.515 482.78H109.786V475.569H125.515V482.78ZM112.173 480.825H123.154V477.448H112.173V480.825Z" fill="#CD354E"/>
<path d="M106.871 473.588H86.127V471.646H106.871V473.588ZM97.2861 475.531C97.2861 476.834 96.9053 478.002 96.1436 479.035C95.3903 480.059 94.3535 480.905 93.0332 481.574C91.7129 482.242 90.2106 482.708 88.5264 482.97L87.625 481.104C89.0977 480.909 90.4095 480.55 91.5605 480.025C92.7201 479.492 93.6214 478.84 94.2646 478.07C94.9079 477.291 95.2295 476.445 95.2295 475.531V474.934H97.2861V475.531ZM97.6924 475.531C97.6924 476.445 98.0182 477.291 98.6699 478.07C99.3216 478.84 100.223 479.492 101.374 480.025C102.525 480.55 103.837 480.909 105.31 481.104L104.408 482.97C102.715 482.708 101.205 482.242 99.876 481.574C98.5557 480.905 97.5189 480.059 96.7656 479.035C96.0208 478.002 95.6484 476.834 95.6484 475.531V474.934H97.6924V475.531ZM97.3115 461.515C97.3115 462.81 96.901 463.991 96.0801 465.057C95.2676 466.124 94.1715 467.004 92.792 467.698C91.4124 468.392 89.8763 468.857 88.1836 469.094L87.2695 467.241C88.7422 467.046 90.0879 466.674 91.3066 466.124C92.5339 465.565 93.4987 464.884 94.2012 464.08C94.9036 463.276 95.2549 462.421 95.2549 461.515V460.55H97.3115V461.515ZM97.6924 461.515C97.6924 462.438 98.0479 463.301 98.7588 464.105C99.4782 464.901 100.447 465.578 101.666 466.136C102.893 466.695 104.23 467.063 105.678 467.241L104.789 469.094C103.105 468.857 101.569 468.396 100.181 467.71C98.7926 467.016 97.6882 466.136 96.8672 465.07C96.0547 464.003 95.6484 462.819 95.6484 461.515V460.55H97.6924V461.515ZM94.1377 472.941H91.751V468.79H94.1377V472.941ZM101.26 472.941H98.8857V468.79H101.26V472.941Z" fill="#CD354E"/>
<path d="M540.549 463.546C540.549 465.138 540.121 466.631 539.266 468.028C538.42 469.416 537.29 470.592 535.877 471.557C534.463 472.522 532.919 473.191 531.243 473.563L530.164 471.544C531.611 471.257 532.969 470.715 534.239 469.919C535.509 469.124 536.524 468.163 537.286 467.038C538.048 465.912 538.428 464.748 538.428 463.546V461.845H540.549V463.546ZM540.968 463.546C540.968 464.74 541.353 465.903 542.123 467.038C542.893 468.172 543.917 469.141 545.195 469.945C546.473 470.74 547.831 471.274 549.27 471.544L548.191 473.563C546.532 473.191 544.996 472.526 543.583 471.57C542.169 470.613 541.035 469.437 540.18 468.041C539.326 466.644 538.898 465.146 538.898 463.546V461.845H540.968V463.546ZM550.235 480.076H529.415V478.083H550.235V480.076Z" fill="#CD354E"/>
<path d="M519.683 477.372H509.133V462.505H519.683V477.372ZM511.532 475.467H517.334V464.384H511.532V475.467ZM527.224 483.123H524.824V460.309H527.224V483.123ZM525.802 470.465H519.289V468.498H525.802V470.465Z" fill="#CD354E"/>
<path d="M498.677 462.62C498.677 465.032 498.368 467.241 497.75 469.247C497.132 471.244 496.062 473.106 494.538 474.833C493.023 476.559 490.971 478.087 488.381 479.416L487.023 477.575C489.316 476.415 491.144 475.108 492.507 473.652C493.878 472.188 494.86 470.58 495.452 468.828C496.045 467.067 496.341 465.095 496.341 462.912V462.62H498.677ZM497.788 464.587H488.292V462.62H497.788V464.587ZM487.505 470.897L487.124 468.84L496.328 468.256V470.084L487.505 470.897ZM506.015 483.059H503.628V460.309H506.015V483.059ZM504.834 471.316H498.614V469.335H504.834V471.316Z" fill="#CD354E"/>
<path d="M484.108 474.68C483.786 474.68 483.486 474.596 483.207 474.426C482.927 474.257 482.707 474.037 482.546 473.766C482.394 473.487 482.318 473.186 482.318 472.865C482.318 472.552 482.394 472.255 482.546 471.976C482.707 471.697 482.927 471.481 483.207 471.329C483.486 471.168 483.786 471.087 484.108 471.087C484.421 471.087 484.717 471.168 484.997 471.329C485.276 471.481 485.496 471.697 485.657 471.976C485.818 472.255 485.898 472.552 485.898 472.865C485.898 473.186 485.818 473.487 485.657 473.766C485.496 474.037 485.276 474.257 484.997 474.426C484.717 474.596 484.421 474.68 484.108 474.68Z" fill="#CD354E"/>
<path d="M471.887 472.497H469.513V468.307H471.887V472.497ZM471.532 461.642C471.532 462.971 471.126 464.185 470.313 465.286C469.509 466.386 468.413 467.304 467.025 468.041C465.646 468.777 464.114 469.285 462.429 469.564L461.541 467.647C462.997 467.452 464.33 467.059 465.54 466.466C466.759 465.874 467.719 465.154 468.422 464.308C469.124 463.462 469.475 462.573 469.475 461.642V460.677H471.532V461.642ZM471.913 461.642C471.913 462.582 472.268 463.474 472.979 464.321C473.69 465.167 474.655 465.887 475.874 466.479C477.093 467.063 478.43 467.452 479.885 467.647L478.921 469.564C477.253 469.285 475.73 468.781 474.35 468.053C472.979 467.317 471.887 466.394 471.075 465.286C470.271 464.177 469.869 462.962 469.869 461.642V460.677H471.913V461.642ZM481.092 473.411H460.347V471.468H481.092V473.411ZM470.707 475.086C472.349 475.086 473.758 475.243 474.934 475.556C476.111 475.869 477.008 476.326 477.626 476.927C478.252 477.52 478.565 478.235 478.565 479.073C478.565 479.919 478.252 480.634 477.626 481.218C477.008 481.811 476.111 482.259 474.934 482.564C473.758 482.877 472.349 483.034 470.707 483.034C469.065 483.034 467.651 482.877 466.467 482.564C465.282 482.259 464.376 481.811 463.75 481.218C463.123 480.634 462.81 479.919 462.81 479.073C462.81 478.235 463.123 477.52 463.75 476.927C464.376 476.326 465.282 475.869 466.467 475.556C467.651 475.243 469.065 475.086 470.707 475.086ZM470.707 476.965C469.53 476.965 468.536 477.046 467.723 477.207C466.911 477.359 466.297 477.592 465.883 477.905C465.468 478.218 465.26 478.607 465.26 479.073C465.26 479.521 465.468 479.906 465.883 480.228C466.297 480.541 466.915 480.778 467.736 480.939C468.557 481.108 469.547 481.193 470.707 481.193C471.866 481.193 472.848 481.108 473.652 480.939C474.465 480.778 475.082 480.541 475.506 480.228C475.929 479.906 476.14 479.521 476.14 479.073C476.14 478.624 475.929 478.239 475.506 477.917C475.082 477.596 474.465 477.359 473.652 477.207C472.848 477.046 471.866 476.965 470.707 476.965Z" fill="#CD354E"/>
<path d="M449.701 474.49C451.258 474.49 452.604 474.655 453.738 474.985C454.881 475.315 455.752 475.802 456.353 476.445C456.954 477.088 457.255 477.858 457.255 478.755C457.255 479.661 456.954 480.431 456.353 481.066C455.752 481.709 454.885 482.2 453.751 482.539C452.625 482.886 451.275 483.063 449.701 483.072C448.135 483.063 446.777 482.886 445.626 482.539C444.483 482.2 443.603 481.709 442.985 481.066C442.376 480.431 442.071 479.661 442.071 478.755C442.071 477.858 442.376 477.088 442.985 476.445C443.603 475.802 444.483 475.315 445.626 474.985C446.777 474.655 448.135 474.49 449.701 474.49ZM449.701 476.381C448.609 476.381 447.674 476.474 446.895 476.661C446.117 476.847 445.52 477.118 445.105 477.473C444.699 477.82 444.496 478.248 444.496 478.755C444.496 479.246 444.699 479.674 445.105 480.038C445.52 480.393 446.121 480.668 446.908 480.863C447.695 481.057 448.626 481.155 449.701 481.155C450.793 481.155 451.728 481.057 452.507 480.863C453.285 480.668 453.878 480.393 454.284 480.038C454.699 479.674 454.906 479.246 454.906 478.755C454.906 478.248 454.703 477.82 454.297 477.473C453.89 477.118 453.298 476.847 452.519 476.661C451.749 476.474 450.81 476.381 449.701 476.381ZM457.052 473.906H454.652V460.309H457.052V473.906ZM460.365 467.926H456.379V465.895H460.365V467.926ZM442.427 465.019H448.381V461.744H450.793V472.306H440.052V461.744H442.427V465.019ZM448.381 470.376V466.911H442.427V470.376H448.381Z" fill="#CD354E"/>
<path d="M433.779 480.139H412.958V478.146H433.779V480.139ZM417.757 465.971H428.929V461.883H431.303V473.842H415.332V461.883H417.757V465.971ZM428.929 471.925V467.875H417.757V471.925H428.929Z" fill="#CD354E"/>
<path d="M410.64 483.123H408.215V460.309H410.64V483.123ZM398.453 462.023C399.587 462.023 400.598 462.353 401.487 463.013C402.375 463.673 403.069 464.604 403.569 465.806C404.068 467.008 404.318 468.409 404.318 470.008C404.318 471.616 404.068 473.021 403.569 474.223C403.069 475.425 402.375 476.356 401.487 477.016C400.598 477.668 399.587 477.994 398.453 477.994C397.319 477.994 396.303 477.668 395.406 477.016C394.517 476.356 393.823 475.425 393.324 474.223C392.824 473.021 392.575 471.616 392.575 470.008C392.575 468.409 392.824 467.008 393.324 465.806C393.823 464.604 394.517 463.673 395.406 463.013C396.303 462.353 397.319 462.023 398.453 462.023ZM398.453 464.181C397.759 464.181 397.141 464.418 396.599 464.892C396.057 465.366 395.639 466.043 395.342 466.923C395.055 467.795 394.911 468.823 394.911 470.008C394.911 471.185 395.055 472.213 395.342 473.093C395.639 473.973 396.057 474.651 396.599 475.125C397.141 475.59 397.759 475.823 398.453 475.823C399.147 475.823 399.76 475.59 400.293 475.125C400.835 474.651 401.254 473.973 401.55 473.093C401.847 472.213 401.995 471.185 401.995 470.008C401.995 468.823 401.847 467.795 401.55 466.923C401.254 466.043 400.839 465.366 400.306 464.892C399.773 464.418 399.155 464.181 398.453 464.181Z" fill="#CD354E"/>
<path d="M388.34 483.123H385.953V460.309H388.34V483.123ZM392.009 471.227H387.794V469.208H392.009V471.227ZM373.41 475.645C375.678 475.653 377.608 475.607 379.199 475.505C380.799 475.395 382.415 475.192 384.049 474.896L384.29 476.864C382.614 477.16 380.951 477.367 379.301 477.486C377.659 477.604 375.695 477.668 373.41 477.676H371.569V475.645H373.41ZM381.916 470.732H373.956V476.445H371.569V468.777H379.529V464.333H371.518V462.366H381.916V470.732Z" fill="#CD354E"/>
<circle cx="165.084" cy="179.383" r="6.4397" fill="#CD354E"/>
<circle cx="460.414" cy="179.383" r="6.4397" fill="white"/>
<circle cx="165.084" cy="440.901" r="6.4397" fill="#CD354E"/>
<circle cx="460.414" cy="440.901" r="6.4397" fill="#CD354E"/>
<rect x="171.524" y="179.383" width="287.534" height="1" fill="#CD354E"/>
<rect x="171.524" y="439.901" width="287.534" height="1" fill="#CD354E"/>
<rect x="164.084" y="434.461" width="248.639" height="1" transform="rotate(-90 164.084 434.461)" fill="#CD354E"/>
<rect x="459.913" y="434.461" width="248.639" height="1" transform="rotate(-90 459.913 434.461)" fill="#CD354E"/>
</svg>
