<svg width="625" height="624" viewBox="0 0 625 624" fill="none" xmlns="http://www.w3.org/2000/svg">
<circle cx="165.084" cy="459.272" r="163.735" stroke="#CD354E"/>
<circle cx="460.414" cy="459.272" r="163.735" fill="#CD354E" stroke="#CD354E"/>
<circle cx="460.414" cy="164.812" r="163.735" stroke="#CD354E"/>
<circle cx="165.084" cy="164.812" r="163.735" stroke="#CD354E"/>
<path d="M239.21 140.371H225.753V138.581H239.21V140.371ZM232.494 141.132C233.586 141.132 234.551 141.272 235.388 141.551C236.226 141.822 236.874 142.216 237.331 142.732C237.788 143.24 238.016 143.845 238.016 144.547C238.016 145.233 237.788 145.83 237.331 146.337C236.874 146.837 236.226 147.226 235.388 147.505C234.551 147.776 233.586 147.912 232.494 147.912C231.385 147.912 230.412 147.776 229.574 147.505C228.745 147.226 228.101 146.837 227.644 146.337C227.196 145.83 226.971 145.233 226.971 144.547C226.971 143.845 227.196 143.24 227.644 142.732C228.101 142.216 228.745 141.822 229.574 141.551C230.412 141.272 231.385 141.132 232.494 141.132ZM232.494 142.795C231.842 142.778 231.275 142.842 230.793 142.986C230.31 143.13 229.934 143.333 229.663 143.595C229.392 143.858 229.257 144.175 229.257 144.547C229.257 144.894 229.392 145.199 229.663 145.461C229.934 145.715 230.31 145.91 230.793 146.045C231.284 146.172 231.851 146.236 232.494 146.236C233.137 146.236 233.7 146.172 234.182 146.045C234.665 145.91 235.037 145.715 235.3 145.461C235.562 145.199 235.693 144.894 235.693 144.547C235.693 144.175 235.562 143.858 235.3 143.595C235.037 143.333 234.665 143.13 234.182 142.986C233.7 142.842 233.137 142.778 232.494 142.795ZM233.662 139.545H231.262V136.486H233.662V139.545ZM233.662 150.108H231.262V146.985H233.662V150.108ZM243.793 151.911H241.368V136.676H243.793V151.911ZM243.793 159.363H241.368V154.818H228.279V152.914H243.793V159.363ZM225.016 149.384C227.801 149.393 230.399 149.35 232.811 149.257C235.223 149.164 237.496 148.978 239.629 148.699L239.806 150.375C237.614 150.738 235.329 150.98 232.951 151.098C230.573 151.217 228.042 151.276 225.359 151.276L225.016 149.384Z" fill="#CD354E"/>
<path d="M222.66 159.363H220.223V136.613H222.66V159.363ZM215.906 139.063C215.906 141.382 215.547 143.528 214.827 145.5C214.116 147.463 212.974 149.274 211.399 150.933C209.825 152.583 207.777 154.014 205.255 155.224L203.96 153.269C206.152 152.236 207.951 151.035 209.355 149.664C210.769 148.292 211.814 146.761 212.491 145.068C213.168 143.375 213.507 141.505 213.507 139.457V139.063H215.906ZM214.548 140.993H205.064V139.063H214.548V140.993Z" fill="#CD354E"/>
<path d="M198.346 156.544H177.526V154.551H198.346V156.544ZM188.799 141.919C188.799 143.468 188.402 144.873 187.606 146.134C186.81 147.395 185.71 148.441 184.305 149.27C182.909 150.099 181.326 150.679 179.557 151.009L178.618 149.067C180.175 148.813 181.563 148.339 182.782 147.645C184.009 146.951 184.965 146.109 185.651 145.119C186.345 144.128 186.692 143.062 186.692 141.919V141.437H188.799V141.919ZM189.142 141.919C189.142 143.062 189.485 144.128 190.17 145.119C190.864 146.109 191.825 146.951 193.052 147.645C194.288 148.339 195.68 148.813 197.229 149.067L196.264 151.009C194.487 150.679 192.896 150.099 191.491 149.27C190.094 148.441 188.994 147.395 188.19 146.134C187.394 144.873 186.997 143.468 186.997 141.919V141.437H189.142V141.919ZM196.417 142.084H179.417V140.129H196.417V142.084ZM189.091 140.866H186.717V137.108H189.091V140.866Z" fill="#CD354E"/>
<path d="M169.977 144.941H166.169V143.024H169.977V144.941ZM175.754 153.663H173.456V136.638H175.754V153.663ZM171.298 153.091H168.987V137.083H171.298V153.091ZM176.401 158.918H160.773V156.925H176.401V158.918ZM163.223 158.144H160.773V151.784H163.223V158.144ZM158.844 148.115C160.816 148.115 162.373 148.081 163.515 148.013C164.658 147.937 165.813 147.78 166.981 147.543L167.222 149.473C165.978 149.719 164.751 149.879 163.541 149.956C162.339 150.032 160.773 150.07 158.844 150.07H157.371V148.115H158.844ZM166.042 140.421H159.681V148.813H157.371V138.454H166.042V140.421ZM165.128 145.131H158.958V143.265H165.128V145.131Z" fill="#CD354E"/>
<path d="M152.31 139.596H137.635V137.654H152.31V139.596ZM153.402 139.634C153.402 140.616 153.394 141.45 153.377 142.135C153.36 142.821 153.305 143.591 153.212 144.446C153.119 145.301 152.975 146.21 152.78 147.175L150.393 146.972C150.596 146.041 150.745 145.161 150.838 144.332C150.931 143.502 150.986 142.753 151.003 142.084C151.02 141.416 151.028 140.599 151.028 139.634V137.654H153.402V139.634ZM137.368 144.255L137.051 142.237L151.726 141.805V143.595L137.368 144.255ZM155.903 150.514H135.222V148.572H155.903V150.514ZM145.836 149.829H143.411V145.398H145.836V149.829ZM153.897 159.02H137.774V157.065H153.897V159.02ZM140.199 157.903H137.774V152.279H140.199V157.903Z" fill="#CD354E"/>
<path d="M126.486 143.671C126.418 143.113 126.223 142.63 125.902 142.224C125.58 141.818 125.144 141.513 124.594 141.31C124.052 141.107 123.426 141.005 122.715 141.005C121.979 141.005 121.331 141.12 120.773 141.348C120.214 141.577 119.782 141.898 119.478 142.313C119.173 142.719 119.021 143.185 119.021 143.709C119.021 144.48 119.338 145.072 119.973 145.487C120.608 145.902 121.407 146.232 122.372 146.477L124.137 146.947C125.669 147.319 126.934 147.903 127.933 148.699C128.94 149.494 129.444 150.641 129.444 152.139C129.444 153.172 129.173 154.098 128.631 154.919C128.098 155.732 127.315 156.371 126.282 156.836C125.258 157.293 124.04 157.522 122.626 157.522C121.264 157.522 120.074 157.306 119.059 156.875C118.043 156.434 117.252 155.812 116.685 155.008C116.118 154.196 115.805 153.235 115.745 152.126H118.538C118.598 152.761 118.813 153.299 119.186 153.739C119.558 154.179 120.041 154.509 120.633 154.729C121.226 154.949 121.886 155.059 122.614 155.059C123.392 155.059 124.09 154.936 124.708 154.691C125.326 154.445 125.809 154.098 126.156 153.65C126.503 153.193 126.676 152.672 126.676 152.088C126.676 151.581 126.532 151.153 126.244 150.806C125.957 150.459 125.563 150.176 125.064 149.956C124.573 149.727 123.955 149.511 123.21 149.308L121.027 148.737C119.486 148.314 118.306 147.708 117.485 146.921C116.664 146.126 116.253 145.106 116.253 143.862C116.253 142.821 116.537 141.903 117.104 141.107C117.679 140.311 118.458 139.694 119.44 139.253C120.43 138.805 121.543 138.581 122.779 138.581C124.006 138.581 125.098 138.801 126.054 139.241C127.019 139.672 127.776 140.273 128.326 141.043C128.877 141.814 129.164 142.69 129.19 143.671H126.486Z" fill="#CD354E"/>
<path d="M114.037 157.217H111.472L102.154 143.773H101.989V157.217H99.1958V138.834H101.786L111.091 152.292H111.256V138.834H114.037V157.217Z" fill="#CD354E"/>
<path d="M94.5037 143.671C94.436 143.113 94.2413 142.63 93.9197 142.224C93.5981 141.818 93.1622 141.513 92.6121 141.31C92.0704 141.107 91.4441 141.005 90.7332 141.005C89.9968 141.005 89.3494 141.12 88.7908 141.348C88.2322 141.577 87.8005 141.898 87.4958 142.313C87.1912 142.719 87.0388 143.185 87.0388 143.709C87.0388 144.48 87.3562 145.072 87.991 145.487C88.6257 145.902 89.4255 146.232 90.3904 146.477L92.155 146.947C93.6869 147.319 94.9522 147.903 95.9509 148.699C96.9581 149.494 97.4617 150.641 97.4617 152.139C97.4617 153.172 97.1908 154.098 96.6492 154.919C96.116 155.732 95.3331 156.371 94.3005 156.836C93.2764 157.293 92.0577 157.522 90.6443 157.522C89.2817 157.522 88.0925 157.306 87.0769 156.875C86.0613 156.434 85.2699 155.812 84.7029 155.008C84.1358 154.196 83.8227 153.235 83.7634 152.126H86.5564C86.6156 152.761 86.8315 153.299 87.2039 153.739C87.5763 154.179 88.0587 154.509 88.6511 154.729C89.2436 154.949 89.9037 155.059 90.6316 155.059C91.4102 155.059 92.1085 154.936 92.7263 154.691C93.3442 154.445 93.8266 154.098 94.1736 153.65C94.5206 153.193 94.6941 152.672 94.6941 152.088C94.6941 151.581 94.5502 151.153 94.2625 150.806C93.9747 150.459 93.5811 150.176 93.0818 149.956C92.5909 149.727 91.9731 149.511 91.2283 149.308L89.0447 148.737C87.5043 148.314 86.3236 147.708 85.5027 146.921C84.6817 146.126 84.2712 145.106 84.2712 143.862C84.2712 142.821 84.5548 141.903 85.1218 141.107C85.6973 140.311 86.476 139.694 87.4578 139.253C88.448 138.805 89.561 138.581 90.7966 138.581C92.0238 138.581 93.1156 138.801 94.072 139.241C95.0369 139.672 95.7944 140.273 96.3445 141.043C96.8946 141.814 97.1824 142.69 97.2078 143.671H94.5037Z" fill="#CD354E"/>
<path d="M536.405 140.701C536.405 142.089 536.147 143.396 535.631 144.624C535.123 145.842 534.391 146.9 533.434 147.797C532.478 148.694 531.344 149.376 530.032 149.841L528.75 147.975C529.909 147.569 530.916 146.993 531.771 146.249C532.635 145.504 533.299 144.653 533.764 143.697C534.23 142.732 534.463 141.733 534.463 140.701V138.961H536.405V140.701ZM536.849 140.701C536.849 141.674 537.069 142.613 537.51 143.519C537.95 144.416 538.58 145.216 539.401 145.918C540.231 146.621 541.212 147.167 542.346 147.556L541.128 149.422C539.841 148.974 538.728 148.318 537.789 147.455C536.849 146.583 536.13 145.571 535.631 144.42C535.14 143.261 534.894 142.021 534.894 140.701V138.961H536.849V140.701ZM541.775 140.079H529.448V138.136H541.775V140.079ZM546.79 150.336H544.39V136.613H546.79V150.336ZM550.103 144.497H546.117V142.465H550.103V144.497ZM546.79 159.363H544.39V153.409H531.759V151.466H546.79V159.363Z" fill="#CD354E"/>
<path d="M527.27 159.363H524.984V136.613H527.27V159.363ZM521.074 146.642H516.821V144.7H521.074V146.642ZM522.648 158.233H520.376V137.121H522.648V158.233ZM514.143 142.973C514.143 144.666 513.935 146.287 513.521 147.835C513.114 149.384 512.522 150.777 511.743 152.012C510.965 153.248 510.017 154.213 508.899 154.907L507.401 153.104C508.451 152.478 509.344 151.631 510.08 150.565C510.816 149.499 511.367 148.314 511.73 147.01C512.094 145.698 512.276 144.353 512.276 142.973V140.206H514.143V142.973ZM514.6 142.973C514.6 144.302 514.777 145.588 515.133 146.833C515.488 148.068 516.026 149.19 516.745 150.197C517.465 151.195 518.34 151.995 519.373 152.596L517.926 154.374C516.817 153.696 515.878 152.778 515.107 151.619C514.346 150.451 513.77 149.126 513.381 147.645C513 146.164 512.81 144.607 512.81 142.973V140.206H514.6V142.973ZM518.522 141.145H508.112V139.177H518.522V141.145Z" fill="#CD354E"/>
<path d="M488.953 140.053C488.953 141.526 488.699 142.901 488.191 144.179C487.683 145.457 486.959 146.57 486.02 147.518C485.081 148.466 483.959 149.185 482.656 149.676L481.361 147.759C482.52 147.336 483.519 146.735 484.357 145.957C485.203 145.178 485.851 144.281 486.299 143.265C486.748 142.25 486.972 141.179 486.972 140.053V137.806H488.953V140.053ZM489.359 140.269C489.359 141.251 489.583 142.203 490.032 143.125C490.48 144.04 491.119 144.848 491.949 145.55C492.778 146.244 493.751 146.778 494.869 147.15L493.561 149.029C492.308 148.589 491.217 147.933 490.286 147.061C489.355 146.189 488.639 145.174 488.14 144.014C487.649 142.846 487.404 141.598 487.404 140.269V137.806H489.359V140.269ZM499.401 150.336H497.001V136.613H499.401V150.336ZM502.714 144.357H498.728V142.338H502.714V144.357ZM492.05 150.882C493.608 150.882 494.953 151.052 496.087 151.39C497.222 151.72 498.089 152.198 498.69 152.825C499.299 153.451 499.604 154.208 499.604 155.097C499.604 155.986 499.299 156.748 498.69 157.382C498.089 158.017 497.226 158.5 496.1 158.83C494.974 159.168 493.625 159.337 492.05 159.337C490.485 159.337 489.126 159.168 487.975 158.83C486.833 158.5 485.952 158.017 485.334 157.382C484.725 156.748 484.42 155.986 484.42 155.097C484.42 154.208 484.725 153.451 485.334 152.825C485.952 152.198 486.833 151.72 487.975 151.39C489.126 151.052 490.485 150.882 492.05 150.882ZM492.05 152.799C490.975 152.799 490.044 152.888 489.257 153.066C488.47 153.244 487.869 153.51 487.455 153.866C487.048 154.213 486.845 154.623 486.845 155.097C486.845 155.588 487.048 156.011 487.455 156.367C487.869 156.714 488.466 156.976 489.245 157.154C490.023 157.332 490.958 157.425 492.05 157.433C493.159 157.425 494.098 157.332 494.869 157.154C495.647 156.976 496.24 156.714 496.646 156.367C497.052 156.011 497.255 155.588 497.255 155.097C497.255 154.606 497.048 154.192 496.633 153.853C496.227 153.506 495.635 153.244 494.856 153.066C494.077 152.888 493.142 152.799 492.05 152.799Z" fill="#CD354E"/>
<path d="M477.646 141.754H470.74V139.812H477.646V141.754ZM477.646 146.972H470.74V145.017H477.646V146.972ZM466.652 137.946C467.769 137.929 468.776 138.153 469.674 138.619C470.579 139.084 471.29 139.732 471.806 140.561C472.323 141.39 472.581 142.338 472.581 143.405C472.581 144.446 472.323 145.381 471.806 146.21C471.29 147.04 470.579 147.687 469.674 148.153C468.776 148.61 467.769 148.838 466.652 148.838C465.518 148.838 464.498 148.61 463.593 148.153C462.695 147.687 461.984 147.04 461.46 146.21C460.943 145.381 460.685 144.446 460.685 143.405C460.685 142.338 460.943 141.39 461.46 140.561C461.984 139.732 462.695 139.084 463.593 138.619C464.498 138.153 465.518 137.929 466.652 137.946ZM466.652 140.015C465.941 140.007 465.306 140.146 464.748 140.434C464.198 140.713 463.766 141.111 463.453 141.627C463.14 142.135 462.983 142.728 462.983 143.405C462.983 144.065 463.14 144.653 463.453 145.169C463.766 145.677 464.198 146.075 464.748 146.363C465.306 146.651 465.941 146.794 466.652 146.794C467.346 146.794 467.964 146.651 468.506 146.363C469.056 146.075 469.487 145.677 469.801 145.169C470.114 144.653 470.27 144.065 470.27 143.405C470.27 142.728 470.114 142.135 469.801 141.627C469.487 141.111 469.056 140.713 468.506 140.434C467.964 140.146 467.346 140.007 466.652 140.015ZM479.322 150.044H476.91V136.613H479.322V150.044ZM471.692 150.565C473.275 150.565 474.642 150.738 475.793 151.085C476.952 151.424 477.841 151.923 478.459 152.583C479.085 153.235 479.398 154.022 479.398 154.945C479.398 155.859 479.085 156.646 478.459 157.306C477.841 157.966 476.952 158.47 475.793 158.817C474.642 159.164 473.275 159.337 471.692 159.337C470.118 159.337 468.751 159.164 467.592 158.817C466.441 158.47 465.556 157.966 464.938 157.306C464.32 156.646 464.011 155.859 464.011 154.945C464.011 154.022 464.32 153.235 464.938 152.583C465.556 151.923 466.441 151.424 467.592 151.085C468.751 150.738 470.118 150.565 471.692 150.565ZM471.692 152.418C470.6 152.418 469.652 152.52 468.848 152.723C468.044 152.918 467.431 153.206 467.008 153.586C466.584 153.959 466.373 154.412 466.373 154.945C466.373 155.461 466.584 155.905 467.008 156.278C467.431 156.65 468.044 156.938 468.848 157.141C469.652 157.336 470.6 157.433 471.692 157.433C472.809 157.433 473.77 157.336 474.574 157.141C475.378 156.938 475.987 156.65 476.402 156.278C476.825 155.905 477.037 155.461 477.037 154.945C477.037 154.403 476.825 153.946 476.402 153.574C475.987 153.201 475.378 152.918 474.574 152.723C473.77 152.52 472.809 152.418 471.692 152.418Z" fill="#CD354E"/>
<path d="M460.005 156.544H439.184V154.564H460.005V156.544ZM450.724 155.123H448.363V149.257H450.724V155.123ZM443.983 142.097H455.155V138.174H457.529V149.892H441.558V138.174H443.983V142.097ZM455.155 147.937V144.04H443.983V147.937H455.155Z" fill="#CD354E"/>
<path d="M428.373 152.342C430.049 152.342 431.471 152.478 432.639 152.749C433.807 153.019 434.695 153.417 435.305 153.942C435.923 154.458 436.231 155.101 436.231 155.872C436.231 156.989 435.55 157.844 434.188 158.436C432.825 159.037 430.887 159.337 428.373 159.337C425.834 159.337 423.883 159.037 422.521 158.436C421.158 157.844 420.477 156.989 420.477 155.872C420.477 155.101 420.781 154.458 421.391 153.942C422 153.417 422.897 153.019 424.082 152.749C425.267 152.478 426.697 152.342 428.373 152.342ZM428.373 154.132C427.197 154.132 426.202 154.2 425.39 154.335C424.577 154.462 423.964 154.657 423.549 154.919C423.143 155.173 422.939 155.491 422.939 155.872C422.939 156.236 423.143 156.544 423.549 156.798C423.964 157.052 424.573 157.238 425.377 157.357C426.189 157.484 427.188 157.547 428.373 157.547C429.558 157.547 430.548 157.484 431.344 157.357C432.148 157.238 432.757 157.052 433.172 156.798C433.587 156.544 433.794 156.236 433.794 155.872C433.794 155.491 433.587 155.173 433.172 154.919C432.757 154.657 432.148 154.462 431.344 154.335C430.54 154.2 429.549 154.132 428.373 154.132ZM437.59 140.32H419.055V138.428H437.59V140.32ZM428.386 141.132C430.798 141.132 432.643 141.412 433.921 141.97C435.199 142.52 435.838 143.337 435.838 144.42C435.838 145.461 435.195 146.261 433.908 146.82C432.63 147.37 430.789 147.645 428.386 147.645C425.982 147.645 424.133 147.37 422.838 146.82C421.543 146.261 420.896 145.461 420.896 144.42C420.896 143.337 421.543 142.52 422.838 141.97C424.133 141.412 425.982 141.132 428.386 141.132ZM428.386 142.808C427.319 142.808 426.422 142.867 425.694 142.986C424.966 143.104 424.412 143.282 424.031 143.519C423.659 143.756 423.473 144.056 423.473 144.42C423.473 144.742 423.659 145.017 424.031 145.246C424.412 145.474 424.966 145.652 425.694 145.779C426.422 145.897 427.319 145.961 428.386 145.969C429.452 145.961 430.349 145.897 431.077 145.779C431.805 145.652 432.355 145.474 432.728 145.246C433.1 145.017 433.286 144.742 433.286 144.42C433.286 144.056 433.1 143.756 432.728 143.519C432.355 143.282 431.805 143.104 431.077 142.986C430.349 142.867 429.452 142.808 428.386 142.808ZM429.579 139.685H427.18V136.359H429.579V139.685ZM438.758 151.098H418.014V149.194H438.758V151.098ZM429.579 150.095H427.18V146.921H429.579V150.095Z" fill="#CD354E"/>
<path d="M415.048 150.984C414.726 150.984 414.426 150.899 414.147 150.73C413.867 150.561 413.647 150.341 413.487 150.07C413.334 149.791 413.258 149.49 413.258 149.168C413.258 148.855 413.334 148.559 413.487 148.28C413.647 148 413.867 147.785 414.147 147.632C414.426 147.472 414.726 147.391 415.048 147.391C415.361 147.391 415.657 147.472 415.937 147.632C416.216 147.785 416.436 148 416.597 148.28C416.758 148.559 416.838 148.855 416.838 149.168C416.838 149.49 416.758 149.791 416.597 150.07C416.436 150.341 416.216 150.561 415.937 150.73C415.657 150.899 415.361 150.984 415.048 150.984Z" fill="#CD354E"/>
<path d="M408.185 140.764H393.471V138.809H408.185V140.764ZM412.032 156.291H391.288V154.31H412.032V156.291ZM401.558 155.338H399.184V146.287H401.558V155.338ZM409.696 141.043C409.696 142.389 409.679 143.519 409.645 144.433C409.611 145.339 409.535 146.414 409.417 147.658C409.298 148.893 409.108 150.231 408.845 151.669L406.395 151.403C406.674 150.04 406.877 148.754 407.004 147.543C407.131 146.333 407.208 145.263 407.233 144.332C407.267 143.392 407.284 142.296 407.284 141.043V138.809H409.696V141.043Z" fill="#CD354E"/>
<path d="M381.365 139.977H371.323V137.984H381.365V139.977ZM376.985 148.47H374.598V142.973H376.985V148.47ZM382.787 139.292C382.778 140.443 382.74 141.462 382.673 142.351C382.605 143.24 382.448 144.255 382.203 145.398L379.829 145.208C380.066 144.048 380.214 143.032 380.273 142.161C380.341 141.28 380.375 140.324 380.375 139.292V137.984H382.787V139.292ZM388.119 150.73H385.656V136.613H388.119V150.73ZM391.267 144.662H387.027V142.643H391.267V144.662ZM369.927 147.378C372.66 147.378 375.212 147.336 377.582 147.251C379.952 147.158 382.169 146.976 384.234 146.706L384.361 148.445C382.237 148.8 379.969 149.042 377.556 149.168C375.153 149.295 372.686 149.359 370.155 149.359L369.927 147.378ZM380.603 150.997C382.194 150.997 383.566 151.162 384.717 151.492C385.868 151.813 386.748 152.287 387.357 152.914C387.975 153.531 388.284 154.264 388.284 155.11C388.284 155.99 387.975 156.743 387.357 157.37C386.748 157.996 385.868 158.474 384.717 158.804C383.566 159.134 382.194 159.299 380.603 159.299C379.012 159.299 377.641 159.134 376.49 158.804C375.339 158.474 374.455 157.996 373.837 157.37C373.219 156.743 372.91 155.99 372.91 155.11C372.91 154.264 373.219 153.531 373.837 152.914C374.455 152.287 375.343 151.813 376.503 151.492C377.662 151.162 379.029 150.997 380.603 150.997ZM380.603 152.863C379.528 152.863 378.589 152.952 377.785 153.129C376.989 153.299 376.384 153.557 375.969 153.904C375.555 154.242 375.347 154.644 375.347 155.11C375.347 155.601 375.555 156.02 375.969 156.367C376.384 156.705 376.985 156.963 377.772 157.141C378.559 157.319 379.503 157.408 380.603 157.408C381.704 157.408 382.643 157.319 383.422 157.141C384.209 156.963 384.81 156.705 385.224 156.367C385.639 156.02 385.846 155.601 385.846 155.11C385.846 154.644 385.639 154.242 385.224 153.904C384.81 153.557 384.209 153.299 383.422 153.129C382.635 152.952 381.695 152.863 380.603 152.863Z" fill="#CD354E"/>
<path d="M230.737 464.481C230.737 465.869 230.479 467.177 229.962 468.404C229.455 469.623 228.722 470.681 227.766 471.578C226.81 472.475 225.676 473.156 224.364 473.622L223.082 471.755C224.241 471.349 225.248 470.774 226.103 470.029C226.966 469.284 227.631 468.433 228.096 467.477C228.562 466.512 228.794 465.514 228.794 464.481V462.742H230.737V464.481ZM231.181 464.481C231.181 465.454 231.401 466.394 231.841 467.299C232.281 468.196 232.912 468.996 233.733 469.699C234.562 470.401 235.544 470.947 236.678 471.336L235.459 473.203C234.173 472.754 233.06 472.098 232.121 471.235C231.181 470.363 230.462 469.352 229.962 468.201C229.472 467.041 229.226 465.801 229.226 464.481V462.742H231.181V464.481ZM236.107 463.859H223.78V461.917H236.107V463.859ZM241.122 474.117H238.722V460.393H241.122V474.117ZM244.435 468.277H240.449V466.246H244.435V468.277ZM241.122 483.143H238.722V477.189H226.09V475.247H241.122V483.143Z" fill="#CD354E"/>
<path d="M221.601 483.143H219.316V460.393H221.601V483.143ZM215.406 470.422H211.153V468.48H215.406V470.422ZM216.98 482.013H214.708V460.901H216.98V482.013ZM208.474 466.753C208.474 468.446 208.267 470.067 207.852 471.616C207.446 473.165 206.854 474.557 206.075 475.792C205.296 477.028 204.348 477.993 203.231 478.687L201.733 476.884C202.783 476.258 203.676 475.412 204.412 474.345C205.148 473.279 205.698 472.094 206.062 470.791C206.426 469.479 206.608 468.133 206.608 466.753V463.986H208.474V466.753ZM208.931 466.753C208.931 468.082 209.109 469.369 209.465 470.613C209.82 471.848 210.358 472.97 211.077 473.977C211.796 474.976 212.672 475.776 213.705 476.376L212.258 478.154C211.149 477.477 210.209 476.558 209.439 475.399C208.677 474.231 208.102 472.906 207.713 471.425C207.332 469.944 207.141 468.387 207.141 466.753V463.986H208.931V466.753ZM212.854 464.925H202.444V462.958H212.854V464.925Z" fill="#CD354E"/>
<path d="M196.678 480.325H175.857V478.332H196.678V480.325ZM187.131 465.7C187.131 467.249 186.733 468.653 185.938 469.915C185.142 471.176 184.042 472.221 182.637 473.05C181.24 473.88 179.658 474.459 177.889 474.79L176.949 472.847C178.507 472.593 179.895 472.119 181.113 471.425C182.34 470.731 183.297 469.889 183.982 468.899C184.676 467.909 185.023 466.842 185.023 465.7V465.217H187.131V465.7ZM187.474 465.7C187.474 466.842 187.816 467.909 188.502 468.899C189.196 469.889 190.157 470.731 191.384 471.425C192.619 472.119 194.012 472.593 195.561 472.847L194.596 474.79C192.818 474.459 191.227 473.88 189.822 473.05C188.426 472.221 187.326 471.176 186.521 469.915C185.726 468.653 185.328 467.249 185.328 465.7V465.217H187.474V465.7ZM194.748 465.865H177.749V463.91H194.748V465.865ZM187.423 464.646H185.049V460.888H187.423V464.646Z" fill="#CD354E"/>
<path d="M168.309 468.721H164.5V466.804H168.309V468.721ZM174.085 477.443H171.787V460.418H174.085V477.443ZM169.629 476.872H167.319V460.863H169.629V476.872ZM174.733 482.699H159.105V480.706H174.733V482.699ZM161.555 481.924H159.105V475.564H161.555V481.924ZM157.175 471.895C159.147 471.895 160.704 471.861 161.847 471.793C162.99 471.717 164.145 471.561 165.313 471.324L165.554 473.253C164.31 473.499 163.083 473.66 161.872 473.736C160.67 473.812 159.105 473.85 157.175 473.85H155.702V471.895H157.175ZM164.373 464.202H158.013V472.593H155.702V462.234H164.373V464.202ZM163.459 468.912H157.289V467.045H163.459V468.912Z" fill="#CD354E"/>
<path d="M150.642 463.376H135.966V461.434H150.642V463.376ZM151.734 463.415C151.734 464.396 151.725 465.23 151.708 465.916C151.692 466.601 151.637 467.371 151.543 468.226C151.45 469.081 151.306 469.991 151.112 470.956L148.725 470.752C148.928 469.821 149.076 468.941 149.169 468.112C149.263 467.282 149.318 466.533 149.334 465.865C149.351 465.196 149.36 464.379 149.36 463.415V461.434H151.734V463.415ZM135.7 468.036L135.382 466.017L150.058 465.585V467.375L135.7 468.036ZM154.235 474.294H133.554V472.352H154.235V474.294ZM144.167 473.609H141.743V469.178H144.167V473.609ZM152.229 482.8H136.106V480.845H152.229V482.8ZM138.531 481.683H136.106V476.059H138.531V481.683Z" fill="#CD354E"/>
<path d="M128.042 473.66H107.298V471.73H128.042V473.66ZM118.838 472.695H116.438V468.899H118.838V472.695ZM126.099 463.059H109.202V461.104H126.099V463.059ZM125.998 469.369H109.303V467.401H125.998V469.369ZM114.915 468.747H112.515V461.917H114.915V468.747ZM122.786 468.747H120.374V461.917H122.786V468.747ZM125.515 482.864H109.786V475.653H125.515V482.864ZM112.173 480.909H123.154V477.532H112.173V480.909Z" fill="#CD354E"/>
<path d="M106.871 473.672H86.127V471.73H106.871V473.672ZM97.2861 475.615C97.2861 476.918 96.9053 478.086 96.1436 479.119C95.3903 480.143 94.3535 480.989 93.0332 481.658C91.7129 482.326 90.2106 482.792 88.5264 483.054L87.625 481.188C89.0977 480.993 90.4095 480.634 91.5605 480.109C92.7201 479.576 93.6214 478.924 94.2646 478.154C94.9079 477.375 95.2295 476.529 95.2295 475.615V475.018H97.2861V475.615ZM97.6924 475.615C97.6924 476.529 98.0182 477.375 98.6699 478.154C99.3216 478.924 100.223 479.576 101.374 480.109C102.525 480.634 103.837 480.993 105.31 481.188L104.408 483.054C102.715 482.792 101.205 482.326 99.876 481.658C98.5557 480.989 97.5189 480.143 96.7656 479.119C96.0208 478.086 95.6484 476.918 95.6484 475.615V475.018H97.6924V475.615ZM97.3115 461.599C97.3115 462.894 96.901 464.075 96.0801 465.141C95.2676 466.208 94.1715 467.088 92.792 467.782C91.4124 468.476 89.8763 468.941 88.1836 469.178L87.2695 467.325C88.7422 467.13 90.0879 466.758 91.3066 466.208C92.5339 465.649 93.4987 464.968 94.2012 464.164C94.9036 463.36 95.2549 462.505 95.2549 461.599V460.634H97.3115V461.599ZM97.6924 461.599C97.6924 462.522 98.0479 463.385 98.7588 464.189C99.4782 464.985 100.447 465.662 101.666 466.22C102.893 466.779 104.23 467.147 105.678 467.325L104.789 469.178C103.105 468.941 101.569 468.48 100.181 467.794C98.7926 467.1 97.6882 466.22 96.8672 465.154C96.0547 464.087 95.6484 462.903 95.6484 461.599V460.634H97.6924V461.599ZM94.1377 473.025H91.751V468.874H94.1377V473.025ZM101.26 473.025H98.8857V468.874H101.26V473.025Z" fill="#CD354E"/>
<path d="M540.549 463.63C540.549 465.222 540.121 466.715 539.266 468.112C538.42 469.5 537.29 470.676 535.877 471.641C534.463 472.606 532.919 473.275 531.243 473.647L530.164 471.628C531.611 471.341 532.969 470.799 534.239 470.003C535.509 469.208 536.524 468.247 537.286 467.122C538.048 465.996 538.428 464.832 538.428 463.63V461.929H540.549V463.63ZM540.968 463.63C540.968 464.824 541.353 465.987 542.123 467.122C542.893 468.256 543.917 469.225 545.195 470.029C546.473 470.824 547.831 471.358 549.27 471.628L548.191 473.647C546.532 473.275 544.996 472.61 543.583 471.654C542.169 470.697 541.035 469.521 540.18 468.125C539.326 466.728 538.898 465.23 538.898 463.63V461.929H540.968V463.63ZM550.235 480.16H529.415V478.167H550.235V480.16Z" fill="white"/>
<path d="M519.683 477.456H509.133V462.589H519.683V477.456ZM511.532 475.551H517.334V464.468H511.532V475.551ZM527.224 483.207H524.824V460.393H527.224V483.207ZM525.802 470.549H519.289V468.582H525.802V470.549Z" fill="white"/>
<path d="M498.677 462.704C498.677 465.116 498.368 467.325 497.75 469.331C497.132 471.328 496.062 473.19 494.538 474.917C493.023 476.643 490.971 478.171 488.381 479.5L487.023 477.659C489.316 476.499 491.144 475.192 492.507 473.736C493.878 472.272 494.86 470.664 495.452 468.912C496.045 467.151 496.341 465.179 496.341 462.996V462.704H498.677ZM497.788 464.671H488.292V462.704H497.788V464.671ZM487.505 470.981L487.124 468.924L496.328 468.34V470.168L487.505 470.981ZM506.015 483.143H503.628V460.393H506.015V483.143ZM504.834 471.4H498.614V469.419H504.834V471.4Z" fill="white"/>
<path d="M484.108 474.764C483.786 474.764 483.486 474.68 483.207 474.51C482.927 474.341 482.707 474.121 482.546 473.85C482.394 473.571 482.318 473.27 482.318 472.949C482.318 472.636 482.394 472.339 482.546 472.06C482.707 471.781 482.927 471.565 483.207 471.413C483.486 471.252 483.786 471.171 484.108 471.171C484.421 471.171 484.717 471.252 484.997 471.413C485.276 471.565 485.496 471.781 485.657 472.06C485.818 472.339 485.898 472.636 485.898 472.949C485.898 473.27 485.818 473.571 485.657 473.85C485.496 474.121 485.276 474.341 484.997 474.51C484.717 474.68 484.421 474.764 484.108 474.764Z" fill="white"/>
<path d="M471.887 472.581H469.513V468.391H471.887V472.581ZM471.532 461.726C471.532 463.055 471.126 464.269 470.313 465.37C469.509 466.47 468.413 467.388 467.025 468.125C465.646 468.861 464.114 469.369 462.429 469.648L461.541 467.731C462.997 467.536 464.33 467.143 465.54 466.55C466.759 465.958 467.719 465.238 468.422 464.392C469.124 463.546 469.475 462.657 469.475 461.726V460.761H471.532V461.726ZM471.913 461.726C471.913 462.666 472.268 463.558 472.979 464.405C473.69 465.251 474.655 465.971 475.874 466.563C477.093 467.147 478.43 467.536 479.885 467.731L478.921 469.648C477.253 469.369 475.73 468.865 474.35 468.137C472.979 467.401 471.887 466.478 471.075 465.37C470.271 464.261 469.869 463.046 469.869 461.726V460.761H471.913V461.726ZM481.092 473.495H460.347V471.552H481.092V473.495ZM470.707 475.17C472.349 475.17 473.758 475.327 474.934 475.64C476.111 475.953 477.008 476.41 477.626 477.011C478.252 477.604 478.565 478.319 478.565 479.157C478.565 480.003 478.252 480.718 477.626 481.302C477.008 481.895 476.111 482.343 474.934 482.648C473.758 482.961 472.349 483.118 470.707 483.118C469.065 483.118 467.651 482.961 466.467 482.648C465.282 482.343 464.376 481.895 463.75 481.302C463.123 480.718 462.81 480.003 462.81 479.157C462.81 478.319 463.123 477.604 463.75 477.011C464.376 476.41 465.282 475.953 466.467 475.64C467.651 475.327 469.065 475.17 470.707 475.17ZM470.707 477.049C469.53 477.049 468.536 477.13 467.723 477.291C466.911 477.443 466.297 477.676 465.883 477.989C465.468 478.302 465.26 478.691 465.26 479.157C465.26 479.605 465.468 479.99 465.883 480.312C466.297 480.625 466.915 480.862 467.736 481.023C468.557 481.192 469.547 481.277 470.707 481.277C471.866 481.277 472.848 481.192 473.652 481.023C474.465 480.862 475.082 480.625 475.506 480.312C475.929 479.99 476.14 479.605 476.14 479.157C476.14 478.708 475.929 478.323 475.506 478.001C475.082 477.68 474.465 477.443 473.652 477.291C472.848 477.13 471.866 477.049 470.707 477.049Z" fill="white"/>
<path d="M449.701 474.574C451.258 474.574 452.604 474.739 453.738 475.069C454.881 475.399 455.752 475.886 456.353 476.529C456.954 477.172 457.255 477.942 457.255 478.839C457.255 479.745 456.954 480.515 456.353 481.15C455.752 481.793 454.885 482.284 453.751 482.623C452.625 482.97 451.275 483.147 449.701 483.156C448.135 483.147 446.777 482.97 445.626 482.623C444.483 482.284 443.603 481.793 442.985 481.15C442.376 480.515 442.071 479.745 442.071 478.839C442.071 477.942 442.376 477.172 442.985 476.529C443.603 475.886 444.483 475.399 445.626 475.069C446.777 474.739 448.135 474.574 449.701 474.574ZM449.701 476.465C448.609 476.465 447.674 476.558 446.895 476.745C446.117 476.931 445.52 477.202 445.105 477.557C444.699 477.904 444.496 478.332 444.496 478.839C444.496 479.33 444.699 479.758 445.105 480.122C445.52 480.477 446.121 480.752 446.908 480.947C447.695 481.141 448.626 481.239 449.701 481.239C450.793 481.239 451.728 481.141 452.507 480.947C453.285 480.752 453.878 480.477 454.284 480.122C454.699 479.758 454.906 479.33 454.906 478.839C454.906 478.332 454.703 477.904 454.297 477.557C453.89 477.202 453.298 476.931 452.519 476.745C451.749 476.558 450.81 476.465 449.701 476.465ZM457.052 473.99H454.652V460.393H457.052V473.99ZM460.365 468.01H456.379V465.979H460.365V468.01ZM442.427 465.103H448.381V461.828H450.793V472.39H440.052V461.828H442.427V465.103ZM448.381 470.46V466.995H442.427V470.46H448.381Z" fill="white"/>
<path d="M433.779 480.223H412.958V478.23H433.779V480.223ZM417.757 466.055H428.929V461.967H431.303V473.926H415.332V461.967H417.757V466.055ZM428.929 472.009V467.959H417.757V472.009H428.929Z" fill="white"/>
<path d="M410.64 483.207H408.215V460.393H410.64V483.207ZM398.453 462.107C399.587 462.107 400.598 462.437 401.487 463.097C402.375 463.757 403.069 464.688 403.569 465.89C404.068 467.092 404.318 468.493 404.318 470.092C404.318 471.7 404.068 473.105 403.569 474.307C403.069 475.509 402.375 476.44 401.487 477.1C400.598 477.752 399.587 478.078 398.453 478.078C397.319 478.078 396.303 477.752 395.406 477.1C394.517 476.44 393.823 475.509 393.324 474.307C392.824 473.105 392.575 471.7 392.575 470.092C392.575 468.493 392.824 467.092 393.324 465.89C393.823 464.688 394.517 463.757 395.406 463.097C396.303 462.437 397.319 462.107 398.453 462.107ZM398.453 464.265C397.759 464.265 397.141 464.502 396.599 464.976C396.057 465.45 395.639 466.127 395.342 467.007C395.055 467.879 394.911 468.907 394.911 470.092C394.911 471.269 395.055 472.297 395.342 473.177C395.639 474.057 396.057 474.735 396.599 475.208C397.141 475.674 397.759 475.907 398.453 475.907C399.147 475.907 399.76 475.674 400.293 475.208C400.835 474.735 401.254 474.057 401.55 473.177C401.847 472.297 401.995 471.269 401.995 470.092C401.995 468.907 401.847 467.879 401.55 467.007C401.254 466.127 400.839 465.45 400.306 464.976C399.773 464.502 399.155 464.265 398.453 464.265Z" fill="white"/>
<path d="M388.34 483.207H385.953V460.393H388.34V483.207ZM392.009 471.311H387.794V469.292H392.009V471.311ZM373.41 475.729C375.678 475.737 377.608 475.691 379.199 475.589C380.799 475.479 382.415 475.276 384.049 474.98L384.29 476.948C382.614 477.244 380.951 477.451 379.301 477.57C377.659 477.688 375.695 477.752 373.41 477.76H371.569V475.729H373.41ZM381.916 470.816H373.956V476.529H371.569V468.861H379.529V464.417H371.518V462.45H381.916V470.816Z" fill="white"/>
<circle cx="165.084" cy="179.467" r="6.4397" fill="#CD354E"/>
<circle cx="460.414" cy="179.467" r="6.4397" fill="#CD354E"/>
<circle cx="165.084" cy="440.985" r="6.4397" fill="#CD354E"/>
<circle cx="460.414" cy="440.985" r="6.4397" fill="white"/>
<rect x="171.524" y="179.467" width="287.534" height="1" fill="#CD354E"/>
<rect x="171.524" y="439.985" width="287.534" height="1" fill="#CD354E"/>
<rect x="164.084" y="434.545" width="248.639" height="1" transform="rotate(-90 164.084 434.545)" fill="#CD354E"/>
<rect x="459.913" y="434.545" width="248.639" height="1" transform="rotate(-90 459.913 434.545)" fill="#CD354E"/>
</svg>
