<svg width="625" height="624" viewBox="0 0 625 624" fill="none" xmlns="http://www.w3.org/2000/svg">
<circle cx="164.692" cy="459.188" r="163.735" stroke="#CD354E"/>
<circle cx="460.021" cy="459.188" r="163.735" stroke="#CD354E"/>
<circle cx="460.021" cy="164.728" r="163.735" stroke="#CD354E"/>
<circle cx="164.692" cy="164.728" r="163.735" fill="#CD354E" stroke="#CD354E"/>
<path d="M238.817 140.287H225.36V138.497H238.817V140.287ZM232.102 141.048C233.193 141.048 234.158 141.188 234.996 141.467C235.834 141.738 236.481 142.132 236.938 142.648C237.396 143.156 237.624 143.761 237.624 144.463C237.624 145.149 237.396 145.746 236.938 146.253C236.481 146.753 235.834 147.142 234.996 147.421C234.158 147.692 233.193 147.828 232.102 147.828C230.993 147.828 230.02 147.692 229.182 147.421C228.352 147.142 227.709 146.753 227.252 146.253C226.803 145.746 226.579 145.149 226.579 144.463C226.579 143.761 226.803 143.156 227.252 142.648C227.709 142.132 228.352 141.738 229.182 141.467C230.02 141.188 230.993 141.048 232.102 141.048ZM232.102 142.711C231.45 142.694 230.883 142.758 230.4 142.902C229.918 143.046 229.541 143.249 229.271 143.511C229 143.774 228.864 144.091 228.864 144.463C228.864 144.81 229 145.115 229.271 145.377C229.541 145.631 229.918 145.826 230.4 145.961C230.891 146.088 231.458 146.152 232.102 146.152C232.745 146.152 233.308 146.088 233.79 145.961C234.272 145.826 234.645 145.631 234.907 145.377C235.17 145.115 235.301 144.81 235.301 144.463C235.301 144.091 235.17 143.774 234.907 143.511C234.645 143.249 234.272 143.046 233.79 142.902C233.308 142.758 232.745 142.694 232.102 142.711ZM233.27 139.461H230.87V136.402H233.27V139.461ZM233.27 150.024H230.87V146.901H233.27V150.024ZM243.4 151.827H240.976V136.592H243.4V151.827ZM243.4 159.279H240.976V154.734H227.887V152.83H243.4V159.279ZM224.624 149.3C227.409 149.309 230.007 149.266 232.419 149.173C234.831 149.08 237.104 148.894 239.236 148.615L239.414 150.291C237.222 150.654 234.937 150.896 232.559 151.014C230.18 151.133 227.65 151.192 224.967 151.192L224.624 149.3Z" fill="white"/>
<path d="M222.268 159.279H219.83V136.529H222.268V159.279ZM215.514 138.979C215.514 141.298 215.154 143.444 214.435 145.416C213.724 147.379 212.581 149.19 211.007 150.849C209.433 152.5 207.385 153.93 204.863 155.14L203.568 153.185C205.76 152.153 207.558 150.951 208.963 149.58C210.377 148.208 211.422 146.677 212.099 144.984C212.776 143.291 213.115 141.421 213.115 139.373V138.979H215.514ZM214.156 140.909H204.672V138.979H214.156V140.909Z" fill="white"/>
<path d="M197.954 156.46H177.134V154.467H197.954V156.46ZM188.407 141.835C188.407 143.384 188.009 144.789 187.214 146.05C186.418 147.311 185.318 148.357 183.913 149.186C182.516 150.015 180.934 150.595 179.165 150.925L178.225 148.983C179.783 148.729 181.171 148.255 182.389 147.561C183.617 146.867 184.573 146.025 185.259 145.035C185.953 144.044 186.3 142.978 186.3 141.835V141.353H188.407V141.835ZM188.75 141.835C188.75 142.978 189.093 144.044 189.778 145.035C190.472 146.025 191.433 146.867 192.66 147.561C193.896 148.255 195.288 148.729 196.837 148.983L195.872 150.925C194.094 150.595 192.503 150.015 191.098 149.186C189.702 148.357 188.602 147.311 187.798 146.05C187.002 144.789 186.604 143.384 186.604 141.835V141.353H188.75V141.835ZM196.024 142H179.025V140.045H196.024V142ZM188.699 140.782H186.325V137.024H188.699V140.782Z" fill="white"/>
<path d="M169.585 144.857H165.776V142.94H169.585V144.857ZM175.361 153.579H173.063V136.554H175.361V153.579ZM170.905 153.007H168.595V136.999H170.905V153.007ZM176.009 158.834H160.381V156.841H176.009V158.834ZM162.831 158.06H160.381V151.7H162.831V158.06ZM158.451 148.031C160.423 148.031 161.98 147.997 163.123 147.929C164.266 147.853 165.421 147.696 166.589 147.459L166.83 149.389C165.586 149.635 164.359 149.795 163.148 149.872C161.947 149.948 160.381 149.986 158.451 149.986H156.979V148.031H158.451ZM165.649 140.337H159.289V148.729H156.979V138.37H165.649V140.337ZM164.735 145.047H158.565V143.181H164.735V145.047Z" fill="white"/>
<path d="M151.918 139.512H137.242V137.57H151.918V139.512ZM153.01 139.55C153.01 140.532 153.001 141.366 152.984 142.051C152.967 142.737 152.912 143.507 152.819 144.362C152.726 145.217 152.582 146.126 152.388 147.091L150.001 146.888C150.204 145.957 150.352 145.077 150.445 144.248C150.538 143.418 150.593 142.669 150.61 142C150.627 141.332 150.636 140.515 150.636 139.55V137.57H153.01V139.55ZM136.976 144.171L136.658 142.153L151.334 141.721V143.511L136.976 144.171ZM155.511 150.43H134.83V148.488H155.511V150.43ZM145.443 149.745H143.019V145.314H145.443V149.745ZM153.505 158.936H137.382V156.981H153.505V158.936ZM139.807 157.819H137.382V152.195H139.807V157.819Z" fill="white"/>
<path d="M126.093 143.587C126.026 143.029 125.831 142.546 125.509 142.14C125.188 141.734 124.752 141.429 124.202 141.226C123.66 141.023 123.034 140.921 122.323 140.921C121.586 140.921 120.939 141.036 120.38 141.264C119.822 141.493 119.39 141.814 119.085 142.229C118.781 142.635 118.628 143.101 118.628 143.625C118.628 144.396 118.946 144.988 119.581 145.403C120.215 145.818 121.015 146.148 121.98 146.393L123.745 146.863C125.277 147.235 126.542 147.819 127.541 148.615C128.548 149.41 129.051 150.557 129.051 152.055C129.051 153.088 128.78 154.014 128.239 154.835C127.706 155.648 126.923 156.287 125.89 156.752C124.866 157.209 123.647 157.438 122.234 157.438C120.871 157.438 119.682 157.222 118.667 156.791C117.651 156.35 116.86 155.728 116.292 154.924C115.725 154.112 115.412 153.151 115.353 152.042H118.146C118.205 152.677 118.421 153.215 118.793 153.655C119.166 154.095 119.648 154.425 120.241 154.645C120.833 154.865 121.493 154.975 122.221 154.975C123 154.975 123.698 154.852 124.316 154.607C124.934 154.361 125.416 154.014 125.763 153.566C126.11 153.109 126.284 152.588 126.284 152.004C126.284 151.497 126.14 151.069 125.852 150.722C125.564 150.375 125.171 150.092 124.671 149.872C124.181 149.643 123.563 149.427 122.818 149.224L120.634 148.653C119.094 148.23 117.913 147.625 117.092 146.837C116.271 146.042 115.861 145.022 115.861 143.778C115.861 142.737 116.144 141.819 116.711 141.023C117.287 140.227 118.066 139.61 119.047 139.169C120.038 138.721 121.151 138.497 122.386 138.497C123.613 138.497 124.705 138.717 125.662 139.157C126.626 139.588 127.384 140.189 127.934 140.959C128.484 141.73 128.772 142.606 128.797 143.587H126.093Z" fill="white"/>
<path d="M113.644 157.133H111.08L101.761 143.689H101.596V157.133H98.8035V138.75H101.393L110.699 152.208H110.864V138.75H113.644V157.133Z" fill="white"/>
<path d="M94.1113 143.587C94.0436 143.029 93.849 142.546 93.5273 142.14C93.2057 141.734 92.7699 141.429 92.2197 141.226C91.6781 141.023 91.0518 140.921 90.3408 140.921C89.6045 140.921 88.957 141.036 88.3984 141.264C87.8398 141.493 87.4082 141.814 87.1035 142.229C86.7988 142.635 86.6465 143.101 86.6465 143.625C86.6465 144.396 86.9639 144.988 87.5986 145.403C88.2334 145.818 89.0332 146.148 89.998 146.393L91.7627 146.863C93.2946 147.235 94.5599 147.819 95.5586 148.615C96.5658 149.41 97.0693 150.557 97.0693 152.055C97.0693 153.088 96.7985 154.014 96.2568 154.835C95.7236 155.648 94.9408 156.287 93.9082 156.752C92.8841 157.209 91.6654 157.438 90.252 157.438C88.8893 157.438 87.7002 157.222 86.6846 156.791C85.6689 156.35 84.8776 155.728 84.3105 154.924C83.7435 154.112 83.4303 153.151 83.3711 152.042H86.1641C86.2233 152.677 86.4391 153.215 86.8115 153.655C87.1839 154.095 87.6663 154.425 88.2588 154.645C88.8512 154.865 89.5114 154.975 90.2393 154.975C91.0179 154.975 91.7161 154.852 92.334 154.607C92.9518 154.361 93.4342 154.014 93.7812 153.566C94.1283 153.109 94.3018 152.588 94.3018 152.004C94.3018 151.497 94.1579 151.069 93.8701 150.722C93.5824 150.375 93.1888 150.092 92.6895 149.872C92.1986 149.643 91.5807 149.427 90.8359 149.224L88.6523 148.653C87.112 148.23 85.9313 147.625 85.1104 146.837C84.2894 146.042 83.8789 145.022 83.8789 143.778C83.8789 142.737 84.1624 141.819 84.7295 141.023C85.305 140.227 86.0837 139.61 87.0654 139.169C88.0557 138.721 89.1686 138.497 90.4043 138.497C91.6315 138.497 92.7233 138.717 93.6797 139.157C94.6445 139.588 95.402 140.189 95.9521 140.959C96.5023 141.73 96.79 142.606 96.8154 143.587H94.1113Z" fill="white"/>
<path d="M536.013 140.617C536.013 142.005 535.755 143.312 535.238 144.54C534.73 145.758 533.998 146.816 533.042 147.713C532.086 148.611 530.951 149.292 529.64 149.757L528.357 147.891C529.517 147.485 530.524 146.909 531.379 146.165C532.242 145.42 532.907 144.569 533.372 143.613C533.838 142.648 534.07 141.649 534.07 140.617V138.877H536.013V140.617ZM536.457 140.617C536.457 141.59 536.677 142.529 537.117 143.435C537.557 144.332 538.188 145.132 539.009 145.834C539.838 146.537 540.82 147.083 541.954 147.472L540.735 149.338C539.449 148.89 538.336 148.234 537.396 147.371C536.457 146.499 535.738 145.487 535.238 144.336C534.747 143.177 534.502 141.937 534.502 140.617V138.877H536.457V140.617ZM541.383 139.995H529.056V138.052H541.383V139.995ZM546.397 150.252H543.998V136.529H546.397V150.252ZM549.711 144.413H545.725V142.381H549.711V144.413ZM546.397 159.279H543.998V153.325H531.366V151.382H546.397V159.279Z" fill="#CD354E"/>
<path d="M526.877 159.279H524.592V136.529H526.877V159.279ZM520.682 146.558H516.429V144.616H520.682V146.558ZM522.256 158.149H519.984V137.037H522.256V158.149ZM513.75 142.889C513.75 144.582 513.543 146.203 513.128 147.751C512.722 149.3 512.129 150.693 511.351 151.928C510.572 153.164 509.624 154.129 508.507 154.823L507.009 153.02C508.059 152.394 508.951 151.547 509.688 150.481C510.424 149.415 510.974 148.23 511.338 146.926C511.702 145.614 511.884 144.269 511.884 142.889V140.122H513.75V142.889ZM514.207 142.889C514.207 144.218 514.385 145.504 514.74 146.749C515.096 147.984 515.633 149.106 516.353 150.113C517.072 151.111 517.948 151.911 518.981 152.512L517.533 154.29C516.425 153.612 515.485 152.694 514.715 151.535C513.953 150.367 513.378 149.042 512.989 147.561C512.608 146.08 512.417 144.523 512.417 142.889V140.122H514.207V142.889ZM518.13 141.061H507.72V139.093H518.13V141.061Z" fill="#CD354E"/>
<path d="M488.56 139.969C488.56 141.442 488.306 142.817 487.799 144.095C487.291 145.373 486.567 146.486 485.628 147.434C484.688 148.382 483.567 149.101 482.263 149.592L480.969 147.675C482.128 147.252 483.127 146.651 483.965 145.873C484.811 145.094 485.458 144.197 485.907 143.181C486.356 142.166 486.58 141.095 486.58 139.969V137.722H488.56V139.969ZM488.967 140.185C488.967 141.167 489.191 142.119 489.639 143.042C490.088 143.956 490.727 144.764 491.556 145.466C492.386 146.16 493.359 146.694 494.476 147.066L493.169 148.945C491.916 148.505 490.824 147.849 489.893 146.977C488.962 146.105 488.247 145.09 487.748 143.93C487.257 142.762 487.011 141.514 487.011 140.185V137.722H488.967V140.185ZM499.009 150.252H496.609V136.529H499.009V150.252ZM502.322 144.273H498.336V142.254H502.322V144.273ZM491.658 150.798C493.215 150.798 494.561 150.968 495.695 151.306C496.829 151.636 497.697 152.114 498.298 152.741C498.907 153.367 499.212 154.125 499.212 155.013C499.212 155.902 498.907 156.664 498.298 157.298C497.697 157.933 496.833 158.416 495.708 158.746C494.582 159.084 493.232 159.253 491.658 159.253C490.092 159.253 488.734 159.084 487.583 158.746C486.44 158.416 485.56 157.933 484.942 157.298C484.333 156.664 484.028 155.902 484.028 155.013C484.028 154.125 484.333 153.367 484.942 152.741C485.56 152.114 486.44 151.636 487.583 151.306C488.734 150.968 490.092 150.798 491.658 150.798ZM491.658 152.715C490.583 152.715 489.652 152.804 488.865 152.982C488.078 153.16 487.477 153.426 487.062 153.782C486.656 154.129 486.453 154.539 486.453 155.013C486.453 155.504 486.656 155.927 487.062 156.283C487.477 156.63 488.074 156.892 488.852 157.07C489.631 157.248 490.566 157.341 491.658 157.349C492.767 157.341 493.706 157.248 494.476 157.07C495.255 156.892 495.847 156.63 496.254 156.283C496.66 155.927 496.863 155.504 496.863 155.013C496.863 154.522 496.656 154.108 496.241 153.769C495.835 153.422 495.242 153.16 494.464 152.982C493.685 152.804 492.75 152.715 491.658 152.715Z" fill="#CD354E"/>
<path d="M477.254 141.67H470.348V139.728H477.254V141.67ZM477.254 146.888H470.348V144.933H477.254V146.888ZM466.26 137.862C467.377 137.845 468.384 138.069 469.281 138.535C470.187 139 470.898 139.648 471.414 140.477C471.93 141.306 472.188 142.254 472.188 143.321C472.188 144.362 471.93 145.297 471.414 146.126C470.898 146.956 470.187 147.603 469.281 148.069C468.384 148.526 467.377 148.754 466.26 148.754C465.126 148.754 464.106 148.526 463.2 148.069C462.303 147.603 461.592 146.956 461.067 146.126C460.551 145.297 460.293 144.362 460.293 143.321C460.293 142.254 460.551 141.306 461.067 140.477C461.592 139.648 462.303 139 463.2 138.535C464.106 138.069 465.126 137.845 466.26 137.862ZM466.26 139.931C465.549 139.923 464.914 140.062 464.355 140.35C463.805 140.629 463.374 141.027 463.061 141.543C462.747 142.051 462.591 142.644 462.591 143.321C462.591 143.981 462.747 144.569 463.061 145.085C463.374 145.593 463.805 145.991 464.355 146.279C464.914 146.567 465.549 146.71 466.26 146.71C466.954 146.71 467.572 146.567 468.113 146.279C468.663 145.991 469.095 145.593 469.408 145.085C469.721 144.569 469.878 143.981 469.878 143.321C469.878 142.644 469.721 142.051 469.408 141.543C469.095 141.027 468.663 140.629 468.113 140.35C467.572 140.062 466.954 139.923 466.26 139.931ZM478.93 149.96H476.518V136.529H478.93V149.96ZM471.3 150.481C472.882 150.481 474.249 150.654 475.4 151.001C476.56 151.34 477.449 151.839 478.066 152.5C478.693 153.151 479.006 153.938 479.006 154.861C479.006 155.775 478.693 156.562 478.066 157.222C477.449 157.882 476.56 158.386 475.4 158.733C474.249 159.08 472.882 159.253 471.3 159.253C469.726 159.253 468.359 159.08 467.199 158.733C466.048 158.386 465.164 157.882 464.546 157.222C463.928 156.562 463.619 155.775 463.619 154.861C463.619 153.938 463.928 153.151 464.546 152.5C465.164 151.839 466.048 151.34 467.199 151.001C468.359 150.654 469.726 150.481 471.3 150.481ZM471.3 152.334C470.208 152.334 469.26 152.436 468.456 152.639C467.652 152.834 467.038 153.122 466.615 153.502C466.192 153.875 465.98 154.328 465.98 154.861C465.98 155.377 466.192 155.821 466.615 156.194C467.038 156.566 467.652 156.854 468.456 157.057C469.26 157.252 470.208 157.349 471.3 157.349C472.417 157.349 473.378 157.252 474.182 157.057C474.986 156.854 475.595 156.566 476.01 156.194C476.433 155.821 476.645 155.377 476.645 154.861C476.645 154.319 476.433 153.862 476.01 153.49C475.595 153.117 474.986 152.834 474.182 152.639C473.378 152.436 472.417 152.334 471.3 152.334Z" fill="#CD354E"/>
<path d="M459.612 156.46H438.792V154.48H459.612V156.46ZM450.332 155.039H447.971V149.173H450.332V155.039ZM443.591 142.013H454.763V138.09H457.137V149.808H441.166V138.09H443.591V142.013ZM454.763 147.853V143.956H443.591V147.853H454.763Z" fill="#CD354E"/>
<path d="M427.981 152.258C429.656 152.258 431.078 152.394 432.246 152.665C433.414 152.935 434.303 153.333 434.912 153.858C435.53 154.374 435.839 155.017 435.839 155.788C435.839 156.905 435.158 157.76 433.795 158.352C432.433 158.953 430.494 159.253 427.981 159.253C425.442 159.253 423.491 158.953 422.128 158.352C420.766 157.76 420.084 156.905 420.084 155.788C420.084 155.017 420.389 154.374 420.998 153.858C421.608 153.333 422.505 152.935 423.69 152.665C424.875 152.394 426.305 152.258 427.981 152.258ZM427.981 154.048C426.804 154.048 425.81 154.116 424.997 154.251C424.185 154.378 423.571 154.573 423.156 154.835C422.75 155.089 422.547 155.407 422.547 155.788C422.547 156.152 422.75 156.46 423.156 156.714C423.571 156.968 424.181 157.154 424.985 157.273C425.797 157.4 426.796 157.463 427.981 157.463C429.166 157.463 430.156 157.4 430.951 157.273C431.755 157.154 432.365 156.968 432.78 156.714C433.194 156.46 433.402 156.152 433.402 155.788C433.402 155.407 433.194 155.089 432.78 154.835C432.365 154.573 431.755 154.378 430.951 154.251C430.147 154.116 429.157 154.048 427.981 154.048ZM437.198 140.236H418.662V138.344H437.198V140.236ZM427.993 141.048C430.406 141.048 432.251 141.328 433.529 141.886C434.807 142.436 435.446 143.253 435.446 144.336C435.446 145.377 434.802 146.177 433.516 146.736C432.238 147.286 430.397 147.561 427.993 147.561C425.59 147.561 423.74 147.286 422.446 146.736C421.151 146.177 420.503 145.377 420.503 144.336C420.503 143.253 421.151 142.436 422.446 141.886C423.74 141.328 425.59 141.048 427.993 141.048ZM427.993 142.724C426.927 142.724 426.03 142.783 425.302 142.902C424.574 143.02 424.02 143.198 423.639 143.435C423.267 143.672 423.08 143.972 423.08 144.336C423.08 144.658 423.267 144.933 423.639 145.162C424.02 145.39 424.574 145.568 425.302 145.695C426.03 145.813 426.927 145.877 427.993 145.885C429.06 145.877 429.957 145.813 430.685 145.695C431.413 145.568 431.963 145.39 432.335 145.162C432.708 144.933 432.894 144.658 432.894 144.336C432.894 143.972 432.708 143.672 432.335 143.435C431.963 143.198 431.413 143.02 430.685 142.902C429.957 142.783 429.06 142.724 427.993 142.724ZM429.187 139.601H426.787V136.275H429.187V139.601ZM438.365 151.014H417.621V149.11H438.365V151.014ZM429.187 150.011H426.787V146.837H429.187V150.011Z" fill="#CD354E"/>
<path d="M414.656 150.9C414.334 150.9 414.034 150.815 413.754 150.646C413.475 150.477 413.255 150.257 413.094 149.986C412.942 149.707 412.866 149.406 412.866 149.084C412.866 148.771 412.942 148.475 413.094 148.196C413.255 147.917 413.475 147.701 413.754 147.548C414.034 147.388 414.334 147.307 414.656 147.307C414.969 147.307 415.265 147.388 415.544 147.548C415.824 147.701 416.044 147.917 416.205 148.196C416.365 148.475 416.446 148.771 416.446 149.084C416.446 149.406 416.365 149.707 416.205 149.986C416.044 150.257 415.824 150.477 415.544 150.646C415.265 150.815 414.969 150.9 414.656 150.9Z" fill="#CD354E"/>
<path d="M407.793 140.68H393.079V138.725H407.793V140.68ZM411.639 156.207H390.895V154.226H411.639V156.207ZM401.166 155.254H398.792V146.203H401.166V155.254ZM409.303 140.959C409.303 142.305 409.287 143.435 409.253 144.349C409.219 145.255 409.143 146.33 409.024 147.574C408.906 148.809 408.715 150.147 408.453 151.585L406.003 151.319C406.282 149.956 406.485 148.67 406.612 147.459C406.739 146.249 406.815 145.179 406.841 144.248C406.874 143.308 406.891 142.212 406.891 140.959V138.725H409.303V140.959Z" fill="#CD354E"/>
<path d="M380.973 139.893H370.931V137.9H380.973V139.893ZM376.593 148.386H374.206V142.889H376.593V148.386ZM382.395 139.208C382.386 140.359 382.348 141.378 382.28 142.267C382.213 143.156 382.056 144.171 381.811 145.314L379.437 145.124C379.674 143.964 379.822 142.948 379.881 142.077C379.949 141.196 379.982 140.24 379.982 139.208V137.9H382.395V139.208ZM387.727 150.646H385.264V136.529H387.727V150.646ZM390.875 144.578H386.635V142.559H390.875V144.578ZM369.534 147.294C372.268 147.294 374.82 147.252 377.189 147.167C379.559 147.074 381.777 146.892 383.842 146.622L383.969 148.361C381.844 148.716 379.576 148.958 377.164 149.084C374.76 149.211 372.293 149.275 369.763 149.275L369.534 147.294ZM380.211 150.913C381.802 150.913 383.173 151.078 384.324 151.408C385.475 151.729 386.355 152.203 386.965 152.83C387.583 153.447 387.892 154.18 387.892 155.026C387.892 155.906 387.583 156.659 386.965 157.286C386.355 157.912 385.475 158.39 384.324 158.72C383.173 159.05 381.802 159.215 380.211 159.215C378.62 159.215 377.249 159.05 376.098 158.72C374.947 158.39 374.062 157.912 373.444 157.286C372.826 156.659 372.518 155.906 372.518 155.026C372.518 154.18 372.826 153.447 373.444 152.83C374.062 152.203 374.951 151.729 376.11 151.408C377.27 151.078 378.637 150.913 380.211 150.913ZM380.211 152.779C379.136 152.779 378.197 152.868 377.393 153.045C376.597 153.215 375.992 153.473 375.577 153.82C375.162 154.158 374.955 154.56 374.955 155.026C374.955 155.517 375.162 155.936 375.577 156.283C375.992 156.621 376.593 156.879 377.38 157.057C378.167 157.235 379.111 157.324 380.211 157.324C381.311 157.324 382.251 157.235 383.029 157.057C383.816 156.879 384.417 156.621 384.832 156.283C385.247 155.936 385.454 155.517 385.454 155.026C385.454 154.56 385.247 154.158 384.832 153.82C384.417 153.473 383.816 153.215 383.029 153.045C382.242 152.868 381.303 152.779 380.211 152.779Z" fill="#CD354E"/>
<path d="M230.344 464.397C230.344 465.785 230.086 467.093 229.57 468.32C229.062 469.539 228.33 470.597 227.374 471.494C226.417 472.391 225.283 473.072 223.971 473.538L222.689 471.671C223.849 471.265 224.856 470.69 225.711 469.945C226.574 469.2 227.238 468.349 227.704 467.393C228.169 466.428 228.402 465.43 228.402 464.397V462.658H230.344V464.397ZM230.789 464.397C230.789 465.37 231.009 466.31 231.449 467.215C231.889 468.112 232.52 468.912 233.341 469.615C234.17 470.317 235.152 470.863 236.286 471.252L235.067 473.119C233.781 472.67 232.668 472.014 231.728 471.151C230.789 470.279 230.069 469.268 229.57 468.117C229.079 466.957 228.834 465.717 228.834 464.397V462.658H230.789V464.397ZM235.715 463.775H223.387V461.833H235.715V463.775ZM240.729 474.033H238.33V460.309H240.729V474.033ZM244.043 468.193H240.056V466.162H244.043V468.193ZM240.729 483.059H238.33V477.105H225.698V475.163H240.729V483.059Z" fill="#CD354E"/>
<path d="M221.209 483.059H218.924V460.309H221.209V483.059ZM215.014 470.338H210.761V468.396H215.014V470.338ZM216.588 481.929H214.315V460.817H216.588V481.929ZM208.082 466.669C208.082 468.362 207.875 469.983 207.46 471.532C207.054 473.081 206.461 474.473 205.683 475.708C204.904 476.944 203.956 477.909 202.839 478.603L201.341 476.8C202.39 476.174 203.283 475.328 204.02 474.261C204.756 473.195 205.306 472.01 205.67 470.707C206.034 469.395 206.216 468.049 206.216 466.669V463.902H208.082V466.669ZM208.539 466.669C208.539 467.998 208.717 469.285 209.072 470.529C209.428 471.764 209.965 472.886 210.685 473.893C211.404 474.892 212.28 475.692 213.313 476.292L211.865 478.07C210.757 477.393 209.817 476.474 209.047 475.315C208.285 474.147 207.71 472.822 207.32 471.341C206.939 469.86 206.749 468.303 206.749 466.669V463.902H208.539V466.669ZM212.462 464.841H202.052V462.874H212.462V464.841Z" fill="#CD354E"/>
<path d="M196.285 480.241H175.465V478.248H196.285V480.241ZM186.739 465.616C186.739 467.165 186.341 468.569 185.545 469.831C184.75 471.092 183.649 472.137 182.244 472.966C180.848 473.796 179.265 474.375 177.496 474.706L176.557 472.763C178.114 472.509 179.502 472.035 180.721 471.341C181.948 470.647 182.905 469.805 183.59 468.815C184.284 467.825 184.631 466.758 184.631 465.616V465.133H186.739V465.616ZM187.081 465.616C187.081 466.758 187.424 467.825 188.11 468.815C188.804 469.805 189.764 470.647 190.991 471.341C192.227 472.035 193.619 472.509 195.168 472.763L194.203 474.706C192.426 474.375 190.835 473.796 189.43 472.966C188.033 472.137 186.933 471.092 186.129 469.831C185.334 468.569 184.936 467.165 184.936 465.616V465.133H187.081V465.616ZM194.356 465.781H177.357V463.826H194.356V465.781ZM187.031 464.562H184.656V460.804H187.031V464.562Z" fill="#CD354E"/>
<path d="M167.917 468.637H164.108V466.72H167.917V468.637ZM173.693 477.359H171.395V460.334H173.693V477.359ZM169.237 476.788H166.926V460.779H169.237V476.788ZM174.34 482.615H158.712V480.622H174.34V482.615ZM161.163 481.84H158.712V475.48H161.163V481.84ZM156.783 471.811C158.755 471.811 160.312 471.777 161.455 471.709C162.597 471.633 163.752 471.477 164.92 471.24L165.162 473.169C163.917 473.415 162.69 473.576 161.48 473.652C160.278 473.728 158.712 473.766 156.783 473.766H155.31V471.811H156.783ZM163.981 464.118H157.621V472.509H155.31V462.15H163.981V464.118ZM163.067 468.828H156.897V466.961H163.067V468.828Z" fill="#CD354E"/>
<path d="M150.25 463.292H135.574V461.35H150.25V463.292ZM151.342 463.331C151.342 464.312 151.333 465.146 151.316 465.832C151.299 466.517 151.244 467.287 151.151 468.142C151.058 468.997 150.914 469.907 150.719 470.872L148.333 470.668C148.536 469.737 148.684 468.857 148.777 468.028C148.87 467.198 148.925 466.449 148.942 465.781C148.959 465.112 148.968 464.295 148.968 463.331V461.35H151.342V463.331ZM135.307 467.952L134.99 465.933L149.666 465.501V467.292L135.307 467.952ZM153.843 474.21H133.162V472.268H153.843V474.21ZM143.775 473.525H141.35V469.094H143.775V473.525ZM151.837 482.716H135.714V480.761H151.837V482.716ZM138.138 481.599H135.714V475.975H138.138V481.599Z" fill="#CD354E"/>
<path d="M127.649 473.576H106.905V471.646H127.649V473.576ZM118.445 472.611H116.046V468.815H118.445V472.611ZM125.707 462.975H108.81V461.02H125.707V462.975ZM125.605 469.285H108.911V467.317H125.605V469.285ZM114.522 468.663H112.123V461.833H114.522V468.663ZM122.394 468.663H119.981V461.833H122.394V468.663ZM125.123 482.78H109.394V475.569H125.123V482.78ZM111.78 480.825H122.762V477.448H111.78V480.825Z" fill="#CD354E"/>
<path d="M106.479 473.588H85.7346V471.646H106.479V473.588ZM96.8938 475.531C96.8938 476.834 96.5129 478.002 95.7512 479.035C94.998 480.059 93.9612 480.905 92.6409 481.574C91.3206 482.242 89.8183 482.708 88.134 482.97L87.2327 481.104C88.7053 480.909 90.0172 480.55 91.1682 480.025C92.3277 479.492 93.2291 478.84 93.8723 478.07C94.5155 477.291 94.8372 476.445 94.8372 475.531V474.934H96.8938V475.531ZM97.3 475.531C97.3 476.445 97.6259 477.291 98.2776 478.07C98.9293 478.84 99.8306 479.492 100.982 480.025C102.133 480.55 103.445 480.909 104.917 481.104L104.016 482.97C102.323 482.708 100.812 482.242 99.4836 481.574C98.1633 480.905 97.1265 480.059 96.3733 479.035C95.6285 478.002 95.2561 476.834 95.2561 475.531V474.934H97.3V475.531ZM96.9192 461.515C96.9192 462.81 96.5087 463.991 95.6877 465.057C94.8752 466.124 93.7792 467.004 92.3997 467.698C91.0201 468.392 89.484 468.857 87.7913 469.094L86.8772 467.241C88.3499 467.046 89.6956 466.674 90.9143 466.124C92.1415 465.565 93.1064 464.884 93.8088 464.08C94.5113 463.276 94.8625 462.421 94.8625 461.515V460.55H96.9192V461.515ZM97.3 461.515C97.3 462.438 97.6555 463.301 98.3665 464.105C99.0859 464.901 100.055 465.578 101.274 466.136C102.501 466.695 103.838 467.063 105.285 467.241L104.397 469.094C102.712 468.857 101.176 468.396 99.7883 467.71C98.4003 467.016 97.2958 466.136 96.4749 465.07C95.6624 464.003 95.2561 462.819 95.2561 461.515V460.55H97.3V461.515ZM93.7454 472.941H91.3586V468.79H93.7454V472.941ZM100.867 472.941H98.4934V468.79H100.867V472.941Z" fill="#CD354E"/>
<path d="M540.156 463.546C540.156 465.138 539.729 466.631 538.874 468.028C538.028 469.416 536.898 470.592 535.484 471.557C534.071 472.522 532.526 473.191 530.851 473.563L529.771 471.544C531.219 471.257 532.577 470.715 533.847 469.919C535.116 469.124 536.132 468.163 536.894 467.038C537.655 465.912 538.036 464.748 538.036 463.546V461.845H540.156V463.546ZM540.575 463.546C540.575 464.74 540.96 465.903 541.73 467.038C542.501 468.172 543.525 469.141 544.803 469.945C546.081 470.74 547.439 471.274 548.878 471.544L547.799 473.563C546.14 473.191 544.604 472.526 543.19 471.57C541.777 470.613 540.643 469.437 539.788 468.041C538.933 466.644 538.506 465.146 538.506 463.546V461.845H540.575V463.546ZM549.843 480.076H529.022V478.083H549.843V480.076Z" fill="#CD354E"/>
<path d="M519.29 477.372H508.74V462.505H519.29V477.372ZM511.14 475.467H516.942V464.384H511.14V475.467ZM526.831 483.123H524.432V460.309H526.831V483.123ZM525.409 470.465H518.897V468.498H525.409V470.465Z" fill="#CD354E"/>
<path d="M498.285 462.62C498.285 465.032 497.976 467.241 497.358 469.247C496.74 471.244 495.669 473.106 494.146 474.833C492.631 476.559 490.579 478.087 487.989 479.416L486.63 477.575C488.924 476.415 490.752 475.108 492.115 473.652C493.486 472.188 494.468 470.58 495.06 468.828C495.653 467.067 495.949 465.095 495.949 462.912V462.62H498.285ZM497.396 464.587H487.9V462.62H497.396V464.587ZM487.113 470.897L486.732 468.84L495.936 468.256V470.084L487.113 470.897ZM505.623 483.059H503.236V460.309H505.623V483.059ZM504.442 471.316H498.221V469.335H504.442V471.316Z" fill="#CD354E"/>
<path d="M483.716 474.68C483.394 474.68 483.094 474.596 482.814 474.426C482.535 474.257 482.315 474.037 482.154 473.766C482.002 473.487 481.926 473.186 481.926 472.865C481.926 472.552 482.002 472.255 482.154 471.976C482.315 471.697 482.535 471.481 482.814 471.329C483.094 471.168 483.394 471.087 483.716 471.087C484.029 471.087 484.325 471.168 484.604 471.329C484.884 471.481 485.104 471.697 485.264 471.976C485.425 472.255 485.506 472.552 485.506 472.865C485.506 473.186 485.425 473.487 485.264 473.766C485.104 474.037 484.884 474.257 484.604 474.426C484.325 474.596 484.029 474.68 483.716 474.68Z" fill="#CD354E"/>
<path d="M471.495 472.497H469.121V468.307H471.495V472.497ZM471.14 461.642C471.14 462.971 470.733 464.185 469.921 465.286C469.117 466.386 468.021 467.304 466.633 468.041C465.253 468.777 463.721 469.285 462.037 469.564L461.148 467.647C462.604 467.452 463.937 467.059 465.147 466.466C466.366 465.874 467.327 465.154 468.029 464.308C468.732 463.462 469.083 462.573 469.083 461.642V460.677H471.14V461.642ZM471.521 461.642C471.521 462.582 471.876 463.474 472.587 464.321C473.298 465.167 474.263 465.887 475.481 466.479C476.7 467.063 478.037 467.452 479.493 467.647L478.528 469.564C476.861 469.285 475.338 468.781 473.958 468.053C472.587 467.317 471.495 466.394 470.683 465.286C469.879 464.177 469.477 462.962 469.477 461.642V460.677H471.521V461.642ZM480.699 473.411H459.955V471.468H480.699V473.411ZM470.314 475.086C471.956 475.086 473.366 475.243 474.542 475.556C475.718 475.869 476.616 476.326 477.233 476.927C477.86 477.52 478.173 478.235 478.173 479.073C478.173 479.919 477.86 480.634 477.233 481.218C476.616 481.811 475.718 482.259 474.542 482.564C473.366 482.877 471.956 483.034 470.314 483.034C468.673 483.034 467.259 482.877 466.074 482.564C464.889 482.259 463.984 481.811 463.357 481.218C462.731 480.634 462.418 479.919 462.418 479.073C462.418 478.235 462.731 477.52 463.357 476.927C463.984 476.326 464.889 475.869 466.074 475.556C467.259 475.243 468.673 475.086 470.314 475.086ZM470.314 476.965C469.138 476.965 468.144 477.046 467.331 477.207C466.519 477.359 465.905 477.592 465.49 477.905C465.076 478.218 464.868 478.607 464.868 479.073C464.868 479.521 465.076 479.906 465.49 480.228C465.905 480.541 466.523 480.778 467.344 480.939C468.165 481.108 469.155 481.193 470.314 481.193C471.474 481.193 472.456 481.108 473.26 480.939C474.072 480.778 474.69 480.541 475.113 480.228C475.536 479.906 475.748 479.521 475.748 479.073C475.748 478.624 475.536 478.239 475.113 477.917C474.69 477.596 474.072 477.359 473.26 477.207C472.456 477.046 471.474 476.965 470.314 476.965Z" fill="#CD354E"/>
<path d="M449.309 474.49C450.866 474.49 452.212 474.655 453.346 474.985C454.488 475.315 455.36 475.802 455.961 476.445C456.562 477.088 456.862 477.858 456.862 478.755C456.862 479.661 456.562 480.431 455.961 481.066C455.36 481.709 454.493 482.2 453.358 482.539C452.233 482.886 450.883 483.063 449.309 483.072C447.743 483.063 446.384 482.886 445.233 482.539C444.091 482.2 443.211 481.709 442.593 481.066C441.983 480.431 441.679 479.661 441.679 478.755C441.679 477.858 441.983 477.088 442.593 476.445C443.211 475.802 444.091 475.315 445.233 474.985C446.384 474.655 447.743 474.49 449.309 474.49ZM449.309 476.381C448.217 476.381 447.282 476.474 446.503 476.661C445.724 476.847 445.128 477.118 444.713 477.473C444.307 477.82 444.104 478.248 444.104 478.755C444.104 479.246 444.307 479.674 444.713 480.038C445.128 480.393 445.729 480.668 446.516 480.863C447.303 481.057 448.234 481.155 449.309 481.155C450.4 481.155 451.336 481.057 452.114 480.863C452.893 480.668 453.485 480.393 453.892 480.038C454.306 479.674 454.514 479.246 454.514 478.755C454.514 478.248 454.311 477.82 453.904 477.473C453.498 477.118 452.906 476.847 452.127 476.661C451.357 476.474 450.417 476.381 449.309 476.381ZM456.659 473.906H454.26V460.309H456.659V473.906ZM459.973 467.926H455.986V465.895H459.973V467.926ZM442.034 465.019H447.988V461.744H450.4V472.306H439.66V461.744H442.034V465.019ZM447.988 470.376V466.911H442.034V470.376H447.988Z" fill="#CD354E"/>
<path d="M433.386 480.139H412.566V478.146H433.386V480.139ZM417.365 465.971H428.537V461.883H430.911V473.842H414.94V461.883H417.365V465.971ZM428.537 471.925V467.875H417.365V471.925H428.537Z" fill="#CD354E"/>
<path d="M410.248 483.123H407.823V460.309H410.248V483.123ZM398.06 462.023C399.194 462.023 400.206 462.353 401.094 463.013C401.983 463.673 402.677 464.604 403.177 465.806C403.676 467.008 403.926 468.409 403.926 470.008C403.926 471.616 403.676 473.021 403.177 474.223C402.677 475.425 401.983 476.356 401.094 477.016C400.206 477.668 399.194 477.994 398.06 477.994C396.926 477.994 395.911 477.668 395.013 477.016C394.125 476.356 393.431 475.425 392.931 474.223C392.432 473.021 392.182 471.616 392.182 470.008C392.182 468.409 392.432 467.008 392.931 465.806C393.431 464.604 394.125 463.673 395.013 463.013C395.911 462.353 396.926 462.023 398.06 462.023ZM398.06 464.181C397.366 464.181 396.748 464.418 396.207 464.892C395.665 465.366 395.246 466.043 394.95 466.923C394.662 467.795 394.518 468.823 394.518 470.008C394.518 471.185 394.662 472.213 394.95 473.093C395.246 473.973 395.665 474.651 396.207 475.125C396.748 475.59 397.366 475.823 398.06 475.823C398.754 475.823 399.368 475.59 399.901 475.125C400.443 474.651 400.862 473.973 401.158 473.093C401.454 472.213 401.602 471.185 401.602 470.008C401.602 468.823 401.454 467.795 401.158 466.923C400.862 466.043 400.447 465.366 399.914 464.892C399.381 464.418 398.763 464.181 398.06 464.181Z" fill="#CD354E"/>
<path d="M387.947 483.123H385.561V460.309H387.947V483.123ZM391.616 471.227H387.401V469.208H391.616V471.227ZM373.018 475.645C375.286 475.653 377.215 475.607 378.807 475.505C380.406 475.395 382.023 475.192 383.656 474.896L383.897 476.864C382.222 477.16 380.559 477.367 378.908 477.486C377.266 477.604 375.303 477.668 373.018 477.676H371.177V475.645H373.018ZM381.523 470.732H373.563V476.445H371.177V468.777H379.137V464.333H371.126V462.366H381.523V470.732Z" fill="#CD354E"/>
<circle cx="164.692" cy="179.383" r="6.4397" fill="white"/>
<circle cx="460.021" cy="179.383" r="6.4397" fill="#CD354E"/>
<circle cx="164.692" cy="440.901" r="6.4397" fill="#CD354E"/>
<circle cx="460.021" cy="440.901" r="6.4397" fill="#CD354E"/>
<rect x="171.131" y="179.383" width="287.534" height="1" fill="#CD354E"/>
<rect x="171.131" y="439.901" width="287.534" height="1" fill="#CD354E"/>
<rect x="163.692" y="434.461" width="248.639" height="1" transform="rotate(-90 163.692 434.461)" fill="#CD354E"/>
<rect x="459.521" y="434.461" width="248.639" height="1" transform="rotate(-90 459.521 434.461)" fill="#CD354E"/>
</svg>
