<svg width="624" height="624" viewBox="0 0 624 624" fill="none" xmlns="http://www.w3.org/2000/svg">
<circle cx="164.282" cy="459.193" r="163.735" stroke="#CD354E"/>
<circle cx="459.611" cy="459.193" r="163.735" stroke="#CD354E"/>
<circle cx="459.611" cy="164.733" r="163.735" stroke="#CD354E"/>
<circle cx="164.282" cy="164.733" r="163.735" fill="#CD354E" stroke="#CD354E"/>
<path d="M253.563 153.101H251.164V136.559H253.563V153.101ZM254.249 158.839H238.697V156.846H254.249V158.839ZM241.109 157.57H238.697V151.425H241.109V157.57ZM241.223 138.095C242.357 138.095 243.386 138.336 244.308 138.819C245.239 139.293 245.967 139.961 246.492 140.825C247.016 141.68 247.279 142.649 247.279 143.732C247.279 144.832 247.016 145.81 246.492 146.665C245.967 147.519 245.239 148.188 244.308 148.67C243.386 149.153 242.357 149.394 241.223 149.394C240.089 149.394 239.061 149.153 238.138 148.67C237.224 148.188 236.501 147.519 235.967 146.665C235.434 145.81 235.168 144.832 235.168 143.732C235.168 142.649 235.434 141.68 235.967 140.825C236.501 139.961 237.224 139.293 238.138 138.819C239.061 138.336 240.089 138.095 241.223 138.095ZM241.223 140.203C240.529 140.203 239.899 140.351 239.332 140.647C238.765 140.943 238.32 141.358 237.999 141.891C237.685 142.424 237.529 143.038 237.529 143.732C237.529 144.426 237.685 145.044 237.999 145.585C238.32 146.127 238.765 146.546 239.332 146.842C239.899 147.139 240.529 147.287 241.223 147.287C241.917 147.287 242.544 147.139 243.102 146.842C243.661 146.546 244.101 146.127 244.422 145.585C244.744 145.044 244.905 144.426 244.905 143.732C244.905 143.038 244.744 142.424 244.422 141.891C244.101 141.358 243.661 140.943 243.102 140.647C242.544 140.351 241.917 140.203 241.223 140.203Z" fill="white"/>
<path d="M220.979 143.25C220.979 144.858 220.7 146.449 220.141 148.023C219.591 149.589 218.825 150.981 217.844 152.2C216.862 153.418 215.761 154.333 214.543 154.942L213.095 153.05C214.23 152.5 215.249 151.7 216.155 150.651C217.061 149.593 217.772 148.417 218.288 147.122C218.813 145.818 219.075 144.528 219.075 143.25V139.873H220.979V143.25ZM221.462 143.25C221.462 144.451 221.703 145.662 222.185 146.88C222.676 148.091 223.362 149.195 224.242 150.194C225.131 151.193 226.138 151.954 227.263 152.479L225.905 154.371C224.669 153.787 223.569 152.915 222.604 151.755C221.639 150.587 220.886 149.263 220.344 147.782C219.811 146.292 219.545 144.781 219.545 143.25V139.873H221.462V143.25ZM226.4 140.825H213.946V138.844H226.4V140.825ZM231.25 159.284H228.85V136.534H231.25V159.284ZM234.919 147.604H230.704V145.573H234.919V147.604Z" fill="white"/>
<path d="M211.209 159.347H208.784V136.534H211.209V159.347ZM195.695 151.692C198.2 151.692 200.236 151.645 201.802 151.552C203.376 151.459 204.954 151.273 206.537 150.994L206.766 153C205.158 153.287 203.549 153.486 201.941 153.596C200.333 153.698 198.251 153.753 195.695 153.761H193.804V151.692H195.695ZM204.709 140.647H196.228V152.479H193.804V138.654H204.709V140.647Z" fill="white"/>
<path d="M186.958 156.465H166.138V154.472H186.958V156.465ZM177.411 141.84C177.411 143.389 177.014 144.794 176.218 146.055C175.423 147.316 174.322 148.361 172.917 149.191C171.521 150.02 169.938 150.6 168.169 150.93L167.23 148.988C168.787 148.734 170.175 148.26 171.394 147.566C172.621 146.872 173.577 146.03 174.263 145.04C174.957 144.049 175.304 142.983 175.304 141.84V141.358H177.411V141.84ZM177.754 141.84C177.754 142.983 178.097 144.049 178.783 145.04C179.477 146.03 180.437 146.872 181.664 147.566C182.9 148.26 184.292 148.734 185.841 148.988L184.876 150.93C183.099 150.6 181.508 150.02 180.103 149.191C178.706 148.361 177.606 147.316 176.802 146.055C176.007 144.794 175.609 143.389 175.609 141.84V141.358H177.754V141.84ZM185.029 142.005H168.03V140.05H185.029V142.005ZM177.703 140.787H175.329V137.029H177.703V140.787Z" fill="white"/>
<path d="M158.589 144.862H154.781V142.945H158.589V144.862ZM164.366 153.583H162.068V136.559H164.366V153.583ZM159.91 153.012H157.599V137.003H159.91V153.012ZM165.013 158.839H149.385V156.846H165.013V158.839ZM151.835 158.065H149.385V151.705H151.835V158.065ZM147.456 148.036C149.428 148.036 150.985 148.002 152.127 147.934C153.27 147.858 154.425 147.701 155.593 147.464L155.835 149.394C154.59 149.639 153.363 149.8 152.153 149.876C150.951 149.953 149.385 149.991 147.456 149.991H145.983V148.036H147.456ZM154.654 140.342H148.294V148.734H145.983V138.375H154.654V140.342ZM153.74 145.052H147.57V143.186H153.74V145.052Z" fill="white"/>
<path d="M140.923 139.517H126.247V137.575H140.923V139.517ZM142.014 139.555C142.014 140.537 142.006 141.371 141.989 142.056C141.972 142.742 141.917 143.512 141.824 144.367C141.731 145.222 141.587 146.131 141.392 147.096L139.006 146.893C139.209 145.962 139.357 145.082 139.45 144.252C139.543 143.423 139.598 142.674 139.615 142.005C139.632 141.337 139.64 140.52 139.64 139.555V137.575H142.014V139.555ZM125.98 144.176L125.663 142.158L140.339 141.726V143.516L125.98 144.176ZM144.515 150.435H123.835V148.493H144.515V150.435ZM134.448 149.75H132.023V145.319H134.448V149.75ZM142.51 158.941H126.386V156.986H142.51V158.941ZM128.811 157.824H126.386V152.2H128.811V157.824Z" fill="white"/>
<path d="M115.098 143.592C115.03 143.034 114.835 142.551 114.514 142.145C114.192 141.739 113.756 141.434 113.206 141.231C112.665 141.028 112.038 140.926 111.327 140.926C110.591 140.926 109.944 141.041 109.385 141.269C108.826 141.498 108.395 141.819 108.09 142.234C107.785 142.64 107.633 143.106 107.633 143.63C107.633 144.401 107.95 144.993 108.585 145.408C109.22 145.822 110.02 146.153 110.985 146.398L112.749 146.868C114.281 147.24 115.546 147.824 116.545 148.62C117.552 149.415 118.056 150.562 118.056 152.06C118.056 153.093 117.785 154.019 117.243 154.84C116.71 155.653 115.927 156.292 114.895 156.757C113.871 157.214 112.652 157.443 111.238 157.443C109.876 157.443 108.687 157.227 107.671 156.795C106.655 156.355 105.864 155.733 105.297 154.929C104.73 154.117 104.417 153.156 104.358 152.047H107.151C107.21 152.682 107.426 153.22 107.798 153.66C108.17 154.1 108.653 154.43 109.245 154.65C109.838 154.87 110.498 154.98 111.226 154.98C112.004 154.98 112.703 154.857 113.32 154.612C113.938 154.366 114.421 154.019 114.768 153.571C115.115 153.114 115.288 152.593 115.288 152.009C115.288 151.501 115.144 151.074 114.857 150.727C114.569 150.38 114.175 150.097 113.676 149.876C113.185 149.648 112.567 149.432 111.822 149.229L109.639 148.658C108.098 148.235 106.918 147.629 106.097 146.842C105.276 146.047 104.865 145.027 104.865 143.783C104.865 142.742 105.149 141.823 105.716 141.028C106.291 140.232 107.07 139.614 108.052 139.174C109.042 138.726 110.155 138.501 111.391 138.501C112.618 138.501 113.71 138.722 114.666 139.162C115.631 139.593 116.388 140.194 116.939 140.964C117.489 141.735 117.777 142.611 117.802 143.592H115.098Z" fill="white"/>
<path d="M102.649 157.138H100.084L90.766 143.694H90.6009V157.138H87.808V138.755H90.3978L99.7035 152.212H99.8685V138.755H102.649V157.138Z" fill="white"/>
<path d="M83.1158 143.592C83.0481 143.034 82.8534 142.551 82.5318 142.145C82.2102 141.739 81.7743 141.434 81.2242 141.231C80.6825 141.028 80.0562 140.926 79.3453 140.926C78.6089 140.926 77.9615 141.041 77.4029 141.269C76.8443 141.498 76.4126 141.819 76.108 142.234C75.8033 142.64 75.6509 143.106 75.6509 143.63C75.6509 144.401 75.9683 144.993 76.6031 145.408C77.2378 145.822 78.0376 146.153 79.0025 146.398L80.7671 146.868C82.299 147.24 83.5643 147.824 84.563 148.62C85.5702 149.415 86.0738 150.562 86.0738 152.06C86.0738 153.093 85.8029 154.019 85.2613 154.84C84.7281 155.653 83.9452 156.292 82.9126 156.757C81.8886 157.214 80.6698 157.443 79.2564 157.443C77.8938 157.443 76.7046 157.227 75.689 156.795C74.6734 156.355 73.882 155.733 73.315 154.929C72.7479 154.117 72.4348 153.156 72.3755 152.047H75.1685C75.2277 152.682 75.4436 153.22 75.816 153.66C76.1884 154.1 76.6708 154.43 77.2632 154.65C77.8557 154.87 78.5158 154.98 79.2437 154.98C80.0223 154.98 80.7206 154.857 81.3384 154.612C81.9563 154.366 82.4387 154.019 82.7857 153.571C83.1327 153.114 83.3062 152.593 83.3062 152.009C83.3062 151.501 83.1623 151.074 82.8746 150.727C82.5868 150.38 82.1932 150.097 81.6939 149.876C81.203 149.648 80.5852 149.432 79.8404 149.229L77.6568 148.658C76.1164 148.235 74.9358 147.629 74.1148 146.842C73.2938 146.047 72.8833 145.027 72.8833 143.783C72.8833 142.742 73.1669 141.823 73.7339 141.028C74.3095 140.232 75.0881 139.614 76.0699 139.174C77.0601 138.726 78.1731 138.501 79.4087 138.501C80.636 138.501 81.7277 138.722 82.6841 139.162C83.649 139.593 84.4065 140.194 84.9566 140.964C85.5067 141.735 85.7945 142.611 85.8199 143.592H83.1158Z" fill="white"/>
<path d="M546.978 153.101H544.578V136.559H546.978V153.101ZM547.663 158.839H532.112V156.846H547.663V158.839ZM534.524 157.57H532.112V151.425H534.524V157.57ZM534.638 138.095C535.772 138.095 536.8 138.336 537.723 138.819C538.654 139.293 539.382 139.961 539.906 140.825C540.431 141.68 540.694 142.649 540.694 143.732C540.694 144.832 540.431 145.81 539.906 146.665C539.382 147.519 538.654 148.188 537.723 148.67C536.8 149.153 535.772 149.394 534.638 149.394C533.504 149.394 532.475 149.153 531.553 148.67C530.639 148.188 529.915 147.519 529.382 146.665C528.849 145.81 528.582 144.832 528.582 143.732C528.582 142.649 528.849 141.68 529.382 140.825C529.915 139.961 530.639 139.293 531.553 138.819C532.475 138.336 533.504 138.095 534.638 138.095ZM534.638 140.203C533.944 140.203 533.313 140.351 532.746 140.647C532.179 140.943 531.735 141.358 531.413 141.891C531.1 142.424 530.944 143.038 530.944 143.732C530.944 144.426 531.1 145.044 531.413 145.585C531.735 146.127 532.179 146.546 532.746 146.842C533.313 147.139 533.944 147.287 534.638 147.287C535.332 147.287 535.958 147.139 536.517 146.842C537.075 146.546 537.515 146.127 537.837 145.585C538.159 145.044 538.32 144.426 538.32 143.732C538.32 143.038 538.159 142.424 537.837 141.891C537.515 141.358 537.075 140.943 536.517 140.647C535.958 140.351 535.332 140.203 534.638 140.203Z" fill="#CD354E"/>
<path d="M514.394 143.25C514.394 144.858 514.115 146.449 513.556 148.023C513.006 149.589 512.24 150.981 511.258 152.2C510.276 153.418 509.176 154.333 507.957 154.942L506.51 153.05C507.644 152.5 508.664 151.7 509.57 150.651C510.475 149.593 511.186 148.417 511.703 147.122C512.227 145.818 512.49 144.528 512.49 143.25V139.873H514.394V143.25ZM514.876 143.25C514.876 144.451 515.118 145.662 515.6 146.88C516.091 148.091 516.776 149.195 517.657 150.194C518.545 151.193 519.552 151.954 520.678 152.479L519.32 154.371C518.084 153.787 516.984 152.915 516.019 151.755C515.054 150.587 514.301 149.263 513.759 147.782C513.226 146.292 512.959 144.781 512.959 143.25V139.873H514.876V143.25ZM519.815 140.825H507.361V138.844H519.815V140.825ZM524.664 159.284H522.265V136.534H524.664V159.284ZM528.333 147.604H524.119V145.573H528.333V147.604Z" fill="#CD354E"/>
<path d="M504.624 159.347H502.199V136.534H504.624V159.347ZM489.11 151.692C491.615 151.692 493.651 151.645 495.216 151.552C496.791 151.459 498.369 151.273 499.952 150.994L500.18 153C498.572 153.287 496.964 153.486 495.356 153.596C493.748 153.698 491.666 153.753 489.11 153.761H487.218V151.692H489.11ZM498.124 140.647H489.643V152.479H487.218V138.654H498.124V140.647Z" fill="#CD354E"/>
<path d="M471.093 150.74H468.693V147.325H471.093V150.74ZM480.297 147.896H459.553V145.966H480.297V147.896ZM477.618 144.291H462.193V137.27H477.618V144.291ZM464.58 142.386H475.219V139.174H464.58V142.386ZM477.669 155.221H464.44V157.786H462.066V153.457H475.308V151.717H462.028V149.876H477.669V155.221ZM478.329 159.068H462.066V157.202H478.329V159.068Z" fill="#CD354E"/>
<path d="M459.202 156.465H438.382V154.485H459.202V156.465ZM449.922 155.043H447.561V149.178H449.922V155.043ZM443.181 142.018H454.353V138.095H456.727V149.813H440.756V138.095H443.181V142.018ZM454.353 147.858V143.96H443.181V147.858H454.353Z" fill="#CD354E"/>
<path d="M427.571 152.263C429.246 152.263 430.668 152.399 431.836 152.669C433.004 152.94 433.893 153.338 434.502 153.863C435.12 154.379 435.429 155.022 435.429 155.792C435.429 156.91 434.748 157.764 433.385 158.357C432.022 158.958 430.084 159.258 427.571 159.258C425.032 159.258 423.081 158.958 421.718 158.357C420.355 157.764 419.674 156.91 419.674 155.792C419.674 155.022 419.979 154.379 420.588 153.863C421.198 153.338 422.095 152.94 423.28 152.669C424.465 152.399 425.895 152.263 427.571 152.263ZM427.571 154.053C426.394 154.053 425.4 154.121 424.587 154.256C423.775 154.383 423.161 154.578 422.746 154.84C422.34 155.094 422.137 155.412 422.137 155.792C422.137 156.156 422.34 156.465 422.746 156.719C423.161 156.973 423.771 157.159 424.575 157.278C425.387 157.405 426.386 157.468 427.571 157.468C428.756 157.468 429.746 157.405 430.541 157.278C431.345 157.159 431.955 156.973 432.369 156.719C432.784 156.465 432.992 156.156 432.992 155.792C432.992 155.412 432.784 155.094 432.369 154.84C431.955 154.578 431.345 154.383 430.541 154.256C429.737 154.121 428.747 154.053 427.571 154.053ZM436.787 140.241H418.252V138.349H436.787V140.241ZM427.583 141.053C429.995 141.053 431.841 141.333 433.119 141.891C434.397 142.441 435.036 143.258 435.036 144.341C435.036 145.382 434.392 146.182 433.106 146.741C431.828 147.291 429.987 147.566 427.583 147.566C425.18 147.566 423.33 147.291 422.036 146.741C420.741 146.182 420.093 145.382 420.093 144.341C420.093 143.258 420.741 142.441 422.036 141.891C423.33 141.333 425.18 141.053 427.583 141.053ZM427.583 142.729C426.517 142.729 425.62 142.788 424.892 142.907C424.164 143.025 423.61 143.203 423.229 143.44C422.856 143.677 422.67 143.977 422.67 144.341C422.67 144.663 422.856 144.938 423.229 145.167C423.61 145.395 424.164 145.573 424.892 145.7C425.62 145.818 426.517 145.882 427.583 145.89C428.65 145.882 429.547 145.818 430.275 145.7C431.003 145.573 431.553 145.395 431.925 145.167C432.298 144.938 432.484 144.663 432.484 144.341C432.484 143.977 432.298 143.677 431.925 143.44C431.553 143.203 431.003 143.025 430.275 142.907C429.547 142.788 428.65 142.729 427.583 142.729ZM428.777 139.606H426.377V136.28H428.777V139.606ZM437.955 151.019H417.211V149.115H437.955V151.019ZM428.777 150.016H426.377V146.842H428.777V150.016Z" fill="#CD354E"/>
<path d="M414.246 150.905C413.924 150.905 413.624 150.82 413.344 150.651C413.065 150.482 412.845 150.262 412.684 149.991C412.532 149.711 412.456 149.411 412.456 149.089C412.456 148.776 412.532 148.48 412.684 148.201C412.845 147.921 413.065 147.706 413.344 147.553C413.624 147.392 413.924 147.312 414.246 147.312C414.559 147.312 414.855 147.392 415.134 147.553C415.414 147.706 415.634 147.921 415.794 148.201C415.955 148.48 416.036 148.776 416.036 149.089C416.036 149.411 415.955 149.711 415.794 149.991C415.634 150.262 415.414 150.482 415.134 150.651C414.855 150.82 414.559 150.905 414.246 150.905Z" fill="#CD354E"/>
<path d="M407.383 140.685H392.669V138.73H407.383V140.685ZM411.229 156.211H390.485V154.231H411.229V156.211ZM400.756 155.259H398.382V146.208H400.756V155.259ZM408.893 140.964C408.893 142.31 408.876 143.44 408.843 144.354C408.809 145.26 408.732 146.334 408.614 147.579C408.496 148.814 408.305 150.152 408.043 151.59L405.593 151.324C405.872 149.961 406.075 148.675 406.202 147.464C406.329 146.254 406.405 145.183 406.43 144.252C406.464 143.313 406.481 142.217 406.481 140.964V138.73H408.893V140.964Z" fill="#CD354E"/>
<path d="M380.562 139.898H370.52V137.905H380.562V139.898ZM376.183 148.391H373.796V142.894H376.183V148.391ZM381.984 139.212C381.976 140.363 381.938 141.383 381.87 142.272C381.802 143.161 381.646 144.176 381.4 145.319L379.026 145.128C379.263 143.969 379.411 142.953 379.471 142.082C379.538 141.201 379.572 140.245 379.572 139.212V137.905H381.984V139.212ZM387.316 150.651H384.853V136.534H387.316V150.651ZM390.465 144.583H386.225V142.564H390.465V144.583ZM369.124 147.299C371.858 147.299 374.409 147.257 376.779 147.172C379.149 147.079 381.366 146.897 383.432 146.626L383.559 148.366C381.434 148.721 379.166 148.962 376.754 149.089C374.35 149.216 371.883 149.28 369.352 149.28L369.124 147.299ZM379.801 150.917C381.392 150.917 382.763 151.083 383.914 151.413C385.065 151.734 385.945 152.208 386.555 152.834C387.172 153.452 387.481 154.184 387.481 155.031C387.481 155.911 387.172 156.664 386.555 157.291C385.945 157.917 385.065 158.395 383.914 158.725C382.763 159.055 381.392 159.22 379.801 159.22C378.21 159.22 376.838 159.055 375.687 158.725C374.536 158.395 373.652 157.917 373.034 157.291C372.416 156.664 372.107 155.911 372.107 155.031C372.107 154.184 372.416 153.452 373.034 152.834C373.652 152.208 374.541 151.734 375.7 151.413C376.86 151.083 378.227 150.917 379.801 150.917ZM379.801 152.784C378.726 152.784 377.786 152.873 376.982 153.05C376.187 153.22 375.582 153.478 375.167 153.825C374.752 154.163 374.545 154.565 374.545 155.031C374.545 155.522 374.752 155.941 375.167 156.288C375.582 156.626 376.183 156.884 376.97 157.062C377.757 157.24 378.7 157.329 379.801 157.329C380.901 157.329 381.84 157.24 382.619 157.062C383.406 156.884 384.007 156.626 384.422 156.288C384.837 155.941 385.044 155.522 385.044 155.031C385.044 154.565 384.837 154.163 384.422 153.825C384.007 153.478 383.406 153.22 382.619 153.05C381.832 152.873 380.893 152.784 379.801 152.784Z" fill="#CD354E"/>
<path d="M250.447 476.881H248.048V460.339H250.447V476.881ZM251.133 482.62H235.581V480.626H251.133V482.62ZM237.993 481.35H235.581V475.206H237.993V481.35ZM238.108 461.875C239.242 461.875 240.27 462.117 241.193 462.599C242.124 463.073 242.851 463.742 243.376 464.605C243.901 465.46 244.163 466.429 244.163 467.512C244.163 468.612 243.901 469.59 243.376 470.445C242.851 471.3 242.124 471.968 241.193 472.451C240.27 472.933 239.242 473.174 238.108 473.174C236.973 473.174 235.945 472.933 235.023 472.451C234.109 471.968 233.385 471.3 232.852 470.445C232.318 469.59 232.052 468.612 232.052 467.512C232.052 466.429 232.318 465.46 232.852 464.605C233.385 463.742 234.109 463.073 235.023 462.599C235.945 462.117 236.973 461.875 238.108 461.875ZM238.108 463.983C237.414 463.983 236.783 464.131 236.216 464.427C235.649 464.723 235.205 465.138 234.883 465.671C234.57 466.205 234.413 466.818 234.413 467.512C234.413 468.206 234.57 468.824 234.883 469.366C235.205 469.907 235.649 470.326 236.216 470.623C236.783 470.919 237.414 471.067 238.108 471.067C238.802 471.067 239.428 470.919 239.986 470.623C240.545 470.326 240.985 469.907 241.307 469.366C241.628 468.824 241.789 468.206 241.789 467.512C241.789 466.818 241.628 466.205 241.307 465.671C240.985 465.138 240.545 464.723 239.986 464.427C239.428 464.131 238.802 463.983 238.108 463.983Z" fill="#CD354E"/>
<path d="M217.864 467.03C217.864 468.638 217.584 470.229 217.026 471.803C216.476 473.369 215.71 474.761 214.728 475.98C213.746 477.199 212.646 478.113 211.427 478.722L209.98 476.831C211.114 476.28 212.134 475.481 213.039 474.431C213.945 473.373 214.656 472.197 215.172 470.902C215.697 469.598 215.959 468.308 215.959 467.03V463.653H217.864V467.03ZM218.346 467.03C218.346 468.232 218.587 469.442 219.07 470.661C219.561 471.871 220.246 472.975 221.126 473.974C222.015 474.973 223.022 475.735 224.148 476.259L222.789 478.151C221.554 477.567 220.453 476.695 219.489 475.536C218.524 474.368 217.771 473.043 217.229 471.562C216.696 470.072 216.429 468.562 216.429 467.03V463.653H218.346V467.03ZM223.285 464.605H210.83V462.625H223.285V464.605ZM228.134 483.064H225.735V460.314H228.134V483.064ZM231.803 471.384H227.588V469.353H231.803V471.384Z" fill="#CD354E"/>
<path d="M208.093 483.127H205.669V460.314H208.093V483.127ZM192.58 475.472C195.085 475.472 197.12 475.426 198.686 475.333C200.26 475.239 201.839 475.053 203.421 474.774L203.65 476.78C202.042 477.068 200.434 477.266 198.826 477.376C197.218 477.478 195.136 477.533 192.58 477.542H190.688V475.472H192.58ZM201.593 464.427H193.113V476.259H190.688V462.434H201.593V464.427Z" fill="#CD354E"/>
<path d="M169.192 462.028C170.31 462.028 171.3 462.358 172.163 463.018C173.035 463.678 173.716 464.609 174.207 465.811C174.698 467.013 174.943 468.414 174.943 470.013C174.943 471.621 174.698 473.026 174.207 474.228C173.716 475.43 173.035 476.361 172.163 477.021C171.3 477.673 170.31 477.999 169.192 477.999C168.075 477.999 167.076 477.673 166.196 477.021C165.324 476.369 164.643 475.443 164.152 474.241C163.661 473.03 163.416 471.621 163.416 470.013C163.416 468.414 163.661 467.013 164.152 465.811C164.643 464.609 165.324 463.678 166.196 463.018C167.076 462.358 168.075 462.028 169.192 462.028ZM169.192 464.186C168.515 464.186 167.91 464.423 167.377 464.897C166.844 465.371 166.433 466.048 166.145 466.928C165.866 467.8 165.727 468.828 165.727 470.013C165.727 471.19 165.866 472.218 166.145 473.098C166.433 473.978 166.844 474.655 167.377 475.129C167.91 475.595 168.515 475.828 169.192 475.828C169.869 475.828 170.475 475.595 171.008 475.129C171.541 474.655 171.951 473.978 172.239 473.098C172.527 472.218 172.671 471.19 172.671 470.013C172.671 468.828 172.523 467.8 172.227 466.928C171.939 466.048 171.533 465.371 171.008 464.897C170.491 464.423 169.886 464.186 169.192 464.186ZM182.002 483.127H179.602V460.314H182.002V483.127ZM180.656 470.826H174.182V468.858H180.656V470.826Z" fill="#CD354E"/>
<path d="M149.405 483.216H146.993V473.949H149.405V483.216ZM157.543 483.216H155.144V473.949H157.543V483.216ZM162.647 475.155H141.826V473.187H162.647V475.155ZM153.1 462.32C153.1 463.742 152.685 465.049 151.856 466.243C151.026 467.436 149.905 468.431 148.491 469.226C147.078 470.022 145.512 470.563 143.794 470.851L142.829 468.871C144.302 468.659 145.66 468.232 146.904 467.588C148.149 466.945 149.139 466.158 149.875 465.227C150.611 464.296 150.98 463.327 150.98 462.32V461.088H153.1V462.32ZM153.481 462.32C153.481 463.319 153.853 464.283 154.598 465.214C155.343 466.137 156.337 466.924 157.581 467.576C158.825 468.227 160.179 468.659 161.644 468.871L160.704 470.851C159.003 470.563 157.442 470.017 156.02 469.213C154.606 468.401 153.481 467.402 152.643 466.217C151.805 465.024 151.386 463.725 151.386 462.32V461.088H153.481V462.32Z" fill="#CD354E"/>
<path d="M141.501 480.347H120.681V478.354H141.501V480.347ZM132.221 479.205H129.86V473.657H132.221V479.205ZM138.95 469.036H125.619V473.403H123.22V467.106H136.576V463.907H123.182V461.939H138.95V469.036ZM139.483 474.342H123.22V472.362H139.483V474.342Z" fill="#CD354E"/>
<path d="M120.331 480.144H99.5103V478.151H120.331V480.144ZM104.309 465.976H115.481V461.888H117.855V473.847H101.884V461.888H104.309V465.976ZM115.481 471.93V467.88H104.309V471.93H115.481Z" fill="#CD354E"/>
<path d="M98.3728 474.33H90.2097V471.994H98.3728V474.33Z" fill="#CD354E"/>
<path d="M82.9531 481.198C81.6243 481.198 80.4606 480.906 79.4619 480.322C78.4716 479.738 77.7099 478.913 77.1767 477.846C76.6435 476.78 76.3769 475.54 76.3769 474.126C76.3769 472.713 76.6435 471.465 77.1767 470.381C77.7099 469.29 78.4589 468.447 79.4238 467.855C80.3886 467.254 81.5016 466.954 82.7626 466.954C83.8798 466.954 84.8997 467.195 85.8222 467.677C86.7447 468.151 87.4853 468.909 88.0439 469.95C88.6025 470.982 88.8818 472.29 88.8818 473.873V474.825H77.9003V472.806H86.2285C86.2285 472.104 86.0846 471.482 85.7968 470.94C85.5175 470.39 85.1155 469.958 84.5908 469.645C84.066 469.332 83.4651 469.175 82.788 469.175C82.0517 469.175 81.4042 469.353 80.8456 469.708C80.287 470.064 79.8512 470.542 79.538 471.143C79.2249 471.744 79.0683 472.387 79.0683 473.073V474.647C79.0683 475.553 79.2291 476.331 79.5507 476.983C79.8808 477.635 80.3378 478.13 80.9218 478.468C81.5143 478.807 82.1956 478.976 82.9658 478.976C83.4566 478.976 83.901 478.908 84.2988 478.773C84.6966 478.629 85.0351 478.451 85.3144 478.24C85.5937 478.02 85.8095 477.762 85.9619 477.465H88.7167C88.5136 478.21 88.1497 478.862 87.6249 479.42C87.1002 479.979 86.4358 480.415 85.6318 480.728C84.8362 481.041 83.9433 481.198 82.9531 481.198Z" fill="#CD354E"/>
<path d="M557.474 476.881H555.075V460.339H557.474V476.881ZM558.16 482.62H542.608V480.626H558.16V482.62ZM545.02 481.35H542.608V475.206H545.02V481.35ZM545.134 461.875C546.268 461.875 547.297 462.117 548.219 462.599C549.15 463.073 549.878 463.742 550.403 464.605C550.927 465.46 551.19 466.429 551.19 467.512C551.19 468.612 550.927 469.59 550.403 470.445C549.878 471.3 549.15 471.968 548.219 472.451C547.297 472.933 546.268 473.174 545.134 473.174C544 473.174 542.972 472.933 542.049 472.451C541.135 471.968 540.411 471.3 539.878 470.445C539.345 469.59 539.078 468.612 539.078 467.512C539.078 466.429 539.345 465.46 539.878 464.605C540.411 463.742 541.135 463.073 542.049 462.599C542.972 462.117 544 461.875 545.134 461.875ZM545.134 463.983C544.44 463.983 543.81 464.131 543.243 464.427C542.675 464.723 542.231 465.138 541.91 465.671C541.596 466.205 541.44 466.818 541.44 467.512C541.44 468.206 541.596 468.824 541.91 469.366C542.231 469.907 542.675 470.326 543.243 470.623C543.81 470.919 544.44 471.067 545.134 471.067C545.828 471.067 546.454 470.919 547.013 470.623C547.572 470.326 548.012 469.907 548.333 469.366C548.655 468.824 548.816 468.206 548.816 467.512C548.816 466.818 548.655 466.205 548.333 465.671C548.012 465.138 547.572 464.723 547.013 464.427C546.454 464.131 545.828 463.983 545.134 463.983Z" fill="#CD354E"/>
<path d="M524.89 467.03C524.89 468.638 524.611 470.229 524.052 471.803C523.502 473.369 522.736 474.761 521.754 475.98C520.773 477.199 519.672 478.113 518.454 478.722L517.006 476.831C518.141 476.28 519.16 475.481 520.066 474.431C520.972 473.373 521.683 472.197 522.199 470.902C522.724 469.598 522.986 468.308 522.986 467.03V463.653H524.89V467.03ZM525.373 467.03C525.373 468.232 525.614 469.442 526.096 470.661C526.587 471.871 527.273 472.975 528.153 473.974C529.042 474.973 530.049 475.735 531.174 476.259L529.816 478.151C528.58 477.567 527.48 476.695 526.515 475.536C525.55 474.368 524.797 473.043 524.255 471.562C523.722 470.072 523.456 468.562 523.456 467.03V463.653H525.373V467.03ZM530.311 464.605H517.857V462.625H530.311V464.605ZM535.161 483.064H532.761V460.314H535.161V483.064ZM538.83 471.384H534.615V469.353H538.83V471.384Z" fill="#CD354E"/>
<path d="M515.12 483.127H512.695V460.314H515.12V483.127ZM499.606 475.472C502.111 475.472 504.147 475.426 505.713 475.333C507.287 475.239 508.865 475.053 510.448 474.774L510.677 476.78C509.068 477.068 507.46 477.266 505.852 477.376C504.244 477.478 502.162 477.533 499.606 477.542H497.715V475.472H499.606ZM508.62 464.427H500.139V476.259H497.715V462.434H508.62V464.427Z" fill="#CD354E"/>
<path d="M489.803 480.918H487.01V462.536H489.803V480.918Z" fill="#CD354E"/>
<path d="M484.565 462.536V474.622C484.565 475.9 484.26 477.038 483.651 478.037C483.05 479.027 482.195 479.806 481.086 480.373C479.978 480.94 478.7 481.223 477.252 481.223C475.797 481.223 474.519 480.94 473.418 480.373C472.318 479.806 471.463 479.027 470.854 478.037C470.253 477.038 469.952 475.9 469.952 474.622V462.536H472.745V474.406C472.745 475.218 472.927 475.95 473.291 476.602C473.664 477.245 474.189 477.753 474.866 478.125C475.551 478.498 476.347 478.684 477.252 478.684C478.166 478.684 478.966 478.498 479.652 478.125C480.337 477.753 480.858 477.245 481.213 476.602C481.577 475.95 481.759 475.218 481.759 474.406V462.536H484.565Z" fill="#CD354E"/>
<path d="M463.089 483.686H460.703L466.619 461.672H469.031L463.089 483.686Z" fill="#CD354E"/>
<path d="M453.294 469.708H453.446L457.826 462.536H461.063L455.35 471.727L461.101 480.918H457.851L453.446 473.847H453.294L448.888 480.918H445.638L451.504 471.727L445.676 462.536H448.926L453.294 469.708Z" fill="#CD354E"/>
<path d="M444.539 462.536V474.622C444.539 475.9 444.234 477.038 443.625 478.037C443.024 479.027 442.169 479.806 441.061 480.373C439.952 480.94 438.674 481.223 437.227 481.223C435.771 481.223 434.493 480.94 433.393 480.373C432.292 479.806 431.437 479.027 430.828 478.037C430.227 477.038 429.927 475.9 429.927 474.622V462.536H432.72V474.406C432.72 475.218 432.902 475.95 433.266 476.602C433.638 477.245 434.163 477.753 434.84 478.125C435.525 478.498 436.321 478.684 437.227 478.684C438.141 478.684 438.94 478.498 439.626 478.125C440.311 477.753 440.832 477.245 441.187 476.602C441.551 475.95 441.733 475.218 441.733 474.406V462.536H444.539Z" fill="#CD354E"/>
<path d="M425.92 474.685C425.598 474.685 425.298 474.6 425.019 474.431C424.739 474.262 424.519 474.042 424.359 473.771C424.206 473.492 424.13 473.191 424.13 472.87C424.13 472.556 424.206 472.26 424.359 471.981C424.519 471.702 424.739 471.486 425.019 471.333C425.298 471.173 425.598 471.092 425.92 471.092C426.233 471.092 426.529 471.173 426.809 471.333C427.088 471.486 427.308 471.702 427.469 471.981C427.63 472.26 427.71 472.556 427.71 472.87C427.71 473.191 427.63 473.492 427.469 473.771C427.308 474.042 427.088 474.262 426.809 474.431C426.529 474.6 426.233 474.685 425.92 474.685Z" fill="#CD354E"/>
<path d="M421.025 474.203H418.625V460.314H421.025V474.203ZM405.435 470.28C408.025 470.28 410.119 470.225 411.719 470.115C413.327 470.005 414.91 469.793 416.467 469.48L416.708 471.473C415.143 471.769 413.551 471.968 411.935 472.07C410.327 472.171 408.16 472.226 405.435 472.235H403.531V470.28H405.435ZM414.347 464.046H405.917V471.359H403.531V462.079H414.347V464.046ZM413.382 474.279C414.956 474.27 416.323 474.44 417.483 474.787C418.642 475.134 419.535 475.637 420.161 476.297C420.788 476.958 421.101 477.749 421.101 478.671C421.101 479.585 420.788 480.373 420.161 481.033C419.535 481.693 418.647 482.196 417.495 482.543C416.344 482.89 414.973 483.068 413.382 483.077C411.791 483.068 410.411 482.89 409.244 482.543C408.084 482.196 407.195 481.693 406.577 481.033C405.96 480.373 405.651 479.585 405.651 478.671C405.651 477.749 405.96 476.958 406.577 476.297C407.195 475.637 408.084 475.134 409.244 474.787C410.411 474.44 411.791 474.27 413.382 474.279ZM413.382 476.183C412.273 476.183 411.317 476.276 410.513 476.462C409.717 476.649 409.112 476.928 408.698 477.3C408.283 477.673 408.076 478.13 408.076 478.671C408.076 479.188 408.283 479.632 408.698 480.004C409.121 480.377 409.73 480.665 410.526 480.868C411.321 481.062 412.273 481.16 413.382 481.16C414.491 481.16 415.447 481.062 416.251 480.868C417.064 480.665 417.677 480.377 418.092 480.004C418.515 479.632 418.727 479.188 418.727 478.671C418.727 478.147 418.515 477.694 418.092 477.313C417.677 476.932 417.068 476.649 416.264 476.462C415.46 476.276 414.499 476.183 413.382 476.183Z" fill="#CD354E"/>
<path d="M400.387 477.262H398.089V460.339H400.387V477.262ZM398.788 469.023H394.636V467.03H398.788V469.023ZM395.309 476.666H393.075V460.758H395.309V476.666ZM401.035 482.62H385.293V480.626H401.035V482.62ZM387.692 481.363H385.293V475.688H387.692V481.363ZM383.515 472.019C385.259 472.019 386.748 471.972 387.984 471.879C389.228 471.786 390.502 471.617 391.805 471.372L392.046 473.289C390.701 473.534 389.389 473.703 388.111 473.796C386.841 473.889 385.309 473.936 383.515 473.936H381.992V472.019H383.515ZM390.599 468.947H384.328V473.047H381.992V467.093H388.289V464.173H381.954V462.244H390.599V468.947Z" fill="#CD354E"/>
<path d="M380.638 480.144H359.818V478.151H380.638V480.144ZM364.617 465.976H375.789V461.888H378.163V473.847H362.192V461.888H364.617V465.976ZM375.789 471.93V467.88H364.617V471.93H375.789Z" fill="#CD354E"/>
<circle cx="164.282" cy="179.388" r="6.4397" fill="white"/>
<circle cx="459.611" cy="179.388" r="6.4397" fill="#CD354E"/>
<circle cx="164.282" cy="440.906" r="6.4397" fill="#CD354E"/>
<circle cx="459.611" cy="440.906" r="6.4397" fill="#CD354E"/>
<rect x="170.721" y="179.388" width="287.534" height="1" fill="#CD354E"/>
<rect x="170.721" y="439.906" width="287.534" height="1" fill="#CD354E"/>
<rect x="163.282" y="434.466" width="248.639" height="1" transform="rotate(-90 163.282 434.466)" fill="#CD354E"/>
<rect x="459.111" y="434.466" width="248.639" height="1" transform="rotate(-90 459.111 434.466)" fill="#CD354E"/>
</svg>
