<svg width="625" height="624" viewBox="0 0 625 624" fill="none" xmlns="http://www.w3.org/2000/svg">
<circle cx="165.098" cy="459.193" r="163.735" stroke="#CD354E"/>
<circle cx="460.427" cy="459.193" r="163.735" stroke="#CD354E"/>
<circle cx="460.427" cy="164.733" r="163.735" fill="#CD354E" stroke="#CD354E"/>
<circle cx="165.098" cy="164.733" r="163.735" stroke="#CD354E"/>
<path d="M254.379 153.101H251.979V136.559H254.379V153.101ZM255.064 158.839H239.513V156.846H255.064V158.839ZM241.925 157.57H239.513V151.425H241.925V157.57ZM242.039 138.095C243.173 138.095 244.201 138.336 245.124 138.819C246.055 139.293 246.783 139.961 247.307 140.825C247.832 141.68 248.095 142.649 248.095 143.732C248.095 144.832 247.832 145.81 247.307 146.665C246.783 147.519 246.055 148.188 245.124 148.67C244.201 149.153 243.173 149.394 242.039 149.394C240.905 149.394 239.877 149.153 238.954 148.67C238.04 148.188 237.316 147.519 236.783 146.665C236.25 145.81 235.983 144.832 235.983 143.732C235.983 142.649 236.25 141.68 236.783 140.825C237.316 139.961 238.04 139.293 238.954 138.819C239.877 138.336 240.905 138.095 242.039 138.095ZM242.039 140.203C241.345 140.203 240.714 140.351 240.147 140.647C239.58 140.943 239.136 141.358 238.814 141.891C238.501 142.424 238.345 143.038 238.345 143.732C238.345 144.426 238.501 145.044 238.814 145.585C239.136 146.127 239.58 146.546 240.147 146.842C240.714 147.139 241.345 147.287 242.039 147.287C242.733 147.287 243.359 147.139 243.918 146.842C244.476 146.546 244.917 146.127 245.238 145.585C245.56 145.044 245.721 144.426 245.721 143.732C245.721 143.038 245.56 142.424 245.238 141.891C244.917 141.358 244.476 140.943 243.918 140.647C243.359 140.351 242.733 140.203 242.039 140.203Z" fill="#CD354E"/>
<path d="M221.795 143.25C221.795 144.858 221.516 146.449 220.957 148.023C220.407 149.589 219.641 150.981 218.659 152.2C217.678 153.418 216.577 154.333 215.359 154.942L213.911 153.05C215.045 152.5 216.065 151.7 216.971 150.651C217.876 149.593 218.587 148.417 219.104 147.122C219.628 145.818 219.891 144.528 219.891 143.25V139.873H221.795V143.25ZM222.277 143.25C222.277 144.451 222.519 145.662 223.001 146.88C223.492 148.091 224.178 149.195 225.058 150.194C225.946 151.193 226.954 151.954 228.079 152.479L226.721 154.371C225.485 153.787 224.385 152.915 223.42 151.755C222.455 150.587 221.702 149.263 221.16 147.782C220.627 146.292 220.36 144.781 220.36 143.25V139.873H222.277V143.25ZM227.216 140.825H214.762V138.844H227.216V140.825ZM232.066 159.284H229.666V136.534H232.066V159.284ZM235.734 147.604H231.52V145.573H235.734V147.604Z" fill="#CD354E"/>
<path d="M212.025 159.347H209.6V136.534H212.025V159.347ZM196.511 151.692C199.016 151.692 201.052 151.645 202.618 151.552C204.192 151.459 205.77 151.273 207.353 150.994L207.581 153C205.973 153.287 204.365 153.486 202.757 153.596C201.149 153.698 199.067 153.753 196.511 153.761H194.619V151.692H196.511ZM205.525 140.647H197.044V152.479H194.619V138.654H205.525V140.647Z" fill="#CD354E"/>
<path d="M187.774 156.465H166.954V154.472H187.774V156.465ZM178.227 141.84C178.227 143.389 177.829 144.794 177.034 146.055C176.238 147.316 175.138 148.361 173.733 149.191C172.337 150.02 170.754 150.6 168.985 150.93L168.046 148.988C169.603 148.734 170.991 148.26 172.21 147.566C173.437 146.872 174.393 146.03 175.079 145.04C175.773 144.049 176.12 142.983 176.12 141.84V141.358H178.227V141.84ZM178.57 141.84C178.57 142.983 178.913 144.049 179.598 145.04C180.292 146.03 181.253 146.872 182.48 147.566C183.716 148.26 185.108 148.734 186.657 148.988L185.692 150.93C183.915 150.6 182.324 150.02 180.919 149.191C179.522 148.361 178.422 147.316 177.618 146.055C176.822 144.794 176.424 143.389 176.424 141.84V141.358H178.57V141.84ZM185.844 142.005H168.845V140.05H185.844V142.005ZM178.519 140.787H176.145V137.029H178.519V140.787Z" fill="#CD354E"/>
<path d="M159.405 144.862H155.597V142.945H159.405V144.862ZM165.182 153.583H162.884V136.559H165.182V153.583ZM160.725 153.012H158.415V137.003H160.725V153.012ZM165.829 158.839H150.201V156.846H165.829V158.839ZM152.651 158.065H150.201V151.705H152.651V158.065ZM148.271 148.036C150.243 148.036 151.801 148.002 152.943 147.934C154.086 147.858 155.241 147.701 156.409 147.464L156.65 149.394C155.406 149.639 154.179 149.8 152.969 149.876C151.767 149.953 150.201 149.991 148.271 149.991H146.799V148.036H148.271ZM155.47 140.342H149.109V148.734H146.799V138.375H155.47V140.342ZM154.556 145.052H148.386V143.186H154.556V145.052Z" fill="#CD354E"/>
<path d="M141.738 139.517H127.063V137.575H141.738V139.517ZM142.83 139.555C142.83 140.537 142.822 141.371 142.805 142.056C142.788 142.742 142.733 143.512 142.64 144.367C142.547 145.222 142.403 146.131 142.208 147.096L139.821 146.893C140.025 145.962 140.173 145.082 140.266 144.252C140.359 143.423 140.414 142.674 140.431 142.005C140.448 141.337 140.456 140.52 140.456 139.555V137.575H142.83V139.555ZM126.796 144.176L126.479 142.158L141.154 141.726V143.516L126.796 144.176ZM145.331 150.435H124.651V148.493H145.331V150.435ZM135.264 149.75H132.839V145.319H135.264V149.75ZM143.325 158.941H127.202V156.986H143.325V158.941ZM129.627 157.824H127.202V152.2H129.627V157.824Z" fill="#CD354E"/>
<path d="M115.914 143.592C115.846 143.034 115.651 142.551 115.33 142.145C115.008 141.739 114.572 141.434 114.022 141.231C113.48 141.028 112.854 140.926 112.143 140.926C111.407 140.926 110.759 141.041 110.201 141.269C109.642 141.498 109.21 141.819 108.906 142.234C108.601 142.64 108.449 143.106 108.449 143.63C108.449 144.401 108.766 144.993 109.401 145.408C110.036 145.822 110.835 146.153 111.8 146.398L113.565 146.868C115.097 147.24 116.362 147.824 117.361 148.62C118.368 149.415 118.872 150.562 118.872 152.06C118.872 153.093 118.601 154.019 118.059 154.84C117.526 155.653 116.743 156.292 115.71 156.757C114.686 157.214 113.468 157.443 112.054 157.443C110.692 157.443 109.502 157.227 108.487 156.795C107.471 156.355 106.68 155.733 106.113 154.929C105.546 154.117 105.233 153.156 105.173 152.047H107.966C108.026 152.682 108.241 153.22 108.614 153.66C108.986 154.1 109.469 154.43 110.061 154.65C110.653 154.87 111.314 154.98 112.042 154.98C112.82 154.98 113.518 154.857 114.136 154.612C114.754 154.366 115.236 154.019 115.583 153.571C115.931 153.114 116.104 152.593 116.104 152.009C116.104 151.501 115.96 151.074 115.672 150.727C115.385 150.38 114.991 150.097 114.492 149.876C114.001 149.648 113.383 149.432 112.638 149.229L110.455 148.658C108.914 148.235 107.734 147.629 106.913 146.842C106.092 146.047 105.681 145.027 105.681 143.783C105.681 142.742 105.965 141.823 106.532 141.028C107.107 140.232 107.886 139.614 108.868 139.174C109.858 138.726 110.971 138.501 112.207 138.501C113.434 138.501 114.526 138.722 115.482 139.162C116.447 139.593 117.204 140.194 117.754 140.964C118.305 141.735 118.592 142.611 118.618 143.592H115.914Z" fill="#CD354E"/>
<path d="M103.465 157.138H100.9L91.5817 143.694H91.4167V157.138H88.6237V138.755H91.2136L100.519 152.212H100.684V138.755H103.465V157.138Z" fill="#CD354E"/>
<path d="M83.9315 143.592C83.8638 143.034 83.6691 142.551 83.3475 142.145C83.0259 141.739 82.59 141.434 82.0399 141.231C81.4983 141.028 80.8719 140.926 80.161 140.926C79.4247 140.926 78.7772 141.041 78.2186 141.269C77.66 141.498 77.2284 141.819 76.9237 142.234C76.619 142.64 76.4667 143.106 76.4667 143.63C76.4667 144.401 76.7841 144.993 77.4188 145.408C78.0536 145.822 78.8534 146.153 79.8182 146.398L81.5829 146.868C83.1148 147.24 84.3801 147.824 85.3788 148.62C86.3859 149.415 86.8895 150.562 86.8895 152.06C86.8895 153.093 86.6187 154.019 86.077 154.84C85.5438 155.653 84.7609 156.292 83.7284 156.757C82.7043 157.214 81.4856 157.443 80.0721 157.443C78.7095 157.443 77.5204 157.227 76.5048 156.795C75.4891 156.355 74.6978 155.733 74.1307 154.929C73.5637 154.117 73.2505 153.156 73.1913 152.047H75.9843C76.0435 152.682 76.2593 153.22 76.6317 153.66C77.0041 154.1 77.4865 154.43 78.079 154.65C78.6714 154.87 79.3316 154.98 80.0594 154.98C80.8381 154.98 81.5363 154.857 82.1542 154.612C82.772 154.366 83.2544 154.019 83.6014 153.571C83.9484 153.114 84.1219 152.593 84.1219 152.009C84.1219 151.501 83.9781 151.074 83.6903 150.727C83.4025 150.38 83.009 150.097 82.5096 149.876C82.0188 149.648 81.4009 149.432 80.6561 149.229L78.4725 148.658C76.9322 148.235 75.7515 147.629 74.9305 146.842C74.1096 146.047 73.6991 145.027 73.6991 143.783C73.6991 142.742 73.9826 141.823 74.5497 141.028C75.1252 140.232 75.9038 139.614 76.8856 139.174C77.8759 138.726 78.9888 138.501 80.2245 138.501C81.4517 138.501 82.5435 138.722 83.4999 139.162C84.4647 139.593 85.2222 140.194 85.7723 140.964C86.3225 141.735 86.6102 142.611 86.6356 143.592H83.9315Z" fill="#CD354E"/>
<path d="M547.793 153.101H545.394V136.559H547.793V153.101ZM548.479 158.839H532.927V156.846H548.479V158.839ZM535.339 157.57H532.927V151.425H535.339V157.57ZM535.454 138.095C536.588 138.095 537.616 138.336 538.539 138.819C539.47 139.293 540.197 139.961 540.722 140.825C541.247 141.68 541.509 142.649 541.509 143.732C541.509 144.832 541.247 145.81 540.722 146.665C540.197 147.519 539.47 148.188 538.539 148.67C537.616 149.153 536.588 149.394 535.454 149.394C534.319 149.394 533.291 149.153 532.369 148.67C531.455 148.188 530.731 147.519 530.198 146.665C529.665 145.81 529.398 144.832 529.398 143.732C529.398 142.649 529.665 141.68 530.198 140.825C530.731 139.961 531.455 139.293 532.369 138.819C533.291 138.336 534.319 138.095 535.454 138.095ZM535.454 140.203C534.76 140.203 534.129 140.351 533.562 140.647C532.995 140.943 532.551 141.358 532.229 141.891C531.916 142.424 531.759 143.038 531.759 143.732C531.759 144.426 531.916 145.044 532.229 145.585C532.551 146.127 532.995 146.546 533.562 146.842C534.129 147.139 534.76 147.287 535.454 147.287C536.148 147.287 536.774 147.139 537.333 146.842C537.891 146.546 538.331 146.127 538.653 145.585C538.974 145.044 539.135 144.426 539.135 143.732C539.135 143.038 538.974 142.424 538.653 141.891C538.331 141.358 537.891 140.943 537.333 140.647C536.774 140.351 536.148 140.203 535.454 140.203Z" fill="white"/>
<path d="M515.21 143.25C515.21 144.858 514.93 146.449 514.372 148.023C513.822 149.589 513.056 150.981 512.074 152.2C511.092 153.418 509.992 154.333 508.773 154.942L507.326 153.05C508.46 152.5 509.48 151.7 510.385 150.651C511.291 149.593 512.002 148.417 512.518 147.122C513.043 145.818 513.305 144.528 513.305 143.25V139.873H515.21V143.25ZM515.692 143.25C515.692 144.451 515.933 145.662 516.416 146.88C516.907 148.091 517.592 149.195 518.472 150.194C519.361 151.193 520.368 151.954 521.494 152.479L520.135 154.371C518.9 153.787 517.8 152.915 516.835 151.755C515.87 150.587 515.117 149.263 514.575 147.782C514.042 146.292 513.775 144.781 513.775 143.25V139.873H515.692V143.25ZM520.631 140.825H508.177V138.844H520.631V140.825ZM525.48 159.284H523.081V136.534H525.48V159.284ZM529.149 147.604H524.934V145.573H529.149V147.604Z" fill="white"/>
<path d="M505.439 159.347H503.015V136.534H505.439V159.347ZM489.926 151.692C492.431 151.692 494.466 151.645 496.032 151.552C497.606 151.459 499.185 151.273 500.767 150.994L500.996 153C499.388 153.287 497.78 153.486 496.172 153.596C494.564 153.698 492.482 153.753 489.926 153.761H488.034V151.692H489.926ZM498.939 140.647H490.459V152.479H488.034V138.654H498.939V140.647Z" fill="white"/>
<path d="M471.909 150.74H469.509V147.325H471.909V150.74ZM481.113 147.896H460.368V145.966H481.113V147.896ZM478.434 144.291H463.009V137.27H478.434V144.291ZM465.396 142.386H476.034V139.174H465.396V142.386ZM478.485 155.221H465.256V157.786H462.882V153.457H476.123V151.717H462.844V149.876H478.485V155.221ZM479.145 159.068H462.882V157.202H479.145V159.068Z" fill="white"/>
<path d="M460.018 156.465H439.198V154.485H460.018V156.465ZM450.738 155.043H448.376V149.178H450.738V155.043ZM443.997 142.018H455.168V138.095H457.542V149.813H441.572V138.095H443.997V142.018ZM455.168 147.858V143.96H443.997V147.858H455.168Z" fill="white"/>
<path d="M428.386 152.263C430.062 152.263 431.484 152.399 432.652 152.669C433.82 152.94 434.709 153.338 435.318 153.863C435.936 154.379 436.245 155.022 436.245 155.792C436.245 156.91 435.564 157.764 434.201 158.357C432.838 158.958 430.9 159.258 428.386 159.258C425.847 159.258 423.897 158.958 422.534 158.357C421.171 157.764 420.49 156.91 420.49 155.792C420.49 155.022 420.795 154.379 421.404 153.863C422.013 153.338 422.911 152.94 424.095 152.669C425.28 152.399 426.711 152.263 428.386 152.263ZM428.386 154.053C427.21 154.053 426.216 154.121 425.403 154.256C424.591 154.383 423.977 154.578 423.562 154.84C423.156 155.094 422.953 155.412 422.953 155.792C422.953 156.156 423.156 156.465 423.562 156.719C423.977 156.973 424.586 157.159 425.39 157.278C426.203 157.405 427.202 157.468 428.386 157.468C429.571 157.468 430.562 157.405 431.357 157.278C432.161 157.159 432.771 156.973 433.185 156.719C433.6 156.465 433.807 156.156 433.807 155.792C433.807 155.412 433.6 155.094 433.185 154.84C432.771 154.578 432.161 154.383 431.357 154.256C430.553 154.121 429.563 154.053 428.386 154.053ZM437.603 140.241H419.068V138.349H437.603V140.241ZM428.399 141.053C430.811 141.053 432.656 141.333 433.934 141.891C435.212 142.441 435.851 143.258 435.851 144.341C435.851 145.382 435.208 146.182 433.922 146.741C432.644 147.291 430.803 147.566 428.399 147.566C425.996 147.566 424.146 147.291 422.851 146.741C421.556 146.182 420.909 145.382 420.909 144.341C420.909 143.258 421.556 142.441 422.851 141.891C424.146 141.333 425.996 141.053 428.399 141.053ZM428.399 142.729C427.333 142.729 426.436 142.788 425.708 142.907C424.98 143.025 424.426 143.203 424.045 143.44C423.672 143.677 423.486 143.977 423.486 144.341C423.486 144.663 423.672 144.938 424.045 145.167C424.426 145.395 424.98 145.573 425.708 145.7C426.436 145.818 427.333 145.882 428.399 145.89C429.466 145.882 430.363 145.818 431.091 145.7C431.818 145.573 432.369 145.395 432.741 145.167C433.113 144.938 433.3 144.663 433.3 144.341C433.3 143.977 433.113 143.677 432.741 143.44C432.369 143.203 431.818 143.025 431.091 142.907C430.363 142.788 429.466 142.729 428.399 142.729ZM429.593 139.606H427.193V136.28H429.593V139.606ZM438.771 151.019H418.027V149.115H438.771V151.019ZM429.593 150.016H427.193V146.842H429.593V150.016Z" fill="white"/>
<path d="M415.061 150.905C414.74 150.905 414.439 150.82 414.16 150.651C413.881 150.482 413.661 150.262 413.5 149.991C413.348 149.711 413.271 149.411 413.271 149.089C413.271 148.776 413.348 148.48 413.5 148.201C413.661 147.921 413.881 147.706 414.16 147.553C414.439 147.392 414.74 147.312 415.061 147.312C415.375 147.312 415.671 147.392 415.95 147.553C416.229 147.706 416.449 147.921 416.61 148.201C416.771 148.48 416.851 148.776 416.851 149.089C416.851 149.411 416.771 149.711 416.61 149.991C416.449 150.262 416.229 150.482 415.95 150.651C415.671 150.82 415.375 150.905 415.061 150.905Z" fill="white"/>
<path d="M408.198 140.685H393.484V138.73H408.198V140.685ZM412.045 156.211H391.301V154.231H412.045V156.211ZM401.571 155.259H399.197V146.208H401.571V155.259ZM409.709 140.964C409.709 142.31 409.692 143.44 409.658 144.354C409.624 145.26 409.548 146.334 409.43 147.579C409.311 148.814 409.121 150.152 408.859 151.59L406.408 151.324C406.688 149.961 406.891 148.675 407.018 147.464C407.145 146.254 407.221 145.183 407.246 144.252C407.28 143.313 407.297 142.217 407.297 140.964V138.73H409.709V140.964Z" fill="white"/>
<path d="M381.378 139.898H371.336V137.905H381.378V139.898ZM376.998 148.391H374.612V142.894H376.998V148.391ZM382.8 139.212C382.792 140.363 382.754 141.383 382.686 142.272C382.618 143.161 382.462 144.176 382.216 145.319L379.842 145.128C380.079 143.969 380.227 142.953 380.286 142.082C380.354 141.201 380.388 140.245 380.388 139.212V137.905H382.8V139.212ZM388.132 150.651H385.669V136.534H388.132V150.651ZM391.281 144.583H387.04V142.564H391.281V144.583ZM369.94 147.299C372.673 147.299 375.225 147.257 377.595 147.172C379.965 147.079 382.182 146.897 384.247 146.626L384.374 148.366C382.25 148.721 379.982 148.962 377.57 149.089C375.166 149.216 372.699 149.28 370.168 149.28L369.94 147.299ZM380.617 150.917C382.208 150.917 383.579 151.083 384.73 151.413C385.881 151.734 386.761 152.208 387.37 152.834C387.988 153.452 388.297 154.184 388.297 155.031C388.297 155.911 387.988 156.664 387.37 157.291C386.761 157.917 385.881 158.395 384.73 158.725C383.579 159.055 382.208 159.22 380.617 159.22C379.025 159.22 377.654 159.055 376.503 158.725C375.352 158.395 374.468 157.917 373.85 157.291C373.232 156.664 372.923 155.911 372.923 155.031C372.923 154.184 373.232 153.452 373.85 152.834C374.468 152.208 375.356 151.734 376.516 151.413C377.675 151.083 379.042 150.917 380.617 150.917ZM380.617 152.784C379.542 152.784 378.602 152.873 377.798 153.05C377.003 153.22 376.397 153.478 375.983 153.825C375.568 154.163 375.361 154.565 375.361 155.031C375.361 155.522 375.568 155.941 375.983 156.288C376.397 156.626 376.998 156.884 377.785 157.062C378.573 157.24 379.516 157.329 380.617 157.329C381.717 157.329 382.656 157.24 383.435 157.062C384.222 156.884 384.823 156.626 385.238 156.288C385.652 155.941 385.86 155.522 385.86 155.031C385.86 154.565 385.652 154.163 385.238 153.825C384.823 153.478 384.222 153.22 383.435 153.05C382.648 152.873 381.708 152.784 380.617 152.784Z" fill="white"/>
<path d="M251.263 476.881H248.864V460.339H251.263V476.881ZM251.949 482.62H236.397V480.626H251.949V482.62ZM238.809 481.35H236.397V475.206H238.809V481.35ZM238.923 461.875C240.057 461.875 241.086 462.117 242.008 462.599C242.939 463.073 243.667 463.742 244.192 464.605C244.717 465.46 244.979 466.429 244.979 467.512C244.979 468.612 244.717 469.59 244.192 470.445C243.667 471.3 242.939 471.968 242.008 472.451C241.086 472.933 240.057 473.174 238.923 473.174C237.789 473.174 236.761 472.933 235.838 472.451C234.924 471.968 234.201 471.3 233.667 470.445C233.134 469.59 232.868 468.612 232.868 467.512C232.868 466.429 233.134 465.46 233.667 464.605C234.201 463.742 234.924 463.073 235.838 462.599C236.761 462.117 237.789 461.875 238.923 461.875ZM238.923 463.983C238.229 463.983 237.599 464.131 237.032 464.427C236.465 464.723 236.02 465.138 235.699 465.671C235.386 466.205 235.229 466.818 235.229 467.512C235.229 468.206 235.386 468.824 235.699 469.366C236.02 469.907 236.465 470.326 237.032 470.623C237.599 470.919 238.229 471.067 238.923 471.067C239.617 471.067 240.244 470.919 240.802 470.623C241.361 470.326 241.801 469.907 242.123 469.366C242.444 468.824 242.605 468.206 242.605 467.512C242.605 466.818 242.444 466.205 242.123 465.671C241.801 465.138 241.361 464.723 240.802 464.427C240.244 464.131 239.617 463.983 238.923 463.983Z" fill="#CD354E"/>
<path d="M218.679 467.03C218.679 468.638 218.4 470.229 217.842 471.803C217.291 473.369 216.525 474.761 215.544 475.98C214.562 477.199 213.462 478.113 212.243 478.722L210.796 476.831C211.93 476.28 212.95 475.481 213.855 474.431C214.761 473.373 215.472 472.197 215.988 470.902C216.513 469.598 216.775 468.308 216.775 467.03V463.653H218.679V467.03ZM219.162 467.03C219.162 468.232 219.403 469.442 219.885 470.661C220.376 471.871 221.062 472.975 221.942 473.974C222.831 474.973 223.838 475.735 224.964 476.259L223.605 478.151C222.37 477.567 221.269 476.695 220.304 475.536C219.34 474.368 218.586 473.043 218.045 471.562C217.511 470.072 217.245 468.562 217.245 467.03V463.653H219.162V467.03ZM224.1 464.605H211.646V462.625H224.1V464.605ZM228.95 483.064H226.551V460.314H228.95V483.064ZM232.619 471.384H228.404V469.353H232.619V471.384Z" fill="#CD354E"/>
<path d="M208.909 483.127H206.484V460.314H208.909V483.127ZM193.395 475.472C195.901 475.472 197.936 475.426 199.502 475.333C201.076 475.239 202.655 475.053 204.237 474.774L204.466 476.78C202.858 477.068 201.25 477.266 199.641 477.376C198.033 477.478 195.951 477.533 193.395 477.542H191.504V475.472H193.395ZM202.409 464.427H193.929V476.259H191.504V462.434H202.409V464.427Z" fill="#CD354E"/>
<path d="M170.008 462.028C171.125 462.028 172.116 462.358 172.979 463.018C173.851 463.678 174.532 464.609 175.023 465.811C175.514 467.013 175.759 468.414 175.759 470.013C175.759 471.621 175.514 473.026 175.023 474.228C174.532 475.43 173.851 476.361 172.979 477.021C172.116 477.673 171.125 477.999 170.008 477.999C168.891 477.999 167.892 477.673 167.012 477.021C166.14 476.369 165.459 475.443 164.968 474.241C164.477 473.03 164.232 471.621 164.232 470.013C164.232 468.414 164.477 467.013 164.968 465.811C165.459 464.609 166.14 463.678 167.012 463.018C167.892 462.358 168.891 462.028 170.008 462.028ZM170.008 464.186C169.331 464.186 168.726 464.423 168.193 464.897C167.659 465.371 167.249 466.048 166.961 466.928C166.682 467.8 166.542 468.828 166.542 470.013C166.542 471.19 166.682 472.218 166.961 473.098C167.249 473.978 167.659 474.655 168.193 475.129C168.726 475.595 169.331 475.828 170.008 475.828C170.685 475.828 171.29 475.595 171.824 475.129C172.357 474.655 172.767 473.978 173.055 473.098C173.343 472.218 173.487 471.19 173.487 470.013C173.487 468.828 173.339 467.8 173.042 466.928C172.755 466.048 172.348 465.371 171.824 464.897C171.307 464.423 170.702 464.186 170.008 464.186ZM182.818 483.127H180.418V460.314H182.818V483.127ZM181.472 470.826H174.997V468.858H181.472V470.826Z" fill="#CD354E"/>
<path d="M150.221 483.216H147.809V473.949H150.221V483.216ZM158.359 483.216H155.959V473.949H158.359V483.216ZM163.462 475.155H142.642V473.187H163.462V475.155ZM153.916 462.32C153.916 463.742 153.501 465.049 152.671 466.243C151.842 467.436 150.721 468.431 149.307 469.226C147.894 470.022 146.328 470.563 144.61 470.851L143.645 468.871C145.118 468.659 146.476 468.232 147.72 467.588C148.964 466.945 149.955 466.158 150.691 465.227C151.427 464.296 151.795 463.327 151.795 462.32V461.088H153.916V462.32ZM154.296 462.32C154.296 463.319 154.669 464.283 155.414 465.214C156.158 466.137 157.153 466.924 158.397 467.576C159.641 468.227 160.995 468.659 162.459 468.871L161.52 470.851C159.819 470.563 158.257 470.017 156.835 469.213C155.422 468.401 154.296 467.402 153.458 466.217C152.621 465.024 152.202 463.725 152.202 462.32V461.088H154.296V462.32Z" fill="#CD354E"/>
<path d="M142.317 480.347H121.497V478.354H142.317V480.347ZM133.037 479.205H130.675V473.657H133.037V479.205ZM139.765 469.036H126.435V473.403H124.036V467.106H137.391V463.907H123.998V461.939H139.765V469.036ZM140.299 474.342H124.036V472.362H140.299V474.342Z" fill="#CD354E"/>
<path d="M121.146 480.144H100.326V478.151H121.146V480.144ZM105.125 465.976H116.297V461.888H118.671V473.847H102.7V461.888H105.125V465.976ZM116.297 471.93V467.88H105.125V471.93H116.297Z" fill="#CD354E"/>
<path d="M99.1886 474.33H91.0255V471.994H99.1886V474.33Z" fill="#CD354E"/>
<path d="M83.7689 481.198C82.4401 481.198 81.2763 480.906 80.2776 480.322C79.2874 479.738 78.5257 478.913 77.9925 477.846C77.4593 476.78 77.1927 475.54 77.1927 474.126C77.1927 472.713 77.4593 471.465 77.9925 470.381C78.5257 469.29 79.2747 468.447 80.2396 467.855C81.2044 467.254 82.3174 466.954 83.5784 466.954C84.6956 466.954 85.7155 467.195 86.638 467.677C87.5605 468.151 88.3011 468.909 88.8597 469.95C89.4183 470.982 89.6976 472.29 89.6976 473.873V474.825H78.7161V472.806H87.0443C87.0443 472.104 86.9004 471.482 86.6126 470.94C86.3333 470.39 85.9313 469.958 85.4066 469.645C84.8818 469.332 84.2809 469.175 83.6038 469.175C82.8675 469.175 82.22 469.353 81.6614 469.708C81.1028 470.064 80.667 470.542 80.3538 471.143C80.0407 471.744 79.8841 472.387 79.8841 473.073V474.647C79.8841 475.553 80.0449 476.331 80.3665 476.983C80.6966 477.635 81.1536 478.13 81.7376 478.468C82.3301 478.807 83.0114 478.976 83.7816 478.976C84.2724 478.976 84.7168 478.908 85.1146 478.773C85.5123 478.629 85.8509 478.451 86.1302 478.24C86.4095 478.02 86.6253 477.762 86.7776 477.465H89.5325C89.3294 478.21 88.9655 478.862 88.4407 479.42C87.916 479.979 87.2516 480.415 86.4476 480.728C85.652 481.041 84.7591 481.198 83.7689 481.198Z" fill="#CD354E"/>
<path d="M558.29 476.881H555.89V460.339H558.29V476.881ZM558.975 482.62H543.424V480.626H558.975V482.62ZM545.836 481.35H543.424V475.206H545.836V481.35ZM545.95 461.875C547.084 461.875 548.112 462.117 549.035 462.599C549.966 463.073 550.694 463.742 551.219 464.605C551.743 465.46 552.006 466.429 552.006 467.512C552.006 468.612 551.743 469.59 551.219 470.445C550.694 471.3 549.966 471.968 549.035 472.451C548.112 472.933 547.084 473.174 545.95 473.174C544.816 473.174 543.788 472.933 542.865 472.451C541.951 471.968 541.227 471.3 540.694 470.445C540.161 469.59 539.894 468.612 539.894 467.512C539.894 466.429 540.161 465.46 540.694 464.605C541.227 463.742 541.951 463.073 542.865 462.599C543.788 462.117 544.816 461.875 545.95 461.875ZM545.95 463.983C545.256 463.983 544.625 464.131 544.058 464.427C543.491 464.723 543.047 465.138 542.725 465.671C542.412 466.205 542.256 466.818 542.256 467.512C542.256 468.206 542.412 468.824 542.725 469.366C543.047 469.907 543.491 470.326 544.058 470.623C544.625 470.919 545.256 471.067 545.95 471.067C546.644 471.067 547.27 470.919 547.829 470.623C548.387 470.326 548.828 469.907 549.149 469.366C549.471 468.824 549.632 468.206 549.632 467.512C549.632 466.818 549.471 466.205 549.149 465.671C548.828 465.138 548.387 464.723 547.829 464.427C547.27 464.131 546.644 463.983 545.95 463.983Z" fill="#CD354E"/>
<path d="M525.706 467.03C525.706 468.638 525.427 470.229 524.868 471.803C524.318 473.369 523.552 474.761 522.57 475.98C521.588 477.199 520.488 478.113 519.269 478.722L517.822 476.831C518.956 476.28 519.976 475.481 520.882 474.431C521.787 473.373 522.498 472.197 523.015 470.902C523.539 469.598 523.802 468.308 523.802 467.03V463.653H525.706V467.03ZM526.188 467.03C526.188 468.232 526.43 469.442 526.912 470.661C527.403 471.871 528.088 472.975 528.969 473.974C529.857 474.973 530.864 475.735 531.99 476.259L530.632 478.151C529.396 477.567 528.296 476.695 527.331 475.536C526.366 474.368 525.613 473.043 525.071 471.562C524.538 470.072 524.271 468.562 524.271 467.03V463.653H526.188V467.03ZM531.127 464.605H518.673V462.625H531.127V464.605ZM535.976 483.064H533.577V460.314H535.976V483.064ZM539.645 471.384H535.431V469.353H539.645V471.384Z" fill="#CD354E"/>
<path d="M515.936 483.127H513.511V460.314H515.936V483.127ZM500.422 475.472C502.927 475.472 504.963 475.426 506.528 475.333C508.103 475.239 509.681 475.053 511.264 474.774L511.492 476.78C509.884 477.068 508.276 477.266 506.668 477.376C505.06 477.478 502.978 477.533 500.422 477.542H498.53V475.472H500.422ZM509.436 464.427H500.955V476.259H498.53V462.434H509.436V464.427Z" fill="#CD354E"/>
<path d="M490.619 480.918H487.826V462.536H490.619V480.918Z" fill="#CD354E"/>
<path d="M485.381 462.536V474.622C485.381 475.9 485.076 477.038 484.467 478.037C483.866 479.027 483.011 479.806 481.902 480.373C480.793 480.94 479.515 481.223 478.068 481.223C476.612 481.223 475.334 480.94 474.234 480.373C473.134 479.806 472.279 479.027 471.67 478.037C471.069 477.038 470.768 475.9 470.768 474.622V462.536H473.561V474.406C473.561 475.218 473.743 475.95 474.107 476.602C474.48 477.245 475.004 477.753 475.681 478.125C476.367 478.498 477.163 478.684 478.068 478.684C478.982 478.684 479.782 478.498 480.468 478.125C481.153 477.753 481.674 477.245 482.029 476.602C482.393 475.95 482.575 475.218 482.575 474.406V462.536H485.381Z" fill="#CD354E"/>
<path d="M463.905 483.686H461.518L467.434 461.672H469.847L463.905 483.686Z" fill="#CD354E"/>
<path d="M454.109 469.708H454.262L458.642 462.536H461.879L456.166 471.727L461.917 480.918H458.667L454.262 473.847H454.109L449.704 480.918H446.454L452.319 471.727L446.492 462.536H449.742L454.109 469.708Z" fill="#CD354E"/>
<path d="M445.355 462.536V474.622C445.355 475.9 445.05 477.038 444.441 478.037C443.84 479.027 442.985 479.806 441.876 480.373C440.768 480.94 439.49 481.223 438.042 481.223C436.587 481.223 435.309 480.94 434.208 480.373C433.108 479.806 432.253 479.027 431.644 478.037C431.043 477.038 430.742 475.9 430.742 474.622V462.536H433.535V474.406C433.535 475.218 433.717 475.95 434.081 476.602C434.454 477.245 434.978 477.753 435.656 478.125C436.341 478.498 437.137 478.684 438.042 478.684C438.956 478.684 439.756 478.498 440.442 478.125C441.127 477.753 441.648 477.245 442.003 476.602C442.367 475.95 442.549 475.218 442.549 474.406V462.536H445.355Z" fill="#CD354E"/>
<path d="M426.736 474.685C426.414 474.685 426.114 474.6 425.834 474.431C425.555 474.262 425.335 474.042 425.174 473.771C425.022 473.492 424.946 473.191 424.946 472.87C424.946 472.556 425.022 472.26 425.174 471.981C425.335 471.702 425.555 471.486 425.834 471.333C426.114 471.173 426.414 471.092 426.736 471.092C427.049 471.092 427.345 471.173 427.625 471.333C427.904 471.486 428.124 471.702 428.285 471.981C428.445 472.26 428.526 472.556 428.526 472.87C428.526 473.191 428.445 473.492 428.285 473.771C428.124 474.042 427.904 474.262 427.625 474.431C427.345 474.6 427.049 474.685 426.736 474.685Z" fill="#CD354E"/>
<path d="M421.841 474.203H419.441V460.314H421.841V474.203ZM406.251 470.28C408.841 470.28 410.935 470.225 412.535 470.115C414.143 470.005 415.726 469.793 417.283 469.48L417.524 471.473C415.958 471.769 414.367 471.968 412.751 472.07C411.143 472.171 408.976 472.226 406.251 472.235H404.346V470.28H406.251ZM415.163 464.046H406.733V471.359H404.346V462.079H415.163V464.046ZM414.198 474.279C415.772 474.27 417.139 474.44 418.299 474.787C419.458 475.134 420.351 475.637 420.977 476.297C421.604 476.958 421.917 477.749 421.917 478.671C421.917 479.585 421.604 480.373 420.977 481.033C420.351 481.693 419.462 482.196 418.311 482.543C417.16 482.89 415.789 483.068 414.198 483.077C412.607 483.068 411.227 482.89 410.059 482.543C408.9 482.196 408.011 481.693 407.393 481.033C406.775 480.373 406.467 479.585 406.467 478.671C406.467 477.749 406.775 476.958 407.393 476.297C408.011 475.637 408.9 475.134 410.059 474.787C411.227 474.44 412.607 474.27 414.198 474.279ZM414.198 476.183C413.089 476.183 412.133 476.276 411.329 476.462C410.533 476.649 409.928 476.928 409.513 477.3C409.099 477.673 408.891 478.13 408.891 478.671C408.891 479.188 409.099 479.632 409.513 480.004C409.937 480.377 410.546 480.665 411.342 480.868C412.137 481.062 413.089 481.16 414.198 481.16C415.307 481.16 416.263 481.062 417.067 480.868C417.88 480.665 418.493 480.377 418.908 480.004C419.331 479.632 419.543 479.188 419.543 478.671C419.543 478.147 419.331 477.694 418.908 477.313C418.493 476.932 417.884 476.649 417.08 476.462C416.276 476.276 415.315 476.183 414.198 476.183Z" fill="#CD354E"/>
<path d="M401.203 477.262H398.905V460.339H401.203V477.262ZM399.603 469.023H395.452V467.03H399.603V469.023ZM396.125 476.666H393.891V460.758H396.125V476.666ZM401.85 482.62H386.108V480.626H401.85V482.62ZM388.508 481.363H386.108V475.688H388.508V481.363ZM384.331 472.019C386.074 472.019 387.564 471.972 388.8 471.879C390.044 471.786 391.318 471.617 392.621 471.372L392.862 473.289C391.516 473.534 390.205 473.703 388.927 473.796C387.657 473.889 386.125 473.936 384.331 473.936H382.807V472.019H384.331ZM391.415 468.947H385.143V473.047H382.807V467.093H389.104V464.173H382.769V462.244H391.415V468.947Z" fill="#CD354E"/>
<path d="M381.454 480.144H360.634V478.151H381.454V480.144ZM365.433 465.976H376.605V461.888H378.979V473.847H363.008V461.888H365.433V465.976ZM376.605 471.93V467.88H365.433V471.93H376.605Z" fill="#CD354E"/>
<circle cx="165.098" cy="179.388" r="6.4397" fill="#CD354E"/>
<circle cx="165.098" cy="440.906" r="6.4397" fill="#CD354E"/>
<circle cx="460.427" cy="440.906" r="6.4397" fill="#CD354E"/>
<rect x="171.537" y="179.388" width="287.534" height="1" fill="#CD354E"/>
<rect x="171.537" y="439.906" width="287.534" height="1" fill="#CD354E"/>
<rect x="164.098" y="434.466" width="248.639" height="1" transform="rotate(-90 164.098 434.466)" fill="#CD354E"/>
<rect x="459.927" y="434.466" width="248.639" height="1" transform="rotate(-90 459.927 434.466)" fill="#CD354E"/>
<circle cx="460.427" cy="179.388" r="6.4397" fill="white"/>
</svg>
