<svg width="625" height="624" viewBox="0 0 625 624" fill="none" xmlns="http://www.w3.org/2000/svg">
<circle cx="165.098" cy="459.183" r="163.735" stroke="#CD354E"/>
<circle cx="460.427" cy="459.183" r="163.735" fill="#CD354E" stroke="#CD354E"/>
<circle cx="460.427" cy="164.723" r="163.735" stroke="#CD354E"/>
<circle cx="165.098" cy="164.723" r="163.735" stroke="#CD354E"/>
<path d="M254.379 153.091H251.979V136.549H254.379V153.091ZM255.064 158.83H239.513V156.836H255.064V158.83ZM241.925 157.56H239.513V151.416H241.925V157.56ZM242.039 138.085C243.173 138.085 244.201 138.327 245.124 138.809C246.055 139.283 246.783 139.952 247.307 140.815C247.832 141.67 248.095 142.639 248.095 143.722C248.095 144.822 247.832 145.8 247.307 146.655C246.783 147.51 246.055 148.178 245.124 148.661C244.201 149.143 243.173 149.384 242.039 149.384C240.905 149.384 239.877 149.143 238.954 148.661C238.04 148.178 237.316 147.51 236.783 146.655C236.25 145.8 235.983 144.822 235.983 143.722C235.983 142.639 236.25 141.67 236.783 140.815C237.316 139.952 238.04 139.283 238.954 138.809C239.877 138.327 240.905 138.085 242.039 138.085ZM242.039 140.193C241.345 140.193 240.714 140.341 240.147 140.637C239.58 140.933 239.136 141.348 238.814 141.881C238.501 142.415 238.345 143.028 238.345 143.722C238.345 144.416 238.501 145.034 238.814 145.576C239.136 146.117 239.58 146.536 240.147 146.833C240.714 147.129 241.345 147.277 242.039 147.277C242.733 147.277 243.359 147.129 243.918 146.833C244.476 146.536 244.917 146.117 245.238 145.576C245.56 145.034 245.721 144.416 245.721 143.722C245.721 143.028 245.56 142.415 245.238 141.881C244.917 141.348 244.476 140.933 243.918 140.637C243.359 140.341 242.733 140.193 242.039 140.193Z" fill="#CD354E"/>
<path d="M221.795 143.24C221.795 144.848 221.516 146.439 220.957 148.013C220.407 149.579 219.641 150.971 218.659 152.19C217.678 153.409 216.577 154.323 215.359 154.932L213.911 153.041C215.045 152.49 216.065 151.691 216.971 150.641C217.876 149.583 218.587 148.407 219.104 147.112C219.628 145.808 219.891 144.518 219.891 143.24V139.863H221.795V143.24ZM222.277 143.24C222.277 144.442 222.519 145.652 223.001 146.871C223.492 148.081 224.178 149.185 225.058 150.184C225.946 151.183 226.954 151.944 228.079 152.469L226.721 154.361C225.485 153.777 224.385 152.905 223.42 151.746C222.455 150.578 221.702 149.253 221.16 147.772C220.627 146.282 220.36 144.772 220.36 143.24V139.863H222.277V143.24ZM227.216 140.815H214.762V138.834H227.216V140.815ZM232.066 159.274H229.666V136.524H232.066V159.274ZM235.734 147.594H231.52V145.563H235.734V147.594Z" fill="#CD354E"/>
<path d="M212.025 159.337H209.6V136.524H212.025V159.337ZM196.511 151.682C199.016 151.682 201.052 151.636 202.618 151.542C204.192 151.449 205.77 151.263 207.353 150.984L207.581 152.99C205.973 153.278 204.365 153.476 202.757 153.586C201.149 153.688 199.067 153.743 196.511 153.751H194.619V151.682H196.511ZM205.525 140.637H197.044V152.469H194.619V138.644H205.525V140.637Z" fill="#CD354E"/>
<path d="M187.774 156.456H166.954V154.462H187.774V156.456ZM178.227 141.831C178.227 143.379 177.829 144.784 177.034 146.045C176.238 147.306 175.138 148.352 173.733 149.181C172.337 150.011 170.754 150.59 168.985 150.92L168.046 148.978C169.603 148.724 170.991 148.25 172.21 147.556C173.437 146.862 174.393 146.02 175.079 145.03C175.773 144.04 176.12 142.973 176.12 141.831V141.348H178.227V141.831ZM178.57 141.831C178.57 142.973 178.913 144.04 179.598 145.03C180.292 146.02 181.253 146.862 182.48 147.556C183.716 148.25 185.108 148.724 186.657 148.978L185.692 150.92C183.915 150.59 182.324 150.011 180.919 149.181C179.522 148.352 178.422 147.306 177.618 146.045C176.822 144.784 176.424 143.379 176.424 141.831V141.348H178.57V141.831ZM185.844 141.996H168.845V140.041H185.844V141.996ZM178.519 140.777H176.145V137.019H178.519V140.777Z" fill="#CD354E"/>
<path d="M159.405 144.852H155.597V142.935H159.405V144.852ZM165.182 153.574H162.884V136.549H165.182V153.574ZM160.725 153.002H158.415V136.994H160.725V153.002ZM165.829 158.83H150.201V156.836H165.829V158.83ZM152.651 158.055H150.201V151.695H152.651V158.055ZM148.271 148.026C150.243 148.026 151.801 147.992 152.943 147.924C154.086 147.848 155.241 147.692 156.409 147.455L156.65 149.384C155.406 149.63 154.179 149.791 152.969 149.867C151.767 149.943 150.201 149.981 148.271 149.981H146.799V148.026H148.271ZM155.47 140.333H149.109V148.724H146.799V138.365H155.47V140.333ZM154.556 145.042H148.386V143.176H154.556V145.042Z" fill="#CD354E"/>
<path d="M141.738 139.507H127.063V137.565H141.738V139.507ZM142.83 139.545C142.83 140.527 142.822 141.361 142.805 142.046C142.788 142.732 142.733 143.502 142.64 144.357C142.547 145.212 142.403 146.122 142.208 147.086L139.821 146.883C140.025 145.952 140.173 145.072 140.266 144.243C140.359 143.413 140.414 142.664 140.431 141.996C140.448 141.327 140.456 140.51 140.456 139.545V137.565H142.83V139.545ZM126.796 144.167L126.479 142.148L141.154 141.716V143.506L126.796 144.167ZM145.331 150.425H124.651V148.483H145.331V150.425ZM135.264 149.74H132.839V145.309H135.264V149.74ZM143.325 158.931H127.202V156.976H143.325V158.931ZM129.627 157.814H127.202V152.19H129.627V157.814Z" fill="#CD354E"/>
<path d="M115.914 143.583C115.846 143.024 115.651 142.542 115.33 142.135C115.008 141.729 114.572 141.424 114.022 141.221C113.48 141.018 112.854 140.917 112.143 140.917C111.407 140.917 110.759 141.031 110.201 141.259C109.642 141.488 109.21 141.809 108.906 142.224C108.601 142.63 108.449 143.096 108.449 143.621C108.449 144.391 108.766 144.983 109.401 145.398C110.036 145.813 110.835 146.143 111.8 146.388L113.565 146.858C115.097 147.23 116.362 147.814 117.361 148.61C118.368 149.405 118.872 150.552 118.872 152.05C118.872 153.083 118.601 154.01 118.059 154.831C117.526 155.643 116.743 156.282 115.71 156.748C114.686 157.205 113.468 157.433 112.054 157.433C110.692 157.433 109.502 157.217 108.487 156.786C107.471 156.346 106.68 155.723 106.113 154.919C105.546 154.107 105.233 153.146 105.173 152.038H107.966C108.026 152.672 108.241 153.21 108.614 153.65C108.986 154.09 109.469 154.42 110.061 154.64C110.653 154.86 111.314 154.97 112.042 154.97C112.82 154.97 113.518 154.847 114.136 154.602C114.754 154.357 115.236 154.01 115.583 153.561C115.931 153.104 116.104 152.583 116.104 152C116.104 151.492 115.96 151.064 115.672 150.717C115.385 150.37 114.991 150.087 114.492 149.867C114.001 149.638 113.383 149.422 112.638 149.219L110.455 148.648C108.914 148.225 107.734 147.62 106.913 146.833C106.092 146.037 105.681 145.017 105.681 143.773C105.681 142.732 105.965 141.814 106.532 141.018C107.107 140.222 107.886 139.605 108.868 139.165C109.858 138.716 110.971 138.492 112.207 138.492C113.434 138.492 114.526 138.712 115.482 139.152C116.447 139.583 117.204 140.184 117.754 140.955C118.305 141.725 118.592 142.601 118.618 143.583H115.914Z" fill="#CD354E"/>
<path d="M103.465 157.128H100.9L91.5817 143.684H91.4167V157.128H88.6237V138.746H91.2136L100.519 152.203H100.684V138.746H103.465V157.128Z" fill="#CD354E"/>
<path d="M83.9315 143.583C83.8638 143.024 83.6691 142.542 83.3475 142.135C83.0259 141.729 82.59 141.424 82.0399 141.221C81.4983 141.018 80.8719 140.917 80.161 140.917C79.4247 140.917 78.7772 141.031 78.2186 141.259C77.66 141.488 77.2284 141.809 76.9237 142.224C76.619 142.63 76.4667 143.096 76.4667 143.621C76.4667 144.391 76.7841 144.983 77.4188 145.398C78.0536 145.813 78.8534 146.143 79.8182 146.388L81.5829 146.858C83.1148 147.23 84.3801 147.814 85.3788 148.61C86.3859 149.405 86.8895 150.552 86.8895 152.05C86.8895 153.083 86.6187 154.01 86.077 154.831C85.5438 155.643 84.7609 156.282 83.7284 156.748C82.7043 157.205 81.4856 157.433 80.0721 157.433C78.7095 157.433 77.5204 157.217 76.5048 156.786C75.4891 156.346 74.6978 155.723 74.1307 154.919C73.5637 154.107 73.2505 153.146 73.1913 152.038H75.9843C76.0435 152.672 76.2593 153.21 76.6317 153.65C77.0041 154.09 77.4865 154.42 78.079 154.64C78.6714 154.86 79.3316 154.97 80.0594 154.97C80.8381 154.97 81.5363 154.847 82.1542 154.602C82.772 154.357 83.2544 154.01 83.6014 153.561C83.9484 153.104 84.1219 152.583 84.1219 152C84.1219 151.492 83.9781 151.064 83.6903 150.717C83.4025 150.37 83.009 150.087 82.5096 149.867C82.0188 149.638 81.4009 149.422 80.6561 149.219L78.4725 148.648C76.9322 148.225 75.7515 147.62 74.9305 146.833C74.1096 146.037 73.6991 145.017 73.6991 143.773C73.6991 142.732 73.9826 141.814 74.5497 141.018C75.1252 140.222 75.9038 139.605 76.8856 139.165C77.8759 138.716 78.9888 138.492 80.2245 138.492C81.4517 138.492 82.5435 138.712 83.4999 139.152C84.4647 139.583 85.2222 140.184 85.7723 140.955C86.3225 141.725 86.6102 142.601 86.6356 143.583H83.9315Z" fill="#CD354E"/>
<path d="M547.793 153.091H545.394V136.549H547.793V153.091ZM548.479 158.83H532.927V156.836H548.479V158.83ZM535.339 157.56H532.927V151.416H535.339V157.56ZM535.454 138.085C536.588 138.085 537.616 138.327 538.539 138.809C539.47 139.283 540.197 139.952 540.722 140.815C541.247 141.67 541.509 142.639 541.509 143.722C541.509 144.822 541.247 145.8 540.722 146.655C540.197 147.51 539.47 148.178 538.539 148.661C537.616 149.143 536.588 149.384 535.454 149.384C534.319 149.384 533.291 149.143 532.369 148.661C531.455 148.178 530.731 147.51 530.198 146.655C529.665 145.8 529.398 144.822 529.398 143.722C529.398 142.639 529.665 141.67 530.198 140.815C530.731 139.952 531.455 139.283 532.369 138.809C533.291 138.327 534.319 138.085 535.454 138.085ZM535.454 140.193C534.76 140.193 534.129 140.341 533.562 140.637C532.995 140.933 532.551 141.348 532.229 141.881C531.916 142.415 531.759 143.028 531.759 143.722C531.759 144.416 531.916 145.034 532.229 145.576C532.551 146.117 532.995 146.536 533.562 146.833C534.129 147.129 534.76 147.277 535.454 147.277C536.148 147.277 536.774 147.129 537.333 146.833C537.891 146.536 538.331 146.117 538.653 145.576C538.974 145.034 539.135 144.416 539.135 143.722C539.135 143.028 538.974 142.415 538.653 141.881C538.331 141.348 537.891 140.933 537.333 140.637C536.774 140.341 536.148 140.193 535.454 140.193Z" fill="#CD354E"/>
<path d="M515.21 143.24C515.21 144.848 514.93 146.439 514.372 148.013C513.822 149.579 513.056 150.971 512.074 152.19C511.092 153.409 509.992 154.323 508.773 154.932L507.326 153.041C508.46 152.49 509.48 151.691 510.385 150.641C511.291 149.583 512.002 148.407 512.518 147.112C513.043 145.808 513.305 144.518 513.305 143.24V139.863H515.21V143.24ZM515.692 143.24C515.692 144.442 515.933 145.652 516.416 146.871C516.907 148.081 517.592 149.185 518.472 150.184C519.361 151.183 520.368 151.944 521.494 152.469L520.135 154.361C518.9 153.777 517.8 152.905 516.835 151.746C515.87 150.578 515.117 149.253 514.575 147.772C514.042 146.282 513.775 144.772 513.775 143.24V139.863H515.692V143.24ZM520.631 140.815H508.177V138.834H520.631V140.815ZM525.48 159.274H523.081V136.524H525.48V159.274ZM529.149 147.594H524.934V145.563H529.149V147.594Z" fill="#CD354E"/>
<path d="M505.439 159.337H503.015V136.524H505.439V159.337ZM489.926 151.682C492.431 151.682 494.466 151.636 496.032 151.542C497.606 151.449 499.185 151.263 500.767 150.984L500.996 152.99C499.388 153.278 497.78 153.476 496.172 153.586C494.564 153.688 492.482 153.743 489.926 153.751H488.034V151.682H489.926ZM498.939 140.637H490.459V152.469H488.034V138.644H498.939V140.637Z" fill="#CD354E"/>
<path d="M471.909 150.73H469.509V147.315H471.909V150.73ZM481.113 147.886H460.368V145.957H481.113V147.886ZM478.434 144.281H463.009V137.26H478.434V144.281ZM465.396 142.376H476.034V139.165H465.396V142.376ZM478.485 155.211H465.256V157.776H462.882V153.447H476.123V151.708H462.844V149.867H478.485V155.211ZM479.145 159.058H462.882V157.192H479.145V159.058Z" fill="#CD354E"/>
<path d="M460.018 156.456H439.198V154.475H460.018V156.456ZM450.738 155.034H448.376V149.168H450.738V155.034ZM443.997 142.008H455.168V138.085H457.542V149.803H441.572V138.085H443.997V142.008ZM455.168 147.848V143.951H443.997V147.848H455.168Z" fill="#CD354E"/>
<path d="M428.386 152.253C430.062 152.253 431.484 152.389 432.652 152.66C433.82 152.931 434.709 153.328 435.318 153.853C435.936 154.369 436.245 155.013 436.245 155.783C436.245 156.9 435.564 157.755 434.201 158.347C432.838 158.948 430.9 159.249 428.386 159.249C425.847 159.249 423.897 158.948 422.534 158.347C421.171 157.755 420.49 156.9 420.49 155.783C420.49 155.013 420.795 154.369 421.404 153.853C422.013 153.328 422.911 152.931 424.095 152.66C425.28 152.389 426.711 152.253 428.386 152.253ZM428.386 154.043C427.21 154.043 426.216 154.111 425.403 154.247C424.591 154.374 423.977 154.568 423.562 154.831C423.156 155.084 422.953 155.402 422.953 155.783C422.953 156.147 423.156 156.456 423.562 156.709C423.977 156.963 424.586 157.15 425.39 157.268C426.203 157.395 427.202 157.458 428.386 157.458C429.571 157.458 430.562 157.395 431.357 157.268C432.161 157.15 432.771 156.963 433.185 156.709C433.6 156.456 433.807 156.147 433.807 155.783C433.807 155.402 433.6 155.084 433.185 154.831C432.771 154.568 432.161 154.374 431.357 154.247C430.553 154.111 429.563 154.043 428.386 154.043ZM437.603 140.231H419.068V138.339H437.603V140.231ZM428.399 141.043C430.811 141.043 432.656 141.323 433.934 141.881C435.212 142.431 435.851 143.248 435.851 144.332C435.851 145.373 435.208 146.172 433.922 146.731C432.644 147.281 430.803 147.556 428.399 147.556C425.996 147.556 424.146 147.281 422.851 146.731C421.556 146.172 420.909 145.373 420.909 144.332C420.909 143.248 421.556 142.431 422.851 141.881C424.146 141.323 425.996 141.043 428.399 141.043ZM428.399 142.719C427.333 142.719 426.436 142.778 425.708 142.897C424.98 143.015 424.426 143.193 424.045 143.43C423.672 143.667 423.486 143.968 423.486 144.332C423.486 144.653 423.672 144.928 424.045 145.157C424.426 145.385 424.98 145.563 425.708 145.69C426.436 145.808 427.333 145.872 428.399 145.88C429.466 145.872 430.363 145.808 431.091 145.69C431.818 145.563 432.369 145.385 432.741 145.157C433.113 144.928 433.3 144.653 433.3 144.332C433.3 143.968 433.113 143.667 432.741 143.43C432.369 143.193 431.818 143.015 431.091 142.897C430.363 142.778 429.466 142.719 428.399 142.719ZM429.593 139.596H427.193V136.27H429.593V139.596ZM438.771 151.009H418.027V149.105H438.771V151.009ZM429.593 150.006H427.193V146.833H429.593V150.006Z" fill="#CD354E"/>
<path d="M415.061 150.895C414.74 150.895 414.439 150.81 414.16 150.641C413.881 150.472 413.661 150.252 413.5 149.981C413.348 149.702 413.271 149.401 413.271 149.08C413.271 148.766 413.348 148.47 413.5 148.191C413.661 147.912 413.881 147.696 414.16 147.543C414.439 147.383 414.74 147.302 415.061 147.302C415.375 147.302 415.671 147.383 415.95 147.543C416.229 147.696 416.449 147.912 416.61 148.191C416.771 148.47 416.851 148.766 416.851 149.08C416.851 149.401 416.771 149.702 416.61 149.981C416.449 150.252 416.229 150.472 415.95 150.641C415.671 150.81 415.375 150.895 415.061 150.895Z" fill="#CD354E"/>
<path d="M408.198 140.675H393.484V138.72H408.198V140.675ZM412.045 156.202H391.301V154.221H412.045V156.202ZM401.571 155.25H399.197V146.198H401.571V155.25ZM409.709 140.955C409.709 142.3 409.692 143.43 409.658 144.344C409.624 145.25 409.548 146.325 409.43 147.569C409.311 148.805 409.121 150.142 408.859 151.581L406.408 151.314C406.688 149.951 406.891 148.665 407.018 147.455C407.145 146.244 407.221 145.174 407.246 144.243C407.28 143.303 407.297 142.207 407.297 140.955V138.72H409.709V140.955Z" fill="#CD354E"/>
<path d="M381.378 139.888H371.336V137.895H381.378V139.888ZM376.998 148.381H374.612V142.884H376.998V148.381ZM382.8 139.203C382.792 140.354 382.754 141.374 382.686 142.262C382.618 143.151 382.462 144.167 382.216 145.309L379.842 145.119C380.079 143.959 380.227 142.944 380.286 142.072C380.354 141.192 380.388 140.235 380.388 139.203V137.895H382.8V139.203ZM388.132 150.641H385.669V136.524H388.132V150.641ZM391.281 144.573H387.04V142.554H391.281V144.573ZM369.94 147.29C372.673 147.29 375.225 147.247 377.595 147.163C379.965 147.069 382.182 146.888 384.247 146.617L384.374 148.356C382.25 148.711 379.982 148.953 377.57 149.08C375.166 149.207 372.699 149.27 370.168 149.27L369.94 147.29ZM380.617 150.908C382.208 150.908 383.579 151.073 384.73 151.403C385.881 151.724 386.761 152.198 387.37 152.825C387.988 153.443 388.297 154.175 388.297 155.021C388.297 155.901 387.988 156.654 387.37 157.281C386.761 157.907 385.881 158.385 384.73 158.715C383.579 159.045 382.208 159.21 380.617 159.21C379.025 159.21 377.654 159.045 376.503 158.715C375.352 158.385 374.468 157.907 373.85 157.281C373.232 156.654 372.923 155.901 372.923 155.021C372.923 154.175 373.232 153.443 373.85 152.825C374.468 152.198 375.356 151.724 376.516 151.403C377.675 151.073 379.042 150.908 380.617 150.908ZM380.617 152.774C379.542 152.774 378.602 152.863 377.798 153.041C377.003 153.21 376.397 153.468 375.983 153.815C375.568 154.153 375.361 154.556 375.361 155.021C375.361 155.512 375.568 155.931 375.983 156.278C376.397 156.616 376.998 156.875 377.785 157.052C378.573 157.23 379.516 157.319 380.617 157.319C381.717 157.319 382.656 157.23 383.435 157.052C384.222 156.875 384.823 156.616 385.238 156.278C385.652 155.931 385.86 155.512 385.86 155.021C385.86 154.556 385.652 154.153 385.238 153.815C384.823 153.468 384.222 153.21 383.435 153.041C382.648 152.863 381.708 152.774 380.617 152.774Z" fill="#CD354E"/>
<path d="M251.263 476.872H248.864V460.33H251.263V476.872ZM251.949 482.61H236.397V480.617H251.949V482.61ZM238.809 481.34H236.397V475.196H238.809V481.34ZM238.923 461.866C240.057 461.866 241.086 462.107 242.008 462.589C242.939 463.063 243.667 463.732 244.192 464.595C244.717 465.45 244.979 466.419 244.979 467.502C244.979 468.603 244.717 469.58 244.192 470.435C243.667 471.29 242.939 471.958 242.008 472.441C241.086 472.923 240.057 473.165 238.923 473.165C237.789 473.165 236.761 472.923 235.838 472.441C234.924 471.958 234.201 471.29 233.667 470.435C233.134 469.58 232.868 468.603 232.868 467.502C232.868 466.419 233.134 465.45 233.667 464.595C234.201 463.732 234.924 463.063 235.838 462.589C236.761 462.107 237.789 461.866 238.923 461.866ZM238.923 463.973C238.229 463.973 237.599 464.121 237.032 464.417C236.465 464.714 236.02 465.128 235.699 465.662C235.386 466.195 235.229 466.808 235.229 467.502C235.229 468.196 235.386 468.814 235.699 469.356C236.02 469.898 236.465 470.317 237.032 470.613C237.599 470.909 238.229 471.057 238.923 471.057C239.617 471.057 240.244 470.909 240.802 470.613C241.361 470.317 241.801 469.898 242.123 469.356C242.444 468.814 242.605 468.196 242.605 467.502C242.605 466.808 242.444 466.195 242.123 465.662C241.801 465.128 241.361 464.714 240.802 464.417C240.244 464.121 239.617 463.973 238.923 463.973Z" fill="#CD354E"/>
<path d="M218.679 467.02C218.679 468.628 218.4 470.219 217.842 471.793C217.291 473.359 216.525 474.751 215.544 475.97C214.562 477.189 213.462 478.103 212.243 478.712L210.796 476.821C211.93 476.271 212.95 475.471 213.855 474.421C214.761 473.363 215.472 472.187 215.988 470.892C216.513 469.589 216.775 468.298 216.775 467.02V463.643H218.679V467.02ZM219.162 467.02C219.162 468.222 219.403 469.432 219.885 470.651C220.376 471.861 221.062 472.966 221.942 473.964C222.831 474.963 223.838 475.725 224.964 476.25L223.605 478.141C222.37 477.557 221.269 476.685 220.304 475.526C219.34 474.358 218.586 473.033 218.045 471.552C217.511 470.063 217.245 468.552 217.245 467.02V463.643H219.162V467.02ZM224.1 464.595H211.646V462.615H224.1V464.595ZM228.95 483.054H226.551V460.304H228.95V483.054ZM232.619 471.375H228.404V469.343H232.619V471.375Z" fill="#CD354E"/>
<path d="M208.909 483.118H206.484V460.304H208.909V483.118ZM193.395 475.462C195.901 475.462 197.936 475.416 199.502 475.323C201.076 475.23 202.655 475.043 204.237 474.764L204.466 476.77C202.858 477.058 201.25 477.257 199.641 477.367C198.033 477.468 195.951 477.523 193.395 477.532H191.504V475.462H193.395ZM202.409 464.417H193.929V476.25H191.504V462.424H202.409V464.417Z" fill="#CD354E"/>
<path d="M170.008 462.018C171.125 462.018 172.116 462.348 172.979 463.008C173.851 463.668 174.532 464.599 175.023 465.801C175.514 467.003 175.759 468.404 175.759 470.003C175.759 471.611 175.514 473.016 175.023 474.218C174.532 475.42 173.851 476.351 172.979 477.011C172.116 477.663 171.125 477.989 170.008 477.989C168.891 477.989 167.892 477.663 167.012 477.011C166.14 476.36 165.459 475.433 164.968 474.231C164.477 473.021 164.232 471.611 164.232 470.003C164.232 468.404 164.477 467.003 164.968 465.801C165.459 464.599 166.14 463.668 167.012 463.008C167.892 462.348 168.891 462.018 170.008 462.018ZM170.008 464.176C169.331 464.176 168.726 464.413 168.193 464.887C167.659 465.361 167.249 466.038 166.961 466.918C166.682 467.79 166.542 468.819 166.542 470.003C166.542 471.18 166.682 472.208 166.961 473.088C167.249 473.969 167.659 474.646 168.193 475.12C168.726 475.585 169.331 475.818 170.008 475.818C170.685 475.818 171.29 475.585 171.824 475.12C172.357 474.646 172.767 473.969 173.055 473.088C173.343 472.208 173.487 471.18 173.487 470.003C173.487 468.819 173.339 467.79 173.042 466.918C172.755 466.038 172.348 465.361 171.824 464.887C171.307 464.413 170.702 464.176 170.008 464.176ZM182.818 483.118H180.418V460.304H182.818V483.118ZM181.472 470.816H174.997V468.848H181.472V470.816Z" fill="#CD354E"/>
<path d="M150.221 483.207H147.809V473.939H150.221V483.207ZM158.359 483.207H155.959V473.939H158.359V483.207ZM163.462 475.145H142.642V473.177H163.462V475.145ZM153.916 462.31C153.916 463.732 153.501 465.04 152.671 466.233C151.842 467.426 150.721 468.421 149.307 469.216C147.894 470.012 146.328 470.554 144.61 470.841L143.645 468.861C145.118 468.649 146.476 468.222 147.72 467.579C148.964 466.935 149.955 466.148 150.691 465.217C151.427 464.286 151.795 463.317 151.795 462.31V461.079H153.916V462.31ZM154.296 462.31C154.296 463.309 154.669 464.274 155.414 465.205C156.158 466.127 157.153 466.914 158.397 467.566C159.641 468.218 160.995 468.649 162.459 468.861L161.52 470.841C159.819 470.554 158.257 470.008 156.835 469.204C155.422 468.391 154.296 467.392 153.458 466.208C152.621 465.014 152.202 463.715 152.202 462.31V461.079H154.296V462.31Z" fill="#CD354E"/>
<path d="M142.317 480.337H121.497V478.344H142.317V480.337ZM133.037 479.195H130.675V473.647H133.037V479.195ZM139.765 469.026H126.435V473.393H124.036V467.096H137.391V463.897H123.998V461.929H139.765V469.026ZM140.299 474.333H124.036V472.352H140.299V474.333Z" fill="#CD354E"/>
<path d="M121.146 480.134H100.326V478.141H121.146V480.134ZM105.125 465.966H116.297V461.878H118.671V473.837H102.7V461.878H105.125V465.966ZM116.297 471.92V467.871H105.125V471.92H116.297Z" fill="#CD354E"/>
<path d="M99.1886 474.32H91.0255V471.984H99.1886V474.32Z" fill="#CD354E"/>
<path d="M83.7689 481.188C82.4401 481.188 81.2763 480.896 80.2776 480.312C79.2874 479.728 78.5257 478.903 77.9925 477.836C77.4593 476.77 77.1927 475.53 77.1927 474.117C77.1927 472.703 77.4593 471.455 77.9925 470.372C78.5257 469.28 79.2747 468.438 80.2396 467.845C81.2044 467.244 82.3174 466.944 83.5784 466.944C84.6956 466.944 85.7155 467.185 86.638 467.667C87.5605 468.141 88.3011 468.899 88.8597 469.94C89.4183 470.972 89.6976 472.28 89.6976 473.863V474.815H78.7161V472.796H87.0443C87.0443 472.094 86.9004 471.472 86.6126 470.93C86.3333 470.38 85.9313 469.948 85.4066 469.635C84.8818 469.322 84.2809 469.166 83.6038 469.166C82.8675 469.166 82.22 469.343 81.6614 469.699C81.1028 470.054 80.667 470.532 80.3538 471.133C80.0407 471.734 79.8841 472.377 79.8841 473.063V474.637C79.8841 475.543 80.0449 476.321 80.3665 476.973C80.6966 477.625 81.1536 478.12 81.7376 478.458C82.3301 478.797 83.0114 478.966 83.7816 478.966C84.2724 478.966 84.7168 478.899 85.1146 478.763C85.5123 478.619 85.8509 478.442 86.1302 478.23C86.4095 478.01 86.6253 477.752 86.7776 477.456H89.5325C89.3294 478.2 88.9655 478.852 88.4407 479.411C87.916 479.969 87.2516 480.405 86.4476 480.718C85.652 481.031 84.7591 481.188 83.7689 481.188Z" fill="#CD354E"/>
<path d="M558.29 476.872H555.89V460.33H558.29V476.872ZM558.975 482.61H543.424V480.617H558.975V482.61ZM545.836 481.34H543.424V475.196H545.836V481.34ZM545.95 461.866C547.084 461.866 548.112 462.107 549.035 462.589C549.966 463.063 550.694 463.732 551.219 464.595C551.743 465.45 552.006 466.419 552.006 467.502C552.006 468.603 551.743 469.58 551.219 470.435C550.694 471.29 549.966 471.958 549.035 472.441C548.112 472.923 547.084 473.165 545.95 473.165C544.816 473.165 543.788 472.923 542.865 472.441C541.951 471.958 541.227 471.29 540.694 470.435C540.161 469.58 539.894 468.603 539.894 467.502C539.894 466.419 540.161 465.45 540.694 464.595C541.227 463.732 541.951 463.063 542.865 462.589C543.788 462.107 544.816 461.866 545.95 461.866ZM545.95 463.973C545.256 463.973 544.625 464.121 544.058 464.417C543.491 464.714 543.047 465.128 542.725 465.662C542.412 466.195 542.256 466.808 542.256 467.502C542.256 468.196 542.412 468.814 542.725 469.356C543.047 469.898 543.491 470.317 544.058 470.613C544.625 470.909 545.256 471.057 545.95 471.057C546.644 471.057 547.27 470.909 547.829 470.613C548.387 470.317 548.828 469.898 549.149 469.356C549.471 468.814 549.632 468.196 549.632 467.502C549.632 466.808 549.471 466.195 549.149 465.662C548.828 465.128 548.387 464.714 547.829 464.417C547.27 464.121 546.644 463.973 545.95 463.973Z" fill="white"/>
<path d="M525.706 467.02C525.706 468.628 525.427 470.219 524.868 471.793C524.318 473.359 523.552 474.751 522.57 475.97C521.588 477.189 520.488 478.103 519.269 478.712L517.822 476.821C518.956 476.271 519.976 475.471 520.882 474.421C521.787 473.363 522.498 472.187 523.015 470.892C523.539 469.589 523.802 468.298 523.802 467.02V463.643H525.706V467.02ZM526.188 467.02C526.188 468.222 526.43 469.432 526.912 470.651C527.403 471.861 528.088 472.966 528.969 473.964C529.857 474.963 530.864 475.725 531.99 476.25L530.632 478.141C529.396 477.557 528.296 476.685 527.331 475.526C526.366 474.358 525.613 473.033 525.071 471.552C524.538 470.063 524.271 468.552 524.271 467.02V463.643H526.188V467.02ZM531.127 464.595H518.673V462.615H531.127V464.595ZM535.976 483.054H533.577V460.304H535.976V483.054ZM539.645 471.375H535.431V469.343H539.645V471.375Z" fill="white"/>
<path d="M515.936 483.118H513.511V460.304H515.936V483.118ZM500.422 475.462C502.927 475.462 504.963 475.416 506.528 475.323C508.103 475.23 509.681 475.043 511.264 474.764L511.492 476.77C509.884 477.058 508.276 477.257 506.668 477.367C505.06 477.468 502.978 477.523 500.422 477.532H498.53V475.462H500.422ZM509.436 464.417H500.955V476.25H498.53V462.424H509.436V464.417Z" fill="white"/>
<path d="M490.619 480.909H487.826V462.526H490.619V480.909Z" fill="white"/>
<path d="M485.381 462.526V474.612C485.381 475.89 485.076 477.028 484.467 478.027C483.866 479.017 483.011 479.796 481.902 480.363C480.793 480.93 479.515 481.213 478.068 481.213C476.612 481.213 475.334 480.93 474.234 480.363C473.134 479.796 472.279 479.017 471.67 478.027C471.069 477.028 470.768 475.89 470.768 474.612V462.526H473.561V474.396C473.561 475.208 473.743 475.941 474.107 476.592C474.48 477.236 475.004 477.743 475.681 478.116C476.367 478.488 477.163 478.674 478.068 478.674C478.982 478.674 479.782 478.488 480.468 478.116C481.153 477.743 481.674 477.236 482.029 476.592C482.393 475.941 482.575 475.208 482.575 474.396V462.526H485.381Z" fill="white"/>
<path d="M463.905 483.676H461.518L467.434 461.663H469.847L463.905 483.676Z" fill="white"/>
<path d="M454.109 469.699H454.262L458.642 462.526H461.879L456.166 471.717L461.917 480.909H458.667L454.262 473.837H454.109L449.704 480.909H446.454L452.319 471.717L446.492 462.526H449.742L454.109 469.699Z" fill="white"/>
<path d="M445.355 462.526V474.612C445.355 475.89 445.05 477.028 444.441 478.027C443.84 479.017 442.985 479.796 441.876 480.363C440.768 480.93 439.49 481.213 438.042 481.213C436.587 481.213 435.309 480.93 434.208 480.363C433.108 479.796 432.253 479.017 431.644 478.027C431.043 477.028 430.742 475.89 430.742 474.612V462.526H433.535V474.396C433.535 475.208 433.717 475.941 434.081 476.592C434.454 477.236 434.978 477.743 435.656 478.116C436.341 478.488 437.137 478.674 438.042 478.674C438.956 478.674 439.756 478.488 440.442 478.116C441.127 477.743 441.648 477.236 442.003 476.592C442.367 475.941 442.549 475.208 442.549 474.396V462.526H445.355Z" fill="white"/>
<path d="M426.736 474.675C426.414 474.675 426.114 474.591 425.834 474.421C425.555 474.252 425.335 474.032 425.174 473.761C425.022 473.482 424.946 473.181 424.946 472.86C424.946 472.547 425.022 472.25 425.174 471.971C425.335 471.692 425.555 471.476 425.834 471.324C426.114 471.163 426.414 471.083 426.736 471.083C427.049 471.083 427.345 471.163 427.625 471.324C427.904 471.476 428.124 471.692 428.285 471.971C428.445 472.25 428.526 472.547 428.526 472.86C428.526 473.181 428.445 473.482 428.285 473.761C428.124 474.032 427.904 474.252 427.625 474.421C427.345 474.591 427.049 474.675 426.736 474.675Z" fill="white"/>
<path d="M421.841 474.193H419.441V460.304H421.841V474.193ZM406.251 470.27C408.841 470.27 410.935 470.215 412.535 470.105C414.143 469.995 415.726 469.783 417.283 469.47L417.524 471.463C415.958 471.76 414.367 471.958 412.751 472.06C411.143 472.162 408.976 472.217 406.251 472.225H404.346V470.27H406.251ZM415.163 464.037H406.733V471.349H404.346V462.069H415.163V464.037ZM414.198 474.269C415.772 474.261 417.139 474.43 418.299 474.777C419.458 475.124 420.351 475.627 420.977 476.288C421.604 476.948 421.917 477.739 421.917 478.662C421.917 479.576 421.604 480.363 420.977 481.023C420.351 481.683 419.462 482.187 418.311 482.534C417.16 482.881 415.789 483.058 414.198 483.067C412.607 483.058 411.227 482.881 410.059 482.534C408.9 482.187 408.011 481.683 407.393 481.023C406.775 480.363 406.467 479.576 406.467 478.662C406.467 477.739 406.775 476.948 407.393 476.288C408.011 475.627 408.9 475.124 410.059 474.777C411.227 474.43 412.607 474.261 414.198 474.269ZM414.198 476.173C413.089 476.173 412.133 476.266 411.329 476.453C410.533 476.639 409.928 476.918 409.513 477.291C409.099 477.663 408.891 478.12 408.891 478.662C408.891 479.178 409.099 479.622 409.513 479.995C409.937 480.367 410.546 480.655 411.342 480.858C412.137 481.053 413.089 481.15 414.198 481.15C415.307 481.15 416.263 481.053 417.067 480.858C417.88 480.655 418.493 480.367 418.908 479.995C419.331 479.622 419.543 479.178 419.543 478.662C419.543 478.137 419.331 477.684 418.908 477.303C418.493 476.922 417.884 476.639 417.08 476.453C416.276 476.266 415.315 476.173 414.198 476.173Z" fill="white"/>
<path d="M401.203 477.252H398.905V460.33H401.203V477.252ZM399.603 469.013H395.452V467.02H399.603V469.013ZM396.125 476.656H393.891V460.749H396.125V476.656ZM401.85 482.61H386.108V480.617H401.85V482.61ZM388.508 481.353H386.108V475.678H388.508V481.353ZM384.331 472.009C386.074 472.009 387.564 471.963 388.8 471.87C390.044 471.777 391.318 471.607 392.621 471.362L392.862 473.279C391.516 473.524 390.205 473.694 388.927 473.787C387.657 473.88 386.125 473.926 384.331 473.926H382.807V472.009H384.331ZM391.415 468.937H385.143V473.038H382.807V467.083H389.104V464.164H382.769V462.234H391.415V468.937Z" fill="white"/>
<path d="M381.454 480.134H360.634V478.141H381.454V480.134ZM365.433 465.966H376.605V461.878H378.979V473.837H363.008V461.878H365.433V465.966ZM376.605 471.92V467.871H365.433V471.92H376.605Z" fill="white"/>
<circle cx="165.098" cy="179.378" r="6.4397" fill="#CD354E"/>
<circle cx="460.427" cy="179.378" r="6.4397" fill="#CD354E"/>
<circle cx="165.098" cy="440.896" r="6.4397" fill="#CD354E"/>
<circle cx="460.427" cy="440.896" r="6.4397" fill="white"/>
<rect x="171.537" y="179.378" width="287.534" height="1" fill="#CD354E"/>
<rect x="171.537" y="439.896" width="287.534" height="1" fill="#CD354E"/>
<rect x="164.098" y="434.457" width="248.639" height="1" transform="rotate(-90 164.098 434.457)" fill="#CD354E"/>
<rect x="459.927" y="434.457" width="248.639" height="1" transform="rotate(-90 459.927 434.457)" fill="#CD354E"/>
</svg>
