<svg width="624" height="624" viewBox="0 0 624 624" fill="none" xmlns="http://www.w3.org/2000/svg">
<circle cx="164.282" cy="459.183" r="163.735" fill="#CD354E" stroke="#CD354E"/>
<circle cx="459.611" cy="459.183" r="163.735" stroke="#CD354E"/>
<circle cx="459.611" cy="164.723" r="163.735" stroke="#CD354E"/>
<circle cx="164.282" cy="164.723" r="163.735" stroke="#CD354E"/>
<path d="M253.563 153.091H251.164V136.549H253.563V153.091ZM254.249 158.83H238.697V156.836H254.249V158.83ZM241.109 157.56H238.697V151.416H241.109V157.56ZM241.223 138.085C242.357 138.085 243.386 138.327 244.308 138.809C245.239 139.283 245.967 139.952 246.492 140.815C247.016 141.67 247.279 142.639 247.279 143.722C247.279 144.822 247.016 145.8 246.492 146.655C245.967 147.51 245.239 148.178 244.308 148.661C243.386 149.143 242.357 149.384 241.223 149.384C240.089 149.384 239.061 149.143 238.138 148.661C237.224 148.178 236.501 147.51 235.967 146.655C235.434 145.8 235.168 144.822 235.168 143.722C235.168 142.639 235.434 141.67 235.967 140.815C236.501 139.952 237.224 139.283 238.138 138.809C239.061 138.327 240.089 138.085 241.223 138.085ZM241.223 140.193C240.529 140.193 239.899 140.341 239.332 140.637C238.765 140.933 238.32 141.348 237.999 141.881C237.685 142.415 237.529 143.028 237.529 143.722C237.529 144.416 237.685 145.034 237.999 145.576C238.32 146.117 238.765 146.536 239.332 146.833C239.899 147.129 240.529 147.277 241.223 147.277C241.917 147.277 242.544 147.129 243.102 146.833C243.661 146.536 244.101 146.117 244.422 145.576C244.744 145.034 244.905 144.416 244.905 143.722C244.905 143.028 244.744 142.415 244.422 141.881C244.101 141.348 243.661 140.933 243.102 140.637C242.544 140.341 241.917 140.193 241.223 140.193Z" fill="#CD354E"/>
<path d="M220.979 143.24C220.979 144.848 220.7 146.439 220.141 148.013C219.591 149.579 218.825 150.971 217.844 152.19C216.862 153.409 215.761 154.323 214.543 154.932L213.095 153.041C214.23 152.49 215.249 151.691 216.155 150.641C217.061 149.583 217.772 148.407 218.288 147.112C218.813 145.808 219.075 144.518 219.075 143.24V139.863H220.979V143.24ZM221.462 143.24C221.462 144.442 221.703 145.652 222.185 146.871C222.676 148.081 223.362 149.185 224.242 150.184C225.131 151.183 226.138 151.944 227.263 152.469L225.905 154.361C224.669 153.777 223.569 152.905 222.604 151.746C221.639 150.578 220.886 149.253 220.344 147.772C219.811 146.282 219.545 144.772 219.545 143.24V139.863H221.462V143.24ZM226.4 140.815H213.946V138.834H226.4V140.815ZM231.25 159.274H228.85V136.524H231.25V159.274ZM234.919 147.594H230.704V145.563H234.919V147.594Z" fill="#CD354E"/>
<path d="M211.209 159.337H208.784V136.524H211.209V159.337ZM195.695 151.682C198.2 151.682 200.236 151.636 201.802 151.542C203.376 151.449 204.954 151.263 206.537 150.984L206.766 152.99C205.158 153.278 203.549 153.476 201.941 153.586C200.333 153.688 198.251 153.743 195.695 153.751H193.804V151.682H195.695ZM204.709 140.637H196.228V152.469H193.804V138.644H204.709V140.637Z" fill="#CD354E"/>
<path d="M186.958 156.456H166.138V154.462H186.958V156.456ZM177.411 141.831C177.411 143.379 177.014 144.784 176.218 146.045C175.423 147.306 174.322 148.352 172.917 149.181C171.521 150.011 169.938 150.59 168.169 150.92L167.23 148.978C168.787 148.724 170.175 148.25 171.394 147.556C172.621 146.862 173.577 146.02 174.263 145.03C174.957 144.04 175.304 142.973 175.304 141.831V141.348H177.411V141.831ZM177.754 141.831C177.754 142.973 178.097 144.04 178.783 145.03C179.477 146.02 180.437 146.862 181.664 147.556C182.9 148.25 184.292 148.724 185.841 148.978L184.876 150.92C183.099 150.59 181.508 150.011 180.103 149.181C178.706 148.352 177.606 147.306 176.802 146.045C176.007 144.784 175.609 143.379 175.609 141.831V141.348H177.754V141.831ZM185.029 141.996H168.03V140.041H185.029V141.996ZM177.703 140.777H175.329V137.019H177.703V140.777Z" fill="#CD354E"/>
<path d="M158.589 144.852H154.781V142.935H158.589V144.852ZM164.366 153.574H162.068V136.549H164.366V153.574ZM159.91 153.002H157.599V136.994H159.91V153.002ZM165.013 158.83H149.385V156.836H165.013V158.83ZM151.835 158.055H149.385V151.695H151.835V158.055ZM147.456 148.026C149.428 148.026 150.985 147.992 152.127 147.924C153.27 147.848 154.425 147.692 155.593 147.455L155.835 149.384C154.59 149.63 153.363 149.791 152.153 149.867C150.951 149.943 149.385 149.981 147.456 149.981H145.983V148.026H147.456ZM154.654 140.333H148.294V148.724H145.983V138.365H154.654V140.333ZM153.74 145.042H147.57V143.176H153.74V145.042Z" fill="#CD354E"/>
<path d="M140.923 139.507H126.247V137.565H140.923V139.507ZM142.014 139.545C142.014 140.527 142.006 141.361 141.989 142.046C141.972 142.732 141.917 143.502 141.824 144.357C141.731 145.212 141.587 146.122 141.392 147.086L139.006 146.883C139.209 145.952 139.357 145.072 139.45 144.243C139.543 143.413 139.598 142.664 139.615 141.996C139.632 141.327 139.64 140.51 139.64 139.545V137.565H142.014V139.545ZM125.98 144.167L125.663 142.148L140.339 141.716V143.506L125.98 144.167ZM144.515 150.425H123.835V148.483H144.515V150.425ZM134.448 149.74H132.023V145.309H134.448V149.74ZM142.51 158.931H126.386V156.976H142.51V158.931ZM128.811 157.814H126.386V152.19H128.811V157.814Z" fill="#CD354E"/>
<path d="M115.098 143.583C115.03 143.024 114.835 142.542 114.514 142.135C114.192 141.729 113.756 141.424 113.206 141.221C112.665 141.018 112.038 140.917 111.327 140.917C110.591 140.917 109.944 141.031 109.385 141.259C108.826 141.488 108.395 141.809 108.09 142.224C107.785 142.63 107.633 143.096 107.633 143.621C107.633 144.391 107.95 144.983 108.585 145.398C109.22 145.813 110.02 146.143 110.985 146.388L112.749 146.858C114.281 147.23 115.546 147.814 116.545 148.61C117.552 149.405 118.056 150.552 118.056 152.05C118.056 153.083 117.785 154.01 117.243 154.831C116.71 155.643 115.927 156.282 114.895 156.748C113.871 157.205 112.652 157.433 111.238 157.433C109.876 157.433 108.687 157.217 107.671 156.786C106.655 156.346 105.864 155.723 105.297 154.919C104.73 154.107 104.417 153.146 104.358 152.038H107.151C107.21 152.672 107.426 153.21 107.798 153.65C108.17 154.09 108.653 154.42 109.245 154.64C109.838 154.86 110.498 154.97 111.226 154.97C112.004 154.97 112.703 154.847 113.32 154.602C113.938 154.357 114.421 154.01 114.768 153.561C115.115 153.104 115.288 152.583 115.288 152C115.288 151.492 115.144 151.064 114.857 150.717C114.569 150.37 114.175 150.087 113.676 149.867C113.185 149.638 112.567 149.422 111.822 149.219L109.639 148.648C108.098 148.225 106.918 147.62 106.097 146.833C105.276 146.037 104.865 145.017 104.865 143.773C104.865 142.732 105.149 141.814 105.716 141.018C106.291 140.222 107.07 139.605 108.052 139.165C109.042 138.716 110.155 138.492 111.391 138.492C112.618 138.492 113.71 138.712 114.666 139.152C115.631 139.583 116.388 140.184 116.939 140.955C117.489 141.725 117.777 142.601 117.802 143.583H115.098Z" fill="#CD354E"/>
<path d="M102.649 157.128H100.084L90.766 143.684H90.6009V157.128H87.808V138.746H90.3978L99.7035 152.203H99.8685V138.746H102.649V157.128Z" fill="#CD354E"/>
<path d="M83.1158 143.583C83.0481 143.024 82.8534 142.542 82.5318 142.135C82.2102 141.729 81.7743 141.424 81.2242 141.221C80.6825 141.018 80.0562 140.917 79.3453 140.917C78.6089 140.917 77.9615 141.031 77.4029 141.259C76.8443 141.488 76.4126 141.809 76.108 142.224C75.8033 142.63 75.6509 143.096 75.6509 143.621C75.6509 144.391 75.9683 144.983 76.6031 145.398C77.2378 145.813 78.0376 146.143 79.0025 146.388L80.7671 146.858C82.299 147.23 83.5643 147.814 84.563 148.61C85.5702 149.405 86.0738 150.552 86.0738 152.05C86.0738 153.083 85.8029 154.01 85.2613 154.831C84.7281 155.643 83.9452 156.282 82.9126 156.748C81.8886 157.205 80.6698 157.433 79.2564 157.433C77.8938 157.433 76.7046 157.217 75.689 156.786C74.6734 156.346 73.882 155.723 73.315 154.919C72.7479 154.107 72.4348 153.146 72.3755 152.038H75.1685C75.2277 152.672 75.4436 153.21 75.816 153.65C76.1884 154.09 76.6708 154.42 77.2632 154.64C77.8557 154.86 78.5158 154.97 79.2437 154.97C80.0223 154.97 80.7206 154.847 81.3384 154.602C81.9563 154.357 82.4387 154.01 82.7857 153.561C83.1327 153.104 83.3062 152.583 83.3062 152C83.3062 151.492 83.1623 151.064 82.8746 150.717C82.5868 150.37 82.1932 150.087 81.6939 149.867C81.203 149.638 80.5852 149.422 79.8404 149.219L77.6568 148.648C76.1164 148.225 74.9358 147.62 74.1148 146.833C73.2938 146.037 72.8833 145.017 72.8833 143.773C72.8833 142.732 73.1669 141.814 73.7339 141.018C74.3095 140.222 75.0881 139.605 76.0699 139.165C77.0601 138.716 78.1731 138.492 79.4087 138.492C80.636 138.492 81.7277 138.712 82.6841 139.152C83.649 139.583 84.4065 140.184 84.9566 140.955C85.5067 141.725 85.7945 142.601 85.8199 143.583H83.1158Z" fill="#CD354E"/>
<path d="M546.978 153.091H544.578V136.549H546.978V153.091ZM547.663 158.83H532.112V156.836H547.663V158.83ZM534.524 157.56H532.112V151.416H534.524V157.56ZM534.638 138.085C535.772 138.085 536.8 138.327 537.723 138.809C538.654 139.283 539.382 139.952 539.906 140.815C540.431 141.67 540.694 142.639 540.694 143.722C540.694 144.822 540.431 145.8 539.906 146.655C539.382 147.51 538.654 148.178 537.723 148.661C536.8 149.143 535.772 149.384 534.638 149.384C533.504 149.384 532.475 149.143 531.553 148.661C530.639 148.178 529.915 147.51 529.382 146.655C528.849 145.8 528.582 144.822 528.582 143.722C528.582 142.639 528.849 141.67 529.382 140.815C529.915 139.952 530.639 139.283 531.553 138.809C532.475 138.327 533.504 138.085 534.638 138.085ZM534.638 140.193C533.944 140.193 533.313 140.341 532.746 140.637C532.179 140.933 531.735 141.348 531.413 141.881C531.1 142.415 530.944 143.028 530.944 143.722C530.944 144.416 531.1 145.034 531.413 145.576C531.735 146.117 532.179 146.536 532.746 146.833C533.313 147.129 533.944 147.277 534.638 147.277C535.332 147.277 535.958 147.129 536.517 146.833C537.075 146.536 537.515 146.117 537.837 145.576C538.159 145.034 538.32 144.416 538.32 143.722C538.32 143.028 538.159 142.415 537.837 141.881C537.515 141.348 537.075 140.933 536.517 140.637C535.958 140.341 535.332 140.193 534.638 140.193Z" fill="#CD354E"/>
<path d="M514.394 143.24C514.394 144.848 514.115 146.439 513.556 148.013C513.006 149.579 512.24 150.971 511.258 152.19C510.276 153.409 509.176 154.323 507.957 154.932L506.51 153.041C507.644 152.49 508.664 151.691 509.57 150.641C510.475 149.583 511.186 148.407 511.703 147.112C512.227 145.808 512.49 144.518 512.49 143.24V139.863H514.394V143.24ZM514.876 143.24C514.876 144.442 515.118 145.652 515.6 146.871C516.091 148.081 516.776 149.185 517.657 150.184C518.545 151.183 519.552 151.944 520.678 152.469L519.32 154.361C518.084 153.777 516.984 152.905 516.019 151.746C515.054 150.578 514.301 149.253 513.759 147.772C513.226 146.282 512.959 144.772 512.959 143.24V139.863H514.876V143.24ZM519.815 140.815H507.361V138.834H519.815V140.815ZM524.664 159.274H522.265V136.524H524.664V159.274ZM528.333 147.594H524.119V145.563H528.333V147.594Z" fill="#CD354E"/>
<path d="M504.624 159.337H502.199V136.524H504.624V159.337ZM489.11 151.682C491.615 151.682 493.651 151.636 495.216 151.542C496.791 151.449 498.369 151.263 499.952 150.984L500.18 152.99C498.572 153.278 496.964 153.476 495.356 153.586C493.748 153.688 491.666 153.743 489.11 153.751H487.218V151.682H489.11ZM498.124 140.637H489.643V152.469H487.218V138.644H498.124V140.637Z" fill="#CD354E"/>
<path d="M471.093 150.73H468.693V147.315H471.093V150.73ZM480.297 147.886H459.553V145.957H480.297V147.886ZM477.618 144.281H462.193V137.26H477.618V144.281ZM464.58 142.376H475.219V139.165H464.58V142.376ZM477.669 155.211H464.44V157.776H462.066V153.447H475.308V151.708H462.028V149.867H477.669V155.211ZM478.329 159.058H462.066V157.192H478.329V159.058Z" fill="#CD354E"/>
<path d="M459.202 156.456H438.382V154.475H459.202V156.456ZM449.922 155.034H447.561V149.168H449.922V155.034ZM443.181 142.008H454.353V138.085H456.727V149.803H440.756V138.085H443.181V142.008ZM454.353 147.848V143.951H443.181V147.848H454.353Z" fill="#CD354E"/>
<path d="M427.571 152.253C429.246 152.253 430.668 152.389 431.836 152.66C433.004 152.931 433.893 153.328 434.502 153.853C435.12 154.369 435.429 155.013 435.429 155.783C435.429 156.9 434.748 157.755 433.385 158.347C432.022 158.948 430.084 159.249 427.571 159.249C425.032 159.249 423.081 158.948 421.718 158.347C420.355 157.755 419.674 156.9 419.674 155.783C419.674 155.013 419.979 154.369 420.588 153.853C421.198 153.328 422.095 152.931 423.28 152.66C424.465 152.389 425.895 152.253 427.571 152.253ZM427.571 154.043C426.394 154.043 425.4 154.111 424.587 154.247C423.775 154.374 423.161 154.568 422.746 154.831C422.34 155.084 422.137 155.402 422.137 155.783C422.137 156.147 422.34 156.456 422.746 156.709C423.161 156.963 423.771 157.15 424.575 157.268C425.387 157.395 426.386 157.458 427.571 157.458C428.756 157.458 429.746 157.395 430.541 157.268C431.345 157.15 431.955 156.963 432.369 156.709C432.784 156.456 432.992 156.147 432.992 155.783C432.992 155.402 432.784 155.084 432.369 154.831C431.955 154.568 431.345 154.374 430.541 154.247C429.737 154.111 428.747 154.043 427.571 154.043ZM436.787 140.231H418.252V138.339H436.787V140.231ZM427.583 141.043C429.995 141.043 431.841 141.323 433.119 141.881C434.397 142.431 435.036 143.248 435.036 144.332C435.036 145.373 434.392 146.172 433.106 146.731C431.828 147.281 429.987 147.556 427.583 147.556C425.18 147.556 423.33 147.281 422.036 146.731C420.741 146.172 420.093 145.373 420.093 144.332C420.093 143.248 420.741 142.431 422.036 141.881C423.33 141.323 425.18 141.043 427.583 141.043ZM427.583 142.719C426.517 142.719 425.62 142.778 424.892 142.897C424.164 143.015 423.61 143.193 423.229 143.43C422.856 143.667 422.67 143.968 422.67 144.332C422.67 144.653 422.856 144.928 423.229 145.157C423.61 145.385 424.164 145.563 424.892 145.69C425.62 145.808 426.517 145.872 427.583 145.88C428.65 145.872 429.547 145.808 430.275 145.69C431.003 145.563 431.553 145.385 431.925 145.157C432.298 144.928 432.484 144.653 432.484 144.332C432.484 143.968 432.298 143.667 431.925 143.43C431.553 143.193 431.003 143.015 430.275 142.897C429.547 142.778 428.65 142.719 427.583 142.719ZM428.777 139.596H426.377V136.27H428.777V139.596ZM437.955 151.009H417.211V149.105H437.955V151.009ZM428.777 150.006H426.377V146.833H428.777V150.006Z" fill="#CD354E"/>
<path d="M414.246 150.895C413.924 150.895 413.624 150.81 413.344 150.641C413.065 150.472 412.845 150.252 412.684 149.981C412.532 149.702 412.456 149.401 412.456 149.08C412.456 148.766 412.532 148.47 412.684 148.191C412.845 147.912 413.065 147.696 413.344 147.543C413.624 147.383 413.924 147.302 414.246 147.302C414.559 147.302 414.855 147.383 415.134 147.543C415.414 147.696 415.634 147.912 415.794 148.191C415.955 148.47 416.036 148.766 416.036 149.08C416.036 149.401 415.955 149.702 415.794 149.981C415.634 150.252 415.414 150.472 415.134 150.641C414.855 150.81 414.559 150.895 414.246 150.895Z" fill="#CD354E"/>
<path d="M407.383 140.675H392.669V138.72H407.383V140.675ZM411.229 156.202H390.485V154.221H411.229V156.202ZM400.756 155.25H398.382V146.198H400.756V155.25ZM408.893 140.955C408.893 142.3 408.876 143.43 408.843 144.344C408.809 145.25 408.732 146.325 408.614 147.569C408.496 148.805 408.305 150.142 408.043 151.581L405.593 151.314C405.872 149.951 406.075 148.665 406.202 147.455C406.329 146.244 406.405 145.174 406.43 144.243C406.464 143.303 406.481 142.207 406.481 140.955V138.72H408.893V140.955Z" fill="#CD354E"/>
<path d="M380.562 139.888H370.52V137.895H380.562V139.888ZM376.183 148.381H373.796V142.884H376.183V148.381ZM381.984 139.203C381.976 140.354 381.938 141.374 381.87 142.262C381.802 143.151 381.646 144.167 381.4 145.309L379.026 145.119C379.263 143.959 379.411 142.944 379.471 142.072C379.538 141.192 379.572 140.235 379.572 139.203V137.895H381.984V139.203ZM387.316 150.641H384.853V136.524H387.316V150.641ZM390.465 144.573H386.225V142.554H390.465V144.573ZM369.124 147.29C371.858 147.29 374.409 147.247 376.779 147.163C379.149 147.069 381.366 146.888 383.432 146.617L383.559 148.356C381.434 148.711 379.166 148.953 376.754 149.08C374.35 149.207 371.883 149.27 369.352 149.27L369.124 147.29ZM379.801 150.908C381.392 150.908 382.763 151.073 383.914 151.403C385.065 151.724 385.945 152.198 386.555 152.825C387.172 153.443 387.481 154.175 387.481 155.021C387.481 155.901 387.172 156.654 386.555 157.281C385.945 157.907 385.065 158.385 383.914 158.715C382.763 159.045 381.392 159.21 379.801 159.21C378.21 159.21 376.838 159.045 375.687 158.715C374.536 158.385 373.652 157.907 373.034 157.281C372.416 156.654 372.107 155.901 372.107 155.021C372.107 154.175 372.416 153.443 373.034 152.825C373.652 152.198 374.541 151.724 375.7 151.403C376.86 151.073 378.227 150.908 379.801 150.908ZM379.801 152.774C378.726 152.774 377.786 152.863 376.982 153.041C376.187 153.21 375.582 153.468 375.167 153.815C374.752 154.153 374.545 154.556 374.545 155.021C374.545 155.512 374.752 155.931 375.167 156.278C375.582 156.616 376.183 156.875 376.97 157.052C377.757 157.23 378.7 157.319 379.801 157.319C380.901 157.319 381.84 157.23 382.619 157.052C383.406 156.875 384.007 156.616 384.422 156.278C384.837 155.931 385.044 155.512 385.044 155.021C385.044 154.556 384.837 154.153 384.422 153.815C384.007 153.468 383.406 153.21 382.619 153.041C381.832 152.863 380.893 152.774 379.801 152.774Z" fill="#CD354E"/>
<path d="M250.447 476.872H248.048V460.33H250.447V476.872ZM251.133 482.61H235.581V480.617H251.133V482.61ZM237.993 481.34H235.581V475.196H237.993V481.34ZM238.108 461.866C239.242 461.866 240.27 462.107 241.193 462.589C242.124 463.063 242.851 463.732 243.376 464.595C243.901 465.45 244.163 466.419 244.163 467.502C244.163 468.603 243.901 469.58 243.376 470.435C242.851 471.29 242.124 471.958 241.193 472.441C240.27 472.923 239.242 473.165 238.108 473.165C236.973 473.165 235.945 472.923 235.023 472.441C234.109 471.958 233.385 471.29 232.852 470.435C232.318 469.58 232.052 468.603 232.052 467.502C232.052 466.419 232.318 465.45 232.852 464.595C233.385 463.732 234.109 463.063 235.023 462.589C235.945 462.107 236.973 461.866 238.108 461.866ZM238.108 463.973C237.414 463.973 236.783 464.121 236.216 464.417C235.649 464.714 235.205 465.128 234.883 465.662C234.57 466.195 234.413 466.808 234.413 467.502C234.413 468.196 234.57 468.814 234.883 469.356C235.205 469.898 235.649 470.317 236.216 470.613C236.783 470.909 237.414 471.057 238.108 471.057C238.802 471.057 239.428 470.909 239.986 470.613C240.545 470.317 240.985 469.898 241.307 469.356C241.628 468.814 241.789 468.196 241.789 467.502C241.789 466.808 241.628 466.195 241.307 465.662C240.985 465.128 240.545 464.714 239.986 464.417C239.428 464.121 238.802 463.973 238.108 463.973Z" fill="white"/>
<path d="M217.864 467.02C217.864 468.628 217.584 470.219 217.026 471.793C216.476 473.359 215.71 474.751 214.728 475.97C213.746 477.189 212.646 478.103 211.427 478.712L209.98 476.821C211.114 476.271 212.134 475.471 213.039 474.421C213.945 473.363 214.656 472.187 215.172 470.892C215.697 469.589 215.959 468.298 215.959 467.02V463.643H217.864V467.02ZM218.346 467.02C218.346 468.222 218.587 469.432 219.07 470.651C219.561 471.861 220.246 472.966 221.126 473.964C222.015 474.963 223.022 475.725 224.148 476.25L222.789 478.141C221.554 477.557 220.453 476.685 219.489 475.526C218.524 474.358 217.771 473.033 217.229 471.552C216.696 470.063 216.429 468.552 216.429 467.02V463.643H218.346V467.02ZM223.285 464.595H210.83V462.615H223.285V464.595ZM228.134 483.054H225.735V460.304H228.134V483.054ZM231.803 471.375H227.588V469.343H231.803V471.375Z" fill="white"/>
<path d="M208.093 483.118H205.669V460.304H208.093V483.118ZM192.58 475.462C195.085 475.462 197.12 475.416 198.686 475.323C200.26 475.23 201.839 475.043 203.421 474.764L203.65 476.77C202.042 477.058 200.434 477.257 198.826 477.367C197.218 477.468 195.136 477.523 192.58 477.532H190.688V475.462H192.58ZM201.593 464.417H193.113V476.25H190.688V462.424H201.593V464.417Z" fill="white"/>
<path d="M169.192 462.018C170.31 462.018 171.3 462.348 172.163 463.008C173.035 463.668 173.716 464.599 174.207 465.801C174.698 467.003 174.943 468.404 174.943 470.003C174.943 471.611 174.698 473.016 174.207 474.218C173.716 475.42 173.035 476.351 172.163 477.011C171.3 477.663 170.31 477.989 169.192 477.989C168.075 477.989 167.076 477.663 166.196 477.011C165.324 476.36 164.643 475.433 164.152 474.231C163.661 473.021 163.416 471.611 163.416 470.003C163.416 468.404 163.661 467.003 164.152 465.801C164.643 464.599 165.324 463.668 166.196 463.008C167.076 462.348 168.075 462.018 169.192 462.018ZM169.192 464.176C168.515 464.176 167.91 464.413 167.377 464.887C166.844 465.361 166.433 466.038 166.145 466.918C165.866 467.79 165.727 468.819 165.727 470.003C165.727 471.18 165.866 472.208 166.145 473.088C166.433 473.969 166.844 474.646 167.377 475.12C167.91 475.585 168.515 475.818 169.192 475.818C169.869 475.818 170.475 475.585 171.008 475.12C171.541 474.646 171.951 473.969 172.239 473.088C172.527 472.208 172.671 471.18 172.671 470.003C172.671 468.819 172.523 467.79 172.227 466.918C171.939 466.038 171.533 465.361 171.008 464.887C170.491 464.413 169.886 464.176 169.192 464.176ZM182.002 483.118H179.602V460.304H182.002V483.118ZM180.656 470.816H174.182V468.848H180.656V470.816Z" fill="white"/>
<path d="M149.405 483.207H146.993V473.939H149.405V483.207ZM157.543 483.207H155.144V473.939H157.543V483.207ZM162.647 475.145H141.826V473.177H162.647V475.145ZM153.1 462.31C153.1 463.732 152.685 465.04 151.856 466.233C151.026 467.426 149.905 468.421 148.491 469.216C147.078 470.012 145.512 470.554 143.794 470.841L142.829 468.861C144.302 468.649 145.66 468.222 146.904 467.579C148.149 466.935 149.139 466.148 149.875 465.217C150.611 464.286 150.98 463.317 150.98 462.31V461.079H153.1V462.31ZM153.481 462.31C153.481 463.309 153.853 464.274 154.598 465.205C155.343 466.127 156.337 466.914 157.581 467.566C158.825 468.218 160.179 468.649 161.644 468.861L160.704 470.841C159.003 470.554 157.442 470.008 156.02 469.204C154.606 468.391 153.481 467.392 152.643 466.208C151.805 465.014 151.386 463.715 151.386 462.31V461.079H153.481V462.31Z" fill="white"/>
<path d="M141.501 480.337H120.681V478.344H141.501V480.337ZM132.221 479.195H129.86V473.647H132.221V479.195ZM138.95 469.026H125.619V473.393H123.22V467.096H136.576V463.897H123.182V461.929H138.95V469.026ZM139.483 474.333H123.22V472.352H139.483V474.333Z" fill="white"/>
<path d="M120.331 480.134H99.5103V478.141H120.331V480.134ZM104.309 465.966H115.481V461.878H117.855V473.837H101.884V461.878H104.309V465.966ZM115.481 471.92V467.871H104.309V471.92H115.481Z" fill="white"/>
<path d="M98.3728 474.32H90.2097V471.984H98.3728V474.32Z" fill="white"/>
<path d="M82.9531 481.188C81.6243 481.188 80.4606 480.896 79.4619 480.312C78.4716 479.728 77.7099 478.903 77.1767 477.836C76.6435 476.77 76.3769 475.53 76.3769 474.117C76.3769 472.703 76.6435 471.455 77.1767 470.372C77.7099 469.28 78.4589 468.438 79.4238 467.845C80.3886 467.244 81.5016 466.944 82.7626 466.944C83.8798 466.944 84.8997 467.185 85.8222 467.667C86.7447 468.141 87.4853 468.899 88.0439 469.94C88.6025 470.972 88.8818 472.28 88.8818 473.863V474.815H77.9003V472.796H86.2285C86.2285 472.094 86.0846 471.472 85.7968 470.93C85.5175 470.38 85.1155 469.948 84.5908 469.635C84.066 469.322 83.4651 469.166 82.788 469.166C82.0517 469.166 81.4042 469.343 80.8456 469.699C80.287 470.054 79.8512 470.532 79.538 471.133C79.2249 471.734 79.0683 472.377 79.0683 473.063V474.637C79.0683 475.543 79.2291 476.321 79.5507 476.973C79.8808 477.625 80.3378 478.12 80.9218 478.458C81.5143 478.797 82.1956 478.966 82.9658 478.966C83.4566 478.966 83.901 478.899 84.2988 478.763C84.6966 478.619 85.0351 478.442 85.3144 478.23C85.5937 478.01 85.8095 477.752 85.9619 477.456H88.7167C88.5136 478.2 88.1497 478.852 87.6249 479.411C87.1002 479.969 86.4358 480.405 85.6318 480.718C84.8362 481.031 83.9433 481.188 82.9531 481.188Z" fill="white"/>
<path d="M557.474 476.872H555.075V460.33H557.474V476.872ZM558.16 482.61H542.608V480.617H558.16V482.61ZM545.02 481.34H542.608V475.196H545.02V481.34ZM545.134 461.866C546.268 461.866 547.297 462.107 548.219 462.589C549.15 463.063 549.878 463.732 550.403 464.595C550.927 465.45 551.19 466.419 551.19 467.502C551.19 468.603 550.927 469.58 550.403 470.435C549.878 471.29 549.15 471.958 548.219 472.441C547.297 472.923 546.268 473.165 545.134 473.165C544 473.165 542.972 472.923 542.049 472.441C541.135 471.958 540.411 471.29 539.878 470.435C539.345 469.58 539.078 468.603 539.078 467.502C539.078 466.419 539.345 465.45 539.878 464.595C540.411 463.732 541.135 463.063 542.049 462.589C542.972 462.107 544 461.866 545.134 461.866ZM545.134 463.973C544.44 463.973 543.81 464.121 543.243 464.417C542.675 464.714 542.231 465.128 541.91 465.662C541.596 466.195 541.44 466.808 541.44 467.502C541.44 468.196 541.596 468.814 541.91 469.356C542.231 469.898 542.675 470.317 543.243 470.613C543.81 470.909 544.44 471.057 545.134 471.057C545.828 471.057 546.454 470.909 547.013 470.613C547.572 470.317 548.012 469.898 548.333 469.356C548.655 468.814 548.816 468.196 548.816 467.502C548.816 466.808 548.655 466.195 548.333 465.662C548.012 465.128 547.572 464.714 547.013 464.417C546.454 464.121 545.828 463.973 545.134 463.973Z" fill="#CD354E"/>
<path d="M524.89 467.02C524.89 468.628 524.611 470.219 524.052 471.793C523.502 473.359 522.736 474.751 521.754 475.97C520.773 477.189 519.672 478.103 518.454 478.712L517.006 476.821C518.141 476.271 519.16 475.471 520.066 474.421C520.972 473.363 521.683 472.187 522.199 470.892C522.724 469.589 522.986 468.298 522.986 467.02V463.643H524.89V467.02ZM525.373 467.02C525.373 468.222 525.614 469.432 526.096 470.651C526.587 471.861 527.273 472.966 528.153 473.964C529.042 474.963 530.049 475.725 531.174 476.25L529.816 478.141C528.58 477.557 527.48 476.685 526.515 475.526C525.55 474.358 524.797 473.033 524.255 471.552C523.722 470.063 523.456 468.552 523.456 467.02V463.643H525.373V467.02ZM530.311 464.595H517.857V462.615H530.311V464.595ZM535.161 483.054H532.761V460.304H535.161V483.054ZM538.83 471.375H534.615V469.343H538.83V471.375Z" fill="#CD354E"/>
<path d="M515.12 483.118H512.695V460.304H515.12V483.118ZM499.606 475.462C502.111 475.462 504.147 475.416 505.713 475.323C507.287 475.23 508.865 475.043 510.448 474.764L510.677 476.77C509.068 477.058 507.46 477.257 505.852 477.367C504.244 477.468 502.162 477.523 499.606 477.532H497.715V475.462H499.606ZM508.62 464.417H500.139V476.25H497.715V462.424H508.62V464.417Z" fill="#CD354E"/>
<path d="M489.803 480.909H487.01V462.526H489.803V480.909Z" fill="#CD354E"/>
<path d="M484.565 462.526V474.612C484.565 475.89 484.26 477.028 483.651 478.027C483.05 479.017 482.195 479.796 481.086 480.363C479.978 480.93 478.7 481.213 477.252 481.213C475.797 481.213 474.519 480.93 473.418 480.363C472.318 479.796 471.463 479.017 470.854 478.027C470.253 477.028 469.952 475.89 469.952 474.612V462.526H472.745V474.396C472.745 475.208 472.927 475.941 473.291 476.592C473.664 477.236 474.189 477.743 474.866 478.116C475.551 478.488 476.347 478.674 477.252 478.674C478.166 478.674 478.966 478.488 479.652 478.116C480.337 477.743 480.858 477.236 481.213 476.592C481.577 475.941 481.759 475.208 481.759 474.396V462.526H484.565Z" fill="#CD354E"/>
<path d="M463.089 483.676H460.703L466.619 461.663H469.031L463.089 483.676Z" fill="#CD354E"/>
<path d="M453.294 469.699H453.446L457.826 462.526H461.063L455.35 471.717L461.101 480.909H457.851L453.446 473.837H453.294L448.888 480.909H445.638L451.504 471.717L445.676 462.526H448.926L453.294 469.699Z" fill="#CD354E"/>
<path d="M444.539 462.526V474.612C444.539 475.89 444.234 477.028 443.625 478.027C443.024 479.017 442.169 479.796 441.061 480.363C439.952 480.93 438.674 481.213 437.227 481.213C435.771 481.213 434.493 480.93 433.393 480.363C432.292 479.796 431.437 479.017 430.828 478.027C430.227 477.028 429.927 475.89 429.927 474.612V462.526H432.72V474.396C432.72 475.208 432.902 475.941 433.266 476.592C433.638 477.236 434.163 477.743 434.84 478.116C435.525 478.488 436.321 478.674 437.227 478.674C438.141 478.674 438.94 478.488 439.626 478.116C440.311 477.743 440.832 477.236 441.187 476.592C441.551 475.941 441.733 475.208 441.733 474.396V462.526H444.539Z" fill="#CD354E"/>
<path d="M425.92 474.675C425.598 474.675 425.298 474.591 425.019 474.421C424.739 474.252 424.519 474.032 424.359 473.761C424.206 473.482 424.13 473.181 424.13 472.86C424.13 472.547 424.206 472.25 424.359 471.971C424.519 471.692 424.739 471.476 425.019 471.324C425.298 471.163 425.598 471.083 425.92 471.083C426.233 471.083 426.529 471.163 426.809 471.324C427.088 471.476 427.308 471.692 427.469 471.971C427.63 472.25 427.71 472.547 427.71 472.86C427.71 473.181 427.63 473.482 427.469 473.761C427.308 474.032 427.088 474.252 426.809 474.421C426.529 474.591 426.233 474.675 425.92 474.675Z" fill="#CD354E"/>
<path d="M421.025 474.193H418.625V460.304H421.025V474.193ZM405.435 470.27C408.025 470.27 410.119 470.215 411.719 470.105C413.327 469.995 414.91 469.783 416.467 469.47L416.708 471.463C415.143 471.76 413.551 471.958 411.935 472.06C410.327 472.162 408.16 472.217 405.435 472.225H403.531V470.27H405.435ZM414.347 464.037H405.917V471.349H403.531V462.069H414.347V464.037ZM413.382 474.269C414.956 474.261 416.323 474.43 417.483 474.777C418.642 475.124 419.535 475.627 420.161 476.288C420.788 476.948 421.101 477.739 421.101 478.662C421.101 479.576 420.788 480.363 420.161 481.023C419.535 481.683 418.647 482.187 417.495 482.534C416.344 482.881 414.973 483.058 413.382 483.067C411.791 483.058 410.411 482.881 409.244 482.534C408.084 482.187 407.195 481.683 406.577 481.023C405.96 480.363 405.651 479.576 405.651 478.662C405.651 477.739 405.96 476.948 406.577 476.288C407.195 475.627 408.084 475.124 409.244 474.777C410.411 474.43 411.791 474.261 413.382 474.269ZM413.382 476.173C412.273 476.173 411.317 476.266 410.513 476.453C409.717 476.639 409.112 476.918 408.698 477.291C408.283 477.663 408.076 478.12 408.076 478.662C408.076 479.178 408.283 479.622 408.698 479.995C409.121 480.367 409.73 480.655 410.526 480.858C411.321 481.053 412.273 481.15 413.382 481.15C414.491 481.15 415.447 481.053 416.251 480.858C417.064 480.655 417.677 480.367 418.092 479.995C418.515 479.622 418.727 479.178 418.727 478.662C418.727 478.137 418.515 477.684 418.092 477.303C417.677 476.922 417.068 476.639 416.264 476.453C415.46 476.266 414.499 476.173 413.382 476.173Z" fill="#CD354E"/>
<path d="M400.387 477.252H398.089V460.33H400.387V477.252ZM398.788 469.013H394.636V467.02H398.788V469.013ZM395.309 476.656H393.075V460.749H395.309V476.656ZM401.035 482.61H385.293V480.617H401.035V482.61ZM387.692 481.353H385.293V475.678H387.692V481.353ZM383.515 472.009C385.259 472.009 386.748 471.963 387.984 471.87C389.228 471.777 390.502 471.607 391.805 471.362L392.046 473.279C390.701 473.524 389.389 473.694 388.111 473.787C386.841 473.88 385.309 473.926 383.515 473.926H381.992V472.009H383.515ZM390.599 468.937H384.328V473.038H381.992V467.083H388.289V464.164H381.954V462.234H390.599V468.937Z" fill="#CD354E"/>
<path d="M380.638 480.134H359.818V478.141H380.638V480.134ZM364.617 465.966H375.789V461.878H378.163V473.837H362.192V461.878H364.617V465.966ZM375.789 471.92V467.871H364.617V471.92H375.789Z" fill="#CD354E"/>
<circle cx="164.282" cy="179.378" r="6.4397" fill="#CD354E"/>
<circle cx="459.611" cy="179.378" r="6.4397" fill="#CD354E"/>
<circle cx="164.282" cy="440.896" r="6.4397" fill="white"/>
<circle cx="459.611" cy="440.896" r="6.4397" fill="#CD354E"/>
<rect x="170.721" y="179.378" width="287.534" height="1" fill="#CD354E"/>
<rect x="170.721" y="439.896" width="287.534" height="1" fill="#CD354E"/>
<rect x="163.282" y="434.457" width="248.639" height="1" transform="rotate(-90 163.282 434.457)" fill="#CD354E"/>
<rect x="459.111" y="434.457" width="248.639" height="1" transform="rotate(-90 459.111 434.457)" fill="#CD354E"/>
</svg>
