<svg width="329" height="906" viewBox="0 0 329 906" fill="none" xmlns="http://www.w3.org/2000/svg">
<circle cx="164.543" cy="741.345" r="163.735" fill="white" stroke="#CD354E"/>
<circle cx="164.543" cy="453.077" r="163.735" fill="white" stroke="#CD354E"/>
<circle cx="164.543" cy="164.81" r="164.235" fill="#CD354E"/>
<path d="M110.986 142.59L118.174 160.122H118.439L125.627 142.59H129.799V165.215H126.518V148.872H126.299L119.643 165.184H116.939L110.283 148.872H110.096V165.215H106.814V142.59H110.986Z" fill="white"/>
<path d="M142.777 157.528C142.506 157.528 141.657 157.58 140.23 157.684L138.543 157.809C137.418 157.892 136.543 158.153 135.918 158.59C135.303 159.028 134.996 159.653 134.996 160.465C134.996 160.997 135.131 161.444 135.402 161.809C135.673 162.163 136.053 162.439 136.543 162.637C137.032 162.825 137.589 162.918 138.214 162.918C139.1 162.918 139.865 162.747 140.511 162.403C141.168 162.049 141.673 161.58 142.027 160.997C142.381 160.403 142.558 159.767 142.558 159.09L142.543 153.747C142.543 153.101 142.412 152.554 142.152 152.106C141.902 151.648 141.517 151.304 140.996 151.075C140.475 150.835 139.839 150.715 139.089 150.715C138.142 150.715 137.365 150.913 136.761 151.309C136.168 151.694 135.782 152.215 135.605 152.872H132.261C132.376 151.924 132.73 151.085 133.324 150.356C133.918 149.627 134.72 149.059 135.73 148.653C136.74 148.236 137.897 148.028 139.199 148.028C140.293 148.028 141.329 148.194 142.308 148.528C143.298 148.851 144.136 149.455 144.824 150.34C145.511 151.215 145.855 152.418 145.855 153.95V165.215H142.621V162.887H142.496C142.267 163.356 141.933 163.793 141.496 164.2C141.058 164.606 140.496 164.939 139.808 165.2C139.131 165.46 138.35 165.59 137.464 165.59C136.371 165.59 135.392 165.387 134.527 164.981C133.662 164.575 132.98 163.981 132.48 163.2C131.98 162.418 131.73 161.497 131.73 160.434C131.73 158.663 132.324 157.403 133.511 156.653C134.709 155.903 136.23 155.471 138.074 155.356C138.324 155.325 139.313 155.262 141.043 155.168L142.746 155.106L142.777 157.528Z" fill="white"/>
<path d="M148.318 148.247H151.536V150.965H151.724C152.026 150.028 152.568 149.299 153.349 148.778C154.13 148.247 155.01 147.981 155.989 147.981C156.51 147.981 156.989 148.012 157.427 148.075V151.262C157.292 151.21 157.047 151.163 156.693 151.122C156.338 151.069 156 151.043 155.677 151.043C154.927 151.043 154.245 151.21 153.63 151.543C153.015 151.866 152.531 152.319 152.177 152.903C151.823 153.486 151.646 154.142 151.646 154.872V165.215H148.318V148.247Z" fill="white"/>
<path d="M161.374 155.403H161.968L168.702 148.247H172.686L164.968 156.434H164.436L161.405 159.465L161.374 155.403ZM158.343 142.59H161.671V165.215H158.343V142.59ZM162.999 157.184L165.28 154.84L173.139 165.215H169.061L162.999 157.184Z" fill="white"/>
<path d="M180.305 165.559C178.67 165.559 177.237 165.2 176.008 164.481C174.789 163.762 173.852 162.747 173.196 161.434C172.539 160.122 172.211 158.596 172.211 156.856C172.211 155.116 172.539 153.58 173.196 152.247C173.852 150.903 174.774 149.866 175.961 149.137C177.149 148.398 178.519 148.028 180.071 148.028C181.446 148.028 182.701 148.325 183.836 148.918C184.972 149.502 185.883 150.434 186.571 151.715C187.258 152.986 187.602 154.596 187.602 156.543V157.715H174.086V155.231H184.336C184.336 154.366 184.159 153.601 183.805 152.934C183.461 152.257 182.967 151.726 182.321 151.34C181.675 150.955 180.935 150.762 180.102 150.762C179.196 150.762 178.399 150.981 177.711 151.418C177.024 151.856 176.487 152.444 176.102 153.184C175.717 153.924 175.524 154.715 175.524 155.559V157.497C175.524 158.611 175.722 159.569 176.118 160.372C176.524 161.174 177.086 161.783 177.805 162.2C178.534 162.616 179.373 162.825 180.321 162.825C180.925 162.825 181.472 162.741 181.961 162.575C182.451 162.398 182.868 162.179 183.211 161.918C183.555 161.648 183.821 161.33 184.008 160.965H187.399C187.149 161.882 186.701 162.684 186.055 163.372C185.409 164.059 184.592 164.596 183.602 164.981C182.623 165.366 181.524 165.559 180.305 165.559Z" fill="white"/>
<path d="M197.205 150.903H187.924V148.247H197.205V150.903ZM193.768 144.184V160.231C193.768 160.835 193.856 161.299 194.033 161.622C194.21 161.944 194.445 162.168 194.736 162.293C195.028 162.418 195.377 162.481 195.783 162.481C196.283 162.481 196.84 162.46 197.455 162.418V165.293C196.861 165.387 196.174 165.434 195.393 165.434C194.486 165.434 193.653 165.267 192.893 164.934C192.143 164.59 191.538 164.08 191.08 163.403C190.632 162.715 190.408 161.882 190.408 160.903V144.184H193.768Z" fill="white"/>
<path d="M206.011 165.559C204.376 165.559 202.944 165.2 201.714 164.481C200.496 163.762 199.558 162.747 198.902 161.434C198.246 160.122 197.918 158.596 197.918 156.856C197.918 155.116 198.246 153.58 198.902 152.247C199.558 150.903 200.48 149.866 201.668 149.137C202.855 148.398 204.225 148.028 205.777 148.028C207.152 148.028 208.407 148.325 209.543 148.918C210.678 149.502 211.589 150.434 212.277 151.715C212.964 152.986 213.308 154.596 213.308 156.543V157.715H199.793V155.231H210.043C210.043 154.366 209.865 153.601 209.511 152.934C209.168 152.257 208.673 151.726 208.027 151.34C207.381 150.955 206.642 150.762 205.808 150.762C204.902 150.762 204.105 150.981 203.418 151.418C202.73 151.856 202.194 152.444 201.808 153.184C201.423 153.924 201.23 154.715 201.23 155.559V157.497C201.23 158.611 201.428 159.569 201.824 160.372C202.23 161.174 202.793 161.783 203.511 162.2C204.24 162.616 205.079 162.825 206.027 162.825C206.631 162.825 207.178 162.741 207.668 162.575C208.157 162.398 208.574 162.179 208.918 161.918C209.261 161.648 209.527 161.33 209.714 160.965H213.105C212.855 161.882 212.407 162.684 211.761 163.372C211.115 164.059 210.298 164.596 209.308 164.981C208.329 165.366 207.23 165.559 206.011 165.559Z" fill="white"/>
<path d="M215.005 148.247H218.224V150.965H218.411C218.713 150.028 219.255 149.299 220.036 148.778C220.818 148.247 221.698 147.981 222.677 147.981C223.198 147.981 223.677 148.012 224.114 148.075V151.262C223.979 151.21 223.734 151.163 223.38 151.122C223.026 151.069 222.687 151.043 222.364 151.043C221.614 151.043 220.932 151.21 220.318 151.543C219.703 151.866 219.219 152.319 218.864 152.903C218.51 153.486 218.333 154.142 218.333 154.872V165.215H215.005V148.247Z" fill="white"/>
<path d="M132.047 438.232C131.87 437.274 131.5 436.456 130.938 435.779C130.385 435.092 129.693 434.571 128.859 434.217C128.036 433.863 127.146 433.686 126.188 433.686C124.885 433.686 123.719 434.019 122.688 434.686C121.656 435.342 120.844 436.311 120.25 437.592C119.667 438.863 119.375 440.389 119.375 442.17C119.375 443.972 119.667 445.508 120.25 446.779C120.844 448.05 121.656 449.014 122.688 449.67C123.719 450.326 124.88 450.654 126.172 450.654C127.13 450.654 128.016 450.477 128.828 450.123C129.641 449.769 130.333 449.258 130.906 448.592C131.479 447.915 131.859 447.113 132.047 446.186L135.5 446.201C135.26 447.67 134.714 448.982 133.859 450.139C133.016 451.295 131.932 452.196 130.609 452.842C129.286 453.477 127.802 453.795 126.156 453.795C124.188 453.795 122.432 453.326 120.891 452.389C119.359 451.451 118.156 450.102 117.281 448.342C116.417 446.581 115.984 444.524 115.984 442.17C115.984 439.795 116.422 437.732 117.297 435.982C118.172 434.232 119.375 432.889 120.906 431.951C122.448 431.014 124.198 430.545 126.156 430.545C127.75 430.545 129.208 430.852 130.531 431.467C131.865 432.071 132.964 432.951 133.828 434.107C134.693 435.264 135.25 436.639 135.5 438.232H132.047Z" fill="#CD354E"/>
<path d="M137.353 436.514H140.572V439.232H140.759C141.061 438.295 141.603 437.566 142.384 437.045C143.166 436.514 144.046 436.248 145.025 436.248C145.546 436.248 146.025 436.279 146.462 436.342V439.529C146.327 439.477 146.082 439.43 145.728 439.389C145.374 439.337 145.035 439.311 144.712 439.311C143.962 439.311 143.28 439.477 142.666 439.811C142.051 440.133 141.567 440.587 141.212 441.17C140.858 441.753 140.681 442.41 140.681 443.139V453.482H137.353V436.514Z" fill="#CD354E"/>
<path d="M154.128 453.826C152.493 453.826 151.06 453.467 149.831 452.748C148.612 452.029 147.675 451.014 147.019 449.701C146.362 448.389 146.034 446.863 146.034 445.123C146.034 443.383 146.362 441.847 147.019 440.514C147.675 439.17 148.597 438.133 149.784 437.404C150.972 436.665 152.342 436.295 153.894 436.295C155.269 436.295 156.524 436.592 157.659 437.186C158.795 437.769 159.706 438.701 160.394 439.982C161.081 441.253 161.425 442.863 161.425 444.811V445.982H147.909V443.498H158.159C158.159 442.633 157.982 441.868 157.628 441.201C157.284 440.524 156.79 439.993 156.144 439.607C155.498 439.222 154.758 439.029 153.925 439.029C153.019 439.029 152.222 439.248 151.534 439.686C150.847 440.123 150.31 440.712 149.925 441.451C149.54 442.191 149.347 442.982 149.347 443.826V445.764C149.347 446.878 149.545 447.837 149.941 448.639C150.347 449.441 150.909 450.05 151.628 450.467C152.357 450.883 153.196 451.092 154.144 451.092C154.748 451.092 155.295 451.008 155.784 450.842C156.274 450.665 156.691 450.446 157.034 450.186C157.378 449.915 157.644 449.597 157.831 449.232H161.222C160.972 450.149 160.524 450.951 159.878 451.639C159.232 452.326 158.415 452.863 157.425 453.248C156.446 453.633 155.347 453.826 154.128 453.826Z" fill="#CD354E"/>
<path d="M173.356 445.795C173.085 445.795 172.236 445.847 170.809 445.951L169.122 446.076C167.997 446.16 167.122 446.42 166.497 446.857C165.882 447.295 165.575 447.92 165.575 448.732C165.575 449.264 165.71 449.712 165.981 450.076C166.252 450.43 166.632 450.706 167.122 450.904C167.611 451.092 168.169 451.186 168.794 451.186C169.679 451.186 170.445 451.014 171.091 450.67C171.747 450.316 172.252 449.847 172.606 449.264C172.96 448.67 173.138 448.035 173.138 447.357L173.122 442.014C173.122 441.368 172.992 440.821 172.731 440.373C172.481 439.915 172.096 439.571 171.575 439.342C171.054 439.102 170.419 438.982 169.669 438.982C168.721 438.982 167.945 439.18 167.341 439.576C166.747 439.962 166.361 440.482 166.184 441.139H162.841C162.955 440.191 163.309 439.352 163.903 438.623C164.497 437.894 165.299 437.326 166.309 436.92C167.32 436.503 168.476 436.295 169.778 436.295C170.872 436.295 171.908 436.462 172.888 436.795C173.877 437.118 174.716 437.722 175.403 438.607C176.091 439.482 176.434 440.686 176.434 442.217V453.482H173.2V451.154H173.075C172.846 451.623 172.513 452.061 172.075 452.467C171.638 452.873 171.075 453.206 170.388 453.467C169.71 453.727 168.929 453.857 168.044 453.857C166.95 453.857 165.971 453.654 165.106 453.248C164.242 452.842 163.559 452.248 163.059 451.467C162.559 450.686 162.309 449.764 162.309 448.701C162.309 446.93 162.903 445.67 164.091 444.92C165.289 444.17 166.809 443.738 168.653 443.623C168.903 443.592 169.893 443.529 171.622 443.436L173.325 443.373L173.356 445.795Z" fill="#CD354E"/>
<path d="M186.803 439.17H177.522V436.514H186.803V439.17ZM183.366 432.451V448.498C183.366 449.102 183.454 449.566 183.631 449.889C183.808 450.212 184.043 450.436 184.334 450.561C184.626 450.686 184.975 450.748 185.381 450.748C185.881 450.748 186.439 450.727 187.053 450.686V453.561C186.459 453.654 185.772 453.701 184.991 453.701C184.084 453.701 183.251 453.535 182.491 453.201C181.741 452.857 181.136 452.347 180.678 451.67C180.23 450.982 180.006 450.149 180.006 449.17V432.451H183.366Z" fill="#CD354E"/>
<path d="M195.469 453.826C193.885 453.826 192.49 453.462 191.281 452.732C190.083 452.003 189.156 450.977 188.5 449.654C187.844 448.331 187.516 446.805 187.516 445.076C187.516 443.326 187.844 441.79 188.5 440.467C189.156 439.144 190.083 438.118 191.281 437.389C192.49 436.66 193.885 436.295 195.469 436.295C197.042 436.295 198.427 436.66 199.625 437.389C200.823 438.118 201.745 439.144 202.391 440.467C203.036 441.79 203.359 443.326 203.359 445.076C203.359 446.805 203.036 448.331 202.391 449.654C201.745 450.977 200.823 452.003 199.625 452.732C198.427 453.462 197.042 453.826 195.469 453.826ZM195.469 451.045C196.469 451.045 197.307 450.779 197.984 450.248C198.661 449.706 199.167 448.988 199.5 448.092C199.833 447.186 200 446.175 200 445.061C200 443.946 199.833 442.936 199.5 442.029C199.167 441.123 198.661 440.404 197.984 439.873C197.307 439.331 196.469 439.061 195.469 439.061C194.469 439.061 193.625 439.331 192.938 439.873C192.25 440.404 191.734 441.123 191.391 442.029C191.047 442.936 190.875 443.946 190.875 445.061C190.875 446.175 191.047 447.186 191.391 448.092C191.734 448.988 192.25 449.706 192.938 450.248C193.625 450.779 194.469 451.045 195.469 451.045Z" fill="#CD354E"/>
<path d="M205.103 436.514H208.322V439.232H208.509C208.811 438.295 209.353 437.566 210.134 437.045C210.916 436.514 211.796 436.248 212.775 436.248C213.296 436.248 213.775 436.279 214.212 436.342V439.529C214.077 439.477 213.832 439.43 213.478 439.389C213.124 439.337 212.785 439.311 212.462 439.311C211.712 439.311 211.03 439.477 210.416 439.811C209.801 440.133 209.317 440.587 208.962 441.17C208.608 441.753 208.431 442.41 208.431 443.139V453.482H205.103V436.514Z" fill="#CD354E"/>
<path d="M109.002 759.071V756.055H114.408C116.117 756.055 117.538 755.732 118.674 755.086C119.809 754.441 120.658 753.503 121.221 752.274C121.794 751.034 122.08 749.519 122.08 747.727C122.08 745.956 121.799 744.456 121.236 743.227C120.684 741.987 119.851 741.05 118.736 740.415C117.632 739.779 116.257 739.461 114.611 739.461H108.877V736.446H114.814C117.033 736.446 118.939 736.894 120.533 737.79C122.137 738.685 123.361 739.982 124.205 741.68C125.059 743.378 125.486 745.394 125.486 747.727C125.486 750.081 125.054 752.107 124.189 753.805C123.335 755.503 122.09 756.805 120.455 757.711C118.83 758.618 116.882 759.071 114.611 759.071H109.002ZM110.705 759.071H107.268V736.446H110.705V759.071Z" fill="#CD354E"/>
<path d="M134.808 759.415C133.173 759.415 131.74 759.055 130.511 758.336C129.293 757.618 128.355 756.602 127.699 755.29C127.043 753.977 126.714 752.451 126.714 750.711C126.714 748.972 127.043 747.435 127.699 746.102C128.355 744.758 129.277 743.722 130.464 742.993C131.652 742.253 133.022 741.883 134.574 741.883C135.949 741.883 137.204 742.18 138.339 742.774C139.475 743.357 140.386 744.29 141.074 745.571C141.761 746.842 142.105 748.451 142.105 750.399V751.571H128.589V749.086H138.839C138.839 748.222 138.662 747.456 138.308 746.79C137.964 746.112 137.47 745.581 136.824 745.196C136.178 744.81 135.438 744.618 134.605 744.618C133.699 744.618 132.902 744.836 132.214 745.274C131.527 745.711 130.99 746.3 130.605 747.04C130.22 747.779 130.027 748.571 130.027 749.415V751.352C130.027 752.467 130.225 753.425 130.621 754.227C131.027 755.029 131.589 755.639 132.308 756.055C133.037 756.472 133.876 756.68 134.824 756.68C135.428 756.68 135.975 756.597 136.464 756.43C136.954 756.253 137.371 756.034 137.714 755.774C138.058 755.503 138.324 755.185 138.511 754.821H141.902C141.652 755.737 141.204 756.54 140.558 757.227C139.912 757.915 139.095 758.451 138.105 758.836C137.126 759.222 136.027 759.415 134.808 759.415Z" fill="#CD354E"/>
<path d="M153.318 746.727C153.161 746.019 152.807 745.472 152.255 745.086C151.713 744.701 150.995 744.508 150.099 744.508C149.474 744.508 148.911 744.607 148.411 744.805C147.922 744.993 147.531 745.264 147.239 745.618C146.958 745.961 146.818 746.352 146.818 746.79C146.818 747.29 147.036 747.722 147.474 748.086C147.911 748.451 148.583 748.732 149.489 748.93L152.193 749.555C153.755 749.909 154.922 750.467 155.693 751.227C156.463 751.977 156.849 752.951 156.849 754.149C156.849 755.17 156.568 756.081 156.005 756.883C155.453 757.675 154.656 758.295 153.614 758.743C152.573 759.191 151.333 759.415 149.896 759.415C148.552 759.415 147.39 759.222 146.411 758.836C145.432 758.441 144.651 757.873 144.068 757.133C143.495 756.383 143.135 755.487 142.989 754.446H146.411C146.568 755.196 146.932 755.764 147.505 756.149C148.088 756.534 148.875 756.727 149.864 756.727C150.573 756.727 151.193 756.639 151.724 756.461C152.265 756.274 152.682 756.003 152.974 755.649C153.276 755.295 153.427 754.883 153.427 754.415C153.427 753.862 153.213 753.404 152.786 753.04C152.37 752.675 151.708 752.399 150.802 752.211L148.161 751.618C146.63 751.274 145.469 750.706 144.677 749.915C143.885 749.123 143.495 748.144 143.505 746.977C143.505 745.977 143.776 745.092 144.318 744.321C144.87 743.55 145.64 742.951 146.63 742.524C147.62 742.097 148.771 741.883 150.083 741.883C151.312 741.883 152.396 742.086 153.333 742.493C154.271 742.889 155.01 743.451 155.552 744.18C156.094 744.909 156.411 745.758 156.505 746.727H153.318Z" fill="#CD354E"/>
<path d="M158.546 742.102H161.874V759.071H158.546V742.102ZM160.202 739.477C159.827 739.477 159.478 739.394 159.155 739.227C158.832 739.05 158.577 738.81 158.389 738.508C158.202 738.196 158.108 737.862 158.108 737.508C158.108 737.144 158.202 736.816 158.389 736.524C158.577 736.222 158.832 735.982 159.155 735.805C159.478 735.628 159.827 735.54 160.202 735.54C160.598 735.54 160.957 735.628 161.28 735.805C161.603 735.982 161.853 736.222 162.03 736.524C162.218 736.816 162.311 737.144 162.311 737.508C162.311 737.862 162.218 738.196 162.03 738.508C161.853 738.81 161.603 739.05 161.28 739.227C160.957 739.394 160.598 739.477 160.202 739.477Z" fill="#CD354E"/>
<path d="M171.461 765.79C170.055 765.79 168.81 765.586 167.727 765.18C166.644 764.784 165.784 764.206 165.149 763.446C164.524 762.685 164.164 761.779 164.071 760.727H167.461C167.628 761.519 168.06 762.112 168.758 762.508C169.467 762.904 170.383 763.102 171.508 763.102C172.883 763.102 173.946 762.795 174.696 762.18C175.446 761.566 175.821 760.612 175.821 759.321V755.993H175.618C175.336 756.503 175.019 756.956 174.664 757.352C174.31 757.737 173.8 758.081 173.133 758.383C172.467 758.675 171.654 758.821 170.696 758.821C169.352 758.821 168.138 758.493 167.055 757.836C165.982 757.18 165.133 756.217 164.508 754.946C163.894 753.675 163.586 752.159 163.586 750.399C163.586 748.639 163.894 747.118 164.508 745.836C165.123 744.545 165.967 743.566 167.039 742.899C168.123 742.222 169.352 741.883 170.727 741.883C171.685 741.883 172.493 742.04 173.149 742.352C173.805 742.665 174.289 743.003 174.602 743.368C174.914 743.732 175.263 744.222 175.649 744.836H175.852V742.102H179.133V759.446C179.133 760.842 178.805 762.014 178.149 762.961C177.493 763.92 176.592 764.628 175.446 765.086C174.3 765.555 172.972 765.79 171.461 765.79ZM171.43 756.055C172.368 756.055 173.17 755.831 173.836 755.383C174.503 754.935 175.008 754.3 175.352 753.477C175.696 752.644 175.868 751.644 175.868 750.477C175.868 749.321 175.696 748.31 175.352 747.446C175.008 746.571 174.503 745.899 173.836 745.43C173.18 744.961 172.378 744.727 171.43 744.727C170.482 744.727 169.675 744.977 169.008 745.477C168.342 745.967 167.836 746.649 167.493 747.524C167.149 748.389 166.977 749.373 166.977 750.477C166.977 751.592 167.149 752.571 167.493 753.415C167.836 754.248 168.342 754.899 169.008 755.368C169.675 755.826 170.482 756.055 171.43 756.055Z" fill="#CD354E"/>
<path d="M184.924 759.071H181.596V742.102H184.783V744.868H185.002C185.419 743.92 186.044 743.185 186.877 742.665C187.721 742.144 188.768 741.883 190.018 741.883C191.184 741.883 192.195 742.128 193.049 742.618C193.913 743.097 194.58 743.816 195.049 744.774C195.528 745.732 195.768 746.899 195.768 748.274V759.071H192.439V748.665C192.439 747.852 192.299 747.154 192.018 746.571C191.736 745.987 191.33 745.545 190.799 745.243C190.268 744.93 189.622 744.774 188.861 744.774C188.09 744.774 187.408 744.941 186.814 745.274C186.221 745.597 185.757 746.081 185.424 746.727C185.09 747.362 184.924 748.123 184.924 749.008V759.071Z" fill="#CD354E"/>
<path d="M205.558 759.415C203.923 759.415 202.49 759.055 201.261 758.336C200.043 757.618 199.105 756.602 198.449 755.29C197.793 753.977 197.464 752.451 197.464 750.711C197.464 748.972 197.793 747.435 198.449 746.102C199.105 744.758 200.027 743.722 201.214 742.993C202.402 742.253 203.772 741.883 205.324 741.883C206.699 741.883 207.954 742.18 209.089 742.774C210.225 743.357 211.136 744.29 211.824 745.571C212.511 746.842 212.855 748.451 212.855 750.399V751.571H199.339V749.086H209.589C209.589 748.222 209.412 747.456 209.058 746.79C208.714 746.112 208.22 745.581 207.574 745.196C206.928 744.81 206.188 744.618 205.355 744.618C204.449 744.618 203.652 744.836 202.964 745.274C202.277 745.711 201.74 746.3 201.355 747.04C200.97 747.779 200.777 748.571 200.777 749.415V751.352C200.777 752.467 200.975 753.425 201.371 754.227C201.777 755.029 202.339 755.639 203.058 756.055C203.787 756.472 204.626 756.68 205.574 756.68C206.178 756.68 206.725 756.597 207.214 756.43C207.704 756.253 208.121 756.034 208.464 755.774C208.808 755.503 209.074 755.185 209.261 754.821H212.652C212.402 755.737 211.954 756.54 211.308 757.227C210.662 757.915 209.845 758.451 208.855 758.836C207.876 759.222 206.777 759.415 205.558 759.415Z" fill="#CD354E"/>
<path d="M214.552 742.102H217.771V744.821H217.958C218.26 743.883 218.802 743.154 219.583 742.633C220.364 742.102 221.245 741.836 222.224 741.836C222.745 741.836 223.224 741.868 223.661 741.93V745.118C223.526 745.066 223.281 745.019 222.927 744.977C222.573 744.925 222.234 744.899 221.911 744.899C221.161 744.899 220.479 745.066 219.864 745.399C219.25 745.722 218.765 746.175 218.411 746.758C218.057 747.342 217.88 747.998 217.88 748.727V759.071H214.552V742.102Z" fill="#CD354E"/>
<circle cx="164.543" cy="179.466" r="6.4397" fill="white"/>
<circle cx="164.543" cy="467.733" r="6.4397" fill="#CD354E"/>
<circle cx="164.543" cy="723.058" r="6.4397" fill="#CD354E"/>
<rect x="164.043" y="185.905" width="1" height="143.14" fill="white"/>
<rect x="164.043" y="577.11" width="1" height="139.508" fill="#CD354E"/>
<rect x="164.043" y="329.045" width="1" height="88.2826" fill="#CD354E"/>
<rect x="164.043" y="488.828" width="1" height="88.2826" fill="#CD354E"/>
</svg>
