<svg width="624" height="623" viewBox="0 0 624 623" fill="none" xmlns="http://www.w3.org/2000/svg">
<circle cx="164.235" cy="458.694" r="163.735" stroke="#CD354E"/>
<circle cx="459.564" cy="458.694" r="163.735" fill="#CD354E" stroke="#CD354E"/>
<circle cx="459.564" cy="164.235" r="163.735" stroke="#CD354E"/>
<circle cx="164.235" cy="164.235" r="163.735" stroke="#CD354E"/>
<path d="M276.329 150.394H274.031V136.035H276.329V150.394ZM274.678 144.046H270.502V142.065H274.678V144.046ZM271.403 149.606H269.143V136.479H271.403V149.606ZM268.305 140.542H256.803V138.638H268.305V140.542ZM262.58 141.621C263.536 141.621 264.387 141.782 265.132 142.104C265.885 142.417 266.469 142.874 266.884 143.475C267.298 144.067 267.506 144.757 267.506 145.544C267.506 146.306 267.298 146.983 266.884 147.575C266.469 148.159 265.885 148.616 265.132 148.946C264.387 149.268 263.536 149.429 262.58 149.429C261.649 149.429 260.811 149.268 260.066 148.946C259.321 148.616 258.742 148.159 258.327 147.575C257.912 146.983 257.705 146.306 257.705 145.544C257.705 144.757 257.912 144.067 258.327 143.475C258.742 142.874 259.317 142.417 260.053 142.104C260.79 141.782 261.632 141.621 262.58 141.621ZM262.58 143.373C262.047 143.373 261.573 143.462 261.158 143.64C260.752 143.809 260.43 144.059 260.193 144.389C259.965 144.719 259.85 145.104 259.85 145.544C259.85 145.959 259.965 146.327 260.193 146.648C260.43 146.97 260.752 147.22 261.158 147.397C261.573 147.575 262.047 147.664 262.58 147.664C263.122 147.664 263.6 147.575 264.014 147.397C264.429 147.22 264.751 146.97 264.979 146.648C265.208 146.327 265.322 145.959 265.322 145.544C265.322 145.104 265.208 144.719 264.979 144.389C264.751 144.059 264.429 143.809 264.014 143.64C263.6 143.462 263.122 143.373 262.58 143.373ZM263.773 139.831H261.374V136.226H263.773V139.831ZM268.724 150.724C270.341 150.724 271.725 150.88 272.876 151.193C274.035 151.507 274.92 151.968 275.529 152.577C276.147 153.178 276.456 153.91 276.456 154.773C276.456 155.603 276.147 156.318 275.529 156.919C274.92 157.52 274.031 157.977 272.863 158.29C271.704 158.603 270.324 158.76 268.724 158.76C267.125 158.76 265.745 158.603 264.586 158.29C263.426 157.977 262.538 157.52 261.92 156.919C261.31 156.318 261.006 155.603 261.006 154.773C261.006 153.91 261.31 153.178 261.92 152.577C262.538 151.968 263.426 151.507 264.586 151.193C265.745 150.88 267.125 150.724 268.724 150.724ZM268.724 152.59C267.59 152.573 266.625 152.649 265.83 152.818C265.043 152.979 264.442 153.229 264.027 153.567C263.621 153.897 263.418 154.299 263.418 154.773C263.418 155.23 263.621 155.62 264.027 155.941C264.442 156.255 265.047 156.492 265.843 156.652C266.647 156.822 267.607 156.906 268.724 156.906C269.858 156.906 270.819 156.822 271.606 156.652C272.402 156.492 273.007 156.255 273.422 155.941C273.836 155.62 274.044 155.23 274.044 154.773C274.044 154.283 273.836 153.876 273.422 153.555C273.007 153.225 272.402 152.979 271.606 152.818C270.819 152.649 269.858 152.573 268.724 152.59Z" fill="#CD354E"/>
<path d="M243.707 139.679C243.707 141.007 243.44 142.256 242.907 143.424C242.382 144.592 241.629 145.607 240.647 146.471C239.674 147.334 238.532 147.986 237.22 148.426L235.963 146.534C237.139 146.179 238.159 145.654 239.022 144.96C239.894 144.257 240.563 143.453 241.028 142.548C241.502 141.634 241.739 140.677 241.739 139.679V138.003H243.707V139.679ZM244.177 139.679C244.177 140.618 244.41 141.52 244.875 142.383C245.349 143.246 246.018 144.008 246.881 144.668C247.744 145.32 248.751 145.815 249.902 146.153L248.684 148.045C247.372 147.639 246.225 147.025 245.243 146.204C244.27 145.383 243.517 144.41 242.983 143.284C242.459 142.159 242.196 140.957 242.196 139.679V138.003H244.177V139.679ZM249.204 139.425H236.636V137.482H249.204V139.425ZM254.625 148.362H252.226V136.035H254.625V148.362ZM242.12 151.98H252.238V149.429H254.625V158.506H239.733V149.429H242.12V151.98ZM252.238 156.551V153.872H242.12V156.551H252.238Z" fill="#CD354E"/>
<path d="M226.439 140.187H211.725V138.231H226.439V140.187ZM230.286 155.713H209.541V153.732H230.286V155.713ZM219.812 154.761H217.438V145.709H219.812V154.761ZM227.95 140.758C227.941 142.628 227.886 144.321 227.785 145.836C227.691 147.342 227.463 149.094 227.099 151.092L224.649 150.825C225.03 148.946 225.271 147.249 225.372 145.734C225.482 144.211 225.537 142.556 225.537 140.771V140.466V138.231H227.95V140.466V140.758Z" fill="#CD354E"/>
<path d="M199.619 139.399H189.577V137.406H199.619V139.399ZM195.239 147.893H192.852V142.396H195.239V147.893ZM201.041 138.98C201.032 140.03 200.994 140.995 200.926 141.875C200.859 142.755 200.702 143.737 200.457 144.82L198.083 144.63C198.32 143.47 198.468 142.455 198.527 141.583C198.595 140.703 198.629 139.746 198.629 138.714V137.406H201.041V138.714V138.98ZM206.373 150.152H203.91V136.035H206.373V150.152ZM209.521 144.084H205.281V142.065H209.521V144.084ZM188.358 146.801C191.075 146.801 193.601 146.758 195.937 146.674C198.273 146.581 200.457 146.399 202.488 146.128L202.615 147.867C200.491 148.223 198.222 148.464 195.81 148.591C193.407 148.718 190.939 148.781 188.409 148.781L188.18 146.801H188.358ZM198.857 150.419C200.448 150.419 201.819 150.584 202.97 150.914C204.121 151.236 205.002 151.71 205.611 152.336C206.229 152.954 206.538 153.686 206.538 154.532C206.538 155.412 206.229 156.166 205.611 156.792C205.002 157.418 204.121 157.896 202.97 158.227C201.819 158.557 200.448 158.722 198.857 158.722C197.266 158.722 195.895 158.557 194.744 158.227C193.593 157.896 192.708 157.418 192.09 156.792C191.473 156.166 191.164 155.412 191.164 154.532C191.164 153.686 191.473 152.954 192.09 152.336C192.708 151.71 193.597 151.236 194.756 150.914C195.916 150.584 197.283 150.419 198.857 150.419ZM198.857 152.285C197.782 152.285 196.843 152.374 196.039 152.552C195.243 152.721 194.638 152.979 194.223 153.326C193.809 153.665 193.601 154.067 193.601 154.532C193.601 155.023 193.809 155.442 194.223 155.789C194.638 156.128 195.239 156.386 196.026 156.563C196.813 156.741 197.757 156.83 198.857 156.83C199.957 156.83 200.897 156.741 201.675 156.563C202.463 156.386 203.063 156.128 203.478 155.789C203.893 155.442 204.1 155.023 204.1 154.532C204.1 154.067 203.893 153.665 203.478 153.326C203.063 152.979 202.463 152.721 201.675 152.552C200.888 152.374 199.949 152.285 198.857 152.285Z" fill="#CD354E"/>
<path d="M185.405 150.406C185.083 150.406 184.783 150.322 184.504 150.152C184.224 149.983 184.004 149.763 183.844 149.492C183.691 149.213 183.615 148.912 183.615 148.591C183.615 148.278 183.691 147.981 183.844 147.702C184.004 147.423 184.224 147.207 184.504 147.055C184.783 146.894 185.083 146.813 185.405 146.813C185.718 146.813 186.014 146.894 186.294 147.055C186.573 147.207 186.793 147.423 186.954 147.702C187.115 147.981 187.195 148.278 187.195 148.591C187.195 148.912 187.115 149.213 186.954 149.492C186.793 149.763 186.573 149.983 186.294 150.152C186.014 150.322 185.718 150.406 185.405 150.406Z" fill="#CD354E"/>
<path d="M165.999 146.648C168.293 146.64 170.129 146.598 171.509 146.521C172.888 146.437 174.276 146.285 175.673 146.064L175.914 147.994C174.357 148.248 172.791 148.417 171.217 148.502C169.643 148.578 167.514 148.616 164.831 148.616H162.952V146.648H164.831H165.999ZM173.896 139.641H165.377V147.601H162.952V137.698H173.896V139.641ZM173.248 144.059H164.603V142.129H173.248V144.059ZM180.51 150.051H178.11V136.061H180.51V150.051ZM172.905 150.381C174.488 150.364 175.859 150.521 177.019 150.851C178.178 151.181 179.067 151.659 179.685 152.285C180.311 152.911 180.624 153.669 180.624 154.558C180.624 155.438 180.311 156.191 179.685 156.817C179.067 157.452 178.178 157.935 177.019 158.265C175.868 158.595 174.496 158.76 172.905 158.76C171.297 158.76 169.913 158.595 168.754 158.265C167.594 157.935 166.706 157.452 166.088 156.817C165.47 156.191 165.161 155.438 165.161 154.558C165.161 153.669 165.47 152.911 166.088 152.285C166.706 151.659 167.594 151.181 168.754 150.851C169.913 150.521 171.297 150.364 172.905 150.381ZM172.905 152.26C171.78 152.26 170.815 152.349 170.011 152.526C169.207 152.704 168.597 152.966 168.183 153.313C167.768 153.652 167.561 154.067 167.561 154.558C167.561 155.04 167.768 155.459 168.183 155.814C168.597 156.161 169.207 156.428 170.011 156.614C170.815 156.792 171.78 156.881 172.905 156.881C174.014 156.881 174.966 156.792 175.762 156.614C176.566 156.428 177.179 156.161 177.603 155.814C178.026 155.459 178.237 155.04 178.237 154.558C178.237 154.075 178.026 153.66 177.603 153.313C177.179 152.966 176.566 152.704 175.762 152.526C174.966 152.349 174.014 152.26 172.905 152.26Z" fill="#CD354E"/>
<path d="M150.541 138.701C150.541 140.885 150.287 142.895 149.78 144.731C149.272 146.56 148.383 148.278 147.114 149.886C145.844 151.494 144.113 152.907 141.921 154.126L140.55 152.438C142.48 151.371 144.007 150.157 145.133 148.794C146.259 147.431 147.059 145.954 147.532 144.363C148.006 142.772 148.243 141.016 148.243 139.095V138.701H150.541ZM149.081 140.669H141.667V138.701H149.081V140.669ZM140.88 146.496L140.55 144.389L148.066 143.944V145.76L140.88 146.496ZM153.829 146.877H148.688V144.909H153.829V146.877ZM160.025 158.785H157.74V136.035H160.025V158.785ZM155.226 157.693H152.941V136.619H155.226V157.693Z" fill="#CD354E"/>
<path d="M130.818 153.085H120.179V138.295H130.818V153.085ZM122.528 151.143H128.418V140.199H122.528V151.143ZM137.026 158.785H134.626V136.035H137.026V158.785ZM140.695 147.004H136.48V144.947H140.695V147.004Z" fill="#CD354E"/>
<path d="M96.6521 145.582C98.7595 145.582 100.461 145.544 101.756 145.468C103.051 145.392 104.371 145.248 105.717 145.036L105.907 146.966C104.527 147.177 103.165 147.321 101.819 147.397C100.473 147.465 98.6749 147.499 96.4236 147.499H95.9285H94.2273V145.582H95.9285H96.6521ZM104.625 139.349H96.6267V146.775H94.2273V137.394H104.625V139.349ZM103.977 143.259H95.9285V141.431H103.977V143.259ZM110.185 143.081H105.488V141.151H110.185V143.081ZM112.026 148.261H109.639V136.035H112.026V148.261ZM112.026 154.735H99.6101V157.922H97.198V152.933H109.639V151.117H97.1599V149.213H112.026V154.735ZM112.839 158.569H97.198V156.665H112.839V158.569Z" fill="#CD354E"/>
<path d="M79.8232 142.751C79.8232 144.384 79.5397 145.984 78.9727 147.55C78.4056 149.107 77.627 150.495 76.6367 151.714C75.6465 152.924 74.5251 153.834 73.2725 154.443L71.8506 152.552C72.9762 152.01 73.9961 151.219 74.9102 150.178C75.8242 149.128 76.5394 147.956 77.0557 146.661C77.5804 145.358 77.8428 144.054 77.8428 142.751V139.374H79.8232V142.751ZM80.2803 142.751C80.2803 144.004 80.5342 145.248 81.042 146.483C81.5583 147.719 82.2734 148.819 83.1875 149.784C84.11 150.749 85.1468 151.481 86.2979 151.98L84.9648 153.872C83.6784 153.297 82.5316 152.442 81.5244 151.308C80.5257 150.174 79.7471 148.866 79.1885 147.385C78.6383 145.904 78.3633 144.359 78.3633 142.751V139.374H80.2803V142.751ZM85.4854 140.326H72.6504V138.346H85.4854V140.326ZM90.7666 158.785H88.3418V136.035H90.7666V158.785Z" fill="#CD354E"/>
<path d="M69.5959 158.849H67.1711V136.035H69.5959V158.849ZM54.0823 151.193C56.5875 151.193 58.623 151.147 60.1887 151.054C61.7629 150.961 63.3414 150.774 64.9241 150.495L65.1526 152.501C63.5445 152.789 61.9364 152.988 60.3284 153.098C58.7203 153.199 56.6383 153.254 54.0823 153.263H52.1907V151.193H54.0823ZM63.0959 140.148H54.6155V151.98H52.1907V138.155H63.0959V140.148Z" fill="#CD354E"/>
<path d="M524.431 141.177H517.525V139.234H524.431V141.177ZM524.431 146.395H517.525V144.439H524.431V146.395ZM513.437 137.368C514.554 137.351 515.562 137.576 516.459 138.041C517.364 138.507 518.075 139.154 518.592 139.983C519.108 140.813 519.366 141.761 519.366 142.827C519.366 143.868 519.108 144.803 518.592 145.633C518.075 146.462 517.364 147.11 516.459 147.575C515.562 148.032 514.554 148.261 513.437 148.261C512.303 148.261 511.283 148.032 510.378 147.575C509.481 147.11 508.77 146.462 508.245 145.633C507.729 144.803 507.47 143.868 507.47 142.827C507.47 141.761 507.729 140.813 508.245 139.983C508.77 139.154 509.481 138.507 510.378 138.041C511.283 137.576 512.303 137.351 513.437 137.368ZM513.437 139.438C512.726 139.429 512.092 139.569 511.533 139.856C510.983 140.136 510.551 140.534 510.238 141.05C509.925 141.558 509.768 142.15 509.768 142.827C509.768 143.487 509.925 144.076 510.238 144.592C510.551 145.1 510.983 145.497 511.533 145.785C512.092 146.073 512.726 146.217 513.437 146.217C514.131 146.217 514.749 146.073 515.291 145.785C515.841 145.497 516.273 145.1 516.586 144.592C516.899 144.076 517.055 143.487 517.055 142.827C517.055 142.15 516.899 141.558 516.586 141.05C516.273 140.534 515.841 140.136 515.291 139.856C514.749 139.569 514.131 139.429 513.437 139.438ZM526.107 149.467H523.695V136.035H526.107V149.467ZM518.477 149.987C520.06 149.987 521.427 150.161 522.578 150.508C523.737 150.846 524.626 151.346 525.244 152.006C525.87 152.658 526.183 153.445 526.183 154.367C526.183 155.281 525.87 156.068 525.244 156.729C524.626 157.389 523.737 157.892 522.578 158.239C521.427 158.586 520.06 158.76 518.477 158.76C516.903 158.76 515.536 158.586 514.377 158.239C513.226 157.892 512.341 157.389 511.723 156.729C511.106 156.068 510.797 155.281 510.797 154.367C510.797 153.445 511.106 152.658 511.723 152.006C512.341 151.346 513.226 150.846 514.377 150.508C515.536 150.161 516.903 149.987 518.477 149.987ZM518.477 151.841C517.386 151.841 516.438 151.942 515.634 152.146C514.83 152.34 514.216 152.628 513.793 153.009C513.37 153.381 513.158 153.834 513.158 154.367C513.158 154.883 513.37 155.328 513.793 155.7C514.216 156.073 514.83 156.36 515.634 156.563C516.438 156.758 517.386 156.855 518.477 156.855C519.594 156.855 520.555 156.758 521.359 156.563C522.163 156.36 522.773 156.073 523.187 155.7C523.61 155.328 523.822 154.883 523.822 154.367C523.822 153.826 523.61 153.368 523.187 152.996C522.773 152.624 522.163 152.34 521.359 152.146C520.555 151.942 519.594 151.841 518.477 151.841Z" fill="#CD354E"/>
<path d="M506.765 149.403H485.944V147.448H506.765V149.403ZM497.751 153.821H495.313V148.705H497.751V153.821ZM504.454 158.341H488.56V156.322H504.454V158.341ZM490.984 156.894H488.56V151.625H490.984V156.894ZM496.342 136.568C497.967 136.568 499.384 136.759 500.595 137.14C501.813 137.521 502.753 138.058 503.413 138.752C504.082 139.446 504.416 140.263 504.416 141.202C504.416 142.133 504.082 142.946 503.413 143.64C502.753 144.325 501.813 144.854 500.595 145.227C499.384 145.599 497.967 145.785 496.342 145.785C494.725 145.785 493.303 145.599 492.076 145.227C490.857 144.854 489.91 144.325 489.232 143.64C488.564 142.946 488.229 142.133 488.229 141.202C488.229 140.263 488.564 139.446 489.232 138.752C489.91 138.058 490.857 137.521 492.076 137.14C493.303 136.759 494.725 136.568 496.342 136.568ZM496.342 138.511C495.242 138.511 494.272 138.621 493.435 138.841C492.597 139.052 491.949 139.361 491.492 139.768C491.044 140.165 490.819 140.644 490.819 141.202C490.819 141.744 491.044 142.214 491.492 142.611C491.949 143.001 492.597 143.305 493.435 143.525C494.272 143.737 495.242 143.843 496.342 143.843C497.451 143.843 498.42 143.737 499.249 143.525C500.078 143.305 500.717 143.001 501.166 142.611C501.623 142.214 501.852 141.744 501.852 141.202C501.852 140.644 501.623 140.165 501.166 139.768C500.717 139.361 500.078 139.052 499.249 138.841C498.42 138.621 497.451 138.511 496.342 138.511Z" fill="#CD354E"/>
<path d="M463.496 146.268H461.084V137.102H463.496V146.268ZM462.862 144.896C464.791 144.888 466.556 144.825 468.156 144.706C469.755 144.579 471.368 144.363 472.993 144.059L473.348 146.039C471.613 146.361 469.912 146.589 468.245 146.725C466.577 146.86 464.783 146.919 462.862 146.902H461.084V144.896H462.862ZM476.839 141.608H470.073V139.666H476.839V141.608ZM478.718 147.74H476.306V136.035H478.718V147.74ZM478.718 154.431H466.289V157.617H463.89V152.577H476.293V150.647H463.852V148.718H478.718V154.431ZM479.454 158.506H463.89V156.551H479.454V158.506Z" fill="#CD354E"/>
<path d="M444.966 142.992C444.966 144.541 444.763 146.048 444.357 147.512C443.951 148.976 443.358 150.292 442.58 151.46C441.801 152.619 440.853 153.517 439.736 154.151L438.327 152.374C439.342 151.79 440.21 150.999 440.929 150C441.649 149.001 442.19 147.897 442.554 146.687C442.927 145.476 443.113 144.245 443.113 142.992V141.951H444.966V142.992ZM445.385 142.992C445.385 144.202 445.567 145.383 445.931 146.534C446.304 147.677 446.854 148.718 447.582 149.657C448.31 150.597 449.186 151.337 450.21 151.879L448.826 153.669C447.709 153.06 446.752 152.205 445.957 151.104C445.161 150.004 444.56 148.76 444.154 147.372C443.756 145.976 443.557 144.516 443.557 142.992V141.951H445.385V142.992ZM449.537 142.154H438.936V140.174H449.537V142.154ZM445.398 141.659H443.113V136.86H445.398V141.659ZM458.233 158.785H455.91V136.035H458.233V158.785ZM456.76 147.118H452.533V145.1H456.76V147.118ZM453.206 157.668H450.921V136.467H453.206V157.668Z" fill="#CD354E"/>
<path d="M429.641 140.098H424.639V138.219H429.641V140.098ZM429.641 144.16H424.639V142.243H429.641V144.16ZM431.329 147.943H428.917V136.035H431.329V147.943ZM431.329 154.532H418.875V157.858H416.501V152.742H428.942V150.851H416.463V148.959H431.329V154.532ZM432.104 158.506H416.501V156.602H432.104V158.506ZM419.878 138.93C419.878 140.292 419.624 141.587 419.116 142.814C418.608 144.033 417.876 145.1 416.92 146.014C415.972 146.919 414.859 147.601 413.581 148.058L412.299 146.191C413.458 145.811 414.465 145.248 415.32 144.503C416.175 143.75 416.831 142.891 417.288 141.926C417.754 140.961 417.986 139.962 417.986 138.93V136.619H419.878V138.93ZM420.373 138.93C420.373 139.903 420.593 140.847 421.033 141.761C421.482 142.675 422.117 143.487 422.938 144.198C423.767 144.909 424.74 145.451 425.857 145.823L424.601 147.677C423.348 147.228 422.256 146.568 421.325 145.696C420.403 144.825 419.688 143.805 419.18 142.637C418.68 141.469 418.431 140.233 418.431 138.93V136.619H420.373V138.93Z" fill="#CD354E"/>
<path d="M412.012 155.903H391.192V153.948H412.012V155.903ZM402.681 154.545H400.294V148.502H402.681V154.545ZM402.325 139.209C402.325 140.775 401.898 142.239 401.043 143.602C400.188 144.964 399.046 146.111 397.615 147.042C396.185 147.965 394.632 148.591 392.956 148.921L391.903 146.928C393.358 146.682 394.721 146.174 395.99 145.404C397.268 144.634 398.288 143.703 399.05 142.611C399.82 141.52 400.205 140.385 400.205 139.209V137.521H402.325V139.209ZM402.744 139.209C402.744 140.394 403.129 141.532 403.9 142.624C404.678 143.707 405.707 144.634 406.985 145.404C408.271 146.174 409.642 146.682 411.098 146.928L410.044 148.921C408.36 148.582 406.803 147.956 405.372 147.042C403.942 146.119 402.799 144.981 401.945 143.627C401.098 142.273 400.675 140.8 400.675 139.209V137.521H402.744V139.209Z" fill="#CD354E"/>
<path d="M270.926 470.429C273.219 470.42 275.056 470.378 276.435 470.302C277.815 470.217 279.203 470.065 280.599 469.845L280.841 471.774C279.283 472.028 277.718 472.198 276.143 472.282C274.569 472.358 272.441 472.396 269.758 472.396H267.879V470.429H269.758H270.926ZM278.822 463.421H270.303V471.381H267.879V461.479H278.822V463.421ZM278.175 467.839H269.529V465.909H278.175V467.839ZM285.436 473.831H283.037V459.841H285.436V473.831ZM277.832 474.161C279.414 474.144 280.786 474.301 281.945 474.631C283.105 474.961 283.993 475.439 284.611 476.065C285.237 476.692 285.551 477.449 285.551 478.338C285.551 479.218 285.237 479.971 284.611 480.598C283.993 481.232 283.105 481.715 281.945 482.045C280.794 482.375 279.423 482.54 277.832 482.54C276.224 482.54 274.84 482.375 273.68 482.045C272.521 481.715 271.632 481.232 271.014 480.598C270.397 479.971 270.088 479.218 270.088 478.338C270.088 477.449 270.397 476.692 271.014 476.065C271.632 475.439 272.521 474.961 273.68 474.631C274.84 474.301 276.224 474.144 277.832 474.161ZM277.832 476.04C276.706 476.04 275.741 476.129 274.937 476.307C274.133 476.484 273.524 476.747 273.109 477.094C272.694 477.432 272.487 477.847 272.487 478.338C272.487 478.82 272.694 479.239 273.109 479.595C273.524 479.942 274.133 480.208 274.937 480.395C275.741 480.572 276.706 480.661 277.832 480.661C278.941 480.661 279.893 480.572 280.688 480.395C281.492 480.208 282.106 479.942 282.529 479.595C282.952 479.239 283.164 478.82 283.164 478.338C283.164 477.855 282.952 477.441 282.529 477.094C282.106 476.747 281.492 476.484 280.688 476.307C279.893 476.129 278.941 476.04 277.832 476.04Z" fill="#CD354E"/>
<path d="M255.468 462.481C255.468 464.665 255.214 466.675 254.706 468.512C254.198 470.34 253.31 472.058 252.04 473.666C250.771 475.274 249.04 476.688 246.848 477.906L245.477 476.218C247.406 475.151 248.934 473.937 250.06 472.574C251.185 471.212 251.985 469.735 252.459 468.144C252.933 466.552 253.17 464.796 253.17 462.875V462.481H255.468ZM254.008 464.449H246.594V462.481H254.008V464.449ZM245.807 470.276L245.477 468.169L252.992 467.725V469.54L245.807 470.276ZM258.756 470.657H253.614V468.689H258.756V470.657ZM264.951 482.565H262.666V459.815H264.951V482.565ZM260.152 481.474H257.867V460.399H260.152V481.474Z" fill="#CD354E"/>
<path d="M235.744 476.865H225.106V462.075H235.744V476.865ZM227.454 474.923H233.345V463.979H227.454V474.923ZM241.952 482.565H239.553V459.815H241.952V482.565ZM245.621 470.784H241.406V468.728H245.621V470.784Z" fill="#CD354E"/>
<path d="M216.991 482.629H214.591V459.815H216.991V482.629ZM215.29 470.111H208.79V468.131H215.29V470.111ZM201.325 467.395H207.203V461.605H209.564V476.979H198.9V461.605H201.325V467.395ZM207.203 475.024V469.312H201.325V475.024H207.203Z" fill="#CD354E"/>
<path d="M197.635 475.469H176.815V473.463H197.635V475.469ZM195.338 471.355H179.545V469.413H195.338V471.355ZM195.084 462.773H181.931V469.972H179.545V460.844H195.084V462.773ZM194.563 466.963H181.246V465.071H194.563V466.963ZM184.483 482.565H182.071V474.479H184.483V482.565ZM192.392 482.565H189.98V474.479H192.392V482.565Z" fill="#CD354E"/>
<path d="M163.312 482.565H160.824V473.971H163.312V482.565ZM171.184 482.565H168.746V473.971H171.184V482.565ZM176.465 474.656H155.645V472.688H176.465V474.656ZM166.004 460.679C167.604 460.679 169.017 460.886 170.244 461.301C171.471 461.707 172.419 462.291 173.088 463.053C173.765 463.806 174.104 464.69 174.104 465.706C174.104 466.696 173.765 467.568 173.088 468.321C172.419 469.066 171.471 469.642 170.244 470.048C169.017 470.454 167.604 470.657 166.004 470.657C164.404 470.657 162.995 470.454 161.776 470.048C160.558 469.642 159.605 469.066 158.92 468.321C158.243 467.568 157.904 466.696 157.904 465.706C157.904 464.69 158.243 463.806 158.92 463.053C159.597 462.291 160.545 461.707 161.764 461.301C162.991 460.886 164.404 460.679 166.004 460.679ZM166.004 462.634C164.878 462.634 163.892 462.757 163.046 463.002C162.2 463.247 161.544 463.603 161.078 464.068C160.621 464.534 160.393 465.08 160.393 465.706C160.393 466.324 160.621 466.861 161.078 467.318C161.544 467.767 162.2 468.118 163.046 468.372C163.892 468.618 164.878 468.74 166.004 468.74C167.13 468.74 168.12 468.618 168.975 468.372C169.829 468.118 170.485 467.767 170.942 467.318C171.408 466.861 171.641 466.324 171.641 465.706C171.641 465.08 171.408 464.534 170.942 464.068C170.485 463.603 169.829 463.247 168.975 463.002C168.12 462.757 167.13 462.634 166.004 462.634Z" fill="#CD354E"/>
<path d="M149.848 483.188H147.461L153.377 461.174H155.789L149.848 483.188Z" fill="#CD354E"/>
<path d="M144.572 469.337H138.288V467.395H144.572V469.337ZM134.53 465.604C134.53 467.348 134.267 469.032 133.743 470.657C133.218 472.274 132.477 473.708 131.521 474.961C130.565 476.214 129.456 477.174 128.195 477.843L126.659 475.888C127.818 475.338 128.842 474.525 129.731 473.45C130.628 472.367 131.322 471.14 131.813 469.769C132.304 468.397 132.549 467.009 132.549 465.604V461.707H134.53V465.604ZM135 465.604C135 467.001 135.241 468.359 135.723 469.68C136.214 470.992 136.895 472.16 137.767 473.184C138.647 474.199 139.654 474.965 140.789 475.481L139.341 477.437C138.072 476.785 136.963 475.862 136.015 474.669C135.076 473.467 134.344 472.088 133.819 470.53C133.303 468.965 133.044 467.323 133.044 465.604V461.707H135V465.604ZM145.765 482.629H143.366V459.815H145.765V482.629Z" fill="#CD354E"/>
<path d="M123.21 468.029H117.053V466.049H123.21V468.029ZM124.582 476.561H122.169V459.841H124.582V476.561ZM125.191 482.121H109.804V480.128H125.191V482.121ZM112.229 481.029H109.804V474.859H112.229V481.029ZM111.912 461.275C113.02 461.275 114.023 461.517 114.92 461.999C115.818 462.481 116.528 463.15 117.053 464.005C117.578 464.86 117.84 465.837 117.84 466.938C117.84 468.021 117.578 468.994 117.053 469.857C116.528 470.721 115.818 471.398 114.92 471.889C114.023 472.38 113.02 472.625 111.912 472.625C110.778 472.625 109.758 472.384 108.852 471.901C107.955 471.419 107.244 470.742 106.719 469.87C106.203 468.998 105.945 468.021 105.945 466.938C105.945 465.837 106.203 464.855 106.719 463.992C107.244 463.129 107.955 462.46 108.852 461.986C109.758 461.512 110.778 461.275 111.912 461.275ZM111.912 463.383C111.218 463.383 110.591 463.535 110.033 463.84C109.483 464.136 109.047 464.555 108.725 465.097C108.403 465.63 108.243 466.243 108.243 466.938C108.243 467.623 108.403 468.241 108.725 468.791C109.047 469.333 109.483 469.76 110.033 470.073C110.591 470.378 111.218 470.535 111.912 470.543C112.589 470.535 113.202 470.378 113.752 470.073C114.311 469.76 114.747 469.333 115.06 468.791C115.373 468.241 115.53 467.623 115.53 466.938C115.53 466.243 115.373 465.63 115.06 465.097C114.747 464.555 114.311 464.136 113.752 463.84C113.202 463.535 112.589 463.383 111.912 463.383Z" fill="#CD354E"/>
<path d="M102.763 466.861H89.3699V470.632H86.9451V465.008H100.301V462.621H86.8943V460.666H102.763V466.861ZM103.259 471.419H86.9451V469.464H103.259V471.419ZM105.239 475.52H84.4187V473.59H105.239V475.52ZM95.9841 482.629H93.5847V474.288H95.9841V482.629Z" fill="#CD354E"/>
<path d="M82.0752 462.367H65.1777V460.501H82.0752V462.367ZM81.9736 468.131H65.2793V466.277H81.9736V468.131ZM70.8906 467.509H68.4912V461.212H70.8906V467.509ZM78.7617 467.509H76.3496V461.212H78.7617V467.509ZM84.0176 471.711H63.2734V469.794H84.0176V471.711ZM81.3896 478.681H68.1611V481.245H65.7871V476.979H79.0283V475.278H65.749V473.501H81.3896V478.681ZM82.0498 482.35H65.7871V480.534H82.0498V482.35Z" fill="#CD354E"/>
<path d="M60.968 476.383H58.5686V459.841H60.968V476.383ZM61.6536 482.121H46.1018V480.128H61.6536V482.121ZM48.5139 480.852H46.1018V474.707H48.5139V480.852ZM48.6282 461.377C49.7623 461.377 50.7906 461.618 51.7131 462.101C52.6441 462.575 53.372 463.243 53.8967 464.106C54.4215 464.961 54.6838 465.93 54.6838 467.014C54.6838 468.114 54.4215 469.091 53.8967 469.946C53.372 470.801 52.6441 471.47 51.7131 471.952C50.7906 472.435 49.7623 472.676 48.6282 472.676C47.4941 472.676 46.4657 472.435 45.5432 471.952C44.6292 471.47 43.9055 470.801 43.3723 469.946C42.8391 469.091 42.5725 468.114 42.5725 467.014C42.5725 465.93 42.8391 464.961 43.3723 464.106C43.9055 463.243 44.6292 462.575 45.5432 462.101C46.4657 461.618 47.4941 461.377 48.6282 461.377ZM48.6282 463.484C47.9342 463.484 47.3036 463.632 46.7366 463.929C46.1695 464.225 45.7252 464.64 45.4036 465.173C45.0904 465.706 44.9338 466.32 44.9338 467.014C44.9338 467.708 45.0904 468.326 45.4036 468.867C45.7252 469.409 46.1695 469.828 46.7366 470.124C47.3036 470.42 47.9342 470.568 48.6282 470.568C49.3222 470.568 49.9485 470.42 50.5071 470.124C51.0657 469.828 51.5058 469.409 51.8274 468.867C52.149 468.326 52.3098 467.708 52.3098 467.014C52.3098 466.32 52.149 465.706 51.8274 465.173C51.5058 464.64 51.0657 464.225 50.5071 463.929C49.9485 463.632 49.3222 463.484 48.6282 463.484Z" fill="#CD354E"/>
<path d="M520.056 470.429C522.35 470.42 524.187 470.378 525.566 470.302C526.946 470.217 528.334 470.065 529.73 469.845L529.971 471.774C528.414 472.028 526.848 472.198 525.274 472.282C523.7 472.358 521.571 472.396 518.888 472.396H517.01V470.429H518.888H520.056ZM527.953 463.421H519.434V471.381H517.01V461.479H527.953V463.421ZM527.305 467.839H518.66V465.909H527.305V467.839ZM534.567 473.831H532.168V459.841H534.567V473.831ZM526.963 474.161C528.545 474.144 529.916 474.301 531.076 474.631C532.235 474.961 533.124 475.439 533.742 476.065C534.368 476.692 534.681 477.449 534.681 478.338C534.681 479.218 534.368 479.971 533.742 480.598C533.124 481.232 532.235 481.715 531.076 482.045C529.925 482.375 528.554 482.54 526.963 482.54C525.355 482.54 523.971 482.375 522.811 482.045C521.652 481.715 520.763 481.232 520.145 480.598C519.527 479.971 519.219 479.218 519.219 478.338C519.219 477.449 519.527 476.692 520.145 476.065C520.763 475.439 521.652 474.961 522.811 474.631C523.971 474.301 525.355 474.144 526.963 474.161ZM526.963 476.04C525.837 476.04 524.872 476.129 524.068 476.307C523.264 476.484 522.655 476.747 522.24 477.094C521.825 477.432 521.618 477.847 521.618 478.338C521.618 478.82 521.825 479.239 522.24 479.595C522.655 479.942 523.264 480.208 524.068 480.395C524.872 480.572 525.837 480.661 526.963 480.661C528.071 480.661 529.024 480.572 529.819 480.395C530.623 480.208 531.237 479.942 531.66 479.595C532.083 479.239 532.295 478.82 532.295 478.338C532.295 477.855 532.083 477.441 531.66 477.094C531.237 476.747 530.623 476.484 529.819 476.307C529.024 476.129 528.071 476.04 526.963 476.04Z" fill="white"/>
<path d="M504.599 462.481C504.599 464.665 504.345 466.675 503.837 468.512C503.329 470.34 502.44 472.058 501.171 473.666C499.901 475.274 498.171 476.688 495.979 477.906L494.607 476.218C496.537 475.151 498.065 473.937 499.19 472.574C500.316 471.212 501.116 469.735 501.59 468.144C502.064 466.552 502.301 464.796 502.301 462.875V462.481H504.599ZM503.139 464.449H495.725V462.481H503.139V464.449ZM494.938 470.276L494.607 468.169L502.123 467.725V469.54L494.938 470.276ZM507.887 470.657H502.745V468.689H507.887V470.657ZM514.082 482.565H511.797V459.815H514.082V482.565ZM509.283 481.474H506.998V460.399H509.283V481.474Z" fill="white"/>
<path d="M484.875 476.865H474.237V462.075H484.875V476.865ZM476.585 474.923H482.476V463.979H476.585V474.923ZM491.083 482.565H488.684V459.815H491.083V482.565ZM494.752 470.784H490.537V468.728H494.752V470.784Z" fill="white"/>
<path d="M458.276 463.053C458.276 464.644 457.849 466.138 456.994 467.534C456.147 468.922 455.018 470.099 453.604 471.063C452.191 472.028 450.646 472.697 448.97 473.069L447.891 471.051C449.339 470.763 450.697 470.221 451.966 469.426C453.236 468.63 454.252 467.67 455.013 466.544C455.775 465.418 456.156 464.255 456.156 463.053V461.352H458.276V463.053ZM458.695 463.053C458.695 464.246 459.08 465.41 459.85 466.544C460.62 467.678 461.644 468.647 462.922 469.451C464.2 470.247 465.559 470.78 466.998 471.051L465.919 473.069C464.26 472.697 462.724 472.033 461.31 471.076C459.897 470.12 458.763 468.943 457.908 467.547C457.053 466.15 456.626 464.652 456.626 463.053V461.352H458.695V463.053ZM467.963 479.582H447.142V477.589H467.963V479.582Z" fill="white"/>
<path d="M437.575 472.447H427V461.771H437.575V472.447ZM429.399 470.53H435.201V463.726H429.399V470.53ZM444.938 476.434H442.526V459.841H444.938V476.434ZM443.186 468.017H436.864V466.074H443.186V468.017ZM445.548 482.121H430.161V480.128H445.548V482.121ZM432.586 481.08H430.161V474.885H432.586V481.08Z" fill="white"/>
<path d="M425.621 479.849H404.801V477.817H425.621V479.849ZM416.315 478.731H413.941V472.104H416.315V478.731ZM423.717 463.903H406.565V461.936H423.717V463.903ZM423.653 472.955H406.642V471.038H423.653V472.955ZM412.418 471.355H410.019V463.484H412.418V471.355ZM420.251 471.355H417.877V463.484H420.251V471.355Z" fill="white"/>
<path d="M396.846 464.081H384.163V462.088H396.846V464.081ZM384.544 475.075C387.024 475.058 389.335 475.007 391.476 474.923C393.626 474.838 395.631 474.694 397.493 474.491L397.646 476.243C395.581 476.582 393.38 476.806 391.044 476.916C388.717 477.026 386.271 477.081 383.706 477.081L383.478 475.075H384.544ZM388.734 475.608H386.385V463.662H388.734V475.608ZM394.345 475.608H392.022V463.662H394.345V475.608ZM402.61 482.565H400.21V459.815H402.61V482.565ZM401.886 470.276H396.084V468.309H401.886V470.276Z" fill="white"/>
<circle cx="164.235" cy="178.889" r="6.4397" fill="#CD354E"/>
<circle cx="459.564" cy="178.889" r="6.4397" fill="#CD354E"/>
<circle cx="164.235" cy="440.407" r="6.4397" fill="#CD354E"/>
<rect x="170.674" y="178.89" width="287.534" height="1" fill="#CD354E"/>
<rect x="170.674" y="439.407" width="287.534" height="1" fill="#CD354E"/>
<rect x="163.234" y="433.968" width="248.639" height="1" transform="rotate(-90 163.234 433.968)" fill="#CD354E"/>
<rect x="459.063" y="433.968" width="248.639" height="1" transform="rotate(-90 459.063 433.968)" fill="#CD354E"/>
<circle cx="459.564" cy="440.407" r="6.4397" fill="white"/>
</svg>
