<svg width="329" height="905" viewBox="0 0 329 905" fill="none" xmlns="http://www.w3.org/2000/svg">
<circle cx="164.235" cy="452.502" r="163.735" fill="white" stroke="#CD354E"/>
<circle cx="164.235" cy="164.235" r="163.735" fill="white" stroke="#CD354E"/>
<path d="M110.678 142.015L117.865 159.546H118.131L125.318 142.015H129.49V164.64H126.209V148.296H125.99L119.334 164.608H116.631L109.975 148.296H109.787V164.64H106.506V142.015H110.678Z" fill="#CD354E"/>
<path d="M142.468 156.952C142.198 156.952 141.349 157.004 139.921 157.108L138.234 157.233C137.109 157.317 136.234 157.577 135.609 158.015C134.994 158.452 134.687 159.077 134.687 159.89C134.687 160.421 134.823 160.869 135.093 161.233C135.364 161.588 135.744 161.864 136.234 162.062C136.724 162.249 137.281 162.343 137.906 162.343C138.791 162.343 139.557 162.171 140.203 161.827C140.859 161.473 141.364 161.004 141.718 160.421C142.073 159.827 142.25 159.192 142.25 158.515L142.234 153.171C142.234 152.525 142.104 151.978 141.843 151.53C141.593 151.072 141.208 150.728 140.687 150.499C140.166 150.259 139.531 150.14 138.781 150.14C137.833 150.14 137.057 150.338 136.453 150.733C135.859 151.119 135.474 151.64 135.296 152.296H131.953C132.067 151.348 132.421 150.509 133.015 149.78C133.609 149.051 134.411 148.483 135.421 148.077C136.432 147.66 137.588 147.452 138.89 147.452C139.984 147.452 141.02 147.619 142 147.952C142.989 148.275 143.828 148.879 144.515 149.765C145.203 150.64 145.546 151.843 145.546 153.374V164.64H142.312V162.312H142.187C141.958 162.78 141.625 163.218 141.187 163.624C140.75 164.03 140.187 164.364 139.5 164.624C138.823 164.884 138.041 165.015 137.156 165.015C136.062 165.015 135.083 164.812 134.218 164.405C133.354 163.999 132.671 163.405 132.171 162.624C131.671 161.843 131.421 160.921 131.421 159.858C131.421 158.088 132.015 156.827 133.203 156.077C134.401 155.327 135.921 154.895 137.765 154.78C138.015 154.749 139.005 154.687 140.734 154.593L142.437 154.53L142.468 156.952Z" fill="#CD354E"/>
<path d="M148.009 147.671H151.228V150.39H151.415C151.717 149.452 152.259 148.723 153.04 148.202C153.821 147.671 154.702 147.405 155.681 147.405C156.202 147.405 156.681 147.437 157.118 147.499V150.687C156.983 150.634 156.738 150.588 156.384 150.546C156.03 150.494 155.691 150.468 155.368 150.468C154.618 150.468 153.936 150.634 153.321 150.968C152.707 151.291 152.223 151.744 151.868 152.327C151.514 152.91 151.337 153.567 151.337 154.296V164.64H148.009V147.671Z" fill="#CD354E"/>
<path d="M161.065 154.827H161.659L168.393 147.671H172.378L164.659 155.858H164.128L161.096 158.89L161.065 154.827ZM158.034 142.015H161.362V164.64H158.034V142.015ZM162.69 156.608L164.971 154.265L172.831 164.64H168.753L162.69 156.608Z" fill="#CD354E"/>
<path d="M179.996 164.983C178.361 164.983 176.929 164.624 175.7 163.905C174.481 163.187 173.543 162.171 172.887 160.858C172.231 159.546 171.903 158.02 171.903 156.28C171.903 154.541 172.231 153.004 172.887 151.671C173.543 150.327 174.465 149.291 175.653 148.562C176.84 147.822 178.21 147.452 179.762 147.452C181.137 147.452 182.392 147.749 183.528 148.343C184.663 148.926 185.575 149.858 186.262 151.14C186.95 152.41 187.293 154.02 187.293 155.968V157.14H173.778V154.655H184.028C184.028 153.791 183.851 153.025 183.496 152.358C183.153 151.681 182.658 151.15 182.012 150.765C181.366 150.379 180.627 150.187 179.793 150.187C178.887 150.187 178.09 150.405 177.403 150.843C176.715 151.28 176.179 151.869 175.793 152.608C175.408 153.348 175.215 154.14 175.215 154.983V156.921C175.215 158.035 175.413 158.994 175.809 159.796C176.215 160.598 176.778 161.207 177.496 161.624C178.226 162.041 179.064 162.249 180.012 162.249C180.616 162.249 181.163 162.166 181.653 161.999C182.142 161.822 182.559 161.603 182.903 161.343C183.246 161.072 183.512 160.754 183.7 160.39H187.09C186.84 161.306 186.392 162.108 185.746 162.796C185.101 163.483 184.283 164.02 183.293 164.405C182.314 164.791 181.215 164.983 179.996 164.983Z" fill="#CD354E"/>
<path d="M196.896 150.327H187.615V147.671H196.896V150.327ZM193.459 143.608V159.655C193.459 160.259 193.548 160.723 193.725 161.046C193.902 161.369 194.136 161.593 194.428 161.718C194.719 161.843 195.068 161.905 195.475 161.905C195.975 161.905 196.532 161.884 197.146 161.843V164.718C196.553 164.812 195.865 164.858 195.084 164.858C194.178 164.858 193.344 164.692 192.584 164.358C191.834 164.015 191.23 163.504 190.771 162.827C190.324 162.14 190.1 161.306 190.1 160.327V143.608H193.459Z" fill="#CD354E"/>
<path d="M205.703 164.983C204.067 164.983 202.635 164.624 201.406 163.905C200.187 163.187 199.25 162.171 198.593 160.858C197.937 159.546 197.609 158.02 197.609 156.28C197.609 154.541 197.937 153.004 198.593 151.671C199.25 150.327 200.171 149.291 201.359 148.562C202.546 147.822 203.916 147.452 205.468 147.452C206.843 147.452 208.099 147.749 209.234 148.343C210.369 148.926 211.281 149.858 211.968 151.14C212.656 152.41 213 154.02 213 155.968V157.14H199.484V154.655H209.734C209.734 153.791 209.557 153.025 209.203 152.358C208.859 151.681 208.364 151.15 207.718 150.765C207.073 150.379 206.333 150.187 205.5 150.187C204.593 150.187 203.796 150.405 203.109 150.843C202.421 151.28 201.885 151.869 201.5 152.608C201.114 153.348 200.921 154.14 200.921 154.983V156.921C200.921 158.035 201.119 158.994 201.515 159.796C201.921 160.598 202.484 161.207 203.203 161.624C203.932 162.041 204.77 162.249 205.718 162.249C206.323 162.249 206.869 162.166 207.359 161.999C207.849 161.822 208.265 161.603 208.609 161.343C208.953 161.072 209.218 160.754 209.406 160.39H212.796C212.546 161.306 212.099 162.108 211.453 162.796C210.807 163.483 209.989 164.02 209 164.405C208.02 164.791 206.921 164.983 205.703 164.983Z" fill="#CD354E"/>
<path d="M214.696 147.671H217.915V150.39H218.103C218.405 149.452 218.946 148.723 219.728 148.202C220.509 147.671 221.389 147.405 222.368 147.405C222.889 147.405 223.368 147.437 223.806 147.499V150.687C223.67 150.634 223.426 150.588 223.071 150.546C222.717 150.494 222.379 150.468 222.056 150.468C221.306 150.468 220.624 150.634 220.009 150.968C219.394 151.291 218.91 151.744 218.556 152.327C218.202 152.91 218.025 153.567 218.025 154.296V164.64H214.696V147.671Z" fill="#CD354E"/>
<path d="M131.737 437.657C131.56 436.698 131.19 435.881 130.628 435.204C130.076 434.516 129.383 433.995 128.55 433.641C127.727 433.287 126.836 433.11 125.878 433.11C124.576 433.11 123.409 433.443 122.378 434.11C121.347 434.766 120.534 435.735 119.94 437.016C119.357 438.287 119.065 439.813 119.065 441.594C119.065 443.396 119.357 444.933 119.94 446.204C120.534 447.474 121.347 448.438 122.378 449.094C123.409 449.75 124.571 450.079 125.862 450.079C126.821 450.079 127.706 449.902 128.519 449.547C129.331 449.193 130.024 448.683 130.597 448.016C131.17 447.339 131.55 446.537 131.737 445.61L135.19 445.625C134.951 447.094 134.404 448.407 133.55 449.563C132.706 450.719 131.623 451.62 130.3 452.266C128.977 452.902 127.493 453.219 125.847 453.219C123.878 453.219 122.123 452.75 120.581 451.813C119.05 450.875 117.847 449.527 116.972 447.766C116.107 446.006 115.675 443.948 115.675 441.594C115.675 439.219 116.112 437.157 116.987 435.407C117.862 433.657 119.065 432.313 120.597 431.375C122.138 430.438 123.888 429.969 125.847 429.969C127.44 429.969 128.899 430.277 130.222 430.891C131.555 431.495 132.654 432.375 133.519 433.532C134.383 434.688 134.94 436.063 135.19 437.657H131.737Z" fill="#CD354E"/>
<path d="M137.044 435.938H140.262V438.657H140.45C140.752 437.719 141.294 436.99 142.075 436.469C142.856 435.938 143.736 435.672 144.715 435.672C145.236 435.672 145.715 435.704 146.153 435.766V438.954C146.018 438.902 145.773 438.855 145.419 438.813C145.064 438.761 144.726 438.735 144.403 438.735C143.653 438.735 142.971 438.902 142.356 439.235C141.741 439.558 141.257 440.011 140.903 440.594C140.549 441.178 140.372 441.834 140.372 442.563V452.907H137.044V435.938Z" fill="#CD354E"/>
<path d="M153.819 453.25C152.183 453.25 150.751 452.891 149.522 452.172C148.303 451.454 147.365 450.438 146.709 449.125C146.053 447.813 145.725 446.287 145.725 444.547C145.725 442.808 146.053 441.271 146.709 439.938C147.365 438.594 148.287 437.558 149.475 436.829C150.662 436.089 152.032 435.719 153.584 435.719C154.959 435.719 156.214 436.016 157.35 436.61C158.485 437.193 159.397 438.125 160.084 439.407C160.772 440.678 161.115 442.287 161.115 444.235V445.407H147.6V442.922H157.85C157.85 442.058 157.673 441.292 157.319 440.625C156.975 439.948 156.48 439.417 155.834 439.032C155.188 438.646 154.449 438.454 153.615 438.454C152.709 438.454 151.912 438.672 151.225 439.11C150.537 439.547 150.001 440.136 149.615 440.875C149.23 441.615 149.037 442.407 149.037 443.25V445.188C149.037 446.303 149.235 447.261 149.631 448.063C150.037 448.865 150.6 449.474 151.319 449.891C152.048 450.308 152.886 450.516 153.834 450.516C154.438 450.516 154.985 450.433 155.475 450.266C155.964 450.089 156.381 449.87 156.725 449.61C157.069 449.339 157.334 449.021 157.522 448.657H160.912C160.662 449.573 160.214 450.375 159.569 451.063C158.923 451.75 158.105 452.287 157.115 452.672C156.136 453.058 155.037 453.25 153.819 453.25Z" fill="#CD354E"/>
<path d="M173.047 445.219C172.776 445.219 171.927 445.271 170.5 445.375L168.812 445.5C167.687 445.584 166.812 445.844 166.187 446.282C165.573 446.719 165.265 447.344 165.265 448.157C165.265 448.688 165.401 449.136 165.672 449.5C165.943 449.855 166.323 450.131 166.812 450.329C167.302 450.516 167.859 450.61 168.484 450.61C169.37 450.61 170.135 450.438 170.781 450.094C171.437 449.74 171.943 449.271 172.297 448.688C172.651 448.094 172.828 447.459 172.828 446.782L172.812 441.438C172.812 440.792 172.682 440.245 172.422 439.797C172.172 439.339 171.786 438.995 171.265 438.766C170.745 438.527 170.109 438.407 169.359 438.407C168.411 438.407 167.635 438.605 167.031 439C166.437 439.386 166.052 439.907 165.875 440.563H162.531C162.646 439.615 163 438.777 163.594 438.047C164.187 437.318 164.989 436.75 166 436.344C167.01 435.928 168.166 435.719 169.469 435.719C170.562 435.719 171.599 435.886 172.578 436.219C173.568 436.542 174.406 437.146 175.094 438.032C175.781 438.907 176.125 440.11 176.125 441.641V452.907H172.89V450.579H172.765C172.536 451.047 172.203 451.485 171.765 451.891C171.328 452.297 170.765 452.631 170.078 452.891C169.401 453.152 168.62 453.282 167.734 453.282C166.64 453.282 165.661 453.079 164.797 452.672C163.932 452.266 163.25 451.672 162.75 450.891C162.25 450.11 162 449.188 162 448.125C162 446.355 162.594 445.094 163.781 444.344C164.979 443.594 166.5 443.162 168.344 443.047C168.594 443.016 169.583 442.954 171.312 442.86L173.015 442.797L173.047 445.219Z" fill="#CD354E"/>
<path d="M186.494 438.594H177.212V435.938H186.494V438.594ZM183.056 431.875V447.922C183.056 448.527 183.145 448.99 183.322 449.313C183.499 449.636 183.733 449.86 184.025 449.985C184.316 450.11 184.665 450.172 185.072 450.172C185.572 450.172 186.129 450.152 186.744 450.11V452.985C186.15 453.079 185.462 453.125 184.681 453.125C183.775 453.125 182.941 452.959 182.181 452.625C181.431 452.282 180.827 451.771 180.369 451.094C179.921 450.407 179.697 449.573 179.697 448.594V431.875H183.056Z" fill="#CD354E"/>
<path d="M195.159 453.25C193.576 453.25 192.18 452.886 190.972 452.157C189.774 451.428 188.847 450.402 188.19 449.079C187.534 447.756 187.206 446.23 187.206 444.5C187.206 442.75 187.534 441.214 188.19 439.891C188.847 438.568 189.774 437.542 190.972 436.813C192.18 436.084 193.576 435.719 195.159 435.719C196.732 435.719 198.118 436.084 199.315 436.813C200.513 437.542 201.435 438.568 202.081 439.891C202.727 441.214 203.05 442.75 203.05 444.5C203.05 446.23 202.727 447.756 202.081 449.079C201.435 450.402 200.513 451.428 199.315 452.157C198.118 452.886 196.732 453.25 195.159 453.25ZM195.159 450.469C196.159 450.469 196.998 450.204 197.675 449.672C198.352 449.131 198.857 448.412 199.19 447.516C199.524 446.61 199.69 445.599 199.69 444.485C199.69 443.37 199.524 442.36 199.19 441.454C198.857 440.547 198.352 439.829 197.675 439.297C196.998 438.756 196.159 438.485 195.159 438.485C194.159 438.485 193.315 438.756 192.628 439.297C191.94 439.829 191.425 440.547 191.081 441.454C190.737 442.36 190.565 443.37 190.565 444.485C190.565 445.599 190.737 446.61 191.081 447.516C191.425 448.412 191.94 449.131 192.628 449.672C193.315 450.204 194.159 450.469 195.159 450.469Z" fill="#CD354E"/>
<path d="M204.794 435.938H208.012V438.657H208.2C208.502 437.719 209.044 436.99 209.825 436.469C210.606 435.938 211.486 435.672 212.465 435.672C212.986 435.672 213.465 435.704 213.903 435.766V438.954C213.768 438.902 213.523 438.855 213.169 438.813C212.814 438.761 212.476 438.735 212.153 438.735C211.403 438.735 210.721 438.902 210.106 439.235C209.491 439.558 209.007 440.011 208.653 440.594C208.299 441.178 208.122 441.834 208.122 442.563V452.907H204.794V435.938Z" fill="#CD354E"/>
<circle cx="164.235" cy="178.89" r="6.4397" fill="#CD354E"/>
<circle cx="164.235" cy="467.157" r="6.4397" fill="#CD354E"/>
<rect x="163.734" y="185.33" width="1" height="143.14" fill="#CD354E"/>
<rect x="163.734" y="328.469" width="1" height="88.2826" fill="#CD354E"/>
<rect x="163.734" y="488.252" width="1" height="88.2826" fill="#CD354E"/>
<circle cx="164.235" cy="740.769" r="163.735" fill="#CD354E" stroke="#CD354E"/>
<path d="M108.693 758.495V755.479H114.1C115.808 755.479 117.23 755.157 118.365 754.511C119.501 753.865 120.35 752.927 120.912 751.698C121.485 750.459 121.771 748.943 121.771 747.151C121.771 745.381 121.49 743.881 120.928 742.651C120.376 741.412 119.542 740.474 118.428 739.839C117.324 739.203 115.949 738.886 114.303 738.886H108.568V735.87H114.506C116.725 735.87 118.631 736.318 120.225 737.214C121.829 738.11 123.053 739.407 123.896 741.104C124.751 742.802 125.178 744.818 125.178 747.151C125.178 749.506 124.745 751.532 123.881 753.229C123.027 754.927 121.782 756.229 120.146 757.136C118.521 758.042 116.574 758.495 114.303 758.495H108.693ZM110.396 758.495H106.959V735.87H110.396V758.495Z" fill="white"/>
<path d="M134.5 758.839C132.864 758.839 131.432 758.479 130.203 757.761C128.984 757.042 128.046 756.026 127.39 754.714C126.734 753.401 126.406 751.875 126.406 750.136C126.406 748.396 126.734 746.86 127.39 745.526C128.046 744.183 128.968 743.146 130.156 742.417C131.343 741.677 132.713 741.308 134.265 741.308C135.64 741.308 136.895 741.604 138.031 742.198C139.166 742.782 140.078 743.714 140.765 744.995C141.453 746.266 141.796 747.875 141.796 749.823V750.995H128.281V748.511H138.531C138.531 747.646 138.354 746.881 138 746.214C137.656 745.537 137.161 745.006 136.515 744.62C135.869 744.235 135.13 744.042 134.296 744.042C133.39 744.042 132.593 744.261 131.906 744.698C131.218 745.136 130.682 745.724 130.296 746.464C129.911 747.203 129.718 747.995 129.718 748.839V750.776C129.718 751.891 129.916 752.849 130.312 753.651C130.718 754.453 131.281 755.063 132 755.479C132.729 755.896 133.567 756.104 134.515 756.104C135.119 756.104 135.666 756.021 136.156 755.854C136.645 755.677 137.062 755.459 137.406 755.198C137.75 754.927 138.015 754.61 138.203 754.245H141.593C141.343 755.162 140.895 755.964 140.25 756.651C139.604 757.339 138.786 757.875 137.796 758.261C136.817 758.646 135.718 758.839 134.5 758.839Z" fill="white"/>
<path d="M153.009 746.151C152.853 745.443 152.499 744.896 151.946 744.511C151.405 744.125 150.686 743.933 149.79 743.933C149.165 743.933 148.603 744.032 148.103 744.229C147.613 744.417 147.223 744.688 146.931 745.042C146.65 745.386 146.509 745.776 146.509 746.214C146.509 746.714 146.728 747.146 147.165 747.511C147.603 747.875 148.275 748.157 149.181 748.354L151.884 748.979C153.446 749.334 154.613 749.891 155.384 750.651C156.155 751.401 156.54 752.375 156.54 753.573C156.54 754.594 156.259 755.506 155.696 756.308C155.144 757.099 154.348 757.719 153.306 758.167C152.264 758.615 151.025 758.839 149.587 758.839C148.243 758.839 147.082 758.646 146.103 758.261C145.124 757.865 144.342 757.297 143.759 756.558C143.186 755.808 142.827 754.912 142.681 753.87H146.103C146.259 754.62 146.624 755.188 147.196 755.573C147.78 755.959 148.566 756.151 149.556 756.151C150.264 756.151 150.884 756.063 151.415 755.886C151.957 755.698 152.374 755.427 152.665 755.073C152.967 754.719 153.118 754.308 153.118 753.839C153.118 753.287 152.905 752.828 152.478 752.464C152.061 752.099 151.4 751.823 150.493 751.636L147.853 751.042C146.321 750.698 145.16 750.131 144.368 749.339C143.577 748.547 143.186 747.568 143.196 746.401C143.196 745.401 143.467 744.516 144.009 743.745C144.561 742.974 145.332 742.375 146.321 741.948C147.311 741.521 148.462 741.308 149.775 741.308C151.004 741.308 152.087 741.511 153.025 741.917C153.962 742.313 154.702 742.875 155.243 743.604C155.785 744.334 156.103 745.183 156.196 746.151H153.009Z" fill="white"/>
<path d="M158.237 741.526H161.565V758.495H158.237V741.526ZM159.893 738.901C159.518 738.901 159.169 738.818 158.846 738.651C158.524 738.474 158.268 738.235 158.081 737.933C157.893 737.62 157.8 737.287 157.8 736.933C157.8 736.568 157.893 736.24 158.081 735.948C158.268 735.646 158.524 735.407 158.846 735.229C159.169 735.052 159.518 734.964 159.893 734.964C160.289 734.964 160.649 735.052 160.971 735.229C161.294 735.407 161.544 735.646 161.721 735.948C161.909 736.24 162.003 736.568 162.003 736.933C162.003 737.287 161.909 737.62 161.721 737.933C161.544 738.235 161.294 738.474 160.971 738.651C160.649 738.818 160.289 738.901 159.893 738.901Z" fill="white"/>
<path d="M171.153 765.214C169.746 765.214 168.502 765.011 167.418 764.604C166.335 764.209 165.476 763.631 164.84 762.87C164.215 762.11 163.856 761.203 163.762 760.151H167.153C167.319 760.943 167.752 761.537 168.45 761.933C169.158 762.328 170.075 762.526 171.2 762.526C172.575 762.526 173.637 762.219 174.387 761.604C175.137 760.99 175.512 760.037 175.512 758.745V755.417H175.309L175.278 755.479C174.996 755.969 174.679 756.407 174.325 756.792C173.97 757.177 173.46 757.516 172.793 757.808C172.137 758.099 171.335 758.245 170.387 758.245C169.043 758.245 167.83 757.917 166.746 757.261C165.674 756.604 164.825 755.641 164.2 754.37C163.585 753.099 163.278 751.584 163.278 749.823C163.278 748.063 163.585 746.542 164.2 745.261C164.814 743.969 165.658 742.99 166.731 742.323C167.814 741.646 169.043 741.308 170.418 741.308C171.314 741.308 172.075 741.443 172.7 741.714C173.325 741.985 173.814 742.308 174.168 742.683C174.533 743.058 174.871 743.5 175.184 744.011L175.34 744.261H175.543V741.526H178.825V758.87C178.825 760.266 178.496 761.438 177.84 762.386C177.184 763.344 176.283 764.052 175.137 764.511C173.991 764.979 172.663 765.214 171.153 765.214ZM171.121 755.479C172.059 755.479 172.861 755.256 173.528 754.808C174.194 754.36 174.7 753.724 175.043 752.901C175.387 752.068 175.559 751.068 175.559 749.901C175.559 748.745 175.387 747.735 175.043 746.87C174.7 745.995 174.194 745.323 173.528 744.854C172.871 744.386 172.069 744.151 171.121 744.151C170.174 744.151 169.366 744.401 168.7 744.901C168.033 745.391 167.528 746.073 167.184 746.948C166.84 747.813 166.668 748.797 166.668 749.901C166.668 751.016 166.84 751.995 167.184 752.839C167.528 753.672 168.033 754.323 168.7 754.792C169.366 755.25 170.174 755.479 171.121 755.479Z" fill="white"/>
<path d="M184.615 758.495H181.287V741.526H184.475V744.292H184.693C185.11 743.344 185.735 742.61 186.568 742.089C187.412 741.568 188.459 741.308 189.709 741.308C190.876 741.308 191.886 741.552 192.74 742.042C193.605 742.521 194.271 743.24 194.74 744.198C195.219 745.157 195.459 746.323 195.459 747.698V758.495H192.131V748.089C192.131 747.276 191.99 746.578 191.709 745.995C191.428 745.412 191.021 744.969 190.49 744.667C189.959 744.354 189.313 744.198 188.553 744.198C187.782 744.198 187.1 744.365 186.506 744.698C185.912 745.021 185.449 745.506 185.115 746.151C184.782 746.787 184.615 747.547 184.615 748.433V758.495Z" fill="white"/>
<path d="M205.25 758.839C203.614 758.839 202.182 758.479 200.953 757.761C199.734 757.042 198.796 756.026 198.14 754.714C197.484 753.401 197.156 751.875 197.156 750.136C197.156 748.396 197.484 746.86 198.14 745.526C198.796 744.183 199.718 743.146 200.906 742.417C202.093 741.677 203.463 741.308 205.015 741.308C206.39 741.308 207.645 741.604 208.781 742.198C209.916 742.782 210.828 743.714 211.515 744.995C212.203 746.266 212.546 747.875 212.546 749.823V750.995H199.031V748.511H209.281C209.281 747.646 209.104 746.881 208.75 746.214C208.406 745.537 207.911 745.006 207.265 744.62C206.619 744.235 205.88 744.042 205.046 744.042C204.14 744.042 203.343 744.261 202.656 744.698C201.968 745.136 201.432 745.724 201.046 746.464C200.661 747.203 200.468 747.995 200.468 748.839V750.776C200.468 751.891 200.666 752.849 201.062 753.651C201.468 754.453 202.031 755.063 202.75 755.479C203.479 755.896 204.317 756.104 205.265 756.104C205.869 756.104 206.416 756.021 206.906 755.854C207.395 755.677 207.812 755.459 208.156 755.198C208.5 754.927 208.765 754.61 208.953 754.245H212.343C212.093 755.162 211.645 755.964 211 756.651C210.354 757.339 209.536 757.875 208.546 758.261C207.567 758.646 206.468 758.839 205.25 758.839Z" fill="white"/>
<path d="M214.243 741.526H217.462V744.245H217.65C217.952 743.308 218.493 742.578 219.275 742.058C220.056 741.526 220.936 741.261 221.915 741.261C222.436 741.261 222.915 741.292 223.353 741.354V744.542C223.217 744.49 222.973 744.443 222.618 744.401C222.264 744.349 221.926 744.323 221.603 744.323C220.853 744.323 220.17 744.49 219.556 744.823C218.941 745.146 218.457 745.599 218.103 746.183C217.749 746.766 217.571 747.422 217.571 748.151V758.495H214.243V741.526Z" fill="white"/>
<circle cx="164.235" cy="722.483" r="6.4397" fill="white"/>
<rect x="163.734" y="576.535" width="1" height="139.508" fill="white"/>
</svg>
