<svg width="329" height="1191" viewBox="0 0 329 1191" fill="none" xmlns="http://www.w3.org/2000/svg">
<circle cx="164" cy="740" r="163.5" fill="#CD354E" stroke="#CD354E"/>
<circle cx="164" cy="452" r="163.5" stroke="#CD354E"/>
<circle cx="164" cy="164" r="163.5" stroke="#CD354E"/>
<circle cx="164" cy="1025" r="163.5" stroke="#CD354E"/>
<path d="M109.944 141.375L117.131 158.906H117.397L124.584 141.375H128.756V164H125.475V147.656H125.256L118.6 163.969H115.897L109.241 147.656H109.053V164H105.772V141.375H109.944ZM141.734 156.312C141.464 156.312 140.615 156.365 139.187 156.469L137.5 156.594C136.375 156.677 135.5 156.938 134.875 157.375C134.26 157.812 133.953 158.438 133.953 159.25C133.953 159.781 134.089 160.229 134.359 160.594C134.63 160.948 135.01 161.224 135.5 161.422C135.99 161.609 136.547 161.703 137.172 161.703C138.057 161.703 138.823 161.531 139.469 161.188C140.125 160.833 140.63 160.365 140.984 159.781C141.339 159.188 141.516 158.552 141.516 157.875L141.5 152.531C141.5 151.885 141.37 151.339 141.109 150.891C140.859 150.432 140.474 150.089 139.953 149.859C139.432 149.62 138.797 149.5 138.047 149.5C137.099 149.5 136.323 149.698 135.719 150.094C135.125 150.479 134.74 151 134.562 151.656H131.219C131.333 150.708 131.687 149.87 132.281 149.141C132.875 148.411 133.677 147.844 134.687 147.438C135.698 147.021 136.854 146.812 138.156 146.812C139.25 146.812 140.286 146.979 141.266 147.312C142.255 147.635 143.094 148.24 143.781 149.125C144.469 150 144.812 151.203 144.812 152.734V164H141.578V161.672H141.453C141.224 162.141 140.891 162.578 140.453 162.984C140.016 163.391 139.453 163.724 138.766 163.984C138.089 164.245 137.307 164.375 136.422 164.375C135.328 164.375 134.349 164.172 133.484 163.766C132.62 163.359 131.937 162.766 131.437 161.984C130.937 161.203 130.687 160.281 130.687 159.219C130.687 157.448 131.281 156.188 132.469 155.438C133.667 154.688 135.187 154.255 137.031 154.141C137.281 154.109 138.271 154.047 140 153.953L141.703 153.891L141.734 156.312ZM147.275 147.031H150.494V149.75H150.681C150.983 148.812 151.525 148.083 152.306 147.562C153.087 147.031 153.968 146.766 154.947 146.766C155.468 146.766 155.947 146.797 156.384 146.859V150.047C156.249 149.995 156.004 149.948 155.65 149.906C155.296 149.854 154.957 149.828 154.634 149.828C153.884 149.828 153.202 149.995 152.587 150.328C151.973 150.651 151.489 151.104 151.134 151.688C150.78 152.271 150.603 152.927 150.603 153.656V164H147.275V147.031ZM160.331 154.188H160.925L167.659 147.031H171.644L163.925 155.219H163.394L160.362 158.25L160.331 154.188ZM157.3 141.375H160.628V164H157.3V141.375ZM161.956 155.969L164.237 153.625L172.097 164H168.019L161.956 155.969ZM179.262 164.344C177.627 164.344 176.195 163.984 174.966 163.266C173.747 162.547 172.809 161.531 172.153 160.219C171.497 158.906 171.169 157.38 171.169 155.641C171.169 153.901 171.497 152.365 172.153 151.031C172.809 149.688 173.731 148.651 174.919 147.922C176.106 147.182 177.476 146.812 179.028 146.812C180.403 146.812 181.658 147.109 182.794 147.703C183.929 148.286 184.841 149.219 185.528 150.5C186.216 151.771 186.559 153.38 186.559 155.328V156.5H173.044V154.016H183.294C183.294 153.151 183.117 152.385 182.762 151.719C182.419 151.042 181.924 150.51 181.278 150.125C180.632 149.74 179.893 149.547 179.059 149.547C178.153 149.547 177.356 149.766 176.669 150.203C175.981 150.641 175.445 151.229 175.059 151.969C174.674 152.708 174.481 153.5 174.481 154.344V156.281C174.481 157.396 174.679 158.354 175.075 159.156C175.481 159.958 176.044 160.568 176.762 160.984C177.492 161.401 178.33 161.609 179.278 161.609C179.882 161.609 180.429 161.526 180.919 161.359C181.408 161.182 181.825 160.964 182.169 160.703C182.512 160.432 182.778 160.115 182.966 159.75H186.356C186.106 160.667 185.658 161.469 185.012 162.156C184.367 162.844 183.549 163.38 182.559 163.766C181.58 164.151 180.481 164.344 179.262 164.344ZM196.162 149.688H186.881V147.031H196.162V149.688ZM192.725 142.969V159.016C192.725 159.62 192.814 160.083 192.991 160.406C193.168 160.729 193.402 160.953 193.694 161.078C193.985 161.203 194.334 161.266 194.741 161.266C195.241 161.266 195.798 161.245 196.412 161.203V164.078C195.819 164.172 195.131 164.219 194.35 164.219C193.444 164.219 192.61 164.052 191.85 163.719C191.1 163.375 190.496 162.865 190.037 162.188C189.59 161.5 189.366 160.667 189.366 159.688V142.969H192.725ZM204.969 164.344C203.333 164.344 201.901 163.984 200.672 163.266C199.453 162.547 198.516 161.531 197.859 160.219C197.203 158.906 196.875 157.38 196.875 155.641C196.875 153.901 197.203 152.365 197.859 151.031C198.516 149.688 199.438 148.651 200.625 147.922C201.812 147.182 203.182 146.812 204.734 146.812C206.109 146.812 207.365 147.109 208.5 147.703C209.635 148.286 210.547 149.219 211.234 150.5C211.922 151.771 212.266 153.38 212.266 155.328V156.5H198.75V154.016H209C209 153.151 208.823 152.385 208.469 151.719C208.125 151.042 207.63 150.51 206.984 150.125C206.339 149.74 205.599 149.547 204.766 149.547C203.859 149.547 203.062 149.766 202.375 150.203C201.688 150.641 201.151 151.229 200.766 151.969C200.38 152.708 200.188 153.5 200.188 154.344V156.281C200.188 157.396 200.385 158.354 200.781 159.156C201.188 159.958 201.75 160.568 202.469 160.984C203.198 161.401 204.036 161.609 204.984 161.609C205.589 161.609 206.135 161.526 206.625 161.359C207.115 161.182 207.531 160.964 207.875 160.703C208.219 160.432 208.484 160.115 208.672 159.75H212.062C211.812 160.667 211.365 161.469 210.719 162.156C210.073 162.844 209.255 163.38 208.266 163.766C207.286 164.151 206.188 164.344 204.969 164.344ZM213.963 147.031H217.181V149.75H217.369C217.671 148.812 218.213 148.083 218.994 147.562C219.775 147.031 220.655 146.766 221.634 146.766C222.155 146.766 222.634 146.797 223.072 146.859V150.047C222.936 149.995 222.692 149.948 222.338 149.906C221.983 149.854 221.645 149.828 221.322 149.828C220.572 149.828 219.89 149.995 219.275 150.328C218.66 150.651 218.176 151.104 217.822 151.688C217.468 152.271 217.291 152.927 217.291 153.656V164H213.963V147.031Z" fill="#CD354E"/>
<path d="M114.638 1020.33C114.554 1019.64 114.315 1019.05 113.919 1018.55C113.523 1018.05 112.986 1017.67 112.309 1017.42C111.643 1017.17 110.872 1017.05 109.997 1017.05C109.091 1017.05 108.294 1017.19 107.606 1017.47C106.919 1017.75 106.388 1018.15 106.013 1018.66C105.638 1019.16 105.45 1019.73 105.45 1020.38C105.45 1021.32 105.841 1022.05 106.622 1022.56C107.403 1023.07 108.388 1023.48 109.575 1023.78L111.747 1024.36C113.632 1024.82 115.19 1025.54 116.419 1026.52C117.658 1027.49 118.278 1028.91 118.278 1030.75C118.278 1032.02 117.945 1033.16 117.278 1034.17C116.622 1035.17 115.658 1035.96 114.388 1036.53C113.127 1037.09 111.627 1037.38 109.888 1037.38C108.21 1037.38 106.747 1037.11 105.497 1036.58C104.247 1036.04 103.273 1035.27 102.575 1034.28C101.877 1033.28 101.492 1032.1 101.419 1030.73H104.856C104.929 1031.52 105.195 1032.18 105.653 1032.72C106.111 1033.26 106.705 1033.67 107.434 1033.94C108.164 1034.21 108.976 1034.34 109.872 1034.34C110.83 1034.34 111.69 1034.19 112.45 1033.89C113.21 1033.59 113.804 1033.16 114.231 1032.61C114.658 1032.05 114.872 1031.41 114.872 1030.69C114.872 1030.06 114.695 1029.54 114.341 1029.11C113.986 1028.68 113.502 1028.33 112.888 1028.06C112.283 1027.78 111.523 1027.52 110.606 1027.27L107.919 1026.56C106.023 1026.04 104.57 1025.3 103.559 1024.33C102.549 1023.35 102.044 1022.09 102.044 1020.56C102.044 1019.28 102.393 1018.15 103.091 1017.17C103.799 1016.19 104.757 1015.43 105.966 1014.89C107.184 1014.34 108.554 1014.06 110.075 1014.06C111.585 1014.06 112.929 1014.33 114.106 1014.88C115.294 1015.41 116.226 1016.15 116.903 1017.09C117.58 1018.04 117.934 1019.12 117.966 1020.33H114.638ZM128.053 1022.69H118.772V1020.03H128.053V1022.69ZM124.616 1015.97V1032.02C124.616 1032.62 124.704 1033.08 124.881 1033.41C125.058 1033.73 125.293 1033.95 125.584 1034.08C125.876 1034.2 126.225 1034.27 126.631 1034.27C127.131 1034.27 127.689 1034.24 128.303 1034.2V1037.08C127.709 1037.17 127.022 1037.22 126.241 1037.22C125.334 1037.22 124.501 1037.05 123.741 1036.72C122.991 1036.38 122.386 1035.86 121.928 1035.19C121.48 1034.5 121.256 1033.67 121.256 1032.69V1015.97H124.616ZM129.734 1020.03H132.953V1022.75H133.141C133.443 1021.81 133.984 1021.08 134.766 1020.56C135.547 1020.03 136.427 1019.77 137.406 1019.77C137.927 1019.77 138.406 1019.8 138.844 1019.86V1023.05C138.708 1022.99 138.464 1022.95 138.109 1022.91C137.755 1022.85 137.417 1022.83 137.094 1022.83C136.344 1022.83 135.661 1022.99 135.047 1023.33C134.432 1023.65 133.948 1024.1 133.594 1024.69C133.24 1025.27 133.062 1025.93 133.062 1026.66V1037H129.734V1020.03ZM149.806 1029.31C149.535 1029.31 148.686 1029.36 147.259 1029.47L145.572 1029.59C144.447 1029.68 143.572 1029.94 142.947 1030.38C142.332 1030.81 142.025 1031.44 142.025 1032.25C142.025 1032.78 142.16 1033.23 142.431 1033.59C142.702 1033.95 143.082 1034.22 143.572 1034.42C144.061 1034.61 144.619 1034.7 145.244 1034.7C146.129 1034.7 146.895 1034.53 147.541 1034.19C148.197 1033.83 148.702 1033.36 149.056 1032.78C149.41 1032.19 149.588 1031.55 149.588 1030.88L149.572 1025.53C149.572 1024.89 149.442 1024.34 149.181 1023.89C148.931 1023.43 148.546 1023.09 148.025 1022.86C147.504 1022.62 146.869 1022.5 146.119 1022.5C145.171 1022.5 144.395 1022.7 143.791 1023.09C143.197 1023.48 142.811 1024 142.634 1024.66H139.291C139.405 1023.71 139.759 1022.87 140.353 1022.14C140.947 1021.41 141.749 1020.84 142.759 1020.44C143.77 1020.02 144.926 1019.81 146.228 1019.81C147.322 1019.81 148.358 1019.98 149.338 1020.31C150.327 1020.64 151.166 1021.24 151.853 1022.12C152.541 1023 152.884 1024.2 152.884 1025.73V1037H149.65V1034.67H149.525C149.296 1035.14 148.963 1035.58 148.525 1035.98C148.088 1036.39 147.525 1036.72 146.838 1036.98C146.16 1037.24 145.379 1037.38 144.494 1037.38C143.4 1037.38 142.421 1037.17 141.556 1036.77C140.692 1036.36 140.009 1035.77 139.509 1034.98C139.009 1034.2 138.759 1033.28 138.759 1032.22C138.759 1030.45 139.353 1029.19 140.541 1028.44C141.739 1027.69 143.259 1027.26 145.103 1027.14C145.353 1027.11 146.343 1027.05 148.072 1026.95L149.775 1026.89L149.806 1029.31ZM163.253 1022.69H153.972V1020.03H163.253V1022.69ZM159.816 1015.97V1032.02C159.816 1032.62 159.904 1033.08 160.081 1033.41C160.258 1033.73 160.493 1033.95 160.784 1034.08C161.076 1034.2 161.425 1034.27 161.831 1034.27C162.331 1034.27 162.889 1034.24 163.503 1034.2V1037.08C162.909 1037.17 162.222 1037.22 161.441 1037.22C160.534 1037.22 159.701 1037.05 158.941 1036.72C158.191 1036.38 157.586 1035.86 157.128 1035.19C156.68 1034.5 156.456 1033.67 156.456 1032.69V1015.97H159.816ZM172.059 1037.34C170.424 1037.34 168.992 1036.98 167.763 1036.27C166.544 1035.55 165.606 1034.53 164.95 1033.22C164.294 1031.91 163.966 1030.38 163.966 1028.64C163.966 1026.9 164.294 1025.36 164.95 1024.03C165.606 1022.69 166.528 1021.65 167.716 1020.92C168.903 1020.18 170.273 1019.81 171.825 1019.81C173.2 1019.81 174.455 1020.11 175.591 1020.7C176.726 1021.29 177.638 1022.22 178.325 1023.5C179.013 1024.77 179.356 1026.38 179.356 1028.33V1029.5H165.841V1027.02H176.091C176.091 1026.15 175.914 1025.39 175.559 1024.72C175.216 1024.04 174.721 1023.51 174.075 1023.12C173.429 1022.74 172.69 1022.55 171.856 1022.55C170.95 1022.55 170.153 1022.77 169.466 1023.2C168.778 1023.64 168.242 1024.23 167.856 1024.97C167.471 1025.71 167.278 1026.5 167.278 1027.34V1029.28C167.278 1030.4 167.476 1031.35 167.872 1032.16C168.278 1032.96 168.841 1033.57 169.559 1033.98C170.289 1034.4 171.127 1034.61 172.075 1034.61C172.679 1034.61 173.226 1034.53 173.716 1034.36C174.205 1034.18 174.622 1033.96 174.966 1033.7C175.309 1033.43 175.575 1033.11 175.763 1032.75H179.153C178.903 1033.67 178.455 1034.47 177.809 1035.16C177.164 1035.84 176.346 1036.38 175.356 1036.77C174.377 1037.15 173.278 1037.34 172.059 1037.34ZM188.163 1043.72C186.756 1043.72 185.511 1043.52 184.428 1043.11C183.345 1042.71 182.485 1042.14 181.85 1041.38C181.225 1040.61 180.866 1039.71 180.772 1038.66H184.163C184.329 1039.45 184.761 1040.04 185.459 1040.44C186.168 1040.83 187.084 1041.03 188.209 1041.03C189.584 1041.03 190.647 1040.72 191.397 1040.11C192.147 1039.49 192.522 1038.54 192.522 1037.25V1033.92H192.319C192.038 1034.43 191.72 1034.89 191.366 1035.28C191.011 1035.67 190.501 1036.01 189.834 1036.31C189.168 1036.6 188.355 1036.75 187.397 1036.75C186.053 1036.75 184.84 1036.42 183.756 1035.77C182.683 1035.11 181.834 1034.15 181.209 1032.88C180.595 1031.6 180.288 1030.09 180.288 1028.33C180.288 1026.57 180.595 1025.05 181.209 1023.77C181.824 1022.47 182.668 1021.49 183.741 1020.83C184.824 1020.15 186.053 1019.81 187.428 1019.81C188.386 1019.81 189.194 1019.97 189.85 1020.28C190.506 1020.59 190.991 1020.93 191.303 1021.3C191.616 1021.66 191.965 1022.15 192.35 1022.77H192.553V1020.03H195.834V1037.38C195.834 1038.77 195.506 1039.94 194.85 1040.89C194.194 1041.85 193.293 1042.56 192.147 1043.02C191.001 1043.48 189.673 1043.72 188.163 1043.72ZM188.131 1033.98C189.069 1033.98 189.871 1033.76 190.538 1033.31C191.204 1032.86 191.709 1032.23 192.053 1031.41C192.397 1030.57 192.569 1029.57 192.569 1028.41C192.569 1027.25 192.397 1026.24 192.053 1025.38C191.709 1024.5 191.204 1023.83 190.538 1023.36C189.881 1022.89 189.079 1022.66 188.131 1022.66C187.183 1022.66 186.376 1022.91 185.709 1023.41C185.043 1023.9 184.538 1024.58 184.194 1025.45C183.85 1026.32 183.678 1027.3 183.678 1028.41C183.678 1029.52 183.85 1030.5 184.194 1031.34C184.538 1032.18 185.043 1032.83 185.709 1033.3C186.376 1033.76 187.183 1033.98 188.131 1033.98ZM198.297 1020.03H201.625V1037H198.297V1020.03ZM199.953 1017.41C199.578 1017.41 199.229 1017.32 198.906 1017.16C198.583 1016.98 198.328 1016.74 198.141 1016.44C197.953 1016.12 197.859 1015.79 197.859 1015.44C197.859 1015.07 197.953 1014.74 198.141 1014.45C198.328 1014.15 198.583 1013.91 198.906 1013.73C199.229 1013.56 199.578 1013.47 199.953 1013.47C200.349 1013.47 200.708 1013.56 201.031 1013.73C201.354 1013.91 201.604 1014.15 201.781 1014.45C201.969 1014.74 202.062 1015.07 202.062 1015.44C202.062 1015.79 201.969 1016.12 201.781 1016.44C201.604 1016.74 201.354 1016.98 201.031 1017.16C200.708 1017.32 200.349 1017.41 199.953 1017.41ZM213.619 1024.66C213.462 1023.95 213.108 1023.4 212.556 1023.02C212.015 1022.63 211.296 1022.44 210.4 1022.44C209.775 1022.44 209.212 1022.54 208.712 1022.73C208.223 1022.92 207.832 1023.19 207.541 1023.55C207.259 1023.89 207.119 1024.28 207.119 1024.72C207.119 1025.22 207.337 1025.65 207.775 1026.02C208.212 1026.38 208.884 1026.66 209.791 1026.86L212.494 1027.48C214.056 1027.84 215.223 1028.4 215.994 1029.16C216.765 1029.91 217.15 1030.88 217.15 1032.08C217.15 1033.1 216.869 1034.01 216.306 1034.81C215.754 1035.6 214.957 1036.22 213.916 1036.67C212.874 1037.12 211.634 1037.34 210.197 1037.34C208.853 1037.34 207.692 1037.15 206.712 1036.77C205.733 1036.37 204.952 1035.8 204.369 1035.06C203.796 1034.31 203.436 1033.42 203.291 1032.38H206.712C206.869 1033.12 207.233 1033.69 207.806 1034.08C208.39 1034.46 209.176 1034.66 210.166 1034.66C210.874 1034.66 211.494 1034.57 212.025 1034.39C212.567 1034.2 212.983 1033.93 213.275 1033.58C213.577 1033.22 213.728 1032.81 213.728 1032.34C213.728 1031.79 213.515 1031.33 213.087 1030.97C212.671 1030.6 212.009 1030.33 211.103 1030.14L208.462 1029.55C206.931 1029.2 205.77 1028.64 204.978 1027.84C204.186 1027.05 203.796 1026.07 203.806 1024.91C203.806 1023.91 204.077 1023.02 204.619 1022.25C205.171 1021.48 205.942 1020.88 206.931 1020.45C207.921 1020.03 209.072 1019.81 210.384 1019.81C211.614 1019.81 212.697 1020.02 213.634 1020.42C214.572 1020.82 215.311 1021.38 215.853 1022.11C216.395 1022.84 216.712 1023.69 216.806 1024.66H213.619ZM226.753 1022.69H217.472V1020.03H226.753V1022.69ZM223.316 1015.97V1032.02C223.316 1032.62 223.404 1033.08 223.581 1033.41C223.758 1033.73 223.993 1033.95 224.284 1034.08C224.576 1034.2 224.925 1034.27 225.331 1034.27C225.831 1034.27 226.389 1034.24 227.003 1034.2V1037.08C226.409 1037.17 225.722 1037.22 224.941 1037.22C224.034 1037.22 223.201 1037.05 222.441 1036.72C221.691 1036.38 221.086 1035.86 220.628 1035.19C220.18 1034.5 219.956 1033.67 219.956 1032.69V1015.97H223.316Z" fill="#CD354E"/>
<path d="M131.003 436.75C130.826 435.792 130.456 434.974 129.894 434.297C129.342 433.609 128.649 433.089 127.816 432.734C126.993 432.38 126.102 432.203 125.144 432.203C123.842 432.203 122.675 432.536 121.644 433.203C120.612 433.859 119.8 434.828 119.206 436.109C118.623 437.38 118.331 438.906 118.331 440.688C118.331 442.49 118.623 444.026 119.206 445.297C119.8 446.568 120.612 447.531 121.644 448.188C122.675 448.844 123.836 449.172 125.128 449.172C126.086 449.172 126.972 448.995 127.784 448.641C128.597 448.286 129.29 447.776 129.862 447.109C130.435 446.432 130.816 445.63 131.003 444.703L134.456 444.719C134.217 446.188 133.67 447.5 132.816 448.656C131.972 449.812 130.889 450.714 129.566 451.359C128.243 451.995 126.758 452.312 125.112 452.312C123.144 452.312 121.389 451.844 119.847 450.906C118.316 449.969 117.112 448.62 116.237 446.859C115.373 445.099 114.941 443.042 114.941 440.688C114.941 438.312 115.378 436.25 116.253 434.5C117.128 432.75 118.331 431.406 119.862 430.469C121.404 429.531 123.154 429.062 125.112 429.062C126.706 429.062 128.165 429.37 129.487 429.984C130.821 430.589 131.92 431.469 132.784 432.625C133.649 433.781 134.206 435.156 134.456 436.75H131.003ZM136.309 435.031H139.528V437.75H139.716C140.018 436.812 140.559 436.083 141.341 435.562C142.122 435.031 143.002 434.766 143.981 434.766C144.502 434.766 144.981 434.797 145.419 434.859V438.047C145.283 437.995 145.039 437.948 144.684 437.906C144.33 437.854 143.992 437.828 143.669 437.828C142.919 437.828 142.236 437.995 141.622 438.328C141.007 438.651 140.523 439.104 140.169 439.688C139.815 440.271 139.637 440.927 139.637 441.656V452H136.309V435.031ZM153.084 452.344C151.449 452.344 150.017 451.984 148.787 451.266C147.569 450.547 146.631 449.531 145.975 448.219C145.319 446.906 144.991 445.38 144.991 443.641C144.991 441.901 145.319 440.365 145.975 439.031C146.631 437.688 147.553 436.651 148.741 435.922C149.928 435.182 151.298 434.812 152.85 434.812C154.225 434.812 155.48 435.109 156.616 435.703C157.751 436.286 158.662 437.219 159.35 438.5C160.037 439.771 160.381 441.38 160.381 443.328V444.5H146.866V442.016H157.116C157.116 441.151 156.939 440.385 156.584 439.719C156.241 439.042 155.746 438.51 155.1 438.125C154.454 437.74 153.715 437.547 152.881 437.547C151.975 437.547 151.178 437.766 150.491 438.203C149.803 438.641 149.267 439.229 148.881 439.969C148.496 440.708 148.303 441.5 148.303 442.344V444.281C148.303 445.396 148.501 446.354 148.897 447.156C149.303 447.958 149.866 448.568 150.584 448.984C151.314 449.401 152.152 449.609 153.1 449.609C153.704 449.609 154.251 449.526 154.741 449.359C155.23 449.182 155.647 448.964 155.991 448.703C156.334 448.432 156.6 448.115 156.787 447.75H160.178C159.928 448.667 159.48 449.469 158.834 450.156C158.189 450.844 157.371 451.38 156.381 451.766C155.402 452.151 154.303 452.344 153.084 452.344ZM172.312 444.312C172.042 444.312 171.193 444.365 169.766 444.469L168.078 444.594C166.953 444.677 166.078 444.938 165.453 445.375C164.839 445.812 164.531 446.438 164.531 447.25C164.531 447.781 164.667 448.229 164.938 448.594C165.208 448.948 165.589 449.224 166.078 449.422C166.568 449.609 167.125 449.703 167.75 449.703C168.635 449.703 169.401 449.531 170.047 449.188C170.703 448.833 171.208 448.365 171.562 447.781C171.917 447.188 172.094 446.552 172.094 445.875L172.078 440.531C172.078 439.885 171.948 439.339 171.688 438.891C171.438 438.432 171.052 438.089 170.531 437.859C170.01 437.62 169.375 437.5 168.625 437.5C167.677 437.5 166.901 437.698 166.297 438.094C165.703 438.479 165.318 439 165.141 439.656H161.797C161.911 438.708 162.266 437.87 162.859 437.141C163.453 436.411 164.255 435.844 165.266 435.438C166.276 435.021 167.432 434.812 168.734 434.812C169.828 434.812 170.865 434.979 171.844 435.312C172.833 435.635 173.672 436.24 174.359 437.125C175.047 438 175.391 439.203 175.391 440.734V452H172.156V449.672H172.031C171.802 450.141 171.469 450.578 171.031 450.984C170.594 451.391 170.031 451.724 169.344 451.984C168.667 452.245 167.885 452.375 167 452.375C165.906 452.375 164.927 452.172 164.062 451.766C163.198 451.359 162.516 450.766 162.016 449.984C161.516 449.203 161.266 448.281 161.266 447.219C161.266 445.448 161.859 444.188 163.047 443.438C164.245 442.688 165.766 442.255 167.609 442.141C167.859 442.109 168.849 442.047 170.578 441.953L172.281 441.891L172.312 444.312ZM185.759 437.688H176.478V435.031H185.759V437.688ZM182.322 430.969V447.016C182.322 447.62 182.41 448.083 182.587 448.406C182.765 448.729 182.999 448.953 183.291 449.078C183.582 449.203 183.931 449.266 184.337 449.266C184.837 449.266 185.395 449.245 186.009 449.203V452.078C185.416 452.172 184.728 452.219 183.947 452.219C183.041 452.219 182.207 452.052 181.447 451.719C180.697 451.375 180.093 450.865 179.634 450.188C179.186 449.5 178.962 448.667 178.962 447.688V430.969H182.322ZM194.425 452.344C192.842 452.344 191.446 451.979 190.238 451.25C189.04 450.521 188.113 449.495 187.456 448.172C186.8 446.849 186.472 445.323 186.472 443.594C186.472 441.844 186.8 440.307 187.456 438.984C188.113 437.661 189.04 436.635 190.238 435.906C191.446 435.177 192.842 434.812 194.425 434.812C195.998 434.812 197.383 435.177 198.581 435.906C199.779 436.635 200.701 437.661 201.347 438.984C201.993 440.307 202.316 441.844 202.316 443.594C202.316 445.323 201.993 446.849 201.347 448.172C200.701 449.495 199.779 450.521 198.581 451.25C197.383 451.979 195.998 452.344 194.425 452.344ZM194.425 449.562C195.425 449.562 196.264 449.297 196.941 448.766C197.618 448.224 198.123 447.505 198.456 446.609C198.79 445.703 198.956 444.693 198.956 443.578C198.956 442.464 198.79 441.453 198.456 440.547C198.123 439.641 197.618 438.922 196.941 438.391C196.264 437.849 195.425 437.578 194.425 437.578C193.425 437.578 192.581 437.849 191.894 438.391C191.206 438.922 190.691 439.641 190.347 440.547C190.003 441.453 189.831 442.464 189.831 443.578C189.831 444.693 190.003 445.703 190.347 446.609C190.691 447.505 191.206 448.224 191.894 448.766C192.581 449.297 193.425 449.562 194.425 449.562ZM204.059 435.031H207.278V437.75H207.466C207.768 436.812 208.309 436.083 209.091 435.562C209.872 435.031 210.752 434.766 211.731 434.766C212.252 434.766 212.731 434.797 213.169 434.859V438.047C213.033 437.995 212.789 437.948 212.434 437.906C212.08 437.854 211.742 437.828 211.419 437.828C210.669 437.828 209.986 437.995 209.372 438.328C208.757 438.651 208.273 439.104 207.919 439.688C207.565 440.271 207.387 440.927 207.387 441.656V452H204.059V435.031Z" fill="#CD354E"/>
<path d="M108.459 755V751.984H113.866C115.574 751.984 116.996 751.661 118.131 751.016C119.267 750.37 120.116 749.432 120.678 748.203C121.251 746.964 121.537 745.448 121.537 743.656C121.537 741.885 121.256 740.385 120.694 739.156C120.142 737.917 119.308 736.979 118.194 736.344C117.09 735.708 115.715 735.391 114.069 735.391H108.334V732.375H114.272C116.491 732.375 118.397 732.823 119.991 733.719C121.595 734.615 122.819 735.911 123.662 737.609C124.517 739.307 124.944 741.323 124.944 743.656C124.944 746.01 124.511 748.036 123.647 749.734C122.793 751.432 121.548 752.734 119.912 753.641C118.287 754.547 116.34 755 114.069 755H108.459ZM110.162 755H106.725V732.375H110.162V755ZM134.266 755.344C132.63 755.344 131.198 754.984 129.969 754.266C128.75 753.547 127.812 752.531 127.156 751.219C126.5 749.906 126.172 748.38 126.172 746.641C126.172 744.901 126.5 743.365 127.156 742.031C127.812 740.688 128.734 739.651 129.922 738.922C131.109 738.182 132.479 737.812 134.031 737.812C135.406 737.812 136.661 738.109 137.797 738.703C138.932 739.286 139.844 740.219 140.531 741.5C141.219 742.771 141.562 744.38 141.562 746.328V747.5H128.047V745.016H138.297C138.297 744.151 138.12 743.385 137.766 742.719C137.422 742.042 136.927 741.51 136.281 741.125C135.635 740.74 134.896 740.547 134.062 740.547C133.156 740.547 132.359 740.766 131.672 741.203C130.984 741.641 130.448 742.229 130.062 742.969C129.677 743.708 129.484 744.5 129.484 745.344V747.281C129.484 748.396 129.682 749.354 130.078 750.156C130.484 750.958 131.047 751.568 131.766 751.984C132.495 752.401 133.333 752.609 134.281 752.609C134.885 752.609 135.432 752.526 135.922 752.359C136.411 752.182 136.828 751.964 137.172 751.703C137.516 751.432 137.781 751.115 137.969 750.75H141.359C141.109 751.667 140.661 752.469 140.016 753.156C139.37 753.844 138.552 754.38 137.562 754.766C136.583 755.151 135.484 755.344 134.266 755.344ZM152.775 742.656C152.619 741.948 152.265 741.401 151.712 741.016C151.171 740.63 150.452 740.438 149.556 740.438C148.931 740.438 148.369 740.536 147.869 740.734C147.379 740.922 146.989 741.193 146.697 741.547C146.416 741.891 146.275 742.281 146.275 742.719C146.275 743.219 146.494 743.651 146.931 744.016C147.369 744.38 148.041 744.661 148.947 744.859L151.65 745.484C153.212 745.839 154.379 746.396 155.15 747.156C155.921 747.906 156.306 748.88 156.306 750.078C156.306 751.099 156.025 752.01 155.462 752.812C154.91 753.604 154.114 754.224 153.072 754.672C152.03 755.12 150.791 755.344 149.353 755.344C148.009 755.344 146.848 755.151 145.869 754.766C144.89 754.37 144.108 753.802 143.525 753.062C142.952 752.312 142.593 751.417 142.447 750.375H145.869C146.025 751.125 146.39 751.693 146.962 752.078C147.546 752.464 148.332 752.656 149.322 752.656C150.03 752.656 150.65 752.568 151.181 752.391C151.723 752.203 152.14 751.932 152.431 751.578C152.733 751.224 152.884 750.812 152.884 750.344C152.884 749.792 152.671 749.333 152.244 748.969C151.827 748.604 151.166 748.328 150.259 748.141L147.619 747.547C146.087 747.203 144.926 746.635 144.134 745.844C143.343 745.052 142.952 744.073 142.962 742.906C142.962 741.906 143.233 741.021 143.775 740.25C144.327 739.479 145.098 738.88 146.087 738.453C147.077 738.026 148.228 737.812 149.541 737.812C150.77 737.812 151.853 738.016 152.791 738.422C153.728 738.818 154.468 739.38 155.009 740.109C155.551 740.839 155.869 741.688 155.962 742.656H152.775ZM158.003 738.031H161.331V755H158.003V738.031ZM159.659 735.406C159.284 735.406 158.935 735.323 158.612 735.156C158.29 734.979 158.034 734.74 157.847 734.438C157.659 734.125 157.566 733.792 157.566 733.438C157.566 733.073 157.659 732.745 157.847 732.453C158.034 732.151 158.29 731.911 158.612 731.734C158.935 731.557 159.284 731.469 159.659 731.469C160.055 731.469 160.415 731.557 160.737 731.734C161.06 731.911 161.31 732.151 161.487 732.453C161.675 732.745 161.769 733.073 161.769 733.438C161.769 733.792 161.675 734.125 161.487 734.438C161.31 734.74 161.06 734.979 160.737 735.156C160.415 735.323 160.055 735.406 159.659 735.406ZM170.919 761.719C169.512 761.719 168.268 761.516 167.184 761.109C166.101 760.714 165.242 760.135 164.606 759.375C163.981 758.615 163.622 757.708 163.528 756.656H166.919C167.085 757.448 167.518 758.042 168.216 758.438C168.924 758.833 169.841 759.031 170.966 759.031C172.341 759.031 173.403 758.724 174.153 758.109C174.903 757.495 175.278 756.542 175.278 755.25V751.922H175.075C174.794 752.432 174.476 752.885 174.122 753.281C173.768 753.667 173.257 754.01 172.591 754.312C171.924 754.604 171.111 754.75 170.153 754.75C168.809 754.75 167.596 754.422 166.512 753.766C165.44 753.109 164.591 752.146 163.966 750.875C163.351 749.604 163.044 748.089 163.044 746.328C163.044 744.568 163.351 743.047 163.966 741.766C164.58 740.474 165.424 739.495 166.497 738.828C167.58 738.151 168.809 737.812 170.184 737.812C171.143 737.812 171.95 737.969 172.606 738.281C173.262 738.594 173.747 738.932 174.059 739.297C174.372 739.661 174.721 740.151 175.106 740.766H175.309V738.031H178.591V755.375C178.591 756.771 178.262 757.943 177.606 758.891C176.95 759.849 176.049 760.557 174.903 761.016C173.757 761.484 172.429 761.719 170.919 761.719ZM170.887 751.984C171.825 751.984 172.627 751.76 173.294 751.312C173.96 750.865 174.466 750.229 174.809 749.406C175.153 748.573 175.325 747.573 175.325 746.406C175.325 745.25 175.153 744.24 174.809 743.375C174.466 742.5 173.96 741.828 173.294 741.359C172.637 740.891 171.835 740.656 170.887 740.656C169.94 740.656 169.132 740.906 168.466 741.406C167.799 741.896 167.294 742.578 166.95 743.453C166.606 744.318 166.434 745.302 166.434 746.406C166.434 747.521 166.606 748.5 166.95 749.344C167.294 750.177 167.799 750.828 168.466 751.297C169.132 751.755 169.94 751.984 170.887 751.984ZM184.381 755H181.053V738.031H184.241V740.797H184.459C184.876 739.849 185.501 739.115 186.334 738.594C187.178 738.073 188.225 737.812 189.475 737.812C190.642 737.812 191.652 738.057 192.506 738.547C193.371 739.026 194.037 739.745 194.506 740.703C194.985 741.661 195.225 742.828 195.225 744.203V755H191.897V744.594C191.897 743.781 191.756 743.083 191.475 742.5C191.194 741.917 190.787 741.474 190.256 741.172C189.725 740.859 189.079 740.703 188.319 740.703C187.548 740.703 186.866 740.87 186.272 741.203C185.678 741.526 185.215 742.01 184.881 742.656C184.548 743.292 184.381 744.052 184.381 744.938V755ZM205.016 755.344C203.38 755.344 201.948 754.984 200.719 754.266C199.5 753.547 198.562 752.531 197.906 751.219C197.25 749.906 196.922 748.38 196.922 746.641C196.922 744.901 197.25 743.365 197.906 742.031C198.562 740.688 199.484 739.651 200.672 738.922C201.859 738.182 203.229 737.812 204.781 737.812C206.156 737.812 207.411 738.109 208.547 738.703C209.682 739.286 210.594 740.219 211.281 741.5C211.969 742.771 212.312 744.38 212.312 746.328V747.5H198.797V745.016H209.047C209.047 744.151 208.87 743.385 208.516 742.719C208.172 742.042 207.677 741.51 207.031 741.125C206.385 740.74 205.646 740.547 204.812 740.547C203.906 740.547 203.109 740.766 202.422 741.203C201.734 741.641 201.198 742.229 200.812 742.969C200.427 743.708 200.234 744.5 200.234 745.344V747.281C200.234 748.396 200.432 749.354 200.828 750.156C201.234 750.958 201.797 751.568 202.516 751.984C203.245 752.401 204.083 752.609 205.031 752.609C205.635 752.609 206.182 752.526 206.672 752.359C207.161 752.182 207.578 751.964 207.922 751.703C208.266 751.432 208.531 751.115 208.719 750.75H212.109C211.859 751.667 211.411 752.469 210.766 753.156C210.12 753.844 209.302 754.38 208.312 754.766C207.333 755.151 206.234 755.344 205.016 755.344ZM214.009 738.031H217.228V740.75H217.416C217.718 739.812 218.259 739.083 219.041 738.562C219.822 738.031 220.702 737.766 221.681 737.766C222.202 737.766 222.681 737.797 223.119 737.859V741.047C222.983 740.995 222.739 740.948 222.384 740.906C222.03 740.854 221.692 740.828 221.369 740.828C220.619 740.828 219.936 740.995 219.322 741.328C218.707 741.651 218.223 742.104 217.869 742.688C217.515 743.271 217.338 743.927 217.338 744.656V755H214.009V738.031Z" fill="white"/>
<circle cx="163" cy="178" r="6" fill="#CD354E"/>
<circle cx="163" cy="466" r="6" fill="#CD354E"/>
<circle cx="163" cy="777" r="6" fill="white"/>
<circle cx="163" cy="1002" r="6" fill="#CD354E"/>
<path d="M163 185H164V328H163V185Z" fill="#CD354E"/>
<path d="M163 576H164V715H163V576Z" fill="#CD354E"/>
<path d="M163 803H164V976H163V803Z" fill="#CD354E"/>
<path d="M163 328H164V416H163V328Z" fill="#CD354E"/>
<path d="M163 488H164V576H163V488Z" fill="#CD354E"/>
<path d="M163 803H164V904H163V803Z" fill="white"/>
</svg>
