<svg width="329" height="1191" viewBox="0 0 329 1191" fill="none" xmlns="http://www.w3.org/2000/svg">
<circle cx="164.235" cy="740.766" r="163.735" stroke="#CD354E"/>
<circle cx="164.235" cy="452.5" r="163.735" stroke="#CD354E"/>
<circle cx="164.235" cy="164.235" r="163.735" stroke="#CD354E"/>
<circle cx="164.565" cy="1026.03" r="163.735" stroke="#CD354E"/>
<path d="M110.679 142.012L117.867 159.543H118.132L125.32 142.012H129.492V164.637H126.21V148.293H125.992L119.335 164.605H116.632L109.976 148.293H109.788V164.637H106.507V142.012H110.679ZM142.47 156.949C142.199 156.949 141.35 157.001 139.923 157.105L138.235 157.23C137.11 157.314 136.235 157.574 135.61 158.012C134.996 158.449 134.688 159.074 134.688 159.887C134.688 160.418 134.824 160.866 135.095 161.23C135.366 161.585 135.746 161.861 136.235 162.059C136.725 162.246 137.282 162.34 137.907 162.34C138.793 162.34 139.558 162.168 140.204 161.824C140.86 161.47 141.366 161.001 141.72 160.418C142.074 159.824 142.251 159.189 142.251 158.512L142.235 153.168C142.235 152.522 142.105 151.975 141.845 151.527C141.595 151.069 141.209 150.725 140.688 150.496C140.168 150.257 139.532 150.137 138.782 150.137C137.834 150.137 137.058 150.335 136.454 150.73C135.86 151.116 135.475 151.637 135.298 152.293H131.954C132.069 151.345 132.423 150.507 133.017 149.777C133.61 149.048 134.412 148.48 135.423 148.074C136.433 147.658 137.59 147.449 138.892 147.449C139.985 147.449 141.022 147.616 142.001 147.949C142.991 148.272 143.829 148.876 144.517 149.762C145.204 150.637 145.548 151.84 145.548 153.371V164.637H142.313V162.309H142.188C141.959 162.777 141.626 163.215 141.188 163.621C140.751 164.027 140.188 164.361 139.501 164.621C138.824 164.882 138.043 165.012 137.157 165.012C136.063 165.012 135.084 164.809 134.22 164.402C133.355 163.996 132.673 163.402 132.173 162.621C131.673 161.84 131.423 160.918 131.423 159.855C131.423 158.085 132.017 156.824 133.204 156.074C134.402 155.324 135.923 154.892 137.767 154.777C138.017 154.746 139.006 154.684 140.735 154.59L142.438 154.527L142.47 156.949ZM148.01 147.668H151.229V150.387H151.417C151.719 149.449 152.26 148.72 153.042 148.199C153.823 147.668 154.703 147.402 155.682 147.402C156.203 147.402 156.682 147.434 157.12 147.496V150.684C156.984 150.632 156.74 150.585 156.385 150.543C156.031 150.491 155.693 150.465 155.37 150.465C154.62 150.465 153.937 150.632 153.323 150.965C152.708 151.288 152.224 151.741 151.87 152.324C151.516 152.908 151.338 153.564 151.338 154.293V164.637H148.01V147.668ZM161.067 154.824H161.66L168.395 147.668H172.379L164.66 155.855H164.129L161.098 158.887L161.067 154.824ZM158.035 142.012H161.363V164.637H158.035V142.012ZM162.692 156.605L164.973 154.262L172.832 164.637H168.754L162.692 156.605ZM179.998 164.98C178.362 164.98 176.93 164.621 175.701 163.902C174.482 163.184 173.545 162.168 172.888 160.855C172.232 159.543 171.904 158.017 171.904 156.277C171.904 154.538 172.232 153.001 172.888 151.668C173.545 150.324 174.467 149.288 175.654 148.559C176.842 147.819 178.211 147.449 179.763 147.449C181.138 147.449 182.394 147.746 183.529 148.34C184.665 148.923 185.576 149.855 186.263 151.137C186.951 152.408 187.295 154.017 187.295 155.965V157.137H173.779V154.652H184.029C184.029 153.788 183.852 153.022 183.498 152.355C183.154 151.678 182.659 151.147 182.013 150.762C181.368 150.376 180.628 150.184 179.795 150.184C178.888 150.184 178.092 150.402 177.404 150.84C176.717 151.277 176.18 151.866 175.795 152.605C175.409 153.345 175.217 154.137 175.217 154.98V156.918C175.217 158.033 175.415 158.991 175.81 159.793C176.217 160.595 176.779 161.204 177.498 161.621C178.227 162.038 179.066 162.246 180.013 162.246C180.618 162.246 181.165 162.163 181.654 161.996C182.144 161.819 182.56 161.6 182.904 161.34C183.248 161.069 183.513 160.751 183.701 160.387H187.092C186.842 161.303 186.394 162.105 185.748 162.793C185.102 163.48 184.284 164.017 183.295 164.402C182.316 164.788 181.217 164.98 179.998 164.98ZM196.898 150.324H187.617V147.668H196.898V150.324ZM193.46 143.605V159.652C193.46 160.257 193.549 160.72 193.726 161.043C193.903 161.366 194.137 161.59 194.429 161.715C194.721 161.84 195.07 161.902 195.476 161.902C195.976 161.902 196.533 161.882 197.148 161.84V164.715C196.554 164.809 195.867 164.855 195.085 164.855C194.179 164.855 193.346 164.689 192.585 164.355C191.835 164.012 191.231 163.501 190.773 162.824C190.325 162.137 190.101 161.303 190.101 160.324V143.605H193.46ZM205.704 164.98C204.069 164.98 202.636 164.621 201.407 163.902C200.188 163.184 199.251 162.168 198.595 160.855C197.938 159.543 197.61 158.017 197.61 156.277C197.61 154.538 197.938 153.001 198.595 151.668C199.251 150.324 200.173 149.288 201.36 148.559C202.548 147.819 203.918 147.449 205.47 147.449C206.845 147.449 208.1 147.746 209.235 148.34C210.371 148.923 211.282 149.855 211.97 151.137C212.657 152.408 213.001 154.017 213.001 155.965V157.137H199.485V154.652H209.735C209.735 153.788 209.558 153.022 209.204 152.355C208.86 151.678 208.366 151.147 207.72 150.762C207.074 150.376 206.334 150.184 205.501 150.184C204.595 150.184 203.798 150.402 203.11 150.84C202.423 151.277 201.886 151.866 201.501 152.605C201.116 153.345 200.923 154.137 200.923 154.98V156.918C200.923 158.033 201.121 158.991 201.517 159.793C201.923 160.595 202.485 161.204 203.204 161.621C203.933 162.038 204.772 162.246 205.72 162.246C206.324 162.246 206.871 162.163 207.36 161.996C207.85 161.819 208.267 161.6 208.61 161.34C208.954 161.069 209.22 160.751 209.407 160.387H212.798C212.548 161.303 212.1 162.105 211.454 162.793C210.808 163.48 209.991 164.017 209.001 164.402C208.022 164.788 206.923 164.98 205.704 164.98ZM214.698 147.668H217.917V150.387H218.104C218.406 149.449 218.948 148.72 219.729 148.199C220.51 147.668 221.391 147.402 222.37 147.402C222.891 147.402 223.37 147.434 223.807 147.496V150.684C223.672 150.632 223.427 150.585 223.073 150.543C222.719 150.491 222.38 150.465 222.057 150.465C221.307 150.465 220.625 150.632 220.01 150.965C219.396 151.288 218.911 151.741 218.557 152.324C218.203 152.908 218.026 153.564 218.026 154.293V164.637H214.698V147.668Z" fill="#CD354E"/>
<path d="M114.968 1021.12C114.884 1020.43 114.645 1019.84 114.249 1019.34C113.853 1018.84 113.317 1018.46 112.639 1018.21C111.973 1017.96 111.202 1017.84 110.327 1017.84C109.421 1017.84 108.624 1017.98 107.936 1018.26C107.249 1018.54 106.718 1018.94 106.343 1019.45C105.968 1019.95 105.78 1020.52 105.78 1021.17C105.78 1022.12 106.171 1022.85 106.952 1023.36C107.733 1023.87 108.718 1024.27 109.905 1024.57L112.077 1025.15C113.962 1025.61 115.52 1026.33 116.749 1027.31C117.988 1028.29 118.608 1029.7 118.608 1031.54C118.608 1032.81 118.275 1033.95 117.608 1034.96C116.952 1035.96 115.988 1036.75 114.718 1037.32C113.457 1037.89 111.957 1038.17 110.218 1038.17C108.54 1038.17 107.077 1037.9 105.827 1037.37C104.577 1036.83 103.603 1036.06 102.905 1035.07C102.207 1034.07 101.822 1032.89 101.749 1031.53H105.186C105.259 1032.31 105.525 1032.97 105.983 1033.51C106.442 1034.05 107.035 1034.46 107.764 1034.73C108.494 1035 109.306 1035.14 110.202 1035.14C111.16 1035.14 112.02 1034.99 112.78 1034.68C113.54 1034.38 114.134 1033.95 114.561 1033.4C114.988 1032.84 115.202 1032.2 115.202 1031.48C115.202 1030.86 115.025 1030.33 114.671 1029.9C114.317 1029.48 113.832 1029.13 113.218 1028.86C112.613 1028.57 111.853 1028.31 110.936 1028.06L108.249 1027.36C106.353 1026.83 104.9 1026.09 103.889 1025.12C102.879 1024.14 102.374 1022.89 102.374 1021.36C102.374 1020.07 102.723 1018.94 103.421 1017.96C104.129 1016.99 105.087 1016.23 106.296 1015.68C107.514 1015.13 108.884 1014.86 110.405 1014.86C111.915 1014.86 113.259 1015.13 114.436 1015.67C115.624 1016.2 116.556 1016.94 117.233 1017.89C117.91 1018.83 118.264 1019.91 118.296 1021.12H114.968ZM128.383 1023.48H119.102V1020.82H128.383V1023.48ZM124.946 1016.76V1032.81C124.946 1033.41 125.034 1033.88 125.211 1034.2C125.388 1034.52 125.623 1034.75 125.914 1034.87C126.206 1035 126.555 1035.06 126.961 1035.06C127.461 1035.06 128.019 1035.04 128.633 1035V1037.87C128.039 1037.96 127.352 1038.01 126.571 1038.01C125.664 1038.01 124.831 1037.85 124.071 1037.51C123.321 1037.17 122.717 1036.66 122.258 1035.98C121.81 1035.29 121.586 1034.46 121.586 1033.48V1016.76H124.946ZM130.064 1020.82H133.283V1023.54H133.471C133.773 1022.61 134.314 1021.88 135.096 1021.36C135.877 1020.82 136.757 1020.56 137.736 1020.56C138.257 1020.56 138.736 1020.59 139.174 1020.65V1023.84C139.038 1023.79 138.794 1023.74 138.439 1023.7C138.085 1023.65 137.747 1023.62 137.424 1023.62C136.674 1023.62 135.992 1023.79 135.377 1024.12C134.762 1024.44 134.278 1024.9 133.924 1025.48C133.57 1026.06 133.393 1026.72 133.393 1027.45V1037.79H130.064V1020.82ZM150.136 1030.11C149.865 1030.11 149.017 1030.16 147.589 1030.26L145.902 1030.39C144.777 1030.47 143.902 1030.73 143.277 1031.17C142.662 1031.61 142.355 1032.23 142.355 1033.04C142.355 1033.57 142.49 1034.02 142.761 1034.39C143.032 1034.74 143.412 1035.02 143.902 1035.21C144.392 1035.4 144.949 1035.5 145.574 1035.5C146.459 1035.5 147.225 1035.32 147.871 1034.98C148.527 1034.63 149.032 1034.16 149.386 1033.57C149.74 1032.98 149.918 1032.35 149.918 1031.67L149.902 1026.32C149.902 1025.68 149.772 1025.13 149.511 1024.68C149.261 1024.23 148.876 1023.88 148.355 1023.65C147.834 1023.41 147.199 1023.29 146.449 1023.29C145.501 1023.29 144.725 1023.49 144.121 1023.89C143.527 1024.27 143.142 1024.79 142.964 1025.45H139.621C139.735 1024.5 140.089 1023.66 140.683 1022.93C141.277 1022.2 142.079 1021.64 143.089 1021.23C144.1 1020.81 145.256 1020.61 146.558 1020.61C147.652 1020.61 148.688 1020.77 149.668 1021.11C150.657 1021.43 151.496 1022.03 152.183 1022.92C152.871 1023.79 153.214 1025 153.214 1026.53V1037.79H149.98V1035.46H149.855C149.626 1035.93 149.293 1036.37 148.855 1036.78C148.418 1037.18 147.855 1037.52 147.168 1037.78C146.49 1038.04 145.709 1038.17 144.824 1038.17C143.73 1038.17 142.751 1037.96 141.886 1037.56C141.022 1037.15 140.339 1036.56 139.839 1035.78C139.339 1035 139.089 1034.07 139.089 1033.01C139.089 1031.24 139.683 1029.98 140.871 1029.23C142.069 1028.48 143.589 1028.05 145.433 1027.93C145.683 1027.9 146.673 1027.84 148.402 1027.75L150.105 1027.68L150.136 1030.11ZM163.583 1023.48H154.302V1020.82H163.583V1023.48ZM160.146 1016.76V1032.81C160.146 1033.41 160.234 1033.88 160.411 1034.2C160.588 1034.52 160.823 1034.75 161.114 1034.87C161.406 1035 161.755 1035.06 162.161 1035.06C162.661 1035.06 163.219 1035.04 163.833 1035V1037.87C163.239 1037.96 162.552 1038.01 161.771 1038.01C160.864 1038.01 160.031 1037.85 159.271 1037.51C158.521 1037.17 157.917 1036.66 157.458 1035.98C157.01 1035.29 156.786 1034.46 156.786 1033.48V1016.76H160.146ZM172.389 1038.14C170.754 1038.14 169.322 1037.78 168.093 1037.06C166.874 1036.34 165.936 1035.32 165.28 1034.01C164.624 1032.7 164.296 1031.17 164.296 1029.43C164.296 1027.69 164.624 1026.16 165.28 1024.82C165.936 1023.48 166.858 1022.44 168.046 1021.71C169.233 1020.98 170.603 1020.61 172.155 1020.61C173.53 1020.61 174.785 1020.9 175.921 1021.5C177.056 1022.08 177.968 1023.01 178.655 1024.29C179.343 1025.56 179.686 1027.17 179.686 1029.12V1030.29H166.171V1027.81H176.421C176.421 1026.94 176.244 1026.18 175.889 1025.51C175.546 1024.83 175.051 1024.3 174.405 1023.92C173.759 1023.53 173.02 1023.34 172.186 1023.34C171.28 1023.34 170.483 1023.56 169.796 1024C169.108 1024.43 168.572 1025.02 168.186 1025.76C167.801 1026.5 167.608 1027.29 167.608 1028.14V1030.07C167.608 1031.19 167.806 1032.15 168.202 1032.95C168.608 1033.75 169.171 1034.36 169.889 1034.78C170.619 1035.19 171.457 1035.4 172.405 1035.4C173.009 1035.4 173.556 1035.32 174.046 1035.15C174.535 1034.98 174.952 1034.76 175.296 1034.5C175.639 1034.23 175.905 1033.91 176.093 1033.54H179.483C179.233 1034.46 178.785 1035.26 178.139 1035.95C177.494 1036.64 176.676 1037.17 175.686 1037.56C174.707 1037.94 173.608 1038.14 172.389 1038.14ZM188.493 1044.51C187.086 1044.51 185.842 1044.31 184.758 1043.9C183.675 1043.51 182.816 1042.93 182.18 1042.17C181.555 1041.41 181.196 1040.5 181.102 1039.45H184.493C184.659 1040.24 185.092 1040.83 185.789 1041.23C186.498 1041.63 187.414 1041.82 188.539 1041.82C189.914 1041.82 190.977 1041.52 191.727 1040.9C192.477 1040.29 192.852 1039.33 192.852 1038.04V1034.71H192.649C192.368 1035.23 192.05 1035.68 191.696 1036.07C191.342 1036.46 190.831 1036.8 190.164 1037.11C189.498 1037.4 188.685 1037.54 187.727 1037.54C186.383 1037.54 185.17 1037.21 184.086 1036.56C183.013 1035.9 182.164 1034.94 181.539 1033.67C180.925 1032.4 180.618 1030.88 180.618 1029.12C180.618 1027.36 180.925 1025.84 181.539 1024.56C182.154 1023.27 182.998 1022.29 184.071 1021.62C185.154 1020.94 186.383 1020.61 187.758 1020.61C188.717 1020.61 189.524 1020.76 190.18 1021.07C190.836 1021.39 191.321 1021.73 191.633 1022.09C191.946 1022.45 192.295 1022.94 192.68 1023.56H192.883V1020.82H196.164V1038.17C196.164 1039.56 195.836 1040.74 195.18 1041.68C194.524 1042.64 193.623 1043.35 192.477 1043.81C191.331 1044.28 190.003 1044.51 188.493 1044.51ZM188.461 1034.78C189.399 1034.78 190.201 1034.55 190.868 1034.11C191.534 1033.66 192.039 1033.02 192.383 1032.2C192.727 1031.37 192.899 1030.37 192.899 1029.2C192.899 1028.04 192.727 1027.03 192.383 1026.17C192.039 1025.29 191.534 1024.62 190.868 1024.15C190.211 1023.68 189.409 1023.45 188.461 1023.45C187.513 1023.45 186.706 1023.7 186.039 1024.2C185.373 1024.69 184.868 1025.37 184.524 1026.25C184.18 1027.11 184.008 1028.1 184.008 1029.2C184.008 1030.31 184.18 1031.29 184.524 1032.14C184.868 1032.97 185.373 1033.62 186.039 1034.09C186.706 1034.55 187.513 1034.78 188.461 1034.78ZM198.627 1020.82H201.955V1037.79H198.627V1020.82ZM200.283 1018.2C199.908 1018.2 199.559 1018.12 199.236 1017.95C198.913 1017.77 198.658 1017.53 198.471 1017.23C198.283 1016.92 198.189 1016.58 198.189 1016.23C198.189 1015.87 198.283 1015.54 198.471 1015.25C198.658 1014.94 198.913 1014.7 199.236 1014.53C199.559 1014.35 199.908 1014.26 200.283 1014.26C200.679 1014.26 201.038 1014.35 201.361 1014.53C201.684 1014.7 201.934 1014.94 202.111 1015.25C202.299 1015.54 202.393 1015.87 202.393 1016.23C202.393 1016.58 202.299 1016.92 202.111 1017.23C201.934 1017.53 201.684 1017.77 201.361 1017.95C201.038 1018.12 200.679 1018.2 200.283 1018.2ZM213.949 1025.45C213.793 1024.74 213.438 1024.19 212.886 1023.81C212.345 1023.42 211.626 1023.23 210.73 1023.23C210.105 1023.23 209.543 1023.33 209.043 1023.53C208.553 1023.71 208.162 1023.99 207.871 1024.34C207.589 1024.68 207.449 1025.07 207.449 1025.51C207.449 1026.01 207.668 1026.44 208.105 1026.81C208.543 1027.17 209.214 1027.45 210.121 1027.65L212.824 1028.28C214.386 1028.63 215.553 1029.19 216.324 1029.95C217.095 1030.7 217.48 1031.67 217.48 1032.87C217.48 1033.89 217.199 1034.8 216.636 1035.61C216.084 1036.4 215.287 1037.02 214.246 1037.46C213.204 1037.91 211.964 1038.14 210.527 1038.14C209.183 1038.14 208.022 1037.94 207.043 1037.56C206.063 1037.16 205.282 1036.6 204.699 1035.86C204.126 1035.11 203.767 1034.21 203.621 1033.17H207.043C207.199 1033.92 207.563 1034.49 208.136 1034.87C208.72 1035.26 209.506 1035.45 210.496 1035.45C211.204 1035.45 211.824 1035.36 212.355 1035.18C212.897 1035 213.313 1034.73 213.605 1034.37C213.907 1034.02 214.058 1033.61 214.058 1033.14C214.058 1032.58 213.845 1032.13 213.418 1031.76C213.001 1031.4 212.339 1031.12 211.433 1030.93L208.793 1030.34C207.261 1030 206.1 1029.43 205.308 1028.64C204.517 1027.85 204.126 1026.87 204.136 1025.7C204.136 1024.7 204.407 1023.81 204.949 1023.04C205.501 1022.27 206.272 1021.67 207.261 1021.25C208.251 1020.82 209.402 1020.61 210.714 1020.61C211.944 1020.61 213.027 1020.81 213.964 1021.21C214.902 1021.61 215.642 1022.17 216.183 1022.9C216.725 1023.63 217.043 1024.48 217.136 1025.45H213.949ZM227.083 1023.48H217.802V1020.82H227.083V1023.48ZM223.646 1016.76V1032.81C223.646 1033.41 223.734 1033.88 223.911 1034.2C224.088 1034.52 224.323 1034.75 224.614 1034.87C224.906 1035 225.255 1035.06 225.661 1035.06C226.161 1035.06 226.719 1035.04 227.333 1035V1037.87C226.739 1037.96 226.052 1038.01 225.271 1038.01C224.364 1038.01 223.531 1037.85 222.771 1037.51C222.021 1037.17 221.417 1036.66 220.958 1035.98C220.51 1035.29 220.286 1034.46 220.286 1033.48V1016.76H223.646Z" fill="#CD354E"/>
<path d="M131.737 437.656C131.56 436.698 131.191 435.88 130.628 435.203C130.076 434.516 129.383 433.995 128.55 433.641C127.727 433.286 126.836 433.109 125.878 433.109C124.576 433.109 123.409 433.443 122.378 434.109C121.347 434.766 120.534 435.734 119.941 437.016C119.357 438.286 119.066 439.812 119.066 441.594C119.066 443.396 119.357 444.932 119.941 446.203C120.534 447.474 121.347 448.438 122.378 449.094C123.409 449.75 124.571 450.078 125.862 450.078C126.821 450.078 127.706 449.901 128.519 449.547C129.331 449.193 130.024 448.682 130.597 448.016C131.17 447.339 131.55 446.536 131.737 445.609L135.191 445.625C134.951 447.094 134.404 448.406 133.55 449.562C132.706 450.719 131.623 451.62 130.3 452.266C128.977 452.901 127.493 453.219 125.847 453.219C123.878 453.219 122.123 452.75 120.581 451.812C119.05 450.875 117.847 449.526 116.972 447.766C116.107 446.005 115.675 443.948 115.675 441.594C115.675 439.219 116.112 437.156 116.987 435.406C117.862 433.656 119.066 432.312 120.597 431.375C122.139 430.438 123.889 429.969 125.847 429.969C127.441 429.969 128.899 430.276 130.222 430.891C131.555 431.495 132.654 432.375 133.519 433.531C134.383 434.688 134.941 436.062 135.191 437.656H131.737ZM137.044 435.938H140.262V438.656H140.45C140.752 437.719 141.294 436.99 142.075 436.469C142.856 435.938 143.736 435.672 144.716 435.672C145.236 435.672 145.716 435.703 146.153 435.766V438.953C146.018 438.901 145.773 438.854 145.419 438.812C145.065 438.76 144.726 438.734 144.403 438.734C143.653 438.734 142.971 438.901 142.356 439.234C141.742 439.557 141.257 440.01 140.903 440.594C140.549 441.177 140.372 441.833 140.372 442.562V452.906H137.044V435.938ZM153.819 453.25C152.183 453.25 150.751 452.891 149.522 452.172C148.303 451.453 147.366 450.438 146.709 449.125C146.053 447.812 145.725 446.286 145.725 444.547C145.725 442.807 146.053 441.271 146.709 439.938C147.366 438.594 148.287 437.557 149.475 436.828C150.662 436.089 152.032 435.719 153.584 435.719C154.959 435.719 156.215 436.016 157.35 436.609C158.485 437.193 159.397 438.125 160.084 439.406C160.772 440.677 161.116 442.286 161.116 444.234V445.406H147.6V442.922H157.85C157.85 442.057 157.673 441.292 157.319 440.625C156.975 439.948 156.48 439.417 155.834 439.031C155.189 438.646 154.449 438.453 153.616 438.453C152.709 438.453 151.912 438.672 151.225 439.109C150.537 439.547 150.001 440.135 149.616 440.875C149.23 441.615 149.037 442.406 149.037 443.25V445.188C149.037 446.302 149.235 447.26 149.631 448.062C150.037 448.865 150.6 449.474 151.319 449.891C152.048 450.307 152.886 450.516 153.834 450.516C154.439 450.516 154.985 450.432 155.475 450.266C155.965 450.089 156.381 449.87 156.725 449.609C157.069 449.339 157.334 449.021 157.522 448.656H160.912C160.662 449.573 160.215 450.375 159.569 451.062C158.923 451.75 158.105 452.286 157.116 452.672C156.136 453.057 155.037 453.25 153.819 453.25ZM173.047 445.219C172.776 445.219 171.927 445.271 170.5 445.375L168.812 445.5C167.688 445.583 166.812 445.844 166.188 446.281C165.573 446.719 165.266 447.344 165.266 448.156C165.266 448.688 165.401 449.135 165.672 449.5C165.943 449.854 166.323 450.13 166.812 450.328C167.302 450.516 167.859 450.609 168.484 450.609C169.37 450.609 170.135 450.438 170.781 450.094C171.438 449.74 171.943 449.271 172.297 448.688C172.651 448.094 172.828 447.458 172.828 446.781L172.812 441.438C172.812 440.792 172.682 440.245 172.422 439.797C172.172 439.339 171.786 438.995 171.266 438.766C170.745 438.526 170.109 438.406 169.359 438.406C168.411 438.406 167.635 438.604 167.031 439C166.438 439.385 166.052 439.906 165.875 440.562H162.531C162.646 439.615 163 438.776 163.594 438.047C164.188 437.318 164.99 436.75 166 436.344C167.01 435.927 168.167 435.719 169.469 435.719C170.562 435.719 171.599 435.885 172.578 436.219C173.568 436.542 174.406 437.146 175.094 438.031C175.781 438.906 176.125 440.109 176.125 441.641V452.906H172.891V450.578H172.766C172.536 451.047 172.203 451.484 171.766 451.891C171.328 452.297 170.766 452.63 170.078 452.891C169.401 453.151 168.62 453.281 167.734 453.281C166.641 453.281 165.661 453.078 164.797 452.672C163.932 452.266 163.25 451.672 162.75 450.891C162.25 450.109 162 449.188 162 448.125C162 446.354 162.594 445.094 163.781 444.344C164.979 443.594 166.5 443.161 168.344 443.047C168.594 443.016 169.583 442.953 171.312 442.859L173.016 442.797L173.047 445.219ZM186.494 438.594H177.212V435.938H186.494V438.594ZM183.056 431.875V447.922C183.056 448.526 183.145 448.99 183.322 449.312C183.499 449.635 183.733 449.859 184.025 449.984C184.317 450.109 184.666 450.172 185.072 450.172C185.572 450.172 186.129 450.151 186.744 450.109V452.984C186.15 453.078 185.462 453.125 184.681 453.125C183.775 453.125 182.942 452.958 182.181 452.625C181.431 452.281 180.827 451.771 180.369 451.094C179.921 450.406 179.697 449.573 179.697 448.594V431.875H183.056ZM195.159 453.25C193.576 453.25 192.18 452.885 190.972 452.156C189.774 451.427 188.847 450.401 188.191 449.078C187.534 447.755 187.206 446.229 187.206 444.5C187.206 442.75 187.534 441.214 188.191 439.891C188.847 438.568 189.774 437.542 190.972 436.812C192.18 436.083 193.576 435.719 195.159 435.719C196.732 435.719 198.118 436.083 199.316 436.812C200.514 437.542 201.435 438.568 202.081 439.891C202.727 441.214 203.05 442.75 203.05 444.5C203.05 446.229 202.727 447.755 202.081 449.078C201.435 450.401 200.514 451.427 199.316 452.156C198.118 452.885 196.732 453.25 195.159 453.25ZM195.159 450.469C196.159 450.469 196.998 450.203 197.675 449.672C198.352 449.13 198.857 448.411 199.191 447.516C199.524 446.609 199.691 445.599 199.691 444.484C199.691 443.37 199.524 442.359 199.191 441.453C198.857 440.547 198.352 439.828 197.675 439.297C196.998 438.755 196.159 438.484 195.159 438.484C194.159 438.484 193.316 438.755 192.628 439.297C191.941 439.828 191.425 440.547 191.081 441.453C190.738 442.359 190.566 443.37 190.566 444.484C190.566 445.599 190.738 446.609 191.081 447.516C191.425 448.411 191.941 449.13 192.628 449.672C193.316 450.203 194.159 450.469 195.159 450.469ZM204.794 435.938H208.012V438.656H208.2C208.502 437.719 209.044 436.99 209.825 436.469C210.606 435.938 211.486 435.672 212.466 435.672C212.986 435.672 213.466 435.703 213.903 435.766V438.953C213.768 438.901 213.523 438.854 213.169 438.812C212.815 438.76 212.476 438.734 212.153 438.734C211.403 438.734 210.721 438.901 210.106 439.234C209.492 439.557 209.007 440.01 208.653 440.594C208.299 441.177 208.122 441.833 208.122 442.562V452.906H204.794V435.938Z" fill="#CD354E"/>
<path d="M108.695 755.793V752.777H114.101C115.809 752.777 117.231 752.454 118.367 751.809C119.502 751.163 120.351 750.225 120.913 748.996C121.486 747.757 121.773 746.241 121.773 744.449C121.773 742.678 121.492 741.178 120.929 739.949C120.377 738.71 119.544 737.772 118.429 737.137C117.325 736.501 115.95 736.184 114.304 736.184H108.57V733.168H114.507C116.726 733.168 118.632 733.616 120.226 734.512C121.83 735.408 123.054 736.704 123.898 738.402C124.752 740.1 125.179 742.116 125.179 744.449C125.179 746.803 124.747 748.829 123.882 750.527C123.028 752.225 121.783 753.527 120.148 754.434C118.523 755.34 116.575 755.793 114.304 755.793H108.695ZM110.398 755.793H106.96V733.168H110.398V755.793ZM134.501 756.137C132.866 756.137 131.433 755.777 130.204 755.059C128.985 754.34 128.048 753.324 127.392 752.012C126.735 750.699 126.407 749.173 126.407 747.434C126.407 745.694 126.735 744.158 127.392 742.824C128.048 741.48 128.97 740.444 130.157 739.715C131.345 738.975 132.715 738.605 134.267 738.605C135.642 738.605 136.897 738.902 138.032 739.496C139.168 740.079 140.079 741.012 140.767 742.293C141.454 743.564 141.798 745.173 141.798 747.121V748.293H128.282V745.809H138.532C138.532 744.944 138.355 744.178 138.001 743.512C137.657 742.835 137.162 742.303 136.517 741.918C135.871 741.533 135.131 741.34 134.298 741.34C133.392 741.34 132.595 741.559 131.907 741.996C131.22 742.434 130.683 743.022 130.298 743.762C129.912 744.501 129.72 745.293 129.72 746.137V748.074C129.72 749.189 129.918 750.147 130.313 750.949C130.72 751.751 131.282 752.361 132.001 752.777C132.73 753.194 133.569 753.402 134.517 753.402C135.121 753.402 135.668 753.319 136.157 753.152C136.647 752.975 137.063 752.757 137.407 752.496C137.751 752.225 138.017 751.908 138.204 751.543H141.595C141.345 752.46 140.897 753.262 140.251 753.949C139.605 754.637 138.787 755.173 137.798 755.559C136.819 755.944 135.72 756.137 134.501 756.137ZM153.01 743.449C152.854 742.741 152.5 742.194 151.948 741.809C151.406 741.423 150.687 741.23 149.792 741.23C149.167 741.23 148.604 741.329 148.104 741.527C147.615 741.715 147.224 741.986 146.932 742.34C146.651 742.684 146.51 743.074 146.51 743.512C146.51 744.012 146.729 744.444 147.167 744.809C147.604 745.173 148.276 745.454 149.182 745.652L151.885 746.277C153.448 746.632 154.615 747.189 155.385 747.949C156.156 748.699 156.542 749.673 156.542 750.871C156.542 751.892 156.26 752.803 155.698 753.605C155.146 754.397 154.349 755.017 153.307 755.465C152.266 755.913 151.026 756.137 149.588 756.137C148.245 756.137 147.083 755.944 146.104 755.559C145.125 755.163 144.344 754.595 143.76 753.855C143.187 753.105 142.828 752.21 142.682 751.168H146.104C146.26 751.918 146.625 752.486 147.198 752.871C147.781 753.257 148.568 753.449 149.557 753.449C150.266 753.449 150.885 753.361 151.417 753.184C151.958 752.996 152.375 752.725 152.667 752.371C152.969 752.017 153.12 751.605 153.12 751.137C153.12 750.585 152.906 750.126 152.479 749.762C152.062 749.397 151.401 749.121 150.495 748.934L147.854 748.34C146.323 747.996 145.161 747.428 144.37 746.637C143.578 745.845 143.187 744.866 143.198 743.699C143.198 742.699 143.469 741.814 144.01 741.043C144.562 740.272 145.333 739.673 146.323 739.246C147.312 738.819 148.463 738.605 149.776 738.605C151.005 738.605 152.088 738.809 153.026 739.215C153.963 739.611 154.703 740.173 155.245 740.902C155.786 741.632 156.104 742.48 156.198 743.449H153.01ZM158.238 738.824H161.567V755.793H158.238V738.824ZM159.895 736.199C159.52 736.199 159.171 736.116 158.848 735.949C158.525 735.772 158.27 735.533 158.082 735.23C157.895 734.918 157.801 734.585 157.801 734.23C157.801 733.866 157.895 733.538 158.082 733.246C158.27 732.944 158.525 732.704 158.848 732.527C159.171 732.35 159.52 732.262 159.895 732.262C160.291 732.262 160.65 732.35 160.973 732.527C161.296 732.704 161.546 732.944 161.723 733.246C161.91 733.538 162.004 733.866 162.004 734.23C162.004 734.585 161.91 734.918 161.723 735.23C161.546 735.533 161.296 735.772 160.973 735.949C160.65 736.116 160.291 736.199 159.895 736.199ZM171.154 762.512C169.748 762.512 168.503 762.309 167.42 761.902C166.336 761.507 165.477 760.928 164.842 760.168C164.217 759.408 163.857 758.501 163.763 757.449H167.154C167.321 758.241 167.753 758.835 168.451 759.23C169.159 759.626 170.076 759.824 171.201 759.824C172.576 759.824 173.638 759.517 174.388 758.902C175.138 758.288 175.513 757.335 175.513 756.043V752.715H175.31C175.029 753.225 174.711 753.678 174.357 754.074C174.003 754.46 173.493 754.803 172.826 755.105C172.159 755.397 171.347 755.543 170.388 755.543C169.045 755.543 167.831 755.215 166.748 754.559C165.675 753.902 164.826 752.939 164.201 751.668C163.586 750.397 163.279 748.882 163.279 747.121C163.279 745.361 163.586 743.84 164.201 742.559C164.816 741.267 165.659 740.288 166.732 739.621C167.816 738.944 169.045 738.605 170.42 738.605C171.378 738.605 172.185 738.762 172.842 739.074C173.498 739.387 173.982 739.725 174.295 740.09C174.607 740.454 174.956 740.944 175.342 741.559H175.545V738.824H178.826V756.168C178.826 757.564 178.498 758.736 177.842 759.684C177.185 760.642 176.284 761.35 175.138 761.809C173.993 762.277 172.665 762.512 171.154 762.512ZM171.123 752.777C172.06 752.777 172.862 752.553 173.529 752.105C174.196 751.658 174.701 751.022 175.045 750.199C175.388 749.366 175.56 748.366 175.56 747.199C175.56 746.043 175.388 745.033 175.045 744.168C174.701 743.293 174.196 742.621 173.529 742.152C172.873 741.684 172.071 741.449 171.123 741.449C170.175 741.449 169.368 741.699 168.701 742.199C168.034 742.689 167.529 743.371 167.185 744.246C166.842 745.111 166.67 746.095 166.67 747.199C166.67 748.314 166.842 749.293 167.185 750.137C167.529 750.97 168.034 751.621 168.701 752.09C169.368 752.548 170.175 752.777 171.123 752.777ZM184.617 755.793H181.288V738.824H184.476V741.59H184.695C185.111 740.642 185.736 739.908 186.57 739.387C187.413 738.866 188.46 738.605 189.71 738.605C190.877 738.605 191.887 738.85 192.742 739.34C193.606 739.819 194.273 740.538 194.742 741.496C195.221 742.454 195.46 743.621 195.46 744.996V755.793H192.132V745.387C192.132 744.574 191.992 743.876 191.71 743.293C191.429 742.71 191.023 742.267 190.492 741.965C189.96 741.652 189.315 741.496 188.554 741.496C187.783 741.496 187.101 741.663 186.507 741.996C185.913 742.319 185.45 742.803 185.117 743.449C184.783 744.085 184.617 744.845 184.617 745.73V755.793ZM205.251 756.137C203.616 756.137 202.183 755.777 200.954 755.059C199.735 754.34 198.798 753.324 198.142 752.012C197.485 750.699 197.157 749.173 197.157 747.434C197.157 745.694 197.485 744.158 198.142 742.824C198.798 741.48 199.72 740.444 200.907 739.715C202.095 738.975 203.465 738.605 205.017 738.605C206.392 738.605 207.647 738.902 208.782 739.496C209.918 740.079 210.829 741.012 211.517 742.293C212.204 743.564 212.548 745.173 212.548 747.121V748.293H199.032V745.809H209.282C209.282 744.944 209.105 744.178 208.751 743.512C208.407 742.835 207.912 742.303 207.267 741.918C206.621 741.533 205.881 741.34 205.048 741.34C204.142 741.34 203.345 741.559 202.657 741.996C201.97 742.434 201.433 743.022 201.048 743.762C200.662 744.501 200.47 745.293 200.47 746.137V748.074C200.47 749.189 200.668 750.147 201.063 750.949C201.47 751.751 202.032 752.361 202.751 752.777C203.48 753.194 204.319 753.402 205.267 753.402C205.871 753.402 206.418 753.319 206.907 753.152C207.397 752.975 207.813 752.757 208.157 752.496C208.501 752.225 208.767 751.908 208.954 751.543H212.345C212.095 752.46 211.647 753.262 211.001 753.949C210.355 754.637 209.537 755.173 208.548 755.559C207.569 755.944 206.47 756.137 205.251 756.137ZM214.245 738.824H217.463V741.543H217.651C217.953 740.605 218.495 739.876 219.276 739.355C220.057 738.824 220.937 738.559 221.917 738.559C222.437 738.559 222.917 738.59 223.354 738.652V741.84C223.219 741.788 222.974 741.741 222.62 741.699C222.266 741.647 221.927 741.621 221.604 741.621C220.854 741.621 220.172 741.788 219.557 742.121C218.943 742.444 218.458 742.897 218.104 743.48C217.75 744.064 217.573 744.72 217.573 745.449V755.793H214.245V738.824Z" fill="#CD354E"/>
<circle cx="164.235" cy="178.889" r="6.4397" fill="#CD354E"/>
<circle cx="164.235" cy="467.155" r="6.4397" fill="#CD354E"/>
<circle cx="164.235" cy="778.233" r="6.4397" fill="#CD354E"/>
<circle cx="163.77" cy="1003.23" r="6.4397" fill="#CD354E"/>
<rect x="163.735" y="185.328" width="1" height="143.14" fill="#CD354E"/>
<rect x="163.735" y="576.531" width="1" height="139.508" fill="#CD354E"/>
<rect x="163.533" y="803.793" width="1" height="173" fill="#CD354E"/>
<rect x="163.735" y="328.469" width="1" height="88.2826" fill="#CD354E"/>
<rect x="163.735" y="488.25" width="1" height="88.2826" fill="#CD354E"/>
</svg>
