<svg width="290" height="65" viewBox="0 0 290 65" fill="none" xmlns="http://www.w3.org/2000/svg">
<path d="M91.7726 46.8128H86.1733L78.2117 33.7331H69.9002V46.8128H64.8258V11.4669H78.7367C86.4795 11.4669 91.4227 15.8414 91.4227 22.4032C91.4227 27.6963 88.3605 31.6333 83.3299 33.1207L91.7726 46.8128ZM78.2555 15.9727H69.9002V29.2711H78.2555C83.3299 29.2711 86.3045 26.6027 86.3045 22.5344C86.3045 18.5536 83.3736 15.9727 78.2555 15.9727ZM105.753 47.3815C97.8788 47.3815 93.0231 42.0446 93.0231 33.6019C93.0231 24.7216 97.7038 19.2098 105.315 19.2098C113.233 19.2098 117.739 24.4592 117.739 33.5144V34.783H98.01V35.3954C98.2288 40.0324 101.247 43.182 105.709 43.182C109.296 43.182 111.833 41.4759 112.402 38.4575H117.477C116.602 44.1006 112.096 47.3815 105.753 47.3815ZM98.01 30.8459H112.84C112.752 26.1215 110.084 23.3656 105.403 23.3656C101.072 23.3656 98.3163 26.384 98.01 30.8459ZM131.183 47.2503C124.227 47.2503 119.415 41.3884 119.415 33.2519C119.415 24.8529 124.14 19.2098 131.489 19.2098C135.382 19.2098 138.444 20.8284 140.457 23.628V10.5046H145.269V46.8128H140.675L140.369 42.8758C138.357 45.6317 135.032 47.2503 131.183 47.2503ZM132.145 43.0508C137.001 43.0508 140.325 39.0262 140.325 33.1644C140.325 27.4338 137.001 23.3656 132.189 23.3656C127.377 23.3656 124.315 27.1714 124.358 33.2082C124.446 39.245 127.464 43.0508 132.145 43.0508ZM178.493 28.7462C182.299 29.6648 185.098 32.727 185.098 37.1015C185.098 43.1382 180.418 46.8566 172.194 46.8566H157.408V11.4669H171.931C179.411 11.4669 183.742 14.9665 183.742 20.9158C183.742 24.6779 181.599 27.5651 178.493 28.7462ZM170.794 15.9289H162.482V26.8651H170.794C175.562 26.8651 178.624 25.0279 178.624 21.2221C178.624 17.635 176.131 15.9289 170.794 15.9289ZM162.482 42.3946H171.931C177.18 42.3946 179.98 40.4698 179.98 36.9265C179.98 33.0769 177.18 31.0647 171.931 31.0647H162.482V42.3946ZM192.97 46.8128H188.027V19.9535H192.839V24.9404C195.201 20.8284 199.794 18.6411 205.131 19.341V24.0217C204.431 23.7593 203.338 23.5405 201.807 23.8905C196.689 24.153 192.97 28.3525 192.97 34.608V46.8128ZM212.275 15.4477H206.938V10.4608H212.275V15.4477ZM212.056 46.8128H207.157V19.9535H212.056V46.8128ZM227.534 47.3815C219.922 47.3815 214.979 41.9134 214.979 33.4269C214.979 24.8529 219.966 19.2098 227.534 19.2098C234.358 19.2098 238.689 23.1468 239.126 29.4024H233.921C233.527 25.859 230.99 23.5843 227.578 23.5843C222.853 23.5843 219.922 27.3026 219.922 33.2956C219.922 39.3324 222.853 43.0508 227.578 43.0508C231.296 43.0508 233.658 40.776 234.096 37.2764H239.258C238.864 43.2695 234.314 47.3815 227.534 47.3815ZM250.919 33.1207L265.355 46.8128H259.055L246.982 35.3079V46.8128H241.995V10.5046H246.982V30.8897L258.137 19.9535H264.261L250.919 33.1207ZM276.832 47.5127C270.227 47.5127 265.677 44.1006 265.021 38.6763H270.139C270.489 41.4759 273.201 43.4007 276.789 43.4007C280.638 43.4007 282.913 41.8696 282.913 39.3762C282.913 37.1015 281.382 36.2266 276.876 35.2642L274.251 34.7392C268.565 33.5144 265.852 30.9334 265.852 27.0839C265.852 22.4032 270.096 19.2098 276.264 19.2098C282.563 19.2098 286.937 22.4469 287.287 27.3026H282.213C281.907 24.6779 279.851 23.3218 276.307 23.3218C272.852 23.3218 270.752 24.6342 270.752 26.9089C270.752 29.0524 272.414 30.1898 276.264 30.9772L279.719 31.7208C285.1 32.8145 287.812 35.0892 287.812 39.2012C287.812 44.2319 283.525 47.5127 276.832 47.5127Z" fill="white"/>
<rect x="3.01367" y="13.1484" width="12.9492" height="42.2138" rx="6.4746" transform="rotate(-90 3.01367 13.1484)" fill="#D1D2D4"/>
<rect x="3.01367" y="37.5312" width="12.9492" height="42.2138" rx="6.4746" transform="rotate(-90 3.01367 37.5312)" fill="#D1D2D4"/>
<rect x="3.01367" y="0.199219" width="12.9492" height="61.6466" rx="6.4746" fill="#5CC2CE"/>
<path d="M15.9629 37.5312H9.48828C5.91246 37.5312 3.01367 34.6325 3.01367 31.0566C3.01374 27.4809 5.9125 24.582 9.48828 24.582H15.9629V37.5312Z" fill="#4BA2AC"/>
<rect x="32.2783" y="0.199219" width="12.9492" height="37.3313" rx="6.4746" fill="#CF3140"/>
<rect x="0.382812" y="31.7148" width="12.9234" height="50.7542" rx="6.46171" transform="rotate(-49.5 0.382812 31.7148)" fill="#CF3140"/>
<path d="M4.49316 26.7459C6.8155 24.027 10.903 23.7059 13.6221 26.0282L15.9629 28.0272V45.0565L5.21191 35.8748C3.97355 34.8172 3.23419 33.393 3.01367 31.8993V29.994C3.18612 28.833 3.67471 27.7042 4.49316 26.7459Z" fill="#4A2632"/>
<path d="M10.5742 24.582C11.6643 24.7791 12.719 25.257 13.6221 26.0283L27.0898 37.5312H9.48828C8.11725 37.5312 6.84654 37.104 5.7998 36.377L5.21191 35.875C4.78958 35.5143 4.42487 35.1109 4.11914 34.6768C3.42108 33.6434 3.01367 32.3975 3.01367 31.0566C3.01374 27.4809 5.9125 24.582 9.48828 24.582H10.5742Z" fill="#3D1F29"/>
<mask id="mask0_365_201" style="mask-type:alpha" maskUnits="userSpaceOnUse" x="15" y="24" width="13" height="14">
<rect x="15.9629" y="37.5312" width="12.9492" height="11.1267" transform="rotate(-90 15.9629 37.5312)" fill="#D1D2D4"/>
</mask>
<g mask="url(#mask0_365_201)">
<path d="M10.5742 24.582C11.6643 24.7791 12.719 25.257 13.6221 26.0283L27.0898 37.5312H9.48828C8.11725 37.5312 6.84654 37.104 5.7998 36.377L5.21191 35.875C4.78958 35.5143 4.42487 35.1109 4.11914 34.6768C3.42108 33.6434 3.01367 32.3975 3.01367 31.0566C3.01374 27.4809 5.9125 24.582 9.48828 24.582H10.5742Z" fill="#AA2735"/>
</g>
<path d="M9.48828 0.199219C13.0641 0.199247 15.9629 3.09802 15.9629 6.67383V13.1475H9.48828C5.91246 13.1475 3.01367 10.2487 3.01367 6.67285C3.01371 5.66755 3.24345 4.71608 3.65234 3.86719C4.28885 2.54608 5.36053 1.4744 6.68164 0.837891C6.77585 0.792496 6.8711 0.748907 6.96777 0.708008C7.74244 0.380317 8.59424 0.199219 9.48828 0.199219Z" fill="#4CA0AB"/>
<path d="M38.7529 0.199219C39.497 0.199219 40.2115 0.325615 40.877 0.556641C41.1108 0.637857 41.3387 0.731476 41.5596 0.837891C42.8807 1.4744 43.9524 2.54608 44.5889 3.86719C44.9977 4.71606 45.2275 5.66758 45.2275 6.67285C45.2275 10.2486 42.3287 13.1474 38.7529 13.1475H32.2783V6.67383C32.2783 3.09801 35.1771 0.199228 38.7529 0.199219Z" fill="#A92634"/>
<path d="M38.7529 24.582C42.3287 24.5821 45.2275 27.4809 45.2275 31.0566C45.2275 34.6324 42.3287 37.5312 38.7529 37.5312H38.7158C35.1572 37.5113 32.2785 34.6209 32.2783 31.0576V24.582H38.7529Z" fill="#AA2735"/>
<circle cx="9.488" cy="31.196" r="1.54366" fill="white"/>
<circle cx="9.488" cy="56.1569" r="1.54366" fill="white"/>
<circle cx="38.7526" cy="56.1569" r="1.54366" fill="white"/>
<circle cx="9.488" cy="6.67257" r="1.54366" fill="white"/>
<circle cx="38.7526" cy="6.67257" r="1.54366" fill="white"/>
<circle cx="38.7526" cy="31.196" r="1.54366" fill="white"/>
<rect x="9.14014" y="6.73047" width="0.695419" height="49.3575" fill="white"/>
<rect x="38.4336" y="6.73047" width="0.695419" height="24.816" fill="white"/>
<rect x="9.14014" y="6.32812" width="29.6395" height="0.695419" fill="white"/>
<rect x="9.14014" y="30.8516" width="29.6395" height="0.695419" fill="white"/>
<rect x="9.63867" y="31.0156" width="39.3746" height="0.695419" transform="rotate(40.5 9.63867 31.0156)" fill="white"/>
</svg>
