<svg width="158" height="36" viewBox="0 0 158 36" fill="none" xmlns="http://www.w3.org/2000/svg">
<path d="M151.67 25.756C148.046 25.756 145.55 23.884 145.19 20.908H147.998C148.19 22.444 149.678 23.5 151.646 23.5C153.758 23.5 155.006 22.66 155.006 21.292C155.006 20.044 154.166 19.564 151.694 19.036L150.254 18.748C147.134 18.076 145.646 16.66 145.646 14.548C145.646 11.98 147.974 10.228 151.358 10.228C154.814 10.228 157.214 12.004 157.406 14.668H154.622C154.454 13.228 153.326 12.484 151.382 12.484C149.486 12.484 148.334 13.204 148.334 14.452C148.334 15.628 149.246 16.252 151.358 16.684L153.254 17.092C156.206 17.692 157.694 18.94 157.694 21.196C157.694 23.956 155.342 25.756 151.67 25.756Z" fill="#222222"/>
<path d="M137.453 17.8601L145.373 25.3721H141.917L135.293 19.0601V25.3721H132.557V5.45215H135.293V16.6361L141.413 10.6361H144.773L137.453 17.8601Z" fill="#222222"/>
<path d="M124.623 25.684C120.447 25.684 117.735 22.684 117.735 18.028C117.735 13.324 120.471 10.228 124.623 10.228C128.367 10.228 130.743 12.388 130.983 15.82H128.127C127.911 13.876 126.519 12.628 124.647 12.628C122.055 12.628 120.447 14.668 120.447 17.956C120.447 21.268 122.055 23.308 124.647 23.308C126.687 23.308 127.983 22.06 128.223 20.14H131.055C130.839 23.428 128.343 25.684 124.623 25.684Z" fill="#222222"/>
<path d="M116.251 8.16422H113.323V5.42822H116.251V8.16422ZM116.131 25.3722H113.443V10.6362H116.131V25.3722Z" fill="#222222"/>
<path d="M105.66 25.3718H102.948V10.6358H105.588V13.3718C106.884 11.1158 109.404 9.91579 112.332 10.2998V12.8678C111.948 12.7238 111.348 12.6038 110.508 12.7958C107.7 12.9398 105.66 15.2438 105.66 18.6758V25.3718Z" fill="#222222"/>
<path d="M97.7174 15.46C99.8054 15.964 101.341 17.644 101.341 20.044C101.341 23.356 98.7734 25.396 94.2614 25.396H86.1494V5.97998H94.1174C98.2214 5.97998 100.597 7.89998 100.597 11.164C100.597 13.228 99.4214 14.812 97.7174 15.46ZM93.4934 8.42798H88.9334V14.428H93.4934C96.1094 14.428 97.7894 13.42 97.7894 11.332C97.7894 9.36398 96.4214 8.42798 93.4934 8.42798ZM88.9334 22.948H94.1174C96.9974 22.948 98.5334 21.892 98.5334 19.948C98.5334 17.836 96.9974 16.732 94.1174 16.732H88.9334V22.948Z" fill="#222222"/>
<path d="M71.7617 25.6121C67.9457 25.6121 65.3057 22.3961 65.3057 17.9321C65.3057 13.3241 67.8977 10.2281 71.9297 10.2281C74.0657 10.2281 75.7457 11.1161 76.8497 12.6521V5.45215H79.4897V25.3721H76.9697L76.8017 23.2121C75.6977 24.7241 73.8737 25.6121 71.7617 25.6121ZM72.2897 23.3081C74.9537 23.3081 76.7777 21.1001 76.7777 17.8841C76.7777 14.7401 74.9537 12.5081 72.3137 12.5081C69.6737 12.5081 67.9937 14.5961 68.0177 17.9081C68.0657 21.2201 69.7217 23.3081 72.2897 23.3081Z" fill="#222222"/>
<path d="M57.8102 25.684C53.4902 25.684 50.8262 22.756 50.8262 18.124C50.8262 13.252 53.3942 10.228 57.5702 10.228C61.9142 10.228 64.3862 13.108 64.3862 18.076V18.772H53.5622V19.108C53.6822 21.652 55.3382 23.38 57.7862 23.38C59.7542 23.38 61.1462 22.444 61.4582 20.788H64.2422C63.7622 23.884 61.2902 25.684 57.8102 25.684ZM53.5622 16.612H61.6982C61.6502 14.02 60.1862 12.508 57.6182 12.508C55.2422 12.508 53.7302 14.164 53.5622 16.612Z" fill="#222222"/>
<path d="M50.1395 25.372H47.0675L42.6995 18.196H38.1395V25.372H35.3555V5.97998H42.9875C47.2355 5.97998 49.9475 8.37998 49.9475 11.98C49.9475 14.884 48.2675 17.044 45.5075 17.86L50.1395 25.372ZM42.7235 8.45198H38.1395V15.748H42.7235C45.5075 15.748 47.1395 14.284 47.1395 12.052C47.1395 9.86798 45.5315 8.45198 42.7235 8.45198Z" fill="#222222"/>
<path d="M4.99555 7.10449C3.03373 7.10449 1.44336 5.51412 1.44336 3.5523V3.5523C1.44336 1.59047 3.03373 0.000101497 4.99555 0.000101411L21.0511 0.000100709C23.013 0.000100623 24.6033 1.59047 24.6033 3.5523V3.5523C24.6033 5.51412 23.013 7.10449 21.0511 7.10449L4.99555 7.10449Z" fill="#D1D2D4"/>
<path d="M4.99555 20.4814C3.03373 20.4814 1.44336 18.8911 1.44336 16.9293V16.9293C1.44336 14.9674 3.03373 13.3771 4.99555 13.3771L21.0511 13.3771C23.013 13.3771 24.6033 14.9674 24.6033 16.9292V16.9292C24.6033 18.8911 23.013 20.4814 21.0511 20.4814L4.99555 20.4814Z" fill="#D1D2D4"/>
<path d="M1.44336 3.55268C1.44336 1.59086 3.03373 0.000488281 4.99555 0.000488281V0.000488281C6.95738 0.000488281 8.54775 1.59086 8.54775 3.55268V30.2698C8.54775 32.2316 6.95738 33.822 4.99555 33.822V33.822C3.03373 33.822 1.44336 32.2316 1.44336 30.2698V3.55268Z" fill="#5CC2CE"/>
<path d="M8.54785 20.4819H4.99609C3.03427 20.4819 1.44336 18.891 1.44336 16.9292C1.44347 14.9675 3.03434 13.3774 4.99609 13.3774H8.54785V20.4819Z" fill="#4BA2AC"/>
<path d="M17.499 3.55269C17.499 1.59086 19.0894 0.000488281 21.0512 0.000488281V0.000488281C23.013 0.000488281 24.6034 1.59086 24.6034 3.55268V16.9296C24.6034 18.8914 23.013 20.4818 21.0512 20.4818V20.4818C19.0894 20.4818 17.499 18.8914 17.499 16.9296V3.55269Z" fill="#CF3140"/>
<path d="M2.69574 19.5934C1.20692 18.3218 1.03081 16.0841 2.30238 14.5953V14.5953C3.57394 13.1065 5.81167 12.9304 7.30049 14.2019L23.083 27.6814C24.5718 28.953 24.7479 31.1907 23.4763 32.6795V32.6795C22.2048 34.1684 19.967 34.3445 18.4782 33.0729L2.69574 19.5934Z" fill="#CF3140"/>
<path d="M2.25586 14.5648C3.52996 13.0731 5.77194 12.8962 7.26367 14.1702L8.54785 15.2669V24.6097L2.64941 19.5726C1.9699 18.9921 1.56418 18.2107 1.44336 17.3909V16.348C1.53777 15.7105 1.80646 15.0909 2.25586 14.5648Z" fill="#4A2632"/>
<path d="M5.5918 13.3774C6.18977 13.4856 6.76828 13.7473 7.26367 14.1704L14.6533 20.4819H4.99609C4.24229 20.4819 3.54373 20.2457 2.96875 19.8452L2.64941 19.5728C2.41434 19.372 2.21219 19.1469 2.04297 18.9048C1.66435 18.34 1.44336 17.6603 1.44336 16.9292C1.44347 14.9675 3.03434 13.3774 4.99609 13.3774H5.5918Z" fill="#3D1F29"/>
<mask id="mask0_38_126" style="mask-type:alpha" maskUnits="userSpaceOnUse" x="8" y="13" width="7" height="8">
<path d="M8.54785 20.4819L8.54785 13.3775L14.6524 13.3775L14.6524 20.4819L8.54785 20.4819Z" fill="#D1D2D4"/>
</mask>
<g mask="url(#mask0_38_126)">
<path d="M5.5918 13.3774C6.18977 13.4856 6.76828 13.7473 7.26367 14.1704L14.6533 20.4819H4.99609C4.24229 20.4819 3.54373 20.2457 2.96875 19.8452L2.64941 19.5728C2.41434 19.372 2.21219 19.1469 2.04297 18.9048C1.66435 18.34 1.44336 17.6603 1.44336 16.9292C1.44347 14.9675 3.03434 13.3774 4.99609 13.3774H5.5918Z" fill="#AA2735"/>
</g>
<path d="M4.99611 0C6.9578 0.000175851 8.54789 1.59103 8.54789 3.55275V7.10453H4.99611C3.03436 7.10453 1.44348 5.51448 1.44336 3.55275C1.44336 2.81713 1.66686 2.13332 2.04981 1.56641C2.68816 0.621459 3.76992 0 4.99611 0Z" fill="#4CA0AB"/>
<path d="M21.0518 0C22.2778 0.000120207 23.3588 0.621627 23.9971 1.56641C24.3801 2.13334 24.6036 2.81709 24.6036 3.55275C24.6034 5.51435 23.0134 7.10432 21.0518 7.10453H17.499V3.55275C17.499 1.59092 19.0899 0 21.0518 0Z" fill="#A92634"/>
<path d="M21.0518 13.3774C23.0133 13.3777 24.6034 14.9676 24.6035 16.9292C24.6035 18.8296 23.1111 20.3818 21.2344 20.4771L21.0518 20.4819C19.0899 20.4819 17.499 18.891 17.499 16.9292V13.3774H21.0518Z" fill="#AA2735"/>
<path d="M5.84225 17.0066C5.84225 17.4743 5.46308 17.8535 4.99534 17.8535C4.52761 17.8535 4.14844 17.4743 4.14844 17.0066C4.14844 16.5388 4.52761 16.1597 4.99534 16.1597C5.46308 16.1597 5.84225 16.5388 5.84225 17.0066Z" fill="white"/>
<path d="M5.84225 30.7004C5.84225 31.1682 5.46308 31.5473 4.99534 31.5473C4.52761 31.5473 4.14844 31.1682 4.14844 30.7004C4.14844 30.2327 4.52761 29.8535 4.99534 29.8535C5.46308 29.8535 5.84225 30.2327 5.84225 30.7004Z" fill="white"/>
<path d="M21.8979 30.7004C21.8979 31.1682 21.5187 31.5473 21.051 31.5473C20.5833 31.5473 20.2041 31.1682 20.2041 30.7004C20.2041 30.2327 20.5833 29.8535 21.051 29.8535C21.5187 29.8535 21.8979 30.2327 21.8979 30.7004Z" fill="white"/>
<path d="M5.84225 3.55247C5.84225 4.02021 5.46308 4.39938 4.99534 4.39938C4.52761 4.39938 4.14844 4.02021 4.14844 3.55247C4.14844 3.08474 4.52761 2.70557 4.99534 2.70557C5.46308 2.70557 5.84225 3.08474 5.84225 3.55247Z" fill="white"/>
<path d="M21.8979 3.55247C21.8979 4.02021 21.5187 4.39938 21.051 4.39938C20.5833 4.39938 20.2041 4.02021 20.2041 3.55247C20.2041 3.08474 20.5833 2.70557 21.051 2.70557C21.5187 2.70557 21.8979 3.08474 21.8979 3.55247Z" fill="white"/>
<path d="M21.8979 17.0066C21.8979 17.4743 21.5187 17.8535 21.051 17.8535C20.5833 17.8535 20.2041 17.4743 20.2041 17.0066C20.2041 16.5388 20.5833 16.1597 21.051 16.1597C21.5187 16.1597 21.8979 16.5388 21.8979 17.0066Z" fill="white"/>
<path d="M4.80469 3.58252H5.18622V30.6618H4.80469V3.58252Z" fill="white"/>
<path d="M20.876 3.58252H21.2575V17.1975H20.876V3.58252Z" fill="white"/>
<path d="M4.80469 3.36182H21.066V3.74335H4.80469V3.36182Z" fill="white"/>
<path d="M4.80469 16.8159H21.066V17.1974H4.80469V16.8159Z" fill="white"/>
<path d="M5.07812 16.9072L21.5046 30.9368L21.2569 31.2269L4.83034 17.1973L5.07812 16.9072Z" fill="white"/>
</svg>
