<svg width="12" height="13" viewBox="0 0 12 13" fill="none" xmlns="http://www.w3.org/2000/svg">
<path d="M11.8104 2.53157L5.34443 9.00316L2.94166 6.6004L3.74069 5.80136L5.34443 7.4051L11.0113 1.7382L11.8104 2.53157ZM10.558 5.38768C10.6316 5.71069 10.677 6.05071 10.677 6.39639C10.677 8.90116 8.64823 10.9299 6.14346 10.9299C3.63869 10.9299 1.60994 8.90116 1.60994 6.39639C1.60994 3.89162 3.63869 1.86287 6.14346 1.86287C7.03883 1.86287 7.8662 2.12355 8.56889 2.57123L9.38492 1.7552C8.46689 1.10917 7.35051 0.729492 6.14346 0.729492C3.01533 0.729492 0.476562 3.26826 0.476562 6.39639C0.476562 9.52452 3.01533 12.0633 6.14346 12.0633C9.27159 12.0633 11.8104 9.52452 11.8104 6.39639C11.8104 5.72203 11.6857 5.076 11.4703 4.47531L10.558 5.38768Z" fill="white"/>
</svg>
