<svg width="159" height="37" viewBox="0 0 159 37" fill="none" xmlns="http://www.w3.org/2000/svg">
<path d="M152.081 26.4645C148.457 26.4645 145.961 24.5925 145.601 21.6165H148.409C148.601 23.1525 150.089 24.2085 152.057 24.2085C154.169 24.2085 155.417 23.3685 155.417 22.0005C155.417 20.7525 154.577 20.2725 152.105 19.7445L150.665 19.4565C147.545 18.7845 146.057 17.3685 146.057 15.2565C146.057 12.6885 148.385 10.9365 151.769 10.9365C155.225 10.9365 157.625 12.7125 157.817 15.3765H155.033C154.865 13.9365 153.737 13.1925 151.793 13.1925C149.897 13.1925 148.745 13.9125 148.745 15.1605C148.745 16.3365 149.657 16.9605 151.769 17.3925L153.665 17.8005C156.617 18.4005 158.105 19.6485 158.105 21.9045C158.105 24.6645 155.753 26.4645 152.081 26.4645Z" fill="white"/>
<path d="M137.863 18.5686L145.783 26.0806H142.327L135.703 19.7686V26.0806H132.967V6.16064H135.703V17.3446L141.823 11.3446H145.183L137.863 18.5686Z" fill="white"/>
<path d="M125.034 26.3925C120.858 26.3925 118.146 23.3925 118.146 18.7365C118.146 14.0325 120.882 10.9365 125.034 10.9365C128.778 10.9365 131.154 13.0965 131.394 16.5285H128.538C128.322 14.5845 126.93 13.3365 125.058 13.3365C122.466 13.3365 120.858 15.3765 120.858 18.6645C120.858 21.9765 122.466 24.0165 125.058 24.0165C127.098 24.0165 128.394 22.7685 128.634 20.8485H131.466C131.25 24.1365 128.754 26.3925 125.034 26.3925Z" fill="white"/>
<path d="M116.661 8.87272H113.733V6.13672H116.661V8.87272ZM116.541 26.0807H113.853V11.3447H116.541V26.0807Z" fill="white"/>
<path d="M106.07 26.0803H103.358V11.3443H105.998V14.0803C107.294 11.8243 109.814 10.6243 112.742 11.0083V13.5763C112.358 13.4323 111.758 13.3123 110.918 13.5043C108.11 13.6483 106.07 15.9523 106.07 19.3843V26.0803Z" fill="white"/>
<path d="M98.1276 16.1685C100.216 16.6725 101.752 18.3525 101.752 20.7525C101.752 24.0645 99.1836 26.1045 94.6716 26.1045H86.5596V6.68848H94.5276C98.6316 6.68848 101.008 8.60848 101.008 11.8725C101.008 13.9365 99.8316 15.5205 98.1276 16.1685ZM93.9036 9.13648H89.3436V15.1365H93.9036C96.5196 15.1365 98.1996 14.1285 98.1996 12.0405C98.1996 10.0725 96.8316 9.13648 93.9036 9.13648ZM89.3436 23.6565H94.5276C97.4076 23.6565 98.9436 22.6005 98.9436 20.6565C98.9436 18.5445 97.4076 17.4405 94.5276 17.4405H89.3436V23.6565Z" fill="white"/>
<path d="M72.1718 26.3206C68.3558 26.3206 65.7158 23.1046 65.7158 18.6406C65.7158 14.0326 68.3078 10.9366 72.3398 10.9366C74.4758 10.9366 76.1558 11.8246 77.2598 13.3606V6.16064H79.8998V26.0806H77.3798L77.2118 23.9206C76.1078 25.4326 74.2838 26.3206 72.1718 26.3206ZM72.6998 24.0166C75.3638 24.0166 77.1878 21.8086 77.1878 18.5926C77.1878 15.4486 75.3638 13.2166 72.7238 13.2166C70.0838 13.2166 68.4038 15.3046 68.4278 18.6166C68.4758 21.9286 70.1318 24.0166 72.6998 24.0166Z" fill="white"/>
<path d="M58.2203 26.3925C53.9003 26.3925 51.2363 23.4645 51.2363 18.8325C51.2363 13.9605 53.8043 10.9365 57.9803 10.9365C62.3243 10.9365 64.7963 13.8165 64.7963 18.7845V19.4805H53.9723V19.8165C54.0923 22.3605 55.7483 24.0885 58.1963 24.0885C60.1643 24.0885 61.5563 23.1525 61.8683 21.4965H64.6523C64.1723 24.5925 61.7003 26.3925 58.2203 26.3925ZM53.9723 17.3205H62.1083C62.0603 14.7285 60.5963 13.2165 58.0283 13.2165C55.6523 13.2165 54.1403 14.8725 53.9723 17.3205Z" fill="white"/>
<path d="M50.5496 26.0805H47.4776L43.1096 18.9045H38.5496V26.0805H35.7656V6.68848H43.3976C47.6456 6.68848 50.3576 9.08848 50.3576 12.6885C50.3576 15.5925 48.6776 17.7525 45.9176 18.5685L50.5496 26.0805ZM43.1336 9.16048H38.5496V16.4565H43.1336C45.9176 16.4565 47.5496 14.9925 47.5496 12.7605C47.5496 10.5765 45.9416 9.16048 43.1336 9.16048Z" fill="white"/>
<path d="M5.40571 7.81299C3.44389 7.81299 1.85352 6.22262 1.85352 4.26079V4.26079C1.85352 2.29897 3.44389 0.708598 5.40571 0.708598L21.4613 0.708597C23.4231 0.708597 25.0135 2.29897 25.0135 4.26079V4.26079C25.0135 6.22261 23.4231 7.81299 21.4613 7.81299L5.40571 7.81299Z" fill="#D1D2D4"/>
<path d="M5.40571 21.1899C3.44389 21.1899 1.85352 19.5996 1.85352 17.6377V17.6377C1.85352 15.6759 3.44389 14.0856 5.40571 14.0856L21.4613 14.0855C23.4231 14.0855 25.0135 15.6759 25.0135 17.6377V17.6377C25.0135 19.5996 23.4231 21.1899 21.4613 21.1899L5.40571 21.1899Z" fill="#D1D2D4"/>
<path d="M1.85352 4.26118C1.85352 2.29936 3.44389 0.708984 5.40571 0.708984V0.708984C7.36753 0.708984 8.95791 2.29936 8.95791 4.26118V30.9783C8.95791 32.9401 7.36753 34.5305 5.40571 34.5305V34.5305C3.44389 34.5305 1.85352 32.9401 1.85352 30.9783V4.26118Z" fill="#5CC2CE"/>
<path d="M8.95801 21.1904H5.40625C3.44443 21.1904 1.85352 19.5995 1.85352 17.6377C1.85363 15.676 3.4445 14.0859 5.40625 14.0859H8.95801V21.1904Z" fill="#4BA2AC"/>
<path d="M17.9092 4.26118C17.9092 2.29936 19.4996 0.708984 21.4614 0.708984V0.708984C23.4232 0.708984 25.0136 2.29936 25.0136 4.26118V17.6381C25.0136 19.5999 23.4232 21.1903 21.4614 21.1903V21.1903C19.4996 21.1903 17.9092 19.5999 17.9092 17.6381V4.26118Z" fill="#CF3140"/>
<path d="M3.10589 20.3019C1.61708 19.0303 1.44096 16.7926 2.71253 15.3038V15.3038C3.9841 13.815 6.22183 13.6389 7.71064 14.9104L23.4931 28.3899C24.9819 29.6615 25.158 31.8992 23.8865 33.388V33.388C22.6149 34.8768 20.3772 35.053 18.8884 33.7814L3.10589 20.3019Z" fill="#CF3140"/>
<path d="M2.66602 15.2732C3.94012 13.7816 6.1821 13.6047 7.67383 14.8787L8.95801 15.9754V25.3182L3.05957 20.2811C2.38006 19.7006 1.97434 18.9192 1.85352 18.0994V17.0565C1.94792 16.419 2.21662 15.7994 2.66602 15.2732Z" fill="#4A2632"/>
<path d="M6.00195 14.0859C6.59992 14.1941 7.17843 14.4558 7.67383 14.8789L15.0635 21.1904H5.40625C4.65244 21.1904 3.95388 20.9542 3.37891 20.5537L3.05957 20.2812C2.8245 20.0805 2.62234 19.8554 2.45312 19.6133C2.07451 19.0485 1.85352 18.3688 1.85352 17.6377C1.85363 15.676 3.4445 14.0859 5.40625 14.0859H6.00195Z" fill="#3D1F29"/>
<mask id="mask0_38_86" style="mask-type:alpha" maskUnits="userSpaceOnUse" x="8" y="14" width="8" height="8">
<path d="M8.95801 21.1904L8.95801 14.086L15.0625 14.086L15.0625 21.1904L8.95801 21.1904Z" fill="#D1D2D4"/>
</mask>
<g mask="url(#mask0_38_86)">
<path d="M6.00195 14.0859C6.59992 14.1941 7.17843 14.4558 7.67383 14.8789L15.0635 21.1904H5.40625C4.65244 21.1904 3.95388 20.9542 3.37891 20.5537L3.05957 20.2812C2.8245 20.0805 2.62234 19.8554 2.45312 19.6133C2.07451 19.0485 1.85352 18.3688 1.85352 17.6377C1.85363 15.676 3.4445 14.0859 5.40625 14.0859H6.00195Z" fill="#AA2735"/>
</g>
<path d="M5.40627 0.708496C7.36795 0.708672 8.95805 2.29952 8.95805 4.26125V7.81303H5.40627C3.44451 7.81303 1.85364 6.22298 1.85352 4.26125C1.85352 3.52563 2.07701 2.84182 2.45996 2.27491C3.09831 1.32995 4.18008 0.708496 5.40627 0.708496Z" fill="#4CA0AB"/>
<path d="M21.4619 0.708496C22.6879 0.708616 23.769 1.33012 24.4073 2.27491C24.7903 2.84184 25.0137 3.52559 25.0137 4.26125C25.0136 6.22285 23.4235 7.81282 21.4619 7.81303H17.9092V4.26125C17.9092 2.29942 19.5001 0.708496 21.4619 0.708496Z" fill="#A92634"/>
<path d="M21.4619 14.0859C23.4235 14.0861 25.0136 15.6761 25.0137 17.6377C25.0137 19.5381 23.5213 21.0903 21.6445 21.1855L21.4619 21.1904C19.5001 21.1904 17.9092 19.5995 17.9092 17.6377V14.0859H21.4619Z" fill="#AA2735"/>
<path d="M6.25241 17.7151C6.25241 18.1828 5.87323 18.562 5.4055 18.562C4.93777 18.562 4.55859 18.1828 4.55859 17.7151C4.55859 17.2473 4.93777 16.8682 5.4055 16.8682C5.87323 16.8682 6.25241 17.2473 6.25241 17.7151Z" fill="white"/>
<path d="M6.25241 31.4089C6.25241 31.8767 5.87323 32.2558 5.4055 32.2558C4.93777 32.2558 4.55859 31.8767 4.55859 31.4089C4.55859 30.9412 4.93777 30.562 5.4055 30.562C5.87323 30.562 6.25241 30.9412 6.25241 31.4089Z" fill="white"/>
<path d="M22.3081 31.4089C22.3081 31.8767 21.9289 32.2558 21.4612 32.2558C20.9934 32.2558 20.6143 31.8767 20.6143 31.4089C20.6143 30.9412 20.9934 30.562 21.4612 30.562C21.9289 30.562 22.3081 30.9412 22.3081 31.4089Z" fill="white"/>
<path d="M6.25241 4.26097C6.25241 4.7287 5.87323 5.10788 5.4055 5.10788C4.93777 5.10788 4.55859 4.7287 4.55859 4.26097C4.55859 3.79324 4.93777 3.41406 5.4055 3.41406C5.87323 3.41406 6.25241 3.79324 6.25241 4.26097Z" fill="white"/>
<path d="M22.3081 4.26097C22.3081 4.7287 21.9289 5.10788 21.4612 5.10788C20.9934 5.10788 20.6143 4.7287 20.6143 4.26097C20.6143 3.79324 20.9934 3.41406 21.4612 3.41406C21.9289 3.41406 22.3081 3.79324 22.3081 4.26097Z" fill="white"/>
<path d="M22.3081 17.7151C22.3081 18.1828 21.9289 18.562 21.4612 18.562C20.9934 18.562 20.6143 18.1828 20.6143 17.7151C20.6143 17.2473 20.9934 16.8682 21.4612 16.8682C21.9289 16.8682 22.3081 17.2473 22.3081 17.7151Z" fill="white"/>
<path d="M5.21484 4.29102H5.59638V31.3703H5.21484V4.29102Z" fill="white"/>
<path d="M21.2861 4.29102H21.6677V17.906H21.2861V4.29102Z" fill="white"/>
<path d="M5.21484 4.07031H21.4761V4.45184H5.21484V4.07031Z" fill="white"/>
<path d="M5.21484 17.5244H21.4761V17.9059H5.21484V17.5244Z" fill="white"/>
<path d="M5.48828 17.6157L21.9148 31.6453L21.667 31.9354L5.2405 17.9058L5.48828 17.6157Z" fill="white"/>
</svg>
